<?xml version="1.0" encoding="utf-8"?>
<!-- Generator: Adobe Illustrator 16.0.4, SVG Export Plug-In . SVG Version: 6.00 Build 0)  -->
<!DOCTYPE svg PUBLIC "-//W3C//DTD SVG 1.1//EN" "http://www.w3.org/Graphics/SVG/1.1/DTD/svg11.dtd">
<svg version="1.1" id="Layer_1" xmlns="http://www.w3.org/2000/svg" xmlns:xlink="http://www.w3.org/1999/xlink" x="0px" y="0px"
	 width="512px" height="512px" viewBox="0 0 512 512" enable-background="new 0 0 512 512" xml:space="preserve">
<path d="M228.457,34.462c33.355,14.439,51.657,48.293,50.415,80.406c-2.183,56.284-60.125,70.2-71.079,85.386
	c-5.13,7.112-7.273,8.485-6.222,18.67c2.487,24.145,97.435,53.48,97.47,117.994c0.043,88.87-99.233,112.424-154.976,111.024
	C84.57,446.449-1.001,431.02-0.076,359.071c1.245-96.836,148.371-91.61,163.061-91.358c0.247-17.676-15.933-19.169-16.68-27.634
	c-0.457-5.208,0.001-11.446,0.001-27.129C80.93,213.488,28.49,187.147,25.812,124.079c-3.361-79.16,83.901-111.428,135.43-111.272
	c20.909,0.062,137.792,0,137.792,0C296.792,32.782,233.497,24.568,228.457,34.462z M157.883,285.017
	c-51.531,0-95.22,31.74-95.22,67.96c0,48.915,63.164,68.473,95.22,64.601c33.98-4.108,86.256-21.25,86.256-70.574
	C244.14,309.661,198.208,285.017,157.883,285.017z M128.01,37.077c-29.127,8.588-42.943,53.771-30.992,92.605
	c11.947,38.833,44.234,65.476,74.679,56.383c28.752-8.587,47.149-58.325,27.633-101.191C178.42,38.944,149.984,30.598,128.01,37.077
	z"/>
<g>
	<polygon points="511.246,96.803 434.359,96.803 434.359,13.916 394.967,13.916 394.967,96.803 316.079,96.803 316.079,126.196 
		394.967,126.196 394.967,209.082 434.359,209.082 434.359,126.196 511.246,126.196 	"/>
</g>
</svg>
