<?xml version="1.0" encoding="utf-8"?>
<!-- Generator: Adobe Illustrator 16.0.4, SVG Export Plug-In . SVG Version: 6.00 Build 0)  -->
<!DOCTYPE svg PUBLIC "-//W3C//DTD SVG 1.1//EN" "http://www.w3.org/Graphics/SVG/1.1/DTD/svg11.dtd">
<svg version="1.1" id="Layer_1" xmlns="http://www.w3.org/2000/svg" xmlns:xlink="http://www.w3.org/1999/xlink" x="0px" y="0px"
	 width="512px" height="512px" viewBox="0 0 512 512" enable-background="new 0 0 512 512" xml:space="preserve">
<g id="Lozenge">
	<g>
		<path d="M478.477,175.195c0,0-4.426-31.216-18.008-44.964c-17.227-18.042-36.535-18.132-45.39-19.188
			c-63.391-4.582-158.48-4.582-158.48-4.582h-0.197c0,0-95.087,0-158.48,4.582c-8.855,1.056-28.157,1.146-45.389,19.188
			c-13.582,13.748-18.002,44.964-18.002,44.964S30,211.854,30,248.513v34.366c0,36.659,4.53,73.316,4.53,73.316
			s4.42,31.217,18.002,44.964c17.232,18.043,39.868,17.473,49.95,19.363c36.24,3.476,154.018,4.551,154.018,4.551
			s95.188-0.144,158.579-4.726c8.854-1.057,28.163-1.146,45.39-19.188c13.582-13.747,18.008-44.964,18.008-44.964
			S483,319.538,483,282.879v-34.366C483,211.854,478.477,175.195,478.477,175.195z M209.733,324.525l-0.021-127.28l122.402,63.862
			L209.733,324.525z"/>
	</g>
</g>
</svg>
