<?xml version="1.0" standalone="no"?>
<!DOCTYPE svg PUBLIC "-//W3C//DTD SVG 1.1//EN" "http://www.w3.org/Graphics/SVG/1.1/DTD/svg11.dtd" >
<!--
2014-11-21: Created.
-->
<svg xmlns="http://www.w3.org/2000/svg">
<metadata>
Created by FontForge 20120731 at Fri Nov 21 11:02:44 2014
 By Meghan Palagyi
Created by Meghan Palagyi with FontForge 2.0 (http://fontforge.sf.net)
</metadata>
<defs>
<font id="icons" horiz-adv-x="512" >
  <font-face 
    font-family="icons"
    font-weight="500"
    font-stretch="normal"
    units-per-em="512"
    panose-1="2 0 6 3 0 0 0 0 0 0"
    ascent="448"
    descent="-64"
    bbox="-0.0836051 -5.30371 512 448.551"
    underline-thickness="25.6"
    underline-position="-51.2"
    unicode-range="U+F100-F128"
  />
    <missing-glyph />
    <glyph glyph-name="uniF107" unicode="&#xf107;" 
d="M126.247 33.9531h-0.000976562v0.0625c0 9.09082 3.38867 17.041 10.167 23.7871l153.039 166.214l-153.039 166.214c-6.81055 6.77734 -10.167 14.7275 -10.167 23.8164c0.0322266 9.08984 3.23047 17.0391 9.62891 23.7861
c6.39844 6.77832 14.3467 10.167 23.8164 10.167c9.4707 0 17.2305 -3.38867 23.3105 -10.167l186.486 -189.524c6.77637 -6.74512 10.166 -14.8535 10.166 -24.3232c0 -9.4707 -3.38965 -17.2295 -10.166 -23.3115l-186.485 -190.539
c-6.08105 -6.77734 -13.8721 -10.166 -23.3105 -10.1348c-9.43848 0 -17.3887 3.38867 -23.8164 10.1348c-6.39941 6.74609 -9.62891 14.6973 -9.62891 23.8184z" />
    <glyph glyph-name="uniF10B" unicode="&#xf10b;" 
d="M494.626 168.019l0.0273438 0.0185547c0.329102 -5.82422 5.13477 -19.333 7.54688 -26.0811c6.04102 -17.0156 10.0166 -28.2568 4.56738 -39.4336c-2.1582 -4.44727 -5.55469 -7.98438 -9.78125 -10.2695c-4.44531 -2.66113 -9.50293 -3.83594 -15.9531 -3.83594
c-10.5186 0 -24.8115 3.14648 -46.3975 8.125c-12.1475 2.80176 -30.3223 7.01367 -36.3018 7.01367c-2.58398 -0.767578 -9.34668 -3.11523 -14.4189 -4.88477c-6.76172 -2.34766 -12.2109 -4.22559 -16.75 -5.69824c1.76855 -9.32812 6.87207 -23.6836 9.6748 -31.5898
c7.3418 -20.6328 12.21 -34.2676 6.26172 -46.4307c-2.30078 -4.72754 -5.94727 -8.4375 -10.4883 -10.7715c-6.13574 -3.53418 -12.7725 -4.00586 -17.4385 -4.00586c-13.8545 0 -35.7402 5.05762 -58.8906 10.3945c-17.9395 4.13379 -40.2471 9.2832 -49.2168 9.2832
c-0.28125 0 -0.484375 -0.015625 -0.609375 -0.015625c-16.6729 -3.75781 -33.9707 -5.66699 -51.4092 -5.66699c-50.8301 0 -98.8252 15.998 -135.112 45.0225c-37.6943 30.1338 -58.4365 70.6133 -58.4365 113.992c0 43.3623 20.7422 83.8594 58.4385 113.995
c36.2861 29.0381 84.2812 45.0215 135.111 45.0215c21.1807 0 41.875 -2.78711 61.4277 -8.14062c13.1016 8.5166 29.5703 14.6836 42.4385 18.6289c21.1641 6.52734 42.7354 10.2686 59.2021 10.2686c40.1064 0 77.9912 -12.6484 106.701 -35.5967
c30.1025 -24.0762 46.6807 -56.4971 46.6807 -91.2959c0 -20.2256 -5.82422 -40.2334 -16.874 -58.0469zM305.771 51.6924h-0.00195312v-0.0166016c10.3965 -2.41211 22.2773 -5.13477 32.1865 -7.0293c-0.3125 0.894531 -0.612305 1.73926 -0.908203 2.55273
c-9.50293 26.7529 -19.3486 54.4131 -6.66895 73.8564c10.6143 16.2939 16 33.8135 16 52.0977c0 64.4004 -67.877 116.812 -151.33 116.812c-83.4365 0 -151.33 -52.3945 -151.33 -116.812c0 -64.3877 67.877 -116.766 151.33 -116.766
c14.4482 0 28.7725 1.58105 42.5322 4.71191c2.81934 0.643555 5.91699 0.970703 9.48633 0.970703c13.7754 0 35.5977 -5.05664 58.7041 -10.3779zM460.201 134.063h-0.0166016c-6.60547 18.9893 -12.3359 39.4492 -2.39355 54.7285
c7.62207 11.6611 11.4727 24.2158 11.4727 37.2715c0 46.6963 -49.874 84.6582 -111.158 84.6582c-13.4004 0 -32.1719 -3.77148 -48.7949 -9.06348c7.29492 -4.36816 14.2617 -9.22168 20.8516 -14.4805c37.6631 -30.1357 58.4209 -70.6328 58.4209 -113.995
c0 -9.9082 -1.12695 -19.8037 -3.35059 -29.4932c1.76953 0.53418 3.19434 0.94043 4.39941 1.22266c11.1611 2.52051 27.1748 -0.922852 54.4922 -7.2334c4.60156 -1.06348 10.3936 -2.39355 16.0771 -3.61523z" />
    <glyph glyph-name="uniF102" unicode="&#xf102;" 
d="M479.152 416.237l0.359375 -239.179c0.0283203 -17.3662 -14.0303 -31.4668 -31.3984 -31.4932h-0.0478516c-17.3457 0 -31.418 14.0479 -31.4434 31.3975l-0.246094 163.426l-174.104 -174.102c-6.14062 -6.13867 -14.1875 -9.21094 -22.2354 -9.21094
s-16.0947 3.07227 -22.2354 9.21094c-12.2822 12.2793 -12.2822 32.1895 0 44.4697l174.102 174.103l-163.431 0.25c-17.3652 0.0263672 -31.4238 14.126 -31.3955 31.4922c0.0244141 17.3506 14.0996 31.3984 31.4443 31.3984h0.0488281l239.184 -0.365234
c17.3291 -0.0253906 31.3711 -14.0674 31.3984 -31.3975zM220.037 52.3047c14.4717 0 26.2051 -11.7314 26.2051 -26.2051c0 -14.4727 -11.7334 -26.2051 -26.2051 -26.2051h-160.344c-14.4736 0 -26.2051 11.7324 -26.2051 26.2051v155.232
c0 14.4727 11.7314 26.2051 26.2051 26.2051c14.4717 0 26.2041 -11.7334 26.2041 -26.2051v-129.027h134.14z" />
    <glyph glyph-name="uniF128" unicode="&#xf128;" 
d="M364.464 279.333c37.5537 0 68.1064 -28.8906 68.1074 -64.4014v-150.529c0 -35.5127 -30.5527 -64.4023 -68.1064 -64.4023h-215.925c-37.5547 0 -68.1094 28.8887 -68.1094 64.4023v150.529c0 35.5107 30.5547 64.4014 68.1094 64.4014h1.62695v70.8213
c0 53.168 46.1045 96.4238 102.776 96.4238h7.11426c56.6709 0 102.78 -43.2568 102.78 -96.4238v-70.8213h1.62598zM189.304 350.154v-70.8213h134.396v70.8213c0 31.5859 -28.5508 57.2852 -63.6416 57.2852h-7.11426c-35.0918 0 -63.6396 -25.6992 -63.6396 -57.2852z
M393.433 64.4023v150.529c0 13.9297 -12.9941 25.2627 -28.9688 25.2627h-215.925c-15.9736 0 -28.9697 -11.333 -28.9697 -25.2627v-150.529c0 -13.9326 12.9961 -25.2637 28.9697 -25.2637h215.925c15.9746 0 28.9688 11.3311 28.9688 25.2637z" />
    <glyph glyph-name="uniF121" unicode="&#xf121;" 
d="M1.01855 41.5293l-0.0166016 0.015625c8.09375 -1.15625 16.3877 -1.7334 24.8799 -1.7334c48.5498 0 91.9131 15.0332 130.074 45.0996c-22.749 0.37793 -43.0752 7.31738 -60.999 20.8145c-17.9238 13.4951 -30.1562 30.8438 -36.6973 52.0557
c6.16113 -1.15723 12.7207 -1.73438 19.6582 -1.73438c9.25098 0 18.3213 1.15625 27.1748 3.46777c-23.8857 4.64355 -43.834 16.5879 -59.8418 35.8486c-15.9912 19.2783 -23.9951 41.6299 -23.9951 67.0693v1.1748c14.6719 -8.47461 30.4639 -12.9189 47.4297 -13.2988
c-14.2568 9.63086 -25.5303 22.1514 -33.8232 37.5645c-8.29395 15.4297 -12.4326 32.0176 -12.4326 49.7422c0 18.8818 4.62695 36.4268 13.877 52.6338c26.2178 -32.3789 58.0176 -58.2158 95.4004 -77.4951c37.3848 -19.2793 77.46 -29.8848 120.264 -31.8193
c-1.53516 7.33496 -2.31152 15.2148 -2.31152 23.7061c0 28.9092 10.208 53.5918 30.625 74.0088c20.4365 20.4355 45.0996 30.6436 74.0088 30.6436c30.0654 0 55.5068 -10.9854 76.3213 -32.9561c23.5254 4.625 45.6758 13.1172 66.5088 25.4404
c-8.09277 -25.043 -23.5059 -44.3223 -46.2539 -57.8193c20.7959 2.31152 40.8535 7.69629 60.1318 16.1885c-13.8779 -21.1934 -31.2422 -39.3174 -52.0557 -54.3496c0.396484 -4.24609 0.578125 -8.67188 0.578125 -13.2979
c0 -28.1504 -4.15625 -56.1924 -12.4316 -84.126c-8.29297 -27.9697 -20.8145 -54.7461 -37.583 -80.3857c-16.7676 -25.6406 -36.7148 -48.3711 -59.8418 -68.2451c-23.1279 -19.8398 -50.9707 -35.668 -83.5488 -47.4102
c-32.5771 -11.7451 -67.5576 -17.6357 -104.941 -17.6357c-57.8174 0 -111.192 15.6094 -160.158 46.833z" />
    <glyph glyph-name="uniF114" unicode="&#xf114;" 
d="M29.3623 399.22c0 14.0176 4.81348 25.667 14.459 34.9658c9.62891 9.26855 22.1494 13.917 37.5781 13.917c15.0674 0 27.2598 -4.55078 36.5596 -13.6699c9.26758 -9.11914 14.0977 -20.8672 14.4434 -35.2461c0 -13.6699 -4.81348 -25.1387 -14.4434 -34.4395
c-9.64453 -9.28418 -22.3457 -13.9355 -38.1357 -13.9355c-15.0674 0 -27.2598 4.65039 -36.543 13.9355c-9.28516 9.30078 -13.9355 20.7695 -13.9355 34.4395zM31.9902 0.135742v312.343h97.2725v-312.343h-97.2725zM184.473 312.462h84.6562l4.20508 -43.1318h2.10449
c8.06738 12.9639 20.2432 24.5312 36.543 34.7188c16.3008 10.1709 36.1963 15.249 59.6797 15.249c33.6494 0 60.7285 -11.4043 81.2363 -34.1777c20.5059 -22.791 30.7578 -56.2607 30.7578 -100.427v-184.572h-97.2715v172.987
c0 45.2188 -16.3008 67.8281 -48.8994 67.8281c-12.6191 0 -23.1357 -3.5 -31.5498 -10.5146c-8.41113 -7.0166 -14.541 -15.5938 -18.4033 -25.7656c-2.10449 -5.25684 -3.15234 -13.3252 -3.15234 -24.2031v-180.351h-97.2734v212.95
c0 28.7559 -0.871094 61.8789 -2.63086 99.376v0.0332031h-0.00195312z" />
    <glyph glyph-name="uniF10A" unicode="&#xf10a;" 
d="M3.25488 33.9746v381.153c0.0205078 9.39941 3.25488 17.333 9.66113 23.7607c6.4082 6.44922 14.3418 9.66211 23.7627 9.66211h439.645c9.43848 -0.0205078 17.3545 -3.2334 23.7832 -9.66211c6.42773 -6.40625 9.64062 -14.3408 9.64062 -23.7607v-381.153
c0 -9.01855 -3.21289 -16.834 -9.64062 -23.4629c-6.4082 -6.64844 -14.3447 -9.96094 -23.7832 -9.96094h-439.644c-9.40039 -0.0175781 -17.335 3.29395 -23.7627 9.96094c-6.44824 6.62891 -9.66211 14.4639 -9.66211 23.4629zM20.6104 33.9746
c0 -4.29785 1.48535 -8.03418 4.5 -11.25c3.01172 -3.21484 6.86719 -4.81934 11.5684 -4.81934h223.679c31.2949 0 60.3184 2.77148 87.0938 8.35449c26.7949 5.56348 51.2988 14.3398 73.5957 26.3545c22.2949 11.9912 39.7314 28.4814 52.3848 49.4697
c12.6543 20.9932 18.959 45.6357 18.959 73.9385v145.263h-471.78v-287.311zM127.95 172.166l-0.0224609 -0.0185547c0 13.7178 3.21387 24.9648 9.64355 33.7627c6.44629 8.77832 14.8027 13.1768 25.0869 13.1768c4.69922 0 8.77539 -0.864258 12.2119 -2.57129
c3.41504 -1.72656 6.62891 -4.29785 9.6416 -7.71191v43.0645h21.21v-112.484c0.421875 -3.85645 0.643555 -7.93262 0.643555 -12.2109h-16.0693l-2.57031 9.6416c-3.0127 -3.85645 -6.54785 -6.74805 -10.6045 -8.67578
c-4.09766 -1.92871 -8.69727 -2.91309 -13.8389 -2.91309c-10.2852 0 -18.7422 4.40039 -25.3701 13.1963c-6.64844 8.77832 -9.96191 20.0459 -9.96191 33.7441zM149.804 171.844h0.000976562v-0.0371094c0 -9.19727 1.72656 -16.2676 5.14258 -21.1895
c3.43359 -4.91992 8.15332 -7.39355 14.1611 -7.39355c2.59082 0 5.16113 0.541992 7.71289 1.60645c2.54883 1.06445 5.12012 3.11523 7.71191 6.1084v43.083c-2.99219 2.57031 -5.68457 4.37891 -8.05469 5.46387c-2.35059 1.06348 -5.02148 1.60645 -8.03418 1.60645
c-5.56445 0 -10.0645 -2.57227 -13.498 -7.71387c-3.41504 -5.14258 -5.14258 -12.334 -5.14258 -21.5342zM222.435 149.67l0.0390625 -0.0214844c0 9.86035 4.05762 17.6758 12.2119 23.4609c8.13477 5.7832 20.9912 9.74023 38.5674 11.8906v7.06934
c0 3.43457 -1.08594 6.00586 -3.21484 7.71387c-2.12891 1.70703 -5.26074 2.57031 -9.32031 2.57031c-4.07715 0 -7.83301 -0.863281 -11.249 -2.57031c-3.43359 -1.70801 -6.22559 -4.2793 -8.35449 -7.71387l-14.7842 9.01953
c3.8584 5.98633 8.67773 10.4844 14.4629 13.498c5.76465 2.99219 12.5127 4.49902 20.2471 4.49902c10.2842 0 18.3193 -2.37012 24.1035 -7.07031c5.7832 -4.74023 8.67676 -11.3682 8.67676 -19.9453v-52.7061c-0.0195312 -1.74707 0.202148 -3.55469 0.642578 -5.4834
c0.423828 -1.9082 0.84375 -4.15625 1.28516 -6.74707h-20.5664l-1.92773 7.71191c-4.2998 -2.99414 -8.57812 -5.24219 -12.8545 -6.74902c-4.30078 -1.48633 -9.02051 -2.22852 -14.1621 -2.22852c-7.29102 0 -13.0762 2.14844 -17.3545 6.44824
c-4.29785 4.27734 -6.44824 10.0625 -6.44824 17.3535zM243.003 151.598c0 -3.01172 0.864258 -5.36328 2.57129 -7.07031c1.72754 -1.72559 4.07715 -2.57129 7.06934 -2.57129c3.43555 0 6.87012 0.744141 10.2861 2.25098
c3.43359 1.4873 6.66797 3.93555 9.66016 7.37109v19.3037c-10.2842 -1.28613 -17.7764 -3.53613 -22.5166 -6.75c-4.69922 -3.21484 -7.07031 -7.39062 -7.07031 -12.5342zM305.994 217.159h0.0195312h21.1895l19.9453 -59.1328l17.998 59.1328h21.1885l-28.2812 -85.4873
c-5.54102 -16.2686 -10.8047 -26.5527 -15.7461 -30.8506c-4.94141 -4.2998 -11.8906 -6.44824 -20.8887 -6.44824c-1.72754 0 -3.33594 0.0996094 -4.82227 0.341797c-1.48535 0.201172 -3.09082 0.522461 -4.81934 0.964844v17.3545
c1.72754 0 3.33398 -0.121094 4.81934 -0.322266c1.4873 -0.240234 2.89355 -0.34082 4.18066 -0.34082c4.71875 0.0185547 8.35547 1.30469 10.9258 3.875c2.57227 2.57227 4.5 6.84961 5.78516 12.8555z" />
    <glyph glyph-name="uniF127" unicode="&#xf127;" 
d="M76.6973 8.53711v430.925c0 2.35449 0.847656 4.36328 2.51172 6.02734c1.67871 1.67871 3.68848 2.51074 6.02734 2.51074h216.967c7.69141 0 31.9727 -22.2549 72.8262 -66.7979c27.1191 -29.46 45.2031 -50.5527 54.2422 -63.2822
c0.327148 0 0.501953 -0.157227 0.501953 -0.50293c0.675781 -0.65918 1.00391 -1.33398 1.00391 -2.00781c3.68652 -5.02344 5.52441 -8.71191 5.52441 -11.0508v-295.821c0 -2.35352 -0.81543 -4.36133 -2.49414 -6.02539
c-1.68066 -1.66406 -3.69043 -2.51172 -6.02832 -2.51172h-342.543c-2.33887 0 -4.34863 0.847656 -6.02734 2.51172c-1.66406 1.66406 -2.51172 3.6709 -2.51172 6.02539zM93.7734 17.0781h0.03125h325.454v285.774c-0.328125 1.00488 -1.00586 2.16602 -2.00977 3.51562
h-0.25c-0.19043 0 -0.251953 0.157227 -0.251953 0.501953c-4.70898 5.68262 -19.9316 7.84766 -45.7188 6.51367c-15.3994 -0.65918 -36.5088 -3.34277 -63.2998 -8.03613c-6.68555 -1.00488 -11.0488 -1.67969 -13.0586 -2.00879
c-2.66797 -0.329102 -5.02051 0.674805 -7.03125 3.0293c-2.02539 2.33887 -2.69824 4.86621 -2.00977 7.53418c9.04102 37.166 12.0547 76.168 9.04102 117.021h-200.896v-413.846zM157.559 89.4004c0 2.33789 0.847656 4.34766 2.51172 6.02441
c1.66406 1.66406 3.67188 2.51172 6.02539 2.51172h180.81c2.35254 0 4.3623 -0.847656 6.02441 -2.51172c1.66406 -1.67676 2.5127 -3.68652 2.5127 -6.02441c0 -2.35547 -0.848633 -4.36523 -2.5127 -6.0293c-1.66211 -1.67969 -3.6709 -2.50977 -6.02441 -2.50977
h-180.81c-2.35352 0 -4.36133 0.830078 -6.02539 2.50977c-1.66406 1.66406 -2.51172 3.67383 -2.51172 6.0293zM157.559 156.699c0 2.35547 0.847656 4.36523 2.51172 6.02637c1.66406 1.68066 3.67188 2.5127 6.02539 2.5127h180.81
c2.35254 0 4.3623 -0.832031 6.02441 -2.5127c1.66406 -1.66113 2.5127 -3.67188 2.5127 -6.02637c0 -2.33789 -0.848633 -4.34766 -2.5127 -6.02734c-1.66211 -1.66406 -3.6709 -2.50977 -6.02441 -2.50977h-180.81c-2.35352 0 -4.36133 0.845703 -6.02539 2.50977
c-1.66406 1.67871 -2.51172 3.68945 -2.51172 6.02734zM157.559 224c0 2.33887 0.847656 4.34863 2.51172 6.02734c1.66406 1.66309 3.67188 2.51172 6.02539 2.51172h180.81c2.35254 0 4.3623 -0.848633 6.02441 -2.51172
c1.66406 -1.67969 2.5127 -3.68945 2.5127 -6.02734c0 -2.35547 -0.848633 -4.36328 -2.5127 -6.02734c-1.66211 -1.67871 -3.6709 -2.51172 -6.02441 -2.51172h-180.81c-2.35352 0 -4.36133 0.833008 -6.02539 2.51172c-1.66406 1.66406 -2.51172 3.67383 -2.51172 6.02734
zM304.715 322.44c42.8467 7.03125 74.002 9.69824 93.416 8.03516c-32.1426 37.4951 -60.7695 67.8027 -85.8828 90.9053c1.67969 -34.1523 -0.84668 -67.1416 -7.5332 -98.9404z" />
    <glyph glyph-name="uniF122" unicode="&#xf122;" 
d="M1.5 82.4941v175.932c0 22.6963 8.07715 42.1299 24.2471 58.2656c16.1719 16.1338 35.5693 24.2285 58.2646 24.2471h217.467c20.0127 0 37.6055 -6.4541 52.7852 -19.3262c15.1797 -12.9072 24.5176 -28.9521 27.9795 -48.1699l29.998 26.5361
c1.92773 1.55176 3.85742 2.88574 5.78613 4.03906c16.9287 7.69824 31.1504 11.5371 42.708 11.5371c7.2998 0 13.4482 -1.72852 18.46 -5.17285c21.5234 -14.6201 32.3057 -31.9268 32.3057 -51.9375v-178.834c0 -11.9346 -3.17285 -22.6953 -9.53711 -32.3057
c-6.34668 -9.62695 -14.71 -16.7295 -25.0771 -21.3457c-5.76758 -2.70312 -12.5107 -4.03711 -20.1895 -4.03711c-12.6904 0 -25.5996 3.64355 -38.6689 10.9609c-2.3252 1.55078 -4.41602 3.26172 -6.3457 5.19141l-28.8613 33.459
c-2.6875 -20.3711 -11.8262 -37.3896 -27.4014 -51.0557c-15.5605 -13.6631 -33.5352 -20.4775 -53.9414 -20.4775h-217.468c-22.6953 0 -42.1289 8.07617 -58.2646 24.248c-16.1338 16.1523 -24.2285 35.5664 -24.2461 58.2461v0zM49.3809 82.4941
c0 -9.62695 3.35352 -17.793 10.0957 -24.5186c6.74219 -6.74121 14.8916 -10.0957 24.5186 -10.0957h217.483c9.23047 0 17.3076 3.35449 24.2295 10.0957c6.92383 6.72559 10.3838 14.8916 10.3838 24.5186v52.4961c0 4.99414 1.37012 9.51953 4.05859 13.5566
c2.68555 4.02148 6.54297 6.81445 11.5361 8.34766c10.3848 4.23633 19.2354 2.10938 26.5547 -6.3457l66.918 -77.3203c4.97656 -2.68555 9.41113 -3.83984 13.2695 -3.46094c3.46191 2.30957 5.19141 5.58887 5.19141 9.80762v178.832
c0 2.30762 -2.12695 5.19141 -6.36328 8.65234c-4.61426 -1.15234 -10.0049 -2.88379 -16.1514 -5.17383l-65.1709 -58.2646c-7.71582 -6.94043 -16.2607 -8.27441 -25.6885 -4.03809c-9.42871 4.23633 -14.1523 11.5381 -14.1523 21.9209v36.9199
c0 9.6084 -3.45996 17.792 -10.3838 24.5176c-6.92188 6.72461 -14.998 10.0947 -24.2285 10.0947h-217.487c-9.62695 0 -17.7754 -3.37109 -24.5186 -10.0947c-6.74219 -6.72559 -10.0957 -14.9092 -10.0957 -24.5176v-175.93h0.000976562z" />
    <glyph glyph-name="uniF106" unicode="&#xf106;" 
d="M125.952 224.031c0 9.14258 3.39551 17.0791 10.1895 23.8418l186.922 190.983c6.06348 6.0957 13.873 9.14355 23.3652 9.14355c9.49121 0 17.4287 -3.20703 23.8408 -9.65137c6.41309 -6.44336 9.65039 -14.3809 9.68359 -23.873
c0.03125 -9.45996 -3.39648 -17.2363 -10.1904 -23.3643l-153.398 -166.604l153.396 -166.604c6.79395 -6.7627 10.1904 -14.8896 10.1904 -24.3809c0 -9.49219 -3.20605 -17.4297 -9.68359 -23.8418c-6.41211 -6.47656 -14.3496 -9.68262 -23.8408 -9.68262
c-9.49219 0 -17.2373 3.39551 -23.3652 10.1904l-186.919 189.969c-6.79395 6.79395 -10.1904 14.7305 -10.1904 23.873z" />
    <glyph glyph-name="uniF125" unicode="&#xf125;" 
d="M228.457 413.538c33.3545 -14.4395 51.6572 -48.293 50.415 -80.4062c-2.18262 -56.2842 -60.125 -70.2002 -71.0791 -85.3857c-5.12988 -7.1123 -7.27344 -8.48535 -6.22168 -18.6699c2.48633 -24.1455 97.4346 -53.4805 97.4697 -117.994
c0.0429688 -88.8701 -99.2334 -112.424 -154.976 -111.024c-59.4951 1.49316 -145.066 16.9229 -144.142 88.8711c1.24512 96.8359 148.371 91.6104 163.062 91.3584c0.24707 17.6758 -15.9336 19.1689 -16.6807 27.6338
c-0.457031 5.20801 0.000976562 11.4463 0.000976562 27.1289c-65.376 -0.538086 -117.815 25.8027 -120.494 88.8711c-3.36035 79.1602 83.9014 111.428 135.431 111.272c20.9092 -0.0625 137.792 0 137.792 0c-2.24219 -19.9756 -65.5371 -11.7617 -70.5771 -21.6553z
M157.883 162.983c-51.5312 0 -95.2197 -31.7402 -95.2197 -67.96c0 -48.915 63.1641 -68.4736 95.2197 -64.6016c33.9805 4.1084 86.2559 21.25 86.2559 70.5742c0.000976562 37.3428 -45.9307 61.9873 -86.2559 61.9873zM128.01 410.923
c-29.127 -8.58789 -42.9424 -53.7705 -30.9922 -92.6045c11.9473 -38.833 44.2344 -65.4766 74.6797 -56.3838c28.752 8.58789 47.1484 58.3252 27.6328 101.191c-20.9102 45.9297 -49.3457 54.2764 -71.3203 47.7969zM511.246 351.197v-29.3936h-76.8867v-82.8857h-39.3926
v82.8857h-78.8877v29.3936h78.8877v82.8867h39.3926v-82.8867h76.8867z" />
    <glyph glyph-name="uniF124" unicode="&#xf124;" 
d="M76.2041 8.53711v0.0146484v430.925c0 2.33984 0.84668 4.34863 2.51074 6.02734c1.67871 1.66406 3.68848 2.49609 6.02637 2.49609h216.962c7.68945 0 31.9688 -22.2715 72.8213 -66.7803c27.4492 -29.4736 45.5293 -50.5664 54.2402 -63.2959
c0.329102 0 0.500977 -0.0791016 0.500977 -0.266602c0 -0.157227 0.157227 -0.250977 0.50293 -0.250977l1.00586 -2.00781c3.35742 -5.02344 5.02148 -8.71191 5.02148 -11.0498v-295.812c0 -2.35352 -0.817383 -4.36328 -2.49512 -6.02539
c-1.67871 -1.66406 -3.6875 -2.51172 -6.02637 -2.51172h-342.533c-2.33789 0 -4.34766 0.847656 -6.02637 2.51172c-1.66309 1.66211 -2.51074 3.6709 -2.51074 6.02539zM93.2793 17.0762h0.015625h325.442v285.765c-0.673828 1.00488 -1.33496 2.16699 -2.00977 3.5166
c-0.329102 0 -0.486328 0.15625 -0.486328 0.501953c-4.70703 5.68164 -19.9336 7.84668 -45.7178 6.51367c-15.3965 -0.660156 -36.5059 -3.34277 -63.2969 -8.03613c-6.68555 -1.00488 -11.0488 -1.67969 -13.0566 -2.00879
c-2.66895 -0.330078 -5.02246 0.674805 -7.03125 3.0293c-2.02539 2.33789 -2.69824 4.86426 -2.00977 7.53223c9.04102 37.165 12.0537 76.166 9.04102 117.02h-200.891v-413.833zM228.88 140.373v0c-0.015625 2.85547 1.06738 5.36719 3.2627 7.5332
c2.16602 2.16406 4.67871 3.26367 7.53418 3.26367c2.8252 0 5.25781 -1.00391 7.28223 -3.01367l45.2012 -45.2168v122.042c0 3.0127 1.06738 5.60254 3.26367 7.7832c2.18262 2.18262 4.69336 3.26562 7.5332 3.26562c2.84277 0 5.27441 -1.08301 7.28223 -3.26562
c2.00977 -2.18066 3.01367 -4.77051 3.01367 -7.7832v-122.042l45.2168 45.2168c2.33789 1.99316 4.92871 3.01367 7.76953 3.01367c2.85547 0 5.36816 -1.06934 7.54883 -3.26367c2.18066 -2.18164 3.18555 -4.69336 3.0293 -7.5332
c-0.172852 -2.8418 -1.25586 -5.27344 -3.26465 -7.2832l-63.2969 -63.2793c-2.02344 -2.02441 -4.43945 -3.02832 -7.28125 -3.02832s-5.43066 1.00391 -7.76953 3.02832l-63.2959 63.2793c-2.02441 2.00977 -3.0293 4.42578 -3.0293 7.2832zM304.214 322.428
c42.8457 7.03125 74 9.69922 93.4131 8.03613c-32.1416 37.4951 -60.7686 67.7998 -85.8799 90.9033c1.67871 -34.4971 -0.84668 -67.4561 -7.5332 -98.9395z" />
    <glyph glyph-name="uniF10F" unicode="&#xf10f;" 
d="M328.139 176.964c6.88965 -5.8125 7.75879 -16.0752 1.9668 -22.9658c-3.22168 -3.8291 -7.84766 -5.81152 -12.4756 -5.81152c-3.68848 0 -7.41309 1.28906 -10.4746 3.8457l-59.2197 49.8613c-1.53027 1.28711 -2.73047 2.80176 -3.65234 4.41992
c-2.81934 2.92188 -4.55957 6.87109 -4.55957 11.2559v117.188c0 8.99414 7.30762 16.2852 16.2842 16.2852c8.97754 0 16.2852 -7.29102 16.2852 -16.2852v-110.803zM256.008 447.109c123.503 0 223.992 -100.506 223.992 -224.009
c0 -123.521 -100.489 -223.991 -223.992 -223.99c-123.521 0 -224.008 100.47 -224.008 223.99c0 123.503 100.487 224.009 224.008 224.009zM256.008 47.9443c96.5557 0 175.122 78.5664 175.122 175.155c0 96.5566 -78.5664 175.122 -175.122 175.122
c-96.5898 0 -175.157 -78.5654 -175.157 -175.122c0 -96.5898 78.5674 -175.155 175.157 -175.155z" />
    <glyph glyph-name="uniF111" unicode="&#xf111;" 
d="M2 21.8047v269.135l256.696 -206.375l253.304 206.375v-269.135c0 -6.04395 -1.78418 -11.1318 -5.37109 -15.2666c-3.56836 -4.16992 -7.80859 -6.2373 -12.7207 -6.2373h-473.815c-4.91113 0 -9.15137 2.06738 -12.7207 6.2373
c-3.58594 4.13477 -5.37207 9.22266 -5.37207 15.2666zM2 384.797c0 5.66309 1.78613 10.5664 5.37305 14.7178c3.56934 4.14355 7.80957 6.2207 12.7207 6.2207h473.815c4.91211 0 9.15137 -2.07715 12.7207 -6.2207c3.58594 -4.15137 5.37012 -9.05469 5.37012 -14.7178
l-255 -208.628z" />
    <glyph glyph-name="uniF112" unicode="&#xf112;" 
d="M511.347 346.616h0.0166016v-311.557c0 -19.668 -15.9766 -35.6455 -35.6113 -35.6455h-438.776c-19.6348 0 -35.6113 15.9932 -35.6113 35.6455v319.338c0 19.6514 15.9756 35.6123 35.6113 35.6123h438.742c19.6689 0 35.6289 -15.9609 35.6289 -35.6123v-7.78125z
M473.301 357.625h-0.0166016h-433.874l216.954 -191.025zM475.718 31.7979h0.0341797c1.78809 0 3.21191 1.45703 3.21191 3.26172v285.63l-222.6 -195.58l-222.601 195.58v-285.662c0 -1.78809 1.44141 -3.22949 3.21191 -3.22949h438.742z" />
    <glyph glyph-name="uniF120" unicode="&#xf120;" 
d="M87.6885 7.875h0.000976562v0.0146484v430.438c0 2.34375 0.84668 4.34961 2.50781 6.01855c1.67773 1.66992 3.68457 2.50098 6.02051 2.50098h216.717c7.68066 0 31.9336 -22.2373 72.7402 -66.7129c27.0918 -29.4336 45.1514 -50.5039 54.1816 -63.2168
c0.329102 0 0.50293 -0.0869141 0.50293 -0.258789s0.154297 -0.257812 0.499023 -0.257812l1.00488 -2.00781c3.35449 -5.0166 5.0166 -8.69922 5.0166 -11.0361v-295.481c0 -2.35156 -0.813477 -4.3584 -2.49121 -6.01953
c-1.67871 -1.66211 -3.68457 -2.50977 -6.02051 -2.50977h-342.151c-2.33594 0 -4.34277 0.847656 -6.02051 2.50977c-1.66016 1.66211 -2.50781 3.66797 -2.50781 6.01953zM104.746 16.4053h96.8213v61.2002h-96.8213v-61.2002zM104.746 94.6631h96.8213v61.7051h-96.8213
v-61.7051zM104.746 172.923h96.8213v61.7051h-96.8213v-61.7051zM104.746 251.677v-0.000976562h0.0146484h325.08v50.166c-0.673828 1.00391 -1.33301 2.18066 -2.00684 3.52148c-0.329102 0 -0.485352 0.165039 -0.485352 0.494141
c-4.7041 5.68262 -19.9092 7.85449 -45.6689 6.51367c-15.3779 -0.658203 -36.4629 -3.33887 -63.2236 -8.02734c-7.35449 -1.00293 -11.6963 -1.66895 -13.043 -2.00586c-2.66699 -0.329102 -5.01562 0.673828 -7.02441 3.02637
c-2.02148 2.33594 -2.69531 4.85156 -2.00684 7.52441c9.03125 37.1152 12.04 76.0801 9.03125 116.889h-200.667v-178.101zM218.624 16.4053h97.3379v61.2002h-97.3379v-61.2002zM218.624 94.6631h97.3379v61.7051h-97.3379v-61.7051zM218.624 172.923h97.3379v61.7051
h-97.3379v-61.7051zM315.445 321.416c42.7979 7.01562 73.916 9.6875 93.3086 8.02734c-32.1055 37.1064 -60.7012 67.3799 -85.7842 90.7939c1.67773 -34.4434 -0.84668 -67.3809 -7.52441 -98.8213zM333.003 16.4053h96.8232v61.2002h-96.8232v-61.2002zM333.003 94.6631
h96.8232v61.7051h-96.8232v-61.7051zM333.003 172.923h96.8232v61.7051h-96.8232v-61.7051z" />
    <glyph glyph-name="uniF126" unicode="&#xf126;" 
d="M76.6973 8.53711v430.925c0 2.35449 0.847656 4.36328 2.51172 6.02734c1.67871 1.67871 3.68848 2.51074 6.02734 2.51074h216.967c7.69141 0 31.9727 -22.2549 72.8262 -66.7979c27.1191 -29.46 45.2031 -50.5527 54.2422 -63.2822
c0.327148 0 0.501953 -0.157227 0.501953 -0.50293c0.675781 -0.65918 1.00391 -1.33398 1.00391 -2.00781c3.68652 -5.02344 5.52441 -8.71191 5.52441 -11.0508v-295.821c0 -2.35352 -0.81543 -4.36133 -2.49414 -6.02539
c-1.68066 -1.66406 -3.69043 -2.51172 -6.02832 -2.51172h-342.543c-2.33887 0 -4.34863 0.847656 -6.02734 2.51172c-1.66406 1.66406 -2.51172 3.6709 -2.51172 6.02539zM93.7734 17.0781h0.03125h325.454v285.774c-0.328125 1.00488 -1.00586 2.16602 -2.00977 3.51562
h-0.25c-0.19043 0 -0.251953 0.157227 -0.251953 0.501953c-4.70898 5.68262 -19.9316 7.84766 -45.7188 6.51367c-15.3994 -0.65918 -36.5088 -3.34277 -63.2998 -8.03613c-6.68555 -1.00488 -11.0488 -1.67969 -13.0586 -2.00879
c-2.66797 -0.329102 -5.02051 0.674805 -7.03125 3.0293c-2.02539 2.33887 -2.69824 4.86621 -2.00977 7.53418c9.04102 37.166 12.0547 76.168 9.04102 117.021h-200.896v-413.846zM304.715 322.44c42.8467 7.03125 74.002 9.69824 93.416 8.03516
c-32.1426 37.4951 -60.7695 67.8027 -85.8828 90.9053c1.67969 -34.1523 -0.84668 -67.1416 -7.5332 -98.9404z" />
    <glyph glyph-name="uniF105" unicode="&#xf105;" horiz-adv-x="511" 
d="M0.0683594 235.658c0 10.1445 3.63086 18.6621 10.8926 25.5156c7.22656 6.85449 15.7451 10.2822 25.4834 10.3154c9.77148 0 18.2549 -3.59766 25.5156 -10.8926l178.074 -162.906l178.073 162.906c7.25977 7.22852 15.7432 10.8926 25.5176 10.8926
c9.73828 0 18.2549 -3.46094 25.4824 -10.3154c7.26074 -6.92188 10.8926 -15.4053 10.8926 -25.5156c0 -10.1123 -3.63184 -18.459 -10.8926 -24.9746l-204.134 -199.79c-6.48145 -7.26172 -14.8281 -10.8936 -24.9736 -10.8936s-18.4932 3.63184 -25.0078 10.8936
l-204.134 199.79c-7.22852 6.51562 -10.8584 14.8281 -10.8584 24.9746h0.0683594z" />
    <glyph glyph-name="uniF116" unicode="&#xf116;" 
d="M4.50977 36.541c0 10.0068 3.51465 18.5127 10.498 25.5195c7.03125 7.00781 15.5146 10.5 25.5215 10.5h35.9961c10.0068 0 18.4902 -3.49219 25.5205 -10.5c6.9834 -7.00684 10.498 -15.5127 10.498 -25.5195c0 -9.98242 -3.51465 -18.4893 -10.498 -25.4971
c-7.03125 -7.00488 -15.5137 -10.5205 -25.5205 -10.5205h-35.9951c-10.0068 0 -18.4912 3.51465 -25.5215 10.5205c-6.9834 7.00781 -10.499 15.5146 -10.499 25.4971zM4.50977 180.522c0 10.0059 3.51465 18.5127 10.498 25.5186
c7.03125 7.00781 15.5146 10.5 25.5215 10.5h35.9961c10.0068 0 18.4902 -3.49219 25.5205 -10.5c6.9834 -7.00586 10.498 -15.5127 10.498 -25.5186c0 -9.9834 -3.51465 -18.4893 -10.498 -25.4971c-7.03125 -7.00586 -15.5137 -10.5215 -25.5205 -10.5215h-35.9951
c-10.0068 0 -18.4912 3.51465 -25.5215 10.5215c-6.9834 7.00781 -10.499 15.5137 -10.499 25.4971zM4.50977 324.503c0 10.0068 3.51465 18.5137 10.498 25.5205c7.03125 7.00781 15.5146 10.5 25.5215 10.5h35.9961c10.0068 0 18.4902 -3.49316 25.5205 -10.5
c6.9834 -7.00781 10.498 -15.5137 10.498 -25.5205c0 -9.9834 -3.51465 -18.4902 -10.498 -25.4971c-7.03125 -7.00684 -15.5137 -10.5215 -25.5205 -10.5215h-35.9951c-10.0068 0 -18.4912 3.51465 -25.5215 10.5215c-6.9834 7.00781 -10.499 15.5137 -10.499 25.4971z
M184.486 36.541c0 10.0068 3.51465 18.5127 10.498 25.5195c7.03027 7.00781 15.5146 10.5 25.5205 10.5h251.967c10.0068 0 18.4912 -3.49219 25.5215 -10.5c6.9834 -7.00684 10.499 -15.5127 10.499 -25.5195c0 -9.98242 -3.51562 -18.4893 -10.499 -25.4971
c-7.03125 -7.00488 -15.5146 -10.5205 -25.5215 -10.5205h-251.967c-10.0068 0 -18.4912 3.51465 -25.5205 10.5205c-6.9834 7.00781 -10.498 15.5146 -10.498 25.4971zM184.486 180.522c0 10.0059 3.51465 18.5127 10.498 25.5186
c7.03027 7.00781 15.5146 10.5 25.5205 10.5h251.967c10.0068 0 18.4912 -3.49219 25.5215 -10.5c6.9834 -7.00586 10.499 -15.5127 10.499 -25.5186c0 -9.9834 -3.51562 -18.4893 -10.499 -25.4971c-7.03125 -7.00586 -15.5146 -10.5215 -25.5215 -10.5215h-251.967
c-10.0068 0 -18.4912 3.51465 -25.5205 10.5215c-6.9834 7.00781 -10.498 15.5137 -10.498 25.4971zM184.486 324.503c0 10.0068 3.51465 18.5137 10.498 25.5205c7.03027 7.00781 15.5146 10.5 25.5205 10.5h251.967c10.0068 0 18.4912 -3.49316 25.5215 -10.5
c6.9834 -7.00781 10.499 -15.5137 10.499 -25.5205c0 -9.9834 -3.51562 -18.4902 -10.499 -25.4971c-7.03125 -7.00684 -15.5146 -10.5215 -25.5215 -10.5215h-251.967c-10.0068 0 -18.4912 3.51465 -25.5205 10.5215c-6.9834 7.00781 -10.498 15.5137 -10.498 25.4971z" />
    <glyph glyph-name="uniF10C" unicode="&#xf10c;" horiz-adv-x="511" 
d="M480 222.834c0 -123.705 -100.296 -224 -224 -224s-224 100.296 -224 224s100.295 224 224 224s224 -100.295 224 -224z" />
    <glyph glyph-name="uniF11D" unicode="&#xf11d;" 
d="M1.5 10.7227v364.284c0 2.89453 1.04199 5.36426 3.08789 7.40918c2.04395 2.0459 4.51367 3.08789 7.4082 3.08789h489.008c2.89551 0 5.36328 -1.04297 7.41113 -3.08789c2.04395 -2.04492 3.08496 -4.51465 3.08496 -7.40918v-364.284
c0 -2.89551 -1.04102 -5.36426 -3.08496 -7.41211c-2.04785 -2.0625 -4.51465 -3.08594 -7.41113 -3.08594h-489.008c-2.89355 0 -5.36426 1.02441 -7.4082 3.08594c-2.0459 2.04785 -3.08789 4.5166 -3.08789 7.41211zM22.4932 20.5996h468.014v344.528h-468.014v-344.528z
M103.377 123.711v138.306c0 4.51562 1.54297 8.23926 4.62988 11.1143c3.08789 2.89355 6.87012 4.32129 11.4229 4.32129h274.141c4.51465 0 8.33594 -1.42676 11.4229 -4.32129c3.06641 -2.87402 4.6123 -6.59863 4.6123 -11.1143v-138.306
c0 -4.5332 -1.5459 -8.23828 -4.6123 -11.1328c-3.08691 -2.875 -6.9082 -4.32227 -11.4229 -4.32227h-274.141c-4.55273 0 -8.33594 1.44727 -11.4229 4.32227c-3.08691 2.89453 -4.62988 6.59961 -4.62988 11.1328zM134.867 139.146h243.288v107.435h-243.288v-107.435z
" />
    <glyph glyph-name="uniF119" unicode="&#xf119;" 
d="M1.5 12.4697v364.288c0 2.89453 1.04102 5.36426 3.08691 7.40918c2.04492 2.04492 4.51367 3.08594 7.40918 3.08594h489.009c2.89355 0 5.3623 -1.04102 7.40625 -3.08594c2.04785 -2.0459 3.08887 -4.51465 3.08887 -7.40918v-364.288
c0 -2.8916 -1.04102 -5.36133 -3.08887 -7.40625c-2.04395 -2.06445 -4.51172 -3.08887 -7.40625 -3.08887h-489.009c-2.89551 0 -5.36426 1.02539 -7.40918 3.08887c-2.04492 2.04492 -3.08691 4.51367 -3.08691 7.40625zM22.4922 22.3506h468.016v344.527h-468.016
v-344.527zM83.001 104.776c-2.0459 3.49512 -2.0459 7.10156 0 10.8057l104.347 169.177c1.65918 3.2998 4.43848 4.93945 8.33496 4.93945c3.91699 0 6.9082 -1.63965 8.95215 -4.93945l55.5693 -85.2051l67.3008 33.958c4.94043 2.89551 9.2627 2.06543 12.9648 -2.46875
l88.9102 -114.842c2.47168 -3.30078 2.78027 -6.91016 0.925781 -10.8076c-1.84961 -3.93555 -5.01562 -5.88379 -9.56836 -5.88379h-328.476c-4.10938 0 -7.19629 1.75586 -9.26074 5.2666z" />
    <glyph glyph-name="uniF11A" unicode="&#xf11a;" 
d="M83.5117 37.6992v372.287c0 14.2939 6.27441 25.1152 18.8418 32.4854c12.5488 7.37109 25.1162 7.37109 37.6846 0l324.859 -185.817c12.5664 -7.37109 18.8418 -18.3145 18.8418 -32.8115c0 -14.5176 -6.27441 -25.4609 -18.8418 -32.8115l-324.859 -185.838
c-5.62402 -3.47363 -11.8984 -5.19727 -18.8418 -5.19727c-6.49707 0 -12.7715 1.72461 -18.8213 5.19727c-12.5684 7.36816 -18.8418 18.1904 -18.8418 32.5059h-0.0214844z" />
    <glyph glyph-name="uniF104" unicode="&#xf104;" horiz-adv-x="511" 
d="M0.000976562 43.832h-0.000976562v0.0507812c0 12.8691 4.17285 23.4258 12.4668 31.7441c10.1553 10.7324 70.4785 68.6426 180.97 173.729c8.57129 8.57031 18.751 12.8682 30.5635 12.8682c11.8145 0 21.9941 -4.29785 30.5645 -12.8682
c110.467 -105.087 170.788 -162.997 180.969 -173.729c8.04297 -8.04297 12.1914 -18.2227 12.4668 -30.5879v-1.20703c0 -11.8125 -4.17188 -21.8672 -12.4668 -30.1621c-8.57031 -9.09766 -18.2236 -13.6719 -28.9551 -13.6719
c-10.707 0 -21.4404 4.57422 -32.1719 13.6719l-150.405 144.775l-151.21 -144.775c-10.2041 -9.09766 -20.6602 -13.6719 -31.3682 -13.6719c-10.7314 0 -20.3838 4.57422 -28.9551 13.6719c-8.29492 8.29492 -12.4668 18.3496 -12.4668 30.1621z" />
    <glyph glyph-name="uniF100" unicode="&#xf100;" 
d="M51.9717 223.382c0 6.5 2.33496 12.084 7.00293 16.751l198.899 199.642c4.66699 4.64551 10.252 6.97949 16.752 6.97949c6.52246 0 12.1055 -2.33398 16.751 -6.97949c4.66797 -4.66699 7.00098 -10.251 7.00098 -16.751c0 -6.52148 -2.33301 -12.1045 -7.00098 -16.75
l-182.869 -182.892l182.868 -182.867c4.66797 -4.66992 7.00098 -10.2539 7.00098 -16.7539c0 -6.49805 -2.33301 -12.083 -7.00098 -16.75c-4.64746 -4.66797 -10.2295 -7.00195 -16.751 -7.00195c-6.5 0 -12.085 2.33398 -16.752 7.00195l-198.899 199.619
c-4.66797 4.64746 -7.00195 10.2305 -7.00195 16.752zM214.6 223.382c0 6.5 2.33398 12.084 6.98047 16.751l199.64 199.642c4.21191 4.64551 9.55566 6.97949 16.0762 6.97949c6.50098 0 12.084 -2.33398 16.752 -6.97949
c4.64551 -4.66699 6.97949 -10.251 6.97949 -16.751c0 -6.52148 -2.33301 -12.1045 -6.97949 -16.75l-182.171 -182.892l182.171 -182.867c4.66699 -4.66992 6.97949 -10.2539 6.97949 -16.7539c-0.0214844 -6.49805 -2.35547 -12.083 -6.97949 -16.75
c-4.66797 -4.66797 -10.251 -7.00195 -16.752 -7.00195c-6.54297 0 -11.8867 2.33398 -16.0762 7.00195l-199.64 199.619c-4.64648 4.64746 -6.98047 10.2305 -6.98047 16.752z" />
    <glyph glyph-name="uniF10D" unicode="&#xf10d;" 
d="M30.9971 222.011c0 30.5771 5.95996 59.7061 17.8643 87.3867c11.9199 27.6807 27.915 51.5801 48.043 71.71c20.1133 20.1279 44.0137 36.1377 71.7021 48.0342c27.7021 11.8984 56.8232 17.8506 87.3936 17.8584c30.5703 0.0146484 59.6914 -5.93848 87.3965 -17.8574
c27.6865 -11.9199 51.5879 -27.9297 71.7002 -48.0342c20.1289 -20.1064 36.123 -44.0156 48.043 -71.71c11.9053 -27.6963 17.8652 -56.832 17.8652 -87.3877c0 -30.5693 -5.95996 -59.6992 -17.8652 -87.3936c-11.9199 -27.7031 -27.9141 -51.6035 -48.043 -71.7021
c-20.1123 -20.1133 -44.0127 -36.1221 -71.7002 -48.043c-27.7041 -11.9199 -56.8252 -17.8643 -87.3955 -17.8643c-30.5703 0.0146484 -59.6914 5.97461 -87.3936 17.8643c-27.6885 11.8906 -51.5898 27.915 -71.7021 48.043
c-20.1279 20.1279 -36.123 44.0293 -48.043 71.7021c-11.9053 27.6797 -17.8652 56.8086 -17.8652 87.3936zM210.613 221.777h-0.000976562v0.015625c0 -4.0293 1.44824 -7.49219 4.3457 -10.3887l60.3555 -62.7695c2.56445 -2.58008 6.03418 -3.94531 10.3809 -4.11133
h0.724609c4.0127 0 7.39258 1.36523 10.1387 4.11133c3.38184 3.37207 5.07031 6.83496 5.07031 10.3809s-1.68848 7.15918 -5.07031 10.8633l-49.7314 52.1475l49.7314 52.1455c3.38184 3.7041 5.07031 7.28809 5.07031 10.7363s-1.68848 6.78906 -5.07031 10.0107
c-2.89551 2.89844 -6.5166 4.3457 -10.8623 4.3457c-4.34668 0 -7.81738 -1.44824 -10.3809 -4.3457c-3.86328 -3.53125 -23.9766 -24.293 -60.3555 -62.2861c-2.89844 -3.21289 -4.3457 -6.82812 -4.3457 -10.8555z" />
    <glyph glyph-name="uniF113" unicode="&#xf113;" 
d="M131.904 219.113v73.1963h76.3096v43.0869c0 31.5049 9.70117 58.0605 29.0713 79.6846c19.3857 21.6416 43.6045 32.4463 72.6758 32.4463h71.1191v-77.8682h-71.1191c-4.49414 0 -8.56445 -2.51465 -12.1992 -7.52734
c-3.63477 -5.0293 -5.43457 -11.1621 -5.43457 -18.4287v-51.3936h88.7695v-73.1963h-88.7695v-219.586h-84.1133v219.586h-76.3096z" />
    <glyph glyph-name="uniF101" unicode="&#xf101;" 
d="M52.9912 23.9463c0 6.53906 2.34082 12.1387 7.02051 16.7979l182.66 183.381l-182.66 183.404c-4.68066 4.66016 -7.02051 10.2588 -7.02051 16.7988c0 6.51758 2.34082 12.1182 7.02051 16.7988c4.6582 4.65918 10.2598 6.99902 16.7979 6.99902
c6.51953 0 11.877 -2.33984 16.0996 -6.99902l200.201 -200.203c4.6582 -4.67969 6.99902 -10.2793 6.99902 -16.7988c0 -6.5166 -2.34082 -12.1162 -6.99902 -16.7979l-200.201 -200.179c-4.2002 -4.68262 -9.55957 -7.02246 -16.0996 -7.02246
c-6.53809 0 -12.1396 2.34082 -16.7979 7.02246c-4.6582 4.68066 -7 10.2783 -7.02051 16.7979zM216.074 23.9463c0 6.53906 2.34082 12.1387 7 16.7979l183.403 183.381l-183.403 183.404c-4.65918 4.66016 -7 10.2588 -7 16.7988c0 6.51758 2.34082 12.1182 7 16.7988
c4.68066 4.65918 10.2793 6.99902 16.7979 6.99902c6.54004 0 12.1396 -2.33984 16.7979 -6.99902l199.481 -200.203c4.67871 -4.67969 7.01953 -10.2793 7.01953 -16.7988c0 -6.5166 -2.34082 -12.1162 -7.01953 -16.7979l-199.481 -200.179
c-4.65918 -4.68262 -10.2588 -7.02246 -16.7979 -7.02246c-6.51855 0 -12.1172 2.34082 -16.7979 7.02246c-4.65918 4.68066 -7 10.2783 -7 16.7979z" />
    <glyph glyph-name="uniF109" unicode="&#xf109;" 
d="M3.9707 29.377v389.246c0 8.28027 2.8252 15.2539 8.47461 20.9033c5.64844 5.64844 12.6045 8.47363 20.9023 8.47363h446.305c8.28027 0 15.2539 -2.8418 20.9033 -8.47363c5.65039 -5.65039 8.47461 -12.6055 8.47461 -20.9033v-389.246
c0 -8.2793 -2.8252 -15.2529 -8.47461 -20.9023c-5.64844 -5.65039 -12.6045 -8.47461 -20.9023 -8.47461h-446.306c-8.2793 0.0175781 -15.2539 2.84277 -20.9023 8.47461c-5.64941 5.64941 -8.47461 12.6055 -8.47461 20.9023zM18.6592 29.377v0.00195312h-0.0185547
c0 -3.77832 1.41211 -7.06152 4.2373 -9.88672c2.80762 -2.82422 6.30273 -4.23633 10.4336 -4.23633h256.503c16.9463 -0.0175781 31.8291 0.174805 44.6475 0.564453c12.7988 0.405273 26.7295 1.44629 41.8047 3.10645c15.0781 1.67871 27.9658 3.84961 38.6992 6.49707
c10.7354 2.64746 21.3975 6.51562 31.9385 11.5811c10.5391 5.08398 19.0127 11.0176 25.4033 17.7959c6.4082 6.7793 11.5811 15.0771 15.5352 24.8574c3.95508 9.78027 5.93359 21.0791 5.93359 33.8955v236.711h-475.117v-320.888z" />
    <glyph glyph-name="uniF11C" unicode="&#xf11c;" 
d="M65.1006 256.897c0 52.7373 18.666 97.7734 55.9971 135.105c37.332 37.3311 82.46 55.9971 135.402 55.9971c52.9434 0 98.0713 -18.666 135.403 -55.9971c37.3301 -37.332 55.9961 -82.3682 55.9961 -135.105c0 -52.7393 -18.7588 -97.8662 -56.293 -135.4
c-1.96387 -1.96484 -4.62988 -2.96387 -7.99805 -2.96387c-3.37109 0 -6.13184 1.09277 -8.29785 3.25879c-2.18555 2.18262 -3.27637 4.85059 -3.27637 8c0 3.16602 1.20312 5.9248 3.57227 8.31445c32.7764 32.7939 49.1836 72.3848 49.1836 118.827
c0 46.4053 -16.4062 86.1074 -49.1836 119.088c-32.7949 32.9805 -72.4971 49.4795 -119.106 49.4795s-86.3096 -16.499 -119.106 -49.4785c-32.7764 -32.9805 -49.1826 -72.6826 -49.1826 -119.088c0 -46.4424 16.4062 -86.0332 49.1826 -118.827
c2.37109 -2.39062 3.57422 -5.14844 3.57422 -8.31445c0 -3.14941 -1.20312 -5.81738 -3.57422 -8c-2.36914 -2.16602 -5.14648 -3.25879 -8.29492 -3.25879c-3.16699 0 -5.74023 0.999023 -7.7041 2.96387c-37.5352 37.5332 -56.2939 82.6602 -56.2939 135.399z
M127.913 256.897c0 35.3682 12.5547 65.5889 37.6279 90.6621c25.0732 25.0742 55.4053 37.6289 90.958 37.6289c35.5547 0 65.8867 -12.5557 90.959 -37.6289c25.0723 -25.0723 37.6289 -55.2939 37.6289 -90.6621c0 -35.3506 -12.6475 -65.665 -37.9258 -90.959
c-2.37109 -1.96289 -5.14648 -2.96289 -8.31445 -2.96289c-3.16602 0 -5.83203 1.09277 -8 3.25977c-2.16602 2.18457 -3.25781 4.85059 -3.25781 8.01758s1.18457 5.92578 3.57422 8.29688c20.5352 20.5361 30.8135 45.3506 30.8135 74.3848
c0 29.0352 -10.2783 53.8125 -30.8135 74.3672c-20.5557 20.5361 -45.4434 30.8145 -74.6826 30.8145c-29.2402 0 -54.1279 -10.2783 -74.6826 -30.8145c-20.5361 -20.5547 -30.8135 -45.3311 -30.8135 -74.3672c0 -29.0352 10.2773 -53.8486 30.8135 -74.3848
c2.38867 -2.37109 3.57422 -5.12988 3.57422 -8.29688s-1.09277 -5.83301 -3.25879 -8.01758c-2.16699 -2.16699 -4.83301 -3.25977 -8.01953 -3.25977c-3.14746 0 -5.9248 1 -8.29492 2.96289c-25.2754 25.2949 -37.9248 55.6084 -37.9248 90.959h0.0390625z
M204.946 257.193c0 14.2217 5.03711 26.3682 15.1104 36.4424c10.0732 10.0732 22.2207 15.1104 36.4424 15.1104s26.3701 -5.03711 36.4434 -15.1104c10.0742 -10.0742 15.1094 -22.2207 15.1094 -36.4424c0 -14.2227 -5.03516 -26.3691 -15.1094 -36.4434
c-10.0732 -10.0732 -22.2217 -15.1104 -36.4434 -15.1104s-26.3691 5.03613 -36.4424 15.1104s-15.1104 22.2207 -15.1104 36.4434zM216.798 8.90625v156.439c0 2.37012 0.77832 4.44434 2.37012 6.22168c1.57422 1.75977 3.74121 2.64746 6.51855 2.66602h61.6279
c2.77734 0 4.94336 -0.888672 6.51758 -2.66602c1.59277 -1.7959 2.37207 -3.86914 2.37207 -6.22168v-156.438c0 -2.38867 -0.779297 -4.46289 -2.37207 -6.22168c-1.57324 -1.77637 -3.73926 -2.66699 -6.51758 -2.68555h-61.6279
c-2.77734 0 -4.94336 0.908203 -6.51855 2.68555c-1.5918 1.77637 -2.37012 3.85059 -2.37012 6.2207z" />
    <glyph glyph-name="uniF11E" unicode="&#xf11e;" 
d="M31.6709 275.027c0 7.93457 2.71875 14.6143 8.1582 20.0527c5.4375 5.4375 12.0225 8.1582 19.7129 8.1582c49.8789 0 95.9766 -12.3525 138.336 -37.0479s75.8799 -58.2285 100.608 -100.619c24.7061 -42.3594 37.0479 -88.457 37.0479 -138.315
c0 -7.71094 -2.71875 -14.2734 -8.15723 -19.7129c-5.4375 -5.43945 -12.1299 -8.1582 -20.0537 -8.1582c-7.94531 0 -14.6152 2.7207 -20.0537 8.1582c-5.4375 5.43848 -8.15723 12.002 -8.15723 19.7129c0 39.874 -9.77148 76.7109 -29.252 110.466
c-19.4805 33.7559 -46.1191 60.3955 -79.874 79.875c-33.7549 19.4912 -70.5928 29.2305 -110.465 29.2305c-7.71289 0 -14.2549 2.71875 -19.6924 8.1582c-5.43848 5.4375 -8.1582 12.1289 -8.1582 20.0635v-0.0214844zM31.6709 420.14
c0 7.70117 2.71875 14.2656 8.1582 19.7031c5.4375 5.43848 12.0225 8.15723 19.7129 8.15723c57.1016 0 111.612 -11.0996 163.489 -33.2988c51.8965 -22.1992 96.6572 -52.1094 134.277 -89.7314c37.6221 -37.6221 67.5322 -82.3711 89.7314 -134.247
c22.1992 -51.8965 33.2881 -106.387 33.2881 -163.51c0 -7.71191 -2.71875 -14.2744 -8.15723 -19.7139c-5.4375 -5.43945 -11.9795 -8.15723 -19.6924 -8.15723c-7.71191 0 -14.3818 2.71875 -20.0742 8.15723c-5.65039 5.4375 -8.49707 12.002 -8.49707 19.7139
c0 49.3906 -9.62305 96.6357 -28.8916 141.757c-19.2471 45.0879 -45.0791 83.8359 -77.4941 116.232c-32.4189 32.3945 -71.166 58.2383 -116.243 77.5049c-45.1006 19.2803 -92.3457 28.9033 -141.757 28.8926c-7.71289 0 -14.2549 2.83594 -19.6924 8.50879
c-5.43848 5.67188 -8.1582 12.3516 -8.1582 20.0527v-0.0214844zM60.2207 79.2393c0 14.2744 4.99316 26.5107 14.957 36.7285c9.9834 10.2188 22.1143 15.3164 36.3682 15.2949c14.2754 -0.0205078 26.5107 -5.12012 36.7295 -15.2949
c10.2178 -10.1768 15.3154 -22.3057 15.2949 -36.3691c0 -14.5078 -5.09961 -26.7451 -15.2949 -36.7285c-10.1973 -9.98535 -22.4336 -14.957 -36.7295 -14.957c-14.2744 0 -26.3848 4.97168 -36.3682 14.957c-9.94238 9.9834 -14.957 22.0938 -14.957 36.3691z" />
    <glyph glyph-name="uniF11F" unicode="&#xf11f;" 
d="M80.5283 281.55v0.0205078c0 45.1182 16.0088 83.6963 48.0635 115.753c32.0361 32.0361 70.6143 48.0625 115.733 48.0625c45.0996 0 83.6777 -16.0264 115.733 -48.0615c32.0557 -32.0566 48.0635 -70.6338 48.0635 -115.753
c0 -46.3848 -16.6602 -85.5947 -49.9609 -117.63l70.1992 -121.426c2.72559 -4.44727 4.11035 -9.07227 4.11035 -13.9326c0 -2.53125 -0.31543 -5.06055 -0.947266 -7.58984c-2.11621 -7.58984 -6.52246 -13.4785 -13.2822 -17.707
c-4.64453 -2.53125 -9.48633 -3.79492 -14.5459 -3.79492c-10.9873 0 -19.209 4.8418 -24.6641 14.5449l-68.9346 117.631c-21.0674 -9.26855 -43.0039 -13.9131 -65.7715 -13.9131c-45.5342 0 -84.2314 16.0068 -116.049 48.0635
c-31.8184 32.0557 -47.748 70.6328 -47.748 115.732zM137.447 281.233c0 -29.3086 10.4346 -54.3887 31.3037 -75.2588c20.8701 -20.8682 45.9688 -31.3047 75.2578 -31.3047c29.3096 0 54.3887 10.4355 75.2578 31.3047c20.8701 20.8701 31.3242 45.9502 31.3242 75.2588
c0 29.2891 -10.4541 54.3887 -31.3242 75.2588c-20.8691 20.8701 -45.9482 31.3047 -75.2578 31.3047c-29.2891 0 -54.3877 -10.4346 -75.2578 -31.3047c-20.8691 -20.8701 -31.3037 -45.9697 -31.3037 -75.2588z" />
    <glyph glyph-name="uniF10E" unicode="&#xf10e;" 
d="M31.5 222.016c0 30.5537 5.95898 59.6914 17.8643 87.3857c11.9199 27.6934 27.9141 51.6025 48.042 71.708c20.1123 20.1045 44.0127 36.1123 71.7002 48.0332c27.7031 11.9209 56.8242 17.873 87.3926 17.8574c30.5703 -0.00683594 59.6904 -5.95898 87.3936 -17.8574
c27.6885 -11.8965 51.5889 -27.9053 71.7012 -48.0332c20.127 -20.127 36.1221 -44.0273 48.041 -71.708c11.9053 -27.6807 17.8652 -56.8086 17.8652 -87.3857c0 -30.585 -5.95996 -59.7969 -17.8652 -87.6328c-11.9189 -27.8555 -27.9141 -51.7559 -48.041 -71.7168
c-20.1123 -19.9629 -44.0127 -35.8975 -71.7012 -47.7988c-27.7031 -11.9082 -56.8232 -17.8672 -87.3936 -17.8672c-30.5684 0 -59.6895 5.95898 -87.3906 17.8672c-27.6875 11.9023 -51.5869 27.8359 -71.7002 47.7988c-20.1279 19.9609 -36.123 43.8623 -48.042 71.7168
c-11.9062 27.8359 -17.8662 57.0479 -17.8662 87.6328zM215.941 148.625h-0.000976562v-0.03125c2.73242 -2.74707 6.11035 -4.10156 10.1406 -4.10156h0.723633c4.34668 0.148438 7.81543 1.52148 10.3809 4.10156c3.8623 3.86328 23.9746 24.7754 60.3545 62.7705
c2.89648 2.91211 4.34277 6.4502 4.34277 10.6367c0 4.17871 -1.44727 7.55957 -4.34277 10.1318l-60.3545 62.7754c-2.56543 2.89746 -6.03516 4.34473 -10.3809 4.34473c-4.34473 0 -7.9668 -1.44727 -10.8633 -4.34473
c-3.37988 -3.21289 -5.07031 -6.54785 -5.07031 -10.0107c0 -3.46387 1.69043 -7.03809 5.07031 -10.7354l49.7324 -52.1465l-49.7324 -52.1465c-3.37988 -3.71094 -5.07031 -7.33203 -5.07031 -10.8613c0 -3.54688 1.69043 -7.00391 5.07031 -10.3828z" />
    <glyph glyph-name="uniF108" unicode="&#xf108;" 
d="M0 36.3721c0 9.77246 3.63086 17.918 10.8916 24.4316l204.135 199.789c6.47949 7.2627 14.8271 10.8594 24.9727 10.8594s18.4951 -3.59668 25.0088 -10.8594l204.133 -199.789c7.23047 -6.51367 10.8594 -14.6572 10.8594 -24.4316
c0 -9.77246 -3.62891 -18.2549 -10.8584 -25.5156c-7.26074 -7.19434 -15.7783 -10.8564 -25.5156 -10.8564c-9.77246 0 -18.2559 3.59375 -25.5166 10.8564l-178.075 163.989l-178.075 -163.989c-7.26074 -7.22754 -15.7441 -10.8564 -25.5156 -10.8564
c-9.73926 0 -18.2568 3.62891 -25.4834 10.8564c-7.26172 7.26074 -10.8916 15.7773 -10.8916 25.5156h-0.0683594z" />
    <glyph glyph-name="uniF123" unicode="&#xf123;" 
d="M506.407 282.247c0 0 5.09277 -41.2725 5.09375 -82.543v-38.6914c0 -41.2705 -5.09277 -82.541 -5.09277 -82.541s-4.98242 -35.1436 -20.2734 -50.6221c-19.3945 -20.3135 -41.1328 -20.4141 -51.1016 -21.6025c-71.3662 -5.15918 -178.532 -5.32031 -178.532 -5.32031
s-132.598 1.21094 -173.398 5.12305c-11.3506 2.12891 -36.835 1.4873 -56.2344 21.7998c-15.291 15.4775 -20.2676 50.6221 -20.2676 50.6221s-5.09961 41.2705 -5.09961 82.541v38.6914c0 41.2715 5.09961 82.543 5.09961 82.543s4.97656 35.1436 20.2676 50.6211
c19.3994 20.3125 41.1309 20.415 51.0996 21.6025c71.3691 5.15918 178.421 5.15918 178.421 5.15918h0.222656s107.055 0 178.421 -5.15918c9.96875 -1.18848 31.707 -1.29004 51.1016 -21.6025c15.291 -15.4775 20.2734 -50.6211 20.2734 -50.6211zM203.849 114.126
l137.781 71.3994l-137.804 71.8965z" />
    <glyph glyph-name="uniF11B" unicode="&#xf11b;" 
d="M32 224c0 10.0078 3.40137 18.4121 10.2529 25.2402c6.82812 6.85156 15.2334 10.2529 25.2402 10.2529h153.015v153.015c0 10.0068 3.42578 18.4365 10.2529 25.2393c6.82715 6.85156 15.2324 10.2529 25.2393 10.2529c10.0078 0 18.4121 -3.40137 25.2402 -10.2529
c6.82617 -6.80176 10.2529 -15.2324 10.2529 -25.2393v-153.015h153.015c10.0059 0 18.4111 -3.40137 25.2383 -10.2529c6.85254 -6.82812 10.2539 -15.2324 10.2539 -25.2402c0 -9.98242 -3.40137 -18.3867 -10.2539 -25.2393
c-6.82715 -6.82715 -15.2324 -10.2529 -25.2383 -10.2529h-153.015v-153.015c0 -10.0068 -3.42676 -18.4121 -10.2529 -25.2393c-6.82812 -6.82715 -15.2324 -10.2539 -25.2402 -10.2539c-10.0068 0 -18.4121 3.42676 -25.2393 10.2539s-10.2529 15.2324 -10.2529 25.2393
v153.015h-153.015c-10.0078 0 -18.4121 3.42578 -25.2402 10.2529c-6.85156 6.85254 -10.2529 15.2568 -10.2529 25.2393z" />
    <glyph glyph-name="uniF103" unicode="&#xf103;" 
d="M480 218.394h-0.000976562v-0.0507812c0 -12.8691 -4.17188 -23.4258 -12.4668 -31.7441c-10.1553 -10.7314 -70.4785 -68.6416 -180.971 -173.729c-8.56934 -8.57129 -18.75 -12.8691 -30.5615 -12.8691c-11.8145 0 -21.9941 4.29785 -30.5645 12.8691
c-110.467 105.086 -170.788 162.997 -180.969 173.729c-8.04297 8.04297 -12.1914 18.2236 -12.4668 30.5879v1.20703c0 11.8125 4.17188 21.8672 12.4668 30.1621c8.57031 9.09863 18.2236 13.6719 28.9551 13.6719c10.707 0 21.4404 -4.57324 32.1719 -13.6719
l150.407 -144.775l151.209 144.775c10.2051 9.09863 20.6611 13.6719 31.3682 13.6719c10.7314 0 20.3848 -4.57324 28.9551 -13.6719c8.29492 -8.29492 12.4668 -18.3496 12.4668 -30.1621z" />
    <glyph glyph-name="uniF115" unicode="&#xf115;" 
d="M1 36.4473c0 10.127 3.55762 18.7344 10.625 25.8242c7.11426 7.0918 15.6992 10.625 25.8252 10.625h437.102c10.125 0 18.71 -3.5332 25.8262 -10.625c7.06543 -7.09082 10.6221 -15.6973 10.6221 -25.8242c0 -10.1025 -3.55664 -18.7109 -10.6221 -25.8008
c-7.11621 -7.08984 -15.7012 -10.6465 -25.8262 -10.6465h-437.102c-10.126 0 -18.7109 3.55664 -25.8252 10.6465c-7.06836 7.08984 -10.625 15.6982 -10.625 25.8008zM1 182.148c0 10.126 3.55762 18.7334 10.625 25.8242c7.11426 7.09082 15.6992 10.623 25.8252 10.623
h437.102c10.125 0 18.71 -3.53223 25.8262 -10.623c7.06543 -7.09082 10.6221 -15.6992 10.6221 -25.8242c0 -10.1025 -3.55664 -18.7119 -10.6221 -25.8018c-7.11621 -7.08887 -15.7012 -10.6475 -25.8262 -10.6475h-437.102c-10.126 0 -18.7109 3.55762 -25.8252 10.6475
c-7.06836 7.08984 -10.625 15.6992 -10.625 25.8018zM1 327.849c0 10.126 3.55762 18.7344 10.625 25.8252c7.11426 7.09082 15.6992 10.625 25.8252 10.625h437.102c10.125 0 18.71 -3.53418 25.8262 -10.625c7.06543 -7.08984 10.6221 -15.6992 10.6221 -25.8252
c0 -10.1016 -3.55664 -18.7109 -10.6221 -25.8008c-7.11621 -7.08984 -15.7012 -10.6465 -25.8262 -10.6465h-437.102c-10.126 0 -18.7109 3.55664 -25.8252 10.6465c-7.06836 7.09082 -10.625 15.6992 -10.625 25.8008z" />
    <glyph glyph-name="uniF118" unicode="&#xf118;" 
d="M82.1689 8.27832v431.443c0 2.28223 0.823242 4.23047 2.43457 5.84375c1.62988 1.6123 3.57715 2.43457 5.84473 2.43457h210.852c7.13672 0 30.5117 -21.5938 70.123 -64.7656c26.2959 -28.5771 43.8271 -49.0293 52.5928 -61.3555l0.485352 -0.488281
l0.973633 -1.94629c3.57617 -4.86914 5.35742 -8.61328 5.35742 -11.2002v-299.966c0 -2.2832 -0.791992 -4.23145 -2.41992 -5.84473c-1.62891 -1.62793 -3.57617 -2.43457 -5.84375 -2.43457h-332.12c-2.26758 0 -4.21484 0.806641 -5.84473 2.43457
c-1.6123 1.61426 -2.43457 3.56152 -2.43457 5.84473zM98.7266 16.5557v-0.00195312h0.0292969h315.546v290.714c-0.638672 0.974609 -1.29492 2.11621 -1.94824 3.40918h-0.485352c-2.2832 2.93848 -5.35742 5.37207 -9.25195 7.30566
c-3.89648 1.94629 -8.58398 3.25586 -14.123 3.89551c-5.52344 0.668945 -10.8037 1.15625 -15.8262 1.47559c-1.61133 0.167969 -3.4082 0.243164 -5.35547 0.243164c-3.89453 0 -8.20117 -0.241211 -12.9033 -0.729492
c-7.13574 -0.654297 -13.0566 -1.20215 -17.7734 -1.68945c-4.71777 -0.486328 -10.8965 -1.23145 -18.5205 -2.20703c-7.62402 -0.972656 -13.0723 -1.62793 -16.3135 -1.94629c-2.60156 -0.319336 -4.88379 0.563477 -6.83203 2.67871
c-1.94629 2.11523 -2.60059 4.625 -1.94629 7.54688c3.89453 15.583 6.17773 31.6523 6.83105 48.209c0.320312 7.30371 0.472656 13.8018 0.472656 19.4775c0 7.1377 -0.244141 12.8896 -0.730469 17.2725c-0.805664 7.95801 -1.85547 14.3652 -3.16602 19.2354h-197.703
v-414.889zM135.248 98.8525h-0.0146484c-0.320312 0.500977 -0.472656 1.23242 -0.472656 2.19043c0 0.972656 0.152344 2.19141 0.472656 3.65234c0.65332 2.92285 1.71875 6.01074 3.16602 9.25195c1.44434 3.24121 4.94434 7.06055 10.4688 11.4434
c5.52344 4.38379 12.3418 8.52148 20.4678 12.417c8.74902 3.89551 17.3477 7.63965 25.8086 11.2002c17.1953 24.6836 31.165 51.2979 41.8779 79.8613c-4.86914 14.9443 -7.30469 29.6279 -7.30469 44.0703c0 14.4404 1.94824 23.9355 5.84277 28.4863
c2.92285 3.89551 6.49902 5.84277 10.7139 5.84277c7.13574 0 12.4932 -2.75391 16.0693 -8.27734c3.25586 -4.70312 4.86914 -11.2012 4.86914 -19.4795c0 -12.6621 -3.89551 -29.5381 -11.6865 -50.6436c8.12598 -21.1064 20.7871 -37.6631 37.9971 -49.6689
c13.6201 2.58691 26.1289 3.89551 37.4941 3.89551c16.877 0 29.873 -2.43555 38.957 -7.30469c9.08594 -4.86914 13.6367 -10.7129 13.6367 -17.5303c0 -4.22949 -1.7041 -7.88281 -5.11328 -10.9561c-3.40918 -3.08887 -8.20215 -4.62598 -14.3652 -4.62598h-2.43457
c-27.9238 0 -51.9375 6.16211 -72.0703 18.5039c-24.667 -5.20508 -52.2705 -13.9707 -82.7969 -26.2959c-17.1963 -24.3467 -32.9297 -39.7773 -47.2188 -46.2744c-2.93848 -1.29395 -5.85938 -1.94922 -8.78125 -1.94922c-3.89648 0 -7.22949 1.14258 -9.9834 3.4248
c-2.75391 2.2666 -4.62598 5.18945 -5.59961 8.76562zM153.752 105.184c5.18945 2.58496 11.2002 7.4541 18.0176 14.6084c-9.10059 -4.87012 -15.0967 -9.73926 -18.0176 -14.6084zM222.413 159.722l0.03125 -0.0146484c17.1953 6.16211 33.5986 11.1992 49.1816 15.0947
c-9.75391 8.76758 -18.0322 19.4941 -24.8496 32.1553c-7.13672 -16.5557 -15.2637 -32.292 -24.3633 -47.2354zM247.734 262.469v-0.0146484c1.47656 7.30371 2.20703 13.2236 2.20703 17.7891c0 3.39258 -0.410156 6.08691 -1.21777 8.03418
c-0.974609 -3.89551 -1.46094 -8.68848 -1.46094 -14.3652c0 -3.4082 0.166016 -7.22754 0.47168 -11.4434zM311.039 334.053l-0.015625 0.015625c16.5576 0.805664 31.0898 1.2168 43.583 1.2168c16.7246 0 29.7949 -0.731445 39.2148 -2.19141
c-30.1914 35.7002 -57.6279 65.085 -82.2949 88.124c2.09961 -13.9541 3.16504 -27.9082 3.16504 -41.8779c0 -15.0957 -1.21777 -30.1914 -3.65234 -45.2871zM322.239 165.564h0.0292969c11.9912 -3.5752 25.1406 -5.35547 39.4297 -5.35547h0.485352
c-7.13672 3.55859 -17.5293 5.35547 -31.166 5.35547h-8.77832z" />
    <glyph glyph-name="uniF117" unicode="&#xf117;" 
d="M32 224c0 10.0078 3.40137 18.4121 10.2529 25.2402c6.82812 6.85156 15.2334 10.2529 25.2402 10.2529h377.015c10.0059 0 18.4111 -3.40137 25.2383 -10.2529c6.85254 -6.82812 10.2539 -15.2324 10.2539 -25.2402c0 -9.98242 -3.40137 -18.3867 -10.2539 -25.2393
c-6.82715 -6.82715 -15.2324 -10.2529 -25.2383 -10.2529h-377.015c-10.0078 0 -18.4121 3.42578 -25.2402 10.2529c-6.85156 6.85254 -10.2529 15.2568 -10.2529 25.2393z" />
  </font>
</defs>
</svg>
