<?xml version="1.0" encoding="UTF-8"?>
<svg width="50px" height="50px" viewBox="0 0 50 50" version="1.1" xmlns="http://www.w3.org/2000/svg" xmlns:xlink="http://www.w3.org/1999/xlink">
    <!-- Generator: Sketch 47.1 (45422) - http://www.bohemiancoding.com/sketch -->
    <title>Icon-insta-hover</title>
    <desc>Created with Sketch.</desc>
    <defs>
        <polygon id="path-1" points="5.57986871e-05 0.0267524435 16.973105 0.0267524435 16.973105 16.9333259 5.57986871e-05 16.9333259 5.57986871e-05 0.0267524435"></polygon>
    </defs>
    <g id="Home-Header/Footer/Mega-Menu" stroke="none" stroke-width="1" fill="none" fill-rule="evenodd">
        <g id="Icon-insta-hover">
            <g id="Social-icons" transform="translate(1.000000, 1.000000)">
                <ellipse id="Oval-3" stroke="#2D6280" stroke-width="1.5" fill="#2D6280" cx="24.1072307" cy="24" rx="24.1072307" ry="24"></ellipse>
                <g id="Page-1" transform="translate(16.000000, 15.000000)">
                    <g id="Group-3">
                        <mask id="mask-2" fill="white">
                            <use xlink:href="#path-1"></use>
                        </mask>
                        <g id="Clip-2"></g>
                        <path d="M8.48662691,0.0266709263 C6.18180635,0.0266709263 5.89276915,0.0363788767 4.98760284,0.0775450328 C4.0842593,0.118637082 3.46738621,0.261514398 2.92758972,0.470494705 C2.36949125,0.686478074 1.89624398,0.975530445 1.42444748,1.44547676 C0.952650985,1.91542308 0.662423414,2.38688858 0.445589716,2.94276137 C0.235749453,3.48047807 0.092309628,4.0949691 0.0510929978,4.99473307 C0.00976477024,5.89638675 5.57986871e-05,6.18417931 5.57986871e-05,8.47996137 C5.57986871e-05,10.7758175 0.00976477024,11.0636471 0.0510929978,11.9652638 C0.092309628,12.8650648 0.235749453,13.4795188 0.445589716,14.0172725 C0.662423414,14.5731083 0.952650985,15.0445738 1.42444748,15.5145201 C1.89624398,15.9844664 2.36949125,16.2735188 2.92758972,16.4895021 C3.46738621,16.6984825 4.0842593,16.8413598 4.98760284,16.8824889 C5.89276915,16.9235809 6.18180635,16.9333259 8.48662691,16.9333259 C10.7914475,16.9333259 11.0804475,16.9235809 11.9856138,16.8824889 C12.8889573,16.8413598 13.5058304,16.6984825 14.0456269,16.4895021 C14.6037254,16.2735188 15.0770098,15.9844664 15.5488063,15.5145201 C16.0206028,15.0445738 16.3107932,14.5731083 16.5276641,14.0172725 C16.7374672,13.4795188 16.8809442,12.8650648 16.9221236,11.9652638 C16.9634519,11.0636471 16.973198,10.7758175 16.973198,8.47996137 C16.973198,6.18417931 16.9634519,5.89638675 16.9221236,4.99473307 C16.8809442,4.0949691 16.7374672,3.48047807 16.5276641,2.94276137 C16.3107932,2.38688858 16.0206028,1.91542308 15.5488063,1.44547676 C15.0770098,0.975530445 14.6037254,0.686478074 14.0456269,0.470494705 C13.5058304,0.261514398 12.8889573,0.118637082 11.9856138,0.0775450328 C11.0804475,0.0363788767 10.7914475,0.0266709263 8.48662691,0.0266709263 M8.48662691,1.5497446 C10.7526488,1.5497446 11.0210033,1.558378 11.9159398,1.59906247 C12.7433228,1.63663446 13.1926882,1.77439842 13.4917691,1.89015276 C13.8879026,2.0434791 14.170616,2.2267074 14.4675766,2.5224664 C14.7645744,2.81829952 14.9484869,3.09986713 15.1023796,3.49444715 C15.2185897,3.79231819 15.3568589,4.23995845 15.3946532,5.06409675 C15.4354234,5.95552373 15.444128,6.22282585 15.444128,8.47996137 C15.444128,10.737171 15.4354234,11.0044731 15.3946532,11.895826 C15.3568589,12.7200754 15.2185897,13.1676787 15.1023796,13.4655497 C14.9484869,13.8600556 14.7645744,14.1416973 14.4675766,14.4375304 C14.170616,14.7333265 13.8879026,14.9165178 13.4917691,15.0698811 C13.1926882,15.1855984 12.7433228,15.3233624 11.9159398,15.3608973 C11.0211149,15.4016188 10.7527976,15.4101781 8.48662691,15.4101781 C6.22041904,15.4101781 5.95210175,15.4016188 5.057314,15.3608973 C4.22989387,15.3233624 3.78052845,15.1855984 3.48148468,15.0698811 C3.085314,14.9165178 2.80260066,14.7333265 2.50567724,14.4375304 C2.20871663,14.1416973 2.02480416,13.8600556 1.87083698,13.4655497 C1.75462691,13.1676787 1.61635777,12.7200754 1.57860066,11.895826 C1.53779322,11.0044731 1.52912582,10.737171 1.52912582,8.47996137 C1.52912582,6.22282585 1.53779322,5.95552373 1.57860066,5.06409675 C1.61635777,4.23995845 1.75462691,3.79231819 1.87083698,3.49444715 C2.02480416,3.09986713 2.20871663,2.81829952 2.50567724,2.5224664 C2.80260066,2.2267074 3.085314,2.0434791 3.48148468,1.89015276 C3.78052845,1.77439842 4.22989387,1.63663446 5.057314,1.59906247 C5.95225055,1.558378 6.22060503,1.5497446 8.48662691,1.5497446" id="Fill-1" fill="#FFFFFF" mask="url(#mask-2)"></path>
                    </g>
                    <path d="M8.50001921,11.4210897 C6.88673737,11.4210897 5.57894198,10.1132887 5.57894198,8.50003841 C5.57894198,6.88674969 6.88673737,5.57894872 8.50001921,5.57894872 C10.113301,5.57894872 11.421058,6.88674969 11.421058,8.50003841 C11.421058,10.1132887 10.113301,11.4210897 8.50001921,11.4210897 M8.50001921,4 C6.01475854,4 4,6.01476714 4,8.50003841 C4,10.9853481 6.01475854,13 8.50001921,13 C10.9852799,13 13,10.9853481 13,8.50003841 C13,6.01476714 10.9852799,4 8.50001921,4" id="Fill-4" fill="#FFFFFF"></path>
                    <path d="M14,4 C14,4.55225189 13.5522966,5 12.9999817,5 C12.4477765,5 12,4.55225189 12,4 C12,3.44767506 12.4477765,3 12.9999817,3 C13.5522966,3 14,3.44767506 14,4" id="Fill-6" fill="#FFFFFF"></path>
                </g>
            </g>
        </g>
    </g>
</svg>