<?xml version="1.0" encoding="utf-8"?>
<!-- Generator: Adobe Illustrator 16.0.0, SVG Export Plug-In . SVG Version: 6.00 Build 0)  -->
<!DOCTYPE svg PUBLIC "-//W3C//DTD SVG 1.1//EN" "http://www.w3.org/Graphics/SVG/1.1/DTD/svg11.dtd">
<svg version="1.1" id="Layer_1" xmlns="http://www.w3.org/2000/svg" xmlns:xlink="http://www.w3.org/1999/xlink" x="0px" y="0px"
	 width="324px" height="89.036px" viewBox="0 0 324 89.036" enable-background="new 0 0 324 89.036" xml:space="preserve">
<g>
	<g>
		<path fill="#231F20" d="M294.922,1.454c-1.664,0.466-2.664,1.681-2.664,3.144c0,1.663,0.912,2.7,2.254,2.7
			c0.805,0,1.391-0.286,1.785-0.876c0.572-0.839,0.857-1.894,1.287-3.001c0.785-2.001,1.66-2.968,3.34-2.968
			c2.074,0,3.449,1.485,3.449,3.79c0,2.001-1.109,3.432-3.164,4.039l-0.375-1.288c1.537-0.429,2.34-1.447,2.34-2.893
			c0-1.395-0.82-2.271-2.105-2.271c-0.625,0-1.127,0.286-1.574,0.841c-0.428,0.553-0.715,1.518-1.178,2.75
			c-0.84,2.216-1.717,3.252-3.719,3.252c-2.123,0-3.57-1.556-3.57-4.002c0-2.306,1.16-3.86,3.447-4.575L294.922,1.454z"/>
		<path fill="#231F20" d="M291.028,15.303c0-3.144,2.375-4.966,6.682-4.966c4.252,0,6.664,1.93,6.664,4.859
			c0,2.395-1.305,3.896-3.859,4.45l-0.338-1.34c1.945-0.394,2.982-1.465,2.982-2.984c0-2.215-1.912-3.538-5.504-3.538
			c-3.502,0-5.396,1.341-5.396,3.573c0,1.68,1.111,2.84,3.145,3.198l-0.285,1.304C292.385,19.234,291.028,17.716,291.028,15.303z"/>
		<path fill="#231F20" d="M304.159,22.026v1.412h-5.521v6.485h5.521v1.411h-12.916v-1.411h6.145v-6.485h-6.145v-1.412H304.159z"/>
		<path fill="#231F20" d="M304.374,38.636c0,3.054-2.52,5.109-6.664,5.109s-6.682-2.055-6.682-5.109
			c0-3.056,2.553-5.111,6.682-5.111C301.836,33.525,304.374,35.58,304.374,38.636z M292.278,38.636c0,2.251,1.949,3.663,5.432,3.663
			c3.484,0,5.432-1.412,5.432-3.663s-1.947-3.663-5.432-3.663C294.227,34.974,292.278,36.385,292.278,38.636z"/>
		<path fill="#231F20" d="M304.374,50.792c0,3.057-2.52,5.111-6.664,5.111s-6.682-2.055-6.682-5.111
			c0-3.054,2.553-5.109,6.682-5.109C301.836,45.682,304.374,47.738,304.374,50.792z M292.278,50.792
			c0,2.254,1.949,3.664,5.432,3.664c3.484,0,5.432-1.41,5.432-3.664c0-2.25-1.947-3.662-5.432-3.662
			C294.227,47.129,292.278,48.542,292.278,50.792z"/>
		<path fill="#231F20" d="M304.159,58.185v1.465h-11.684v5.771h-1.232v-7.235H304.159z"/>
		<path fill="#231F20" d="M304.374,74.063c0,3.057-2.52,5.109-6.664,5.109s-6.682-2.053-6.682-5.109
			c0-3.059,2.553-5.111,6.682-5.111C301.836,68.952,304.374,71.004,304.374,74.063z M292.278,74.063c0,2.25,1.949,3.66,5.432,3.66
			c3.484,0,5.432-1.41,5.432-3.66c0-2.252-1.947-3.662-5.432-3.662C294.227,70.401,292.278,71.811,292.278,74.063z"/>
		<path fill="#231F20" d="M304.159,81.456v7.574h-1.213v-6.146h-4.309v4.557h-1.213v-4.557h-6.182v-1.428H304.159z"/>
	</g>
	<g>
		<path fill="#231F20" d="M312.278,8.468c-1.107-0.803-1.623-1.912-1.623-3.413c0-3.073,2.463-5.055,6.607-5.055
			C321.569,0,324,1.912,324,5.109c0,2.27-1.27,3.771-3.789,4.484l-0.285-1.464c1.875-0.501,2.84-1.521,2.84-3.075
			c0-2.269-1.893-3.59-5.396-3.59c-3.518,0-5.484,1.411-5.484,3.681c0,1.875,1.143,3.126,3.111,3.126h0.908V5.288h1.234v4.465
			h-6.273V8.521L312.278,8.468z"/>
		<path fill="#231F20" d="M323.784,13.158v3.627c0,3.483-0.947,5.163-3.41,5.163c-1.682,0-2.789-0.894-3.307-2.68l-6.201,3.039
			v-1.573l5.861-2.842v-3.323h-5.861v-1.411H323.784z M322.588,14.569h-4.664v2.162c0,2.591,0.646,3.771,2.324,3.771
			c1.893,0,2.34-1.128,2.34-3.718V14.569z"/>
		<path fill="#231F20" d="M323.784,28.132v2.181l-12.918,3.965v-1.5l4.021-1.162V26.81l-4.021-1.144v-1.519L323.784,28.132z
			 M316.084,31.224l6.736-1.929v-0.197l-6.736-1.948V31.224z"/>
		<path fill="#231F20" d="M323.784,36.637v3.075c0,1.731-0.213,3.001-1.018,4.074c-1.072,1.414-2.965,2.234-5.432,2.234
			c-4.287,0-6.469-2.216-6.469-6.631v-2.751H323.784z M322.588,38.05h-10.451v1.144c0,1.643,0.16,2.841,0.891,3.752
			c0.84,1.071,2.322,1.679,4.289,1.679c2.074,0,3.572-0.59,4.432-1.696c0.75-0.966,0.84-2.073,0.84-3.539V38.05z"/>
		<path fill="#231F20" d="M323.784,50.026h-8.324c-0.803,0-1.486,0.018-2.109,0.338c-0.91,0.465-1.465,1.502-1.465,2.896
			c0,1.41,0.555,2.445,1.465,2.91c0.68,0.34,1.43,0.34,2.342,0.34h8.092v1.412h-8.557c-3.002,0-4.572-1.627-4.572-4.662
			c0-3.057,1.553-4.648,4.572-4.648h8.557V50.026z"/>
		<path fill="#231F20" d="M323.784,63.782v2.182l-12.918,3.965v-1.502l4.021-1.162v-4.805l-4.021-1.145v-1.52L323.784,63.782z
			 M316.084,66.872l6.736-1.93v-0.197l-6.736-1.945V66.872z"/>
		<path fill="#231F20" d="M322.551,73.817v-3.771h1.232v9.006h-1.232v-3.77h-11.686v-1.465H322.551z"/>
		<path fill="#231F20" d="M323.784,81.397v7.631h-1.213v-6.201h-4.307v4.396h-1.215v-4.396H312.1v6.201h-1.234v-7.631H323.784z"/>
	</g>
</g>
<path fill="#231F20" d="M65.957,48.374c6.301,0.438,6.301,3.182,6.301,8.17v14.033c0,5.24,0,8.107-1.747,10.791
	c-2.681,4.178-7.921,5.611-12.037,5.611c-5.425,0-8.731-2.432-10.165-4.865c-1.56-2.617-1.56-5.924-1.56-11.85V57.292
	c0-8.918,0.187-8.918,6.362-8.918V47H34.275v1.373h0.936c5.488,0,5.55,0.688,5.55,9.043v12.66c0,6.986,0,9.854,2.057,12.91
	c1.622,2.371,5.676,6.049,14.221,6.049c7.858,0,12.909-3.115,15.093-7.107c1.622-2.992,1.622-5.676,1.622-11.102V57.104
	c0-5.113,0-8.293,6.05-8.73V47H65.957V48.374z M112.383,48.374h0.874c5.427,0,5.549,0.562,5.549,8.918v20.27
	c0,7.984,0,9.355-5.238,9.355h-1.185v1.373h18.834v-1.373h-1.185c-5.237,0-5.237-1.371-5.237-9.355v-20.27
	c0-8.42,0.125-8.918,5.55-8.918h0.873V47h-18.834V48.374z M95.397,63.338c-4.803-2.119-9.917-4.365-9.917-9.291
	c0-2.746,1.872-6.299,7.11-6.299c4.632,0,9.841,3.514,10.923,9.174h1.364v-9.924h-1.309c-0.126,0.75-0.548,2.721-1.623,3.619
	c-1.497-1.623-4.116-4.367-9.542-4.367c-6.86,0-10.914,4.863-10.914,10.229c0,7.857,6.798,10.789,11.414,12.785
	c0.373,0.125,2.43,0.998,2.806,1.186c4.178,1.807,8.418,4.178,8.418,9.043c0,3.803-3.055,8.043-9.167,8.043
	c-8.844,0-11.551-8.461-12.271-12.09h-1.513V88.29h1.366c0.457-2.688,1.253-3.869,1.627-4.432c0.998,1.123,4.553,5.176,11.351,5.176
	c7.921,0,12.972-4.926,12.972-11.91C108.494,69.264,103.443,66.893,95.397,63.338z M236.485,63.338
	c-4.803-2.119-9.916-4.365-9.916-9.291c0-2.746,1.871-6.299,7.111-6.299c4.631,0,9.84,3.514,10.922,9.174h1.365v-9.924h-1.311
	c-0.125,0.75-0.547,2.721-1.623,3.619c-1.496-1.623-4.115-4.367-9.541-4.367c-6.859,0-10.914,4.863-10.914,10.229
	c0,7.857,6.797,10.789,11.414,12.785c0.373,0.125,2.43,0.998,2.807,1.186c4.178,1.807,8.418,4.178,8.418,9.043
	c0,3.803-3.057,8.043-9.168,8.043c-8.844,0-11.551-8.461-12.27-12.09h-1.514V88.29h1.365c0.457-2.688,1.254-3.869,1.627-4.432
	c1,1.123,4.555,5.176,11.352,5.176c7.922,0,12.973-4.926,12.973-11.91C249.583,69.264,244.532,66.893,236.485,63.338z
	 M268.858,63.338c-4.803-2.119-9.916-4.365-9.916-9.291c0-2.746,1.871-6.299,7.109-6.299c4.631,0,9.842,3.514,10.924,9.174h1.363
	v-9.924h-1.309c-0.125,0.75-0.547,2.721-1.623,3.619c-1.496-1.623-4.115-4.367-9.541-4.367c-6.861,0-10.914,4.863-10.914,10.229
	c0,7.857,6.797,10.789,11.412,12.785c0.375,0.125,2.432,0.998,2.807,1.186c4.178,1.807,8.418,4.178,8.418,9.043
	c0,3.803-3.055,8.043-9.168,8.043c-8.842,0-11.549-8.461-12.27-12.09h-1.512V88.29h1.365c0.457-2.688,1.254-3.869,1.627-4.432
	c0.998,1.123,4.555,5.176,11.352,5.176c7.922,0,12.973-4.926,12.973-11.91C281.956,69.264,276.905,66.893,268.858,63.338z
	 M164.684,48.374c7.046,0.061,7.046,3.243,7.046,6.236v24.154h-0.123L147.281,47h-12.161v1.373c5.238,0,6.111,0,6.111,8.918v21.891
	c0,3.869,0,4.865-0.935,5.803c-1.686,1.621-4.492,1.807-5.738,1.932v1.373h15.404v-1.373c-3.927-0.062-5.426-1.184-5.799-1.559
	c-1.25-1.061-1.436-1.871-1.436-6.176V50.557h0.126l28.881,37.73h1.491V55.045c0-3.303,0-6.109,6.425-6.672V47h-14.967V48.374z
	 M203.048,86.917h-3.054c-5.677,0-6.051-0.5-6.051-9.98v-9.791h4.49c4.739,0,6.111,0.312,6.111,6.551h1.436V59.538h-1.436
	c0,4.803-0.373,6.236-6.173,6.236h-4.429v-17.4h6.033c7.227,0,10.232,0.258,11.957,8.547h1.415V47h-30.756v1.373
	c5.302,0,5.362,0.75,5.362,8.918v20.27c0,7.984,0,9.355-5.362,9.355h-0.813v1.373h34.181l0.006-12.842h-1.435
	C212.493,86.975,207.203,86.917,203.048,86.917z M19.786,66.149v-0.127c2.494-0.311,11.661-1.682,11.661-9.605
	c0-9.852-13.035-9.436-16.9-9.436C12.8,46.981,0.015,47,0.015,47v1.373c6.175,0,6.362,0,6.362,9.043v20.145
	c0,7.984,0,9.355-5.239,9.355H0v1.373h15.795c3.554,0,9.417,0,12.909-2.184c3.119-1.934,4.991-5.363,4.991-9.043
	C33.694,69.766,27.582,66.649,19.786,66.149z M12.363,48.376c0,0,2.659-0.034,3.813-0.009c5.996,0.121,8.847,2.033,8.847,8.365
	c0,7.857-4.926,8.918-12.66,8.73V48.376z M17.354,86.854c-4.991,0-4.991-1.186-4.991-10.664v-9.23
	c6.237-0.375,9.73,0.684,11.476,1.932c2.309,1.686,3.182,4.305,3.182,7.986C27.021,79.059,27.082,86.854,17.354,86.854z"/>
<path fill="#A4001D" d="M47.11,28.117V1.904h5.717c4.537,0,6.942,0.005,8.23,7.678h1.125l-0.002-8.91H26.663l0.002,8.91h1.233
	c0.448-2.632,1.116-4.934,2.013-6.055c1.288-1.624,2.646-1.624,6.509-1.624h5.312v26.212c0,7.169,0.057,8.401-4.705,8.401h-1.905
	v1.231h18.541v-1.231h-1.849C47.11,36.518,47.11,35.286,47.11,28.117z M186.301,0c-10.082,0-19.994,6.33-19.994,18.931
	c0,12.321,8.904,19.49,20.162,19.49c12.32,0,20.219-7.952,20.219-19.267C206.688,5.881,196.383,0,186.301,0z M186.694,37.078
	c-9.744,0-14.115-6.385-14.115-17.923c0-7.785,2.352-17.81,13.891-17.81c12.826,0,13.945,12.49,13.945,17.868
	C200.415,25.483,198.848,37.078,186.694,37.078z M274.469,4.929c-3.418-2.913-7.771-4.256-15.891-4.256c-3.139,0-16.482,0-16.482,0
	v1.231h1.064c4.928,0,5.041,0.785,5.041,8.291v17.922c0,5.108-0.137,7.433-1.992,8.229c-1.023,0.357-1.85,0.289-2.385,0.184
	c-2.285-0.451-4.271-2.104-8.705-8.076c-0.281-0.337-1.625-2.13-1.904-2.521c-0.672-0.897-4.146-5.546-6.555-6.777v-0.111
	c5.883-0.616,10.586-3.698,10.586-9.297c0-2.409-0.896-4.537-3.137-6.386c-2.129-1.736-5.377-2.684-12.938-2.684
	c-1.568,0-13.721-0.004-13.721-0.004v1.232c5.486,0,5.654,0,5.654,8.01v18.203c0,7.169,0,8.401-4.76,8.401h-1.174v1.231h17.752
	v-1.231h-1.791c-4.705,0-4.648-1.232-4.648-8.401v-8.233h1.455c0.615,0,1.736-0.057,2.633,0.841c1.121,1.119,3.586,3.976,5.824,7.28
	c1.514,2.24,5.322,7.729,8.123,9.745h21.873c5.49,0,11.537,0.057,16.41-4.088c5.041-4.258,5.713-10.978,5.713-14.114
	C280.516,15.402,279.565,9.243,274.469,4.929z M221.565,18.539h-3.08V2.148c0.736-0.002,1.281-0.002,2.291-0.002
	c4.986,0,10.479-0.072,10.479,7.991C231.254,15.627,228.79,18.539,221.565,18.539z M269.204,33.942
	c-3.08,2.407-7.17,2.521-9.803,2.521c-5.879,0-5.824-0.226-5.824-9.972V1.902c0,0,2.633-0.02,4.537-0.02
	c2.912,0,9.074-0.314,12.938,5.175c2.914,4.144,3.473,9.354,3.473,12.882C274.524,24.364,273.684,30.469,269.204,33.942z
	 M12.77,15.346c-4.313-1.903-8.905-3.92-8.905-8.344c0-2.464,1.68-5.657,6.384-5.657c4.16,0,8.838,3.157,9.81,8.24h1.226V0.672
	h-1.176c-0.113,0.672-0.492,2.443-1.458,3.248C17.307,2.464,14.955,0,10.082,0C3.921,0,0.28,4.368,0.28,9.186
	c0,7.057,6.105,9.689,10.25,11.481c0.335,0.111,2.183,0.896,2.52,1.064c3.752,1.624,7.56,3.751,7.56,8.121
	c0,3.415-2.744,7.225-8.233,7.225c-7.941,0-10.372-7.601-11.019-10.859H0v11.53h1.283c0.34-2.281,1.068-3.471,1.405-3.976
	c0.896,1.009,4.089,4.648,10.194,4.648c7.113,0,11.65-4.425,11.65-10.697C24.532,20.667,19.995,18.539,12.77,15.346z M121.899,1.904
	c6.327,0.056,6.327,2.18,6.327,5.601v21.806h-0.11L106.272,0.672H95.351v1.232c4.704,0,5.488,0,5.488,8.01v19.659
	c0,3.472-0.032,4.603-0.841,5.473c-1.244,1.339-3.156,1.773-4.759,1.457c-2.224-0.576-2.902-1.92-3.869-4.242
	c-0.056-0.224-0.281-0.728-0.561-1.288L77.815,0.112H76.75L65.997,25.876c-0.279,0.615-1.175,2.8-1.344,3.192
	c-1.792,4.704-2.632,6.833-6.553,7.449v1.231h11.034v-1.231c-3.192,0-4.033-1.961-4.033-3.474c0-1.566,0.952-3.696,1.905-6.048
	c0.112-0.28,0.167-0.505,0.223-0.56l0.952-2.353h14.115l2.8,6.832c0.112,0.224,0.615,1.344,0.671,1.569
	c0.393,0.839,0.617,1.456,0.617,2.016c0,2.017-1.96,2.017-4.593,2.017v1.231h26.889v-1.231c-3.529-0.055-4.872-1.064-5.209-1.4
	c-1.121-0.951-1.289-1.681-1.289-5.545V3.866h0.113l25.942,33.883h1.333V7.897c0-2.966,0.101-6.086,5.762-6.086
	c5.662,0,5.767,3.117,5.767,6.082v20.224c0,7.169,0,8.401-4.706,8.401h-1.118v1.231h17.193v-1.231h-1.231
	c-4.761,0-4.761-1.232-4.761-8.401v-9.241h3.472c3.362,0,5.603,0,5.603,6.159h1.344V11.986h-1.344c0,5.209-1.793,5.657-5.603,5.657
	h-3.472V1.904h7.227c3.584,0,5.869,0,7.66,2.576c1.504,2.124,1.578,3.723,1.713,5.103h1.322l0.002-8.91h-42.501V1.904z
	 M68.742,22.852l6.497-15.794l6.553,15.794H68.742z"/>
</svg>
