<svg xmlns="http://www.w3.org/2000/svg" width="324" height="89.036"><g fill="#231F20"><path d="M294.92 1.45c-1.66.47-2.66 1.7-2.66 3.15 0 1.66.9 2.7 2.25 2.7.82 0 1.4-.3 1.8-.88.57-.84.85-1.9 1.28-3 .8-2 1.66-2.97 3.34-2.97 2.08 0 3.45 1.5 3.45 3.8 0 2-1.1 3.43-3.16 4.03l-.37-1.3c1.54-.42 2.34-1.43 2.34-2.88 0-1.4-.82-2.27-2.1-2.27-.63 0-1.13.3-1.57.84-.43.55-.72 1.52-1.18 2.75-.84 2.22-1.72 3.25-3.72 3.25-2.13 0-3.57-1.55-3.57-4 0-2.3 1.16-3.86 3.45-4.57l.44 1.35zM291.03 15.3c0-3.14 2.37-4.96 6.68-4.96 4.26 0 6.67 1.93 6.67 4.86 0 2.4-1.3 3.9-3.85 4.45l-.34-1.34c1.94-.4 2.98-1.46 2.98-2.98 0-2.2-1.9-3.54-5.5-3.54-3.5 0-5.4 1.35-5.4 3.58 0 1.68 1.1 2.84 3.14 3.2l-.28 1.3c-2.74-.63-4.1-2.14-4.1-4.56zM304.16 22.03v1.4h-5.52v6.5h5.52v1.4h-12.92v-1.4h6.15v-6.5h-6.16v-1.4h12.92zM304.37 38.64c0 3.05-2.52 5.1-6.66 5.1s-6.67-2.05-6.67-5.1c0-3.06 2.55-5.1 6.68-5.1 4.14-.02 6.67 2.04 6.67 5.1zm-12.1 0c0 2.25 1.96 3.66 5.44 3.66 3.5 0 5.44-1.4 5.44-3.66s-1.94-3.67-5.43-3.67c-3.47 0-5.42 1.4-5.42 3.67zM304.37 50.8c0 3.05-2.52 5.1-6.66 5.1s-6.67-2.05-6.67-5.1c0-3.06 2.55-5.12 6.68-5.12 4.14 0 6.67 2.06 6.67 5.1zm-12.1 0c0 2.25 1.96 3.66 5.44 3.66 3.5 0 5.44-1.4 5.44-3.67 0-2.26-1.94-3.67-5.43-3.67-3.47 0-5.42 1.4-5.42 3.66zM304.16 58.19v1.45h-11.7v5.77h-1.22V58.2h12.92zM304.37 74.06c0 3.06-2.52 5.1-6.66 5.1s-6.67-2.04-6.67-5.1c0-3.06 2.55-5.1 6.68-5.1 4.14 0 6.67 2.04 6.67 5.1zm-12.1 0c0 2.25 1.96 3.66 5.44 3.66 3.5 0 5.44-1.4 5.44-3.66 0-2.25-1.94-3.66-5.43-3.66-3.47 0-5.42 1.4-5.42 3.66zM304.16 81.46v7.57h-1.2v-6.15h-4.32v4.56h-1.22v-4.56h-6.18v-1.42h12.92zM312.28 8.47c-1.1-.8-1.62-1.9-1.62-3.42 0-3.07 2.46-5.05 6.6-5.05 4.3 0 6.74 1.9 6.74 5.1 0 2.28-1.27 3.78-3.8 4.5l-.27-1.47c1.87-.5 2.84-1.52 2.84-3.08 0-2.27-1.9-3.6-5.4-3.6-3.52 0-5.48 1.42-5.48 3.7 0 1.87 1.13 3.12 3.1 3.12h.9V5.3h1.24v4.45h-6.27V8.52l1.4-.05zM323.78 13.16v3.62c0 3.5-.94 5.17-3.4 5.17-1.7 0-2.8-.9-3.3-2.68l-6.2 3.04v-1.57l5.85-2.84v-3.33h-5.86v-1.4h12.9zm-1.2 1.4h-4.66v2.17c0 2.6.65 3.77 2.33 3.77 1.9 0 2.34-1.13 2.34-3.72v-2.2zM323.78 28.13v2.18l-12.9 3.98v-1.5l4-1.16v-4.8l-4-1.15v-1.52l12.9 3.98zm-7.7 3.1l6.74-1.94v-.2l-6.74-1.95v4.07zM323.78 36.64v3.07c0 1.74-.2 3-1 4.1-1.1 1.4-2.98 2.22-5.45 2.22-4.28 0-6.46-2.22-6.46-6.63v-2.76h12.9zm-1.2 1.4h-10.44v1.15c0 1.64.16 2.83.9 3.75.83 1.07 2.3 1.67 4.28 1.67 2.07 0 3.57-.58 4.43-1.7.75-.96.84-2.06.84-3.53v-1.35zM323.78 50.03h-8.32c-.8 0-1.5 0-2.1.33-.92.47-1.47 1.5-1.47 2.9s.54 2.45 1.45 2.9c.68.35 1.43.35 2.34.35h8.08v1.42h-8.55c-3 0-4.57-1.62-4.57-4.66 0-3.06 1.55-4.65 4.57-4.65h8.55v1.43zM323.78 63.78v2.18l-12.9 3.97v-1.5l4-1.17v-4.8l-4-1.15v-1.5l12.9 3.98zm-7.7 3.1l6.74-1.94v-.2l-6.74-1.94v4.07zM322.55 73.82v-3.77h1.23v9h-1.23v-3.77h-11.7v-1.46h11.7zM323.78 81.4v7.63h-1.2v-6.2h-4.32v4.4h-1.2v-4.4h-4.96v6.2h-1.23V81.4h12.9z"/></g><path fill="#231F20" d="M65.96 48.37c6.3.44 6.3 3.2 6.3 8.17v14.04c0 5.24 0 8.1-1.75 10.8-2.67 4.17-7.9 5.6-12.03 5.6-5.42 0-8.73-2.43-10.16-4.87-1.55-2.6-1.55-5.9-1.55-11.84V57.3c0-8.93.2-8.93 6.36-8.93V47H34.28v1.37h.94c5.5 0 5.56.7 5.56 9.05v12.66c0 6.98 0 9.85 2.06 12.9 1.62 2.38 5.67 6.05 14.22 6.05 7.86 0 12.9-3.1 15.1-7.1 1.6-3 1.6-5.68 1.6-11.1V57.1c0-5.1 0-8.3 6.06-8.73V47H65.96v1.37zm46.42 0h.88c5.42 0 5.55.57 5.55 8.92v20.26c0 8 0 9.36-5.23 9.36h-1.2v1.37h18.85V86.9h-1.2c-5.23 0-5.23-1.37-5.23-9.36V57.3c0-8.43.12-8.93 5.54-8.93h.88V47h-18.84v1.37zM95.4 63.34c-4.8-2.12-9.92-4.37-9.92-9.3 0-2.74 1.87-6.3 7.1-6.3 4.64 0 9.85 3.52 10.93 9.18h1.38V47h-1.3c-.14.75-.56 2.72-1.63 3.62-1.5-1.63-4.12-4.37-9.55-4.37-6.86 0-10.9 4.86-10.9 10.23 0 7.86 6.8 10.8 11.4 12.78.38.13 2.43 1 2.8 1.2 4.2 1.8 8.43 4.17 8.43 9.03 0 3.8-3.06 8.04-9.17 8.04-8.84 0-11.55-8.47-12.27-12.1h-1.52V88.3h1.36c.46-2.7 1.25-3.88 1.63-4.44 1 1.12 4.55 5.17 11.35 5.17 7.92 0 12.97-4.92 12.97-11.9 0-7.87-5.06-10.24-13.1-13.8zm141.1 0c-4.82-2.12-9.93-4.37-9.93-9.3 0-2.74 1.87-6.3 7.1-6.3 4.64 0 9.85 3.52 10.93 9.18h1.37V47h-1.3c-.14.75-.56 2.72-1.64 3.62-1.5-1.63-4.1-4.37-9.54-4.37-6.87 0-10.92 4.86-10.92 10.23 0 7.86 6.8 10.8 11.4 12.78.4.13 2.44 1 2.82 1.2 4.18 1.8 8.42 4.17 8.42 9.03 0 3.8-3.06 8.04-9.17 8.04-8.85 0-11.55-8.47-12.27-12.1h-1.52V88.3h1.37c.46-2.7 1.25-3.88 1.63-4.44 1 1.12 4.55 5.17 11.35 5.17 7.93 0 12.98-4.92 12.98-11.9 0-7.87-5.05-10.24-13.1-13.8zm32.36 0c-4.8-2.12-9.92-4.37-9.92-9.3 0-2.74 1.87-6.3 7.1-6.3 4.64 0 9.85 3.52 10.93 9.18h1.37V47h-1.3c-.14.75-.56 2.72-1.63 3.62-1.5-1.63-4.1-4.37-9.54-4.37-6.86 0-10.9 4.86-10.9 10.23 0 7.86 6.8 10.8 11.4 12.78.38.13 2.43 1 2.8 1.2 4.2 1.8 8.43 4.17 8.43 9.03 0 3.8-3.07 8.04-9.18 8.04-8.84 0-11.55-8.47-12.27-12.1h-1.5V88.3H256c.46-2.7 1.26-3.88 1.63-4.44 1 1.12 4.55 5.17 11.35 5.17 7.92 0 12.97-4.92 12.97-11.9 0-7.87-5.05-10.24-13.1-13.8zM164.68 48.37c7.05.07 7.05 3.25 7.05 6.24v24.16h-.12L147.3 47h-12.16v1.37c5.24 0 6.1 0 6.1 8.92v21.88c0 3.87 0 4.87-.92 5.8-1.7 1.63-4.5 1.8-5.74 1.94v1.37h15.4V86.9c-3.93-.07-5.42-1.2-5.8-1.56-1.25-1.06-1.43-1.87-1.43-6.18V50.56h.12l28.88 37.73h1.5V55.04c0-3.3 0-6.1 6.42-6.68V47h-14.97v1.37zm38.37 38.55H200c-5.68 0-6.06-.5-6.06-9.98v-9.8h4.5c4.73 0 6.1.32 6.1 6.56h1.44V59.54h-1.44c0 4.8-.37 6.23-6.17 6.23h-4.43v-17.4h6.04c7.22 0 10.23.26 11.95 8.55h1.42V47H182.6v1.37c5.3 0 5.35.75 5.35 8.92v20.26c0 7.98 0 9.36-5.36 9.36h-.82v1.37h34.18V75.44h-1.43c-2.04 11.52-7.33 11.47-11.48 11.47zM19.8 66.15v-.13c2.48-.3 11.65-1.68 11.65-9.6 0-9.86-13.04-9.44-16.9-9.44C12.8 46.98 0 47 0 47v1.37c6.2 0 6.38 0 6.38 9.05v20.14c0 7.98 0 9.36-5.24 9.36H0v1.37h15.8c3.55 0 9.4 0 12.9-2.2 3.12-1.93 5-5.36 5-9.04 0-7.3-6.12-10.4-13.9-10.9zm-7.44-17.77s2.66-.04 3.82 0c6 .1 8.84 2.02 8.84 8.35 0 7.86-4.92 8.92-12.66 8.73V48.38zm5 38.47c-5 0-5-1.18-5-10.66v-9.24c6.24-.38 9.73.68 11.48 1.93 2.3 1.68 3.18 4.3 3.18 7.98 0 2.18.06 9.97-9.67 9.97z"/><path fill="#A4001D" d="M47.1 28.12V1.9h5.73c4.53 0 6.94 0 8.23 7.68h1.12V.68H26.66v8.9h1.24c.45-2.63 1.1-4.93 2-6.05 1.3-1.63 2.66-1.63 6.52-1.63h5.3V28.1c0 7.18.07 8.42-4.7 8.42h-1.9v1.23h18.54v-1.23H51.8c-4.7 0-4.7-1.23-4.7-8.4zM186.3 0c-10.08 0-20 6.33-20 18.93 0 12.32 8.9 19.5 20.17 19.5 12.32 0 20.22-7.96 20.22-19.28C206.7 5.88 196.37 0 186.3 0zm.4 37.08c-9.75 0-14.12-6.4-14.12-17.92 0-7.8 2.35-17.8 13.9-17.8 12.82 0 13.93 12.48 13.93 17.85 0 6.28-1.55 17.88-13.7 17.88zm87.77-32.15c-3.42-2.9-7.77-4.26-15.9-4.26-3.13 0-16.47 0-16.47 0V1.9h1.06c4.93 0 5.04.8 5.04 8.3v17.92c0 5.1-.14 7.43-2 8.23-1 .35-1.84.3-2.38.18-2.28-.45-4.27-2.1-8.7-8.08-.28-.33-1.63-2.13-1.9-2.52-.68-.9-4.15-5.54-6.56-6.77v-.12c5.88-.6 10.6-3.7 10.6-9.3 0-2.4-.9-4.53-3.15-6.38C232 1.63 228.74.68 221.18.68c-1.57 0-13.72 0-13.72 0V1.9c5.5 0 5.65 0 5.65 8.02v18.2c0 7.17 0 8.4-4.76 8.4h-1.17v1.23h17.75v-1.23h-1.8c-4.7 0-4.64-1.23-4.64-8.4V19.9h1.46c.6 0 1.73-.07 2.63.83 1.12 1.12 3.6 3.97 5.83 7.28 1.5 2.25 5.32 7.74 8.12 9.75h21.87c5.48 0 11.53.06 16.4-4.1 5.04-4.24 5.7-10.96 5.7-14.1.02-4.15-.94-10.3-6.03-14.62zm-52.9 13.6h-3.08V2.16c.72 0 1.27 0 2.28 0 4.98 0 10.47-.08 10.47 8 0 5.48-2.46 8.4-9.7 8.4zm47.63 15.4c-3.08 2.42-7.17 2.53-9.8 2.53-5.88 0-5.82-.22-5.82-9.97V1.9s2.63-.02 4.53-.02c2.93 0 9.1-.3 12.95 5.18 2.92 4.14 3.47 9.35 3.47 12.88 0 4.42-.84 10.53-5.32 14zM12.77 15.36c-4.3-1.9-8.9-3.92-8.9-8.35 0-2.46 1.67-5.65 6.38-5.65 4.16 0 8.84 3.15 9.8 8.24h1.23V.66H20.1c-.1.67-.48 2.45-1.45 3.25C17.3 2.46 14.95 0 10.08 0 3.92 0 .28 4.37.28 9.2c0 7.04 6.1 9.68 10.25 11.47.34.1 2.18.9 2.52 1.06 3.75 1.63 7.56 3.75 7.56 8.12 0 3.42-2.73 7.23-8.22 7.23-7.94 0-10.38-7.6-11.02-10.86H0v11.53h1.28c.34-2.28 1.07-3.47 1.4-3.98.9 1 4.1 4.65 10.2 4.65 7.12 0 11.65-4.42 11.65-10.7 0-7.05-4.54-9.18-11.76-12.37zM121.9 1.9c6.33.06 6.33 2.18 6.33 5.6v21.8h-.1L106.26.68H95.35V1.9c4.7 0 5.5 0 5.5 8v19.67c0 3.48-.04 4.6-.85 5.48-1.25 1.34-3.16 1.77-4.76 1.45-2.22-.57-2.9-1.92-3.87-4.24-.06-.22-.28-.73-.56-1.3L77.83.12h-1.07L66 25.9c-.28.6-1.18 2.8-1.35 3.2-1.8 4.7-2.63 6.82-6.55 7.44v1.23h11.03v-1.23c-3.2 0-4.03-1.96-4.03-3.48 0-1.56.95-3.7 1.9-6.04.12-.28.17-.5.23-.56l.95-2.36H82.3l2.8 6.83c.1.24.6 1.36.67 1.58.4.84.6 1.46.6 2.02 0 2.02-1.95 2.02-4.58 2.02v1.23h26.88v-1.23c-3.53-.06-4.87-1.07-5.2-1.4-1.13-.95-1.3-1.68-1.3-5.55V3.87h.1l25.96 33.88h1.33V7.9c0-2.97.1-6.1 5.76-6.1s5.77 3.13 5.77 6.1V28.1c0 7.17 0 8.4-4.7 8.4h-1.13v1.23h17.2v-1.23h-1.23c-4.76 0-4.76-1.23-4.76-8.4v-9.24h3.47c3.36 0 5.6 0 5.6 6.16h1.35V11.98h-1.35c0 5.2-1.8 5.64-5.6 5.64h-3.47V1.9h7.22c3.6 0 5.87 0 7.66 2.58 1.5 2.12 1.58 3.72 1.72 5.1h1.32V.68h-42.5V1.9zM68.74 22.85l6.5-15.8 6.55 15.8H68.73z"/></svg>