<svg id="Layer_2" data-name="Layer 2" xmlns="http://www.w3.org/2000/svg" viewBox="0 0 208.13 44.94"><defs><style>.cls-1{fill:#a4001d;}</style></defs><title>SU_SEED_SEAL_2C_RGB</title><line x1="127.75" y1="15.36" x2="127.75" y2="0.36"/><rect x="127.45" y="0.36" width="0.6" height="15"/><path class="cls-1" d="M70.71,15.36A2.43,2.43,0,0,1,68,12.82a2.52,2.52,0,0,1,1.81-2.53c1.68-.62,2-0.69,3.19-1.05V8.94a2.72,2.72,0,0,0-.11-1,1.69,1.69,0,0,0-1.73-1.08,2.05,2.05,0,0,0-1.8,1L69.23,8l-0.47-.28,0-.15a3.14,3.14,0,0,1,3.18-2,2.92,2.92,0,0,1,2.7,1.18,4.75,4.75,0,0,1,.43,2.44c0,0.81,0,1.71,0,2.44,0,0.5,0,.93,0,1.2,0,0.67.11,1.18,0.66,1.18A0.45,0.45,0,0,0,76,13.93l0.15-.13,0.31,0.35-0.1.13a2.27,2.27,0,0,1-1.86,1,1.37,1.37,0,0,1-1.44-1A3.18,3.18,0,0,1,70.71,15.36Zm2.26-5a10.86,10.86,0,0,0-2.07.78,1.58,1.58,0,0,0-.82,1.48A1.25,1.25,0,0,0,71.49,14,2.54,2.54,0,0,0,73,13.6V10.4Z"/><path class="cls-1" d="M55.12,15.33A9.53,9.53,0,0,1,52,14.89l-0.14,0V14.16c0-.91,0-1.27,0-1.56l0-.47h0.55v0.2a1.88,1.88,0,0,0,.43,1.14,3.15,3.15,0,0,0,2.18.73c1.8,0,2.63-.68,2.63-2.14,0-1.25-.77-1.77-1.84-2.49L55.6,9.44l-1.13-.75c-1.57-1-2.36-1.87-2.36-3.53,0-.81.31-3.46,4.26-3.46a19.15,19.15,0,0,1,2.92.22l0.17,0V2.12s0,0.52,0,1.08,0,0.82,0,1.22l0,0.29H59V4.52a1.68,1.68,0,0,0-.46-1.14,3.22,3.22,0,0,0-2.11-.56c-2.09,0-2.34,1.08-2.34,1.88,0,1.11.57,1.49,1.81,2.31L57.3,8c1.22,0.81,2.36,1.58,2.36,3.59C59.67,15,56.48,15.33,55.12,15.33Z"/><path class="cls-1" d="M64.47,15.39c-1.46,0-2.26-.52-2.62-1.68a8,8,0,0,1-.15-1.92c0-1.5,0-2.71,0-4.11V7H60.49V6.65l0.12,0A3.87,3.87,0,0,0,61.67,6,6.79,6.79,0,0,0,63.21,4.1l0.21-.36h0.41V5.85H67V7H63.84V12c0,1.48.28,2.32,1.67,2.32A2.76,2.76,0,0,0,66.66,14l0.19-.1L67,14.32l-0.08.09A3.09,3.09,0,0,1,64.47,15.39Z"/><path class="cls-1" d="M77.28,15.27V14.83h0.18a1.28,1.28,0,0,0,.84-0.39c0.29-.32.31-1.13,0.31-2.73V9a4.28,4.28,0,0,0-.19-1.91,1.11,1.11,0,0,0-.85-0.32H77.5l-0.18,0V6.21l0.21,0h0.14A10,10,0,0,0,79.38,6a3.11,3.11,0,0,0,1-.33l0.11,0,0.19,0.11V6.52a4.62,4.62,0,0,1,2.73-.91,2.85,2.85,0,0,1,3.12,2.23,9.79,9.79,0,0,1,.12,1.69v2.75c0,1.55.06,2,.35,2.26a1.33,1.33,0,0,0,.73.26h0.19v0.44l-0.47,0c-0.68,0-1.26-.07-1.87-0.07a20.9,20.9,0,0,0-2.14.08l-0.22,0V14.84l0.17,0a1.38,1.38,0,0,0,.78-0.32,2.83,2.83,0,0,0,.34-1.66c0-.1,0-0.21,0-0.33,0-.35,0-1.09,0-1.63a20.47,20.47,0,0,0-.08-2.15,1.77,1.77,0,0,0-2-1.78,3.65,3.65,0,0,0-1.76.4v4.95c0,1.55.06,2,.36,2.26a1.33,1.33,0,0,0,.73.26H82v0.44l-0.5,0c-0.65,0-1.22-.06-1.81-0.06a21.57,21.57,0,0,0-2.16.08Z"/><path class="cls-1" d="M89,15.27V14.82h0.18A1.26,1.26,0,0,0,90,14.42c0.29-.33.31-1.12,0.31-2.73V7H89.13V6.49l0.12-.05a4.69,4.69,0,0,0,1.1-.58,16.59,16.59,0,0,1,.14-2.5c0.37-1.94,1.64-2.93,3.78-2.93a3.83,3.83,0,0,1,2.3.72l0.07,0.06,0,0.2-0.94,1.3H95.51l-0.05-.12a1.62,1.62,0,0,0-1.59-1.11,1.39,1.39,0,0,0-.95.34c-0.41.41-.48,1-0.48,2.21V5.85h2.1V7h-2.1v5.22a5.07,5.07,0,0,0,.2,2.09,1.75,1.75,0,0,0,1.3.43h0.2v0.5H93.95c-1-.05-1.81-0.08-2.37-0.08s-1.49,0-2.34.08Z"/><path class="cls-1" d="M99.86,15.43c-2.87,0-4.59-1.79-4.59-4.79,0-2.33,1.25-5,4.79-5,2.88,0,4.59,1.79,4.59,4.79C104.65,12.71,103.39,15.43,99.86,15.43ZM100,6.69a2,2,0,0,0-1.33.43,4.31,4.31,0,0,0-1.14,3.43c0,0.63.12,3.8,2.44,3.8a2,2,0,0,0,1.34-.43,4.33,4.33,0,0,0,1.14-3.43C102.41,9.85,102.29,6.69,100,6.69Z"/><path class="cls-1" d="M105.56,15.27V14.8l0.18,0a1.24,1.24,0,0,0,.84-0.39c0.29-.32.3-1.1,0.3-2.7V9a4.34,4.34,0,0,0-.18-1.91,1.11,1.11,0,0,0-.85-0.32h-0.07l-0.18,0V6.18H106a9.78,9.78,0,0,0,1.7-.18,4.61,4.61,0,0,0,1-.27l0.11,0,0.17,0.09V6.59a3.12,3.12,0,0,1,2.18-.88,2.28,2.28,0,0,1,1.58.52l0.06,0.06V6.6L112,8.05h-0.38L111.53,8A1.68,1.68,0,0,0,110,7.2a1.78,1.78,0,0,0-1,.3v4.75a5,5,0,0,0,.2,2.07,1.76,1.76,0,0,0,1.3.43h0.2v0.52h-0.21c-1-.05-1.81-0.08-2.37-0.08s-1.49,0-2.33.08Z"/><path class="cls-1" d="M120.36,15.41l-0.25-.08V14.53a4.47,4.47,0,0,1-2.63.88c-2.59,0-4.26-1.79-4.26-4.57a6.2,6.2,0,0,1,.52-2.54,4.7,4.7,0,0,1,4.49-2.69,9.25,9.25,0,0,1,1.84.18v-2a5.12,5.12,0,0,0-.18-2.05,1.09,1.09,0,0,0-.83-0.32H119l-0.18,0,0-.42H119a19.59,19.59,0,0,0,2-.26A6,6,0,0,0,122,.5l0.09,0,0.16,0.1V0.65c-0.06.78-.07,2.44-0.07,3.68V12a5.4,5.4,0,0,0,.18,2.09,1.1,1.1,0,0,0,.83.34h0.26V15h-0.2a14.29,14.29,0,0,0-1.83.19,4.69,4.69,0,0,0-1,.22Zm-2.17-8.66c-1.83,0-2.73,1.26-2.73,3.84,0,1,.3,3.48,3,3.48h0.09a2.9,2.9,0,0,0,1.49-.38V7.38A2.61,2.61,0,0,0,118.19,6.75Z"/><path d="M133,12.5a5.2,5.2,0,0,0,1.57,1.13,4.32,4.32,0,0,0,1.87.43,3,3,0,0,0,1.92-.56A1.81,1.81,0,0,0,139,12a1.84,1.84,0,0,0-.16-0.81,1.77,1.77,0,0,0-.44-0.57,3.19,3.19,0,0,0-.66-0.43L137,9.82,135.19,9a8.49,8.49,0,0,1-.89-0.46,3.69,3.69,0,0,1-.82-0.65,3.1,3.1,0,0,1-.59-0.9,3,3,0,0,1-.23-1.21A3,3,0,0,1,133,4.52a3.22,3.22,0,0,1,.82-1.05A3.79,3.79,0,0,1,135,2.78a4.76,4.76,0,0,1,1.57-.25,5,5,0,0,1,2.07.43,5.2,5.2,0,0,1,1.62,1.11l-0.85,1a4.45,4.45,0,0,0-1.26-.86,3.77,3.77,0,0,0-1.57-.31,2.7,2.7,0,0,0-1.68.48,1.59,1.59,0,0,0-.64,1.34,1.51,1.51,0,0,0,.18.77,1.89,1.89,0,0,0,.48.55,3.86,3.86,0,0,0,.67.42q0.36,0.18.74,0.33l1.77,0.76a7.54,7.54,0,0,1,1,.52,3.62,3.62,0,0,1,.82.68,3,3,0,0,1,.54.91,3.35,3.35,0,0,1,.2,1.21,3.29,3.29,0,0,1-1.14,2.52,4,4,0,0,1-1.33.76,5.29,5.29,0,0,1-1.77.28,6,6,0,0,1-4.37-1.84Z"/><path d="M142.14,10.62a5.59,5.59,0,0,1,.35-2,4.77,4.77,0,0,1,.93-1.53,4.05,4.05,0,0,1,1.32-1,3.72,3.72,0,0,1,1.54-.33,3.88,3.88,0,0,1,1.57.3,3.06,3.06,0,0,1,1.16.87,4,4,0,0,1,.71,1.37,6,6,0,0,1,.25,1.79,5.32,5.32,0,0,1-.06.85h-6.23a3.67,3.67,0,0,0,.92,2.38,2.83,2.83,0,0,0,2.16.87A3.63,3.63,0,0,0,148,14a5.39,5.39,0,0,0,1.07-.52l0.55,1a7.81,7.81,0,0,1-1.35.67,4.69,4.69,0,0,1-1.69.29,4.52,4.52,0,0,1-1.74-.33,4.12,4.12,0,0,1-1.41-1,4.41,4.41,0,0,1-.94-1.51A5.66,5.66,0,0,1,142.14,10.62Zm6.46-.7a3.42,3.42,0,0,0-.6-2.18A2,2,0,0,0,146.32,7a2.28,2.28,0,0,0-.94.2,2.61,2.61,0,0,0-.81.57,3.06,3.06,0,0,0-.6.91,4.22,4.22,0,0,0-.31,1.24h4.94Z"/><path d="M151.41,10.62a5.59,5.59,0,0,1,.35-2,4.77,4.77,0,0,1,.93-1.53,4.05,4.05,0,0,1,1.32-1,3.72,3.72,0,0,1,1.54-.33,3.88,3.88,0,0,1,1.57.3,3.06,3.06,0,0,1,1.16.87A4,4,0,0,1,159,8.3a6,6,0,0,1,.25,1.79,5.32,5.32,0,0,1-.06.85h-6.23a3.67,3.67,0,0,0,.92,2.38,2.83,2.83,0,0,0,2.16.87,3.63,3.63,0,0,0,1.23-.2,5.39,5.39,0,0,0,1.07-.52l0.55,1a7.81,7.81,0,0,1-1.35.67,4.69,4.69,0,0,1-1.69.29,4.52,4.52,0,0,1-1.74-.33,4.12,4.12,0,0,1-1.41-1,4.41,4.41,0,0,1-.94-1.51A5.66,5.66,0,0,1,151.41,10.62Zm6.46-.7a3.42,3.42,0,0,0-.6-2.18A2,2,0,0,0,155.59,7a2.28,2.28,0,0,0-.94.2,2.61,2.61,0,0,0-.81.57,3.06,3.06,0,0,0-.6.91,4.22,4.22,0,0,0-.31,1.24h4.94Z"/><path d="M160.69,10.62a5.82,5.82,0,0,1,.33-2,4.79,4.79,0,0,1,.88-1.53,3.91,3.91,0,0,1,1.27-1,3.51,3.51,0,0,1,1.52-.34,3.15,3.15,0,0,1,1.39.29,6.23,6.23,0,0,1,1.2.78L167.2,5.25V1.69h1.58V15.22h-1.29l-0.13-1.08H167.3a5.8,5.8,0,0,1-1.26.92,3.14,3.14,0,0,1-1.53.39,3.42,3.42,0,0,1-2.78-1.25A5.47,5.47,0,0,1,160.69,10.62Zm1.62,0a4.42,4.42,0,0,0,.67,2.6,2.17,2.17,0,0,0,1.88.93,2.48,2.48,0,0,0,1.22-.31,4.36,4.36,0,0,0,1.14-1V8a3.93,3.93,0,0,0-1.13-.75A3,3,0,0,0,165,7.07a2.18,2.18,0,0,0-1,.26,2.6,2.6,0,0,0-.85.72,3.6,3.6,0,0,0-.57,1.11A4.67,4.67,0,0,0,162.3,10.6Z"/><path d="M52.26,27.54a3.29,3.29,0,0,0,1,.71,2.73,2.73,0,0,0,1.18.27,1.86,1.86,0,0,0,1.21-.35,1.14,1.14,0,0,0,.43-0.93,1.17,1.17,0,0,0-.1-0.51,1.12,1.12,0,0,0-.28-0.36,2,2,0,0,0-.41-0.27l-0.52-.25-1.13-.49a5.32,5.32,0,0,1-.56-0.29,2.29,2.29,0,0,1-.52-0.41,1.93,1.93,0,0,1-.37-0.57,2,2,0,0,1,0-1.59,2,2,0,0,1,.52-0.67,2.39,2.39,0,0,1,.78-0.44,3,3,0,0,1,1-.16,3.16,3.16,0,0,1,1.31.27,3.29,3.29,0,0,1,1,.7l-0.54.65a2.81,2.81,0,0,0-.8-0.55,2.37,2.37,0,0,0-1-.2,1.71,1.71,0,0,0-1.06.31,1,1,0,0,0-.4.85,1,1,0,0,0,.11.49,1.2,1.2,0,0,0,.31.35,2.44,2.44,0,0,0,.42.26l0.47,0.21,1.12,0.48a4.82,4.82,0,0,1,.64.33,2.26,2.26,0,0,1,.52.43,1.87,1.87,0,0,1,.34.58,2.13,2.13,0,0,1,.13.76,2.08,2.08,0,0,1-.72,1.59,2.54,2.54,0,0,1-.84.48,3.34,3.34,0,0,1-1.12.17,3.78,3.78,0,0,1-2.76-1.16Z"/><path d="M58.56,24.22H57.7V23.48l0.91-.06,0.12-1.63h0.83v1.63h1.57v0.8H59.56v3.24a1.49,1.49,0,0,0,.2.83,0.78,0.78,0,0,0,.7.29,1.3,1.3,0,0,0,.34,0l0.32-.11,0.19,0.74-0.52.15a2.45,2.45,0,0,1-.56.07,1.9,1.9,0,0,1-.79-0.14,1.36,1.36,0,0,1-.52-0.4,1.54,1.54,0,0,1-.28-0.61,3.45,3.45,0,0,1-.08-0.79V24.22Z"/><path d="M62.18,27.74A1.62,1.62,0,0,1,63,26.27a7.1,7.1,0,0,1,2.73-.71A2.75,2.75,0,0,0,65.71,25a1.29,1.29,0,0,0-.19-0.47,1,1,0,0,0-.37-0.33,1.21,1.21,0,0,0-.59-0.13,2.35,2.35,0,0,0-1,.19,4.75,4.75,0,0,0-.79.43L62.43,24a6.34,6.34,0,0,1,1-.51,3.32,3.32,0,0,1,1.3-.25,1.79,1.79,0,0,1,1.55.65,2.89,2.89,0,0,1,.48,1.75v3.58H65.93l-0.08-.7h0a4.88,4.88,0,0,1-.91.59,2.24,2.24,0,0,1-1,.25A1.78,1.78,0,0,1,62.66,29,1.55,1.55,0,0,1,62.18,27.74Zm1-.07a0.83,0.83,0,0,0,.29.72,1.2,1.2,0,0,0,.73.22,1.69,1.69,0,0,0,.8-0.2,3.87,3.87,0,0,0,.8-0.58V26.2a10.23,10.23,0,0,0-1.24.23,3.22,3.22,0,0,0-.81.31,1.16,1.16,0,0,0-.44.41A1,1,0,0,0,63.15,27.67Z"/><path d="M68.51,23.42h0.82l0.08,0.84h0a4.78,4.78,0,0,1,.88-0.7,2,2,0,0,1,1.07-.28,1.57,1.57,0,0,1,1.35.58,2.85,2.85,0,0,1,.43,1.7v3.7h-1V25.69a2.09,2.09,0,0,0-.26-1.19,1,1,0,0,0-.84-0.37,1.44,1.44,0,0,0-.8.23,5.23,5.23,0,0,0-.79.67v4.22h-1V23.42Z"/><path d="M77.56,21.51a1.62,1.62,0,0,0-.66-0.14q-0.82,0-.82,1.13v0.92h1.24v0.8H76.08v5h-1v-5H74.31V23.48l0.79-.06V22.5a2.2,2.2,0,0,1,.41-1.42,1.55,1.55,0,0,1,1.29-.52,2.42,2.42,0,0,1,.52.05,2.72,2.72,0,0,1,.45.14Z"/><path d="M78,26.35a3.56,3.56,0,0,1,.22-1.3,3,3,0,0,1,.59-1,2.5,2.5,0,0,1,.86-0.6,2.68,2.68,0,0,1,2.05,0,2.5,2.5,0,0,1,.86.6,3,3,0,0,1,.59,1,3.58,3.58,0,0,1,.22,1.3,3.54,3.54,0,0,1-.22,1.29,2.9,2.9,0,0,1-.59,1,2.53,2.53,0,0,1-.86.59,2.68,2.68,0,0,1-2.05,0,2.53,2.53,0,0,1-.86-0.59,2.89,2.89,0,0,1-.59-1A3.52,3.52,0,0,1,78,26.35Zm1,0a3.22,3.22,0,0,0,.12.91,2.13,2.13,0,0,0,.34.7,1.56,1.56,0,0,0,.53.46,1.52,1.52,0,0,0,1.37,0A1.56,1.56,0,0,0,81.87,28a2.13,2.13,0,0,0,.34-0.7,3.22,3.22,0,0,0,.12-0.91,3.29,3.29,0,0,0-.12-0.92,2.21,2.21,0,0,0-.34-0.71,1.54,1.54,0,0,0-.53-0.46,1.52,1.52,0,0,0-1.37,0,1.54,1.54,0,0,0-.53.46,2.21,2.21,0,0,0-.34.71A3.29,3.29,0,0,0,79,26.35Z"/><path d="M84.81,23.42h0.82l0.08,1.06h0a2.69,2.69,0,0,1,.73-0.88,1.5,1.5,0,0,1,.93-0.32,1.55,1.55,0,0,1,.62.12l-0.19.86-0.26-.07-0.3,0a1.31,1.31,0,0,0-.77.3,2.4,2.4,0,0,0-.7,1v3.74h-1V23.42Z"/><path d="M88.5,26.35a3.66,3.66,0,0,1,.21-1.28,3,3,0,0,1,.56-1,2.46,2.46,0,0,1,.8-0.61,2.21,2.21,0,0,1,1-.22,2,2,0,0,1,.88.18,3.93,3.93,0,0,1,.76.49l0-1V20.71h1v8.54H92.79l-0.08-.68h0a3.7,3.7,0,0,1-.8.58,2,2,0,0,1-1,.25,2.16,2.16,0,0,1-1.76-.79A3.46,3.46,0,0,1,88.5,26.35Zm1,0A2.79,2.79,0,0,0,89.94,28a1.37,1.37,0,0,0,1.19.59,1.57,1.57,0,0,0,.77-0.2,2.75,2.75,0,0,0,.72-0.61v-3a2.47,2.47,0,0,0-.71-0.47,1.85,1.85,0,0,0-.7-0.14,1.37,1.37,0,0,0-.65.16,1.64,1.64,0,0,0-.53.46,2.27,2.27,0,0,0-.36.7A3,3,0,0,0,89.52,26.34Z"/><path d="M98.1,21.38h1v7.87h-1V21.38Z"/><path d="M101,23.42h0.82l0.08,0.84h0a4.78,4.78,0,0,1,.88-0.7,2,2,0,0,1,1.07-.28,1.57,1.57,0,0,1,1.35.58,2.85,2.85,0,0,1,.43,1.7v3.7h-1V25.69a2.09,2.09,0,0,0-.26-1.19,1,1,0,0,0-.84-0.37,1.44,1.44,0,0,0-.8.23A5.23,5.23,0,0,0,102,25v4.22h-1V23.42Z"/><path d="M107.38,27.93a3.92,3.92,0,0,0,.79.5,2.13,2.13,0,0,0,.93.19,1.24,1.24,0,0,0,.86-0.26,0.85,0.85,0,0,0,.29-0.65,0.66,0.66,0,0,0-.12-0.4,1.2,1.2,0,0,0-.31-0.29,2.26,2.26,0,0,0-.43-0.22l-0.48-.19q-0.31-.11-0.62-0.25a2.48,2.48,0,0,1-.56-0.34,1.68,1.68,0,0,1-.4-0.46,1.22,1.22,0,0,1-.16-0.64,1.58,1.58,0,0,1,.14-0.65,1.5,1.5,0,0,1,.4-0.53,1.87,1.87,0,0,1,.63-0.35,2.81,2.81,0,0,1,1.85.07,3.17,3.17,0,0,1,.8.47l-0.47.62a3.13,3.13,0,0,0-.62-0.37,1.72,1.72,0,0,0-.71-0.14,1.12,1.12,0,0,0-.81.25,0.8,0.8,0,0,0-.26.59,0.59,0.59,0,0,0,.11.35,1,1,0,0,0,.29.26,2.34,2.34,0,0,0,.41.2l0.49,0.19,0.63,0.25a2.4,2.4,0,0,1,.57.33A1.63,1.63,0,0,1,111,27a1.41,1.41,0,0,1,.16.7,1.65,1.65,0,0,1-.14.67,1.59,1.59,0,0,1-.41.55,1.94,1.94,0,0,1-.67.38,2.83,2.83,0,0,1-.92.14,3.14,3.14,0,0,1-1.19-.23,3.7,3.7,0,0,1-1-.58Z"/><path d="M112.84,24.22H112V23.48l0.91-.06L113,21.79h0.83v1.63h1.57v0.8h-1.57v3.24a1.49,1.49,0,0,0,.2.83,0.78,0.78,0,0,0,.7.29,1.3,1.3,0,0,0,.34,0l0.32-.11,0.19,0.74-0.52.15a2.45,2.45,0,0,1-.56.07,1.9,1.9,0,0,1-.79-0.14,1.36,1.36,0,0,1-.52-0.4,1.54,1.54,0,0,1-.28-0.61,3.45,3.45,0,0,1-.08-0.79V24.22Z"/><path d="M117.22,22.22a0.7,0.7,0,0,1-.49-0.18,0.63,0.63,0,0,1,0-.92,0.76,0.76,0,0,1,1,0,0.63,0.63,0,0,1,0,.92A0.69,0.69,0,0,1,117.22,22.22Zm-0.5,1.2h1v5.83h-1V23.42Z"/><path d="M119.74,24.22h-0.86V23.48l0.91-.06,0.12-1.63h0.83v1.63h1.57v0.8h-1.57v3.24a1.49,1.49,0,0,0,.2.83,0.78,0.78,0,0,0,.7.29,1.3,1.3,0,0,0,.34,0l0.32-.11,0.19,0.74-0.52.15a2.45,2.45,0,0,1-.56.07,1.9,1.9,0,0,1-.79-0.14,1.36,1.36,0,0,1-.52-0.4,1.54,1.54,0,0,1-.28-0.61,3.45,3.45,0,0,1-.08-0.79V24.22Z"/><path d="M123.48,23.42h1V27a2.11,2.11,0,0,0,.26,1.19,1,1,0,0,0,.83.37,1.41,1.41,0,0,0,.8-0.23,3.76,3.76,0,0,0,.77-0.75V23.42h1v5.83H127.3l-0.08-.91h0a3.9,3.9,0,0,1-.86.77,1.93,1.93,0,0,1-1.06.29,1.58,1.58,0,0,1-1.36-.58,2.84,2.84,0,0,1-.43-1.7v-3.7Z"/><path d="M130.17,24.22H129.3V23.48l0.91-.06,0.12-1.63h0.83v1.63h1.57v0.8h-1.57v3.24a1.49,1.49,0,0,0,.2.83,0.78,0.78,0,0,0,.7.29,1.3,1.3,0,0,0,.34,0l0.32-.11,0.19,0.74-0.52.15a2.45,2.45,0,0,1-.56.07,1.9,1.9,0,0,1-.79-0.14,1.36,1.36,0,0,1-.52-0.4,1.54,1.54,0,0,1-.28-0.61,3.45,3.45,0,0,1-.08-0.79V24.22Z"/><path d="M133.46,26.35a3.52,3.52,0,0,1,.22-1.29,3,3,0,0,1,.59-1,2.54,2.54,0,0,1,.83-0.61,2.35,2.35,0,0,1,1-.21,2.44,2.44,0,0,1,1,.19,1.93,1.93,0,0,1,.73.55,2.52,2.52,0,0,1,.45.86,3.79,3.79,0,0,1,.16,1.13,3.32,3.32,0,0,1,0,.54h-3.94a2.31,2.31,0,0,0,.58,1.5,1.79,1.79,0,0,0,1.36.55,2.3,2.3,0,0,0,.77-0.13,3.42,3.42,0,0,0,.68-0.33l0.35,0.65a4.94,4.94,0,0,1-.85.42,3,3,0,0,1-1.07.18,2.86,2.86,0,0,1-1.1-.21,2.6,2.6,0,0,1-.89-0.6,2.78,2.78,0,0,1-.59-1A3.58,3.58,0,0,1,133.46,26.35Zm4.08-.44a2.16,2.16,0,0,0-.38-1.37,1.28,1.28,0,0,0-1.06-.47,1.44,1.44,0,0,0-.59.13,1.65,1.65,0,0,0-.51.36,1.9,1.9,0,0,0-.38.58,2.68,2.68,0,0,0-.2.79h3.12Z"/><path d="M144.9,21.51a1.62,1.62,0,0,0-.66-0.14q-0.82,0-.82,1.13v0.92h1.24v0.8h-1.24v5h-1v-5h-0.79V23.48l0.79-.06V22.5a2.2,2.2,0,0,1,.41-1.42,1.55,1.55,0,0,1,1.29-.52,2.42,2.42,0,0,1,.52.05,2.72,2.72,0,0,1,.45.14Z"/><path d="M145.3,26.35a3.56,3.56,0,0,1,.22-1.3,3,3,0,0,1,.59-1,2.5,2.5,0,0,1,.86-0.6,2.68,2.68,0,0,1,2.05,0,2.5,2.5,0,0,1,.86.6,3,3,0,0,1,.59,1,3.58,3.58,0,0,1,.22,1.3,3.54,3.54,0,0,1-.22,1.29,2.9,2.9,0,0,1-.59,1,2.53,2.53,0,0,1-.86.59,2.68,2.68,0,0,1-2.05,0,2.53,2.53,0,0,1-.86-0.59,2.89,2.89,0,0,1-.59-1A3.52,3.52,0,0,1,145.3,26.35Zm1,0a3.22,3.22,0,0,0,.12.91,2.13,2.13,0,0,0,.34.7,1.56,1.56,0,0,0,.53.46,1.52,1.52,0,0,0,1.37,0,1.56,1.56,0,0,0,.53-0.46,2.13,2.13,0,0,0,.34-0.7,3.22,3.22,0,0,0,.12-0.91,3.29,3.29,0,0,0-.12-0.92,2.21,2.21,0,0,0-.34-0.71,1.54,1.54,0,0,0-.53-0.46,1.52,1.52,0,0,0-1.37,0,1.54,1.54,0,0,0-.53.46,2.21,2.21,0,0,0-.34.71A3.29,3.29,0,0,0,146.32,26.35Z"/><path d="M151.55,23.42h0.82l0.08,1.06h0a2.69,2.69,0,0,1,.73-0.88,1.5,1.5,0,0,1,.93-0.32,1.55,1.55,0,0,1,.62.12l-0.19.86-0.26-.07-0.3,0a1.31,1.31,0,0,0-.77.3,2.4,2.4,0,0,0-.7,1v3.74h-1V23.42Z"/><path d="M158.24,21.38h1v7.87h-1V21.38Z"/><path d="M161.18,23.42H162l0.08,0.84h0a4.78,4.78,0,0,1,.88-0.7,2,2,0,0,1,1.07-.28,1.57,1.57,0,0,1,1.35.58,2.85,2.85,0,0,1,.43,1.7v3.7h-1V25.69a2.09,2.09,0,0,0-.26-1.19,1,1,0,0,0-.84-0.37,1.44,1.44,0,0,0-.8.23,5.23,5.23,0,0,0-.79.67v4.22h-1V23.42Z"/><path d="M167.51,23.42h0.82l0.08,0.84h0a4.78,4.78,0,0,1,.88-0.7,2,2,0,0,1,1.07-.28,1.57,1.57,0,0,1,1.35.58,2.85,2.85,0,0,1,.43,1.7v3.7h-1V25.69a2.09,2.09,0,0,0-.26-1.19,1,1,0,0,0-.84-0.37,1.44,1.44,0,0,0-.8.23,5.23,5.23,0,0,0-.79.67v4.22h-1V23.42Z"/><path d="M173,26.35a3.56,3.56,0,0,1,.22-1.3,3,3,0,0,1,.59-1,2.5,2.5,0,0,1,.86-0.6,2.68,2.68,0,0,1,2.05,0,2.5,2.5,0,0,1,.86.6,3,3,0,0,1,.59,1,3.58,3.58,0,0,1,.22,1.3,3.54,3.54,0,0,1-.22,1.29,2.9,2.9,0,0,1-.59,1,2.53,2.53,0,0,1-.86.59,2.68,2.68,0,0,1-2.05,0,2.53,2.53,0,0,1-.86-0.59,2.89,2.89,0,0,1-.59-1A3.52,3.52,0,0,1,173,26.35Zm1,0a3.22,3.22,0,0,0,.12.91,2.13,2.13,0,0,0,.34.7,1.56,1.56,0,0,0,.53.46,1.52,1.52,0,0,0,1.37,0,1.56,1.56,0,0,0,.53-0.46,2.13,2.13,0,0,0,.34-0.7,3.22,3.22,0,0,0,.12-0.91,3.29,3.29,0,0,0-.12-0.92,2.21,2.21,0,0,0-.34-0.71,1.54,1.54,0,0,0-.53-0.46,1.52,1.52,0,0,0-1.37,0,1.54,1.54,0,0,0-.53.46,2.21,2.21,0,0,0-.34.71A3.29,3.29,0,0,0,174,26.35Z"/><path d="M178.94,23.42h1l1.1,3.31,0.27,0.86,0.27,0.85h0l0.26-.85,0.26-.86,1.1-3.31h1l-2.06,5.83H181Z"/><path d="M184.73,27.74a1.62,1.62,0,0,1,.86-1.47,7.1,7.1,0,0,1,2.73-.71,2.75,2.75,0,0,0-.05-0.54,1.29,1.29,0,0,0-.19-0.47,1,1,0,0,0-.37-0.33,1.21,1.21,0,0,0-.59-0.13,2.35,2.35,0,0,0-1,.19,4.75,4.75,0,0,0-.79.43L185,24a6.34,6.34,0,0,1,1-.51,3.32,3.32,0,0,1,1.3-.25,1.79,1.79,0,0,1,1.55.65,2.89,2.89,0,0,1,.48,1.75v3.58h-0.82l-0.08-.7h0a4.88,4.88,0,0,1-.91.59,2.24,2.24,0,0,1-1,.25,1.78,1.78,0,0,1-1.23-.43A1.55,1.55,0,0,1,184.73,27.74Zm1-.07a0.83,0.83,0,0,0,.29.72,1.2,1.2,0,0,0,.73.22,1.69,1.69,0,0,0,.8-0.2,3.87,3.87,0,0,0,.8-0.58V26.2a10.23,10.23,0,0,0-1.24.23,3.22,3.22,0,0,0-.81.31,1.16,1.16,0,0,0-.44.41A1,1,0,0,0,185.7,27.67Z"/><path d="M190.9,24.22H190V23.48l0.91-.06,0.12-1.63h0.83v1.63h1.57v0.8h-1.57v3.24a1.49,1.49,0,0,0,.2.83,0.78,0.78,0,0,0,.7.29,1.3,1.3,0,0,0,.34,0l0.32-.11,0.19,0.74-0.52.15a2.45,2.45,0,0,1-.56.07,1.9,1.9,0,0,1-.79-0.14,1.36,1.36,0,0,1-.52-0.4,1.54,1.54,0,0,1-.28-0.61,3.45,3.45,0,0,1-.08-0.79V24.22Z"/><path d="M195.27,22.22a0.7,0.7,0,0,1-.49-0.18,0.63,0.63,0,0,1,0-.92,0.76,0.76,0,0,1,1,0,0.63,0.63,0,0,1,0,.92A0.69,0.69,0,0,1,195.27,22.22Zm-0.5,1.2h1v5.83h-1V23.42Z"/><path d="M196.9,26.35a3.56,3.56,0,0,1,.22-1.3,3,3,0,0,1,.59-1,2.5,2.5,0,0,1,.86-0.6,2.68,2.68,0,0,1,2.05,0,2.5,2.5,0,0,1,.86.6,3,3,0,0,1,.59,1,3.58,3.58,0,0,1,.22,1.3,3.54,3.54,0,0,1-.22,1.29,2.9,2.9,0,0,1-.59,1,2.53,2.53,0,0,1-.86.59,2.68,2.68,0,0,1-2.05,0,2.53,2.53,0,0,1-.86-0.59,2.89,2.89,0,0,1-.59-1A3.52,3.52,0,0,1,196.9,26.35Zm1,0a3.22,3.22,0,0,0,.12.91,2.13,2.13,0,0,0,.34.7,1.56,1.56,0,0,0,.53.46,1.52,1.52,0,0,0,1.37,0,1.56,1.56,0,0,0,.53-0.46,2.13,2.13,0,0,0,.34-0.7,3.22,3.22,0,0,0,.12-0.91,3.29,3.29,0,0,0-.12-0.92,2.21,2.21,0,0,0-.34-0.71,1.54,1.54,0,0,0-.53-0.46,1.52,1.52,0,0,0-1.37,0,1.54,1.54,0,0,0-.53.46,2.21,2.21,0,0,0-.34.71A3.29,3.29,0,0,0,197.92,26.35Z"/><path d="M203.46,23.42h0.82l0.08,0.84h0a4.78,4.78,0,0,1,.88-0.7,2,2,0,0,1,1.07-.28,1.57,1.57,0,0,1,1.35.58,2.85,2.85,0,0,1,.43,1.7v3.7h-1V25.69a2.09,2.09,0,0,0-.26-1.19,1,1,0,0,0-.84-0.37,1.44,1.44,0,0,0-.8.23,5.23,5.23,0,0,0-.79.67v4.22h-1V23.42Z"/><path d="M52.64,35.22A0.7,0.7,0,0,1,52.16,35a0.63,0.63,0,0,1,0-.92,0.76,0.76,0,0,1,1,0,0.63,0.63,0,0,1,0,.92A0.69,0.69,0,0,1,52.64,35.22Zm-0.5,1.2h1v5.83h-1V36.42Z"/><path d="M54.65,36.42h0.82l0.08,0.84h0a4.78,4.78,0,0,1,.88-0.7,2,2,0,0,1,1.07-.28,1.57,1.57,0,0,1,1.35.58,2.85,2.85,0,0,1,.43,1.7v3.7h-1V38.69a2.09,2.09,0,0,0-.26-1.19,1,1,0,0,0-.84-0.37,1.44,1.44,0,0,0-.8.23,5.23,5.23,0,0,0-.79.67v4.22h-1V36.42Z"/><path d="M63.74,34.38h2a3.63,3.63,0,0,1,2.77,1,4.06,4.06,0,0,1,.95,2.89A5.43,5.43,0,0,1,69.19,40a3.36,3.36,0,0,1-.71,1.25,3.07,3.07,0,0,1-1.15.78,4.26,4.26,0,0,1-1.57.27h-2V34.38Zm1.9,7.06a2.54,2.54,0,0,0,2.07-.83,3.54,3.54,0,0,0,.69-2.33A3.39,3.39,0,0,0,67.7,36a2.6,2.6,0,0,0-2.07-.79h-0.9v6.24h0.9Z"/><path d="M70.3,39.35a3.52,3.52,0,0,1,.22-1.29,3,3,0,0,1,.59-1,2.54,2.54,0,0,1,.83-0.61,2.35,2.35,0,0,1,1-.21,2.44,2.44,0,0,1,1,.19,1.93,1.93,0,0,1,.73.55,2.52,2.52,0,0,1,.45.86A3.79,3.79,0,0,1,75.25,39a3.32,3.32,0,0,1,0,.54H71.27a2.31,2.31,0,0,0,.58,1.5,1.79,1.79,0,0,0,1.36.55A2.3,2.3,0,0,0,74,41.48a3.42,3.42,0,0,0,.68-0.33L75,41.8a4.94,4.94,0,0,1-.85.42,3,3,0,0,1-1.07.18,2.86,2.86,0,0,1-1.1-.21,2.6,2.6,0,0,1-.89-0.6,2.78,2.78,0,0,1-.59-1A3.58,3.58,0,0,1,70.3,39.35Zm4.08-.44A2.16,2.16,0,0,0,74,37.53a1.28,1.28,0,0,0-1.06-.47,1.44,1.44,0,0,0-.59.13,1.65,1.65,0,0,0-.51.36,1.9,1.9,0,0,0-.38.58,2.68,2.68,0,0,0-.2.79h3.12Z"/><path d="M75.81,36.42h1l1.1,3.31L78.2,40.6l0.27,0.85h0l0.26-.85L79,39.73l1.1-3.31h1l-2.06,5.83H77.91Z"/><path d="M81.66,39.35a3.52,3.52,0,0,1,.22-1.29,3,3,0,0,1,.59-1,2.54,2.54,0,0,1,.83-0.61,2.35,2.35,0,0,1,1-.21,2.44,2.44,0,0,1,1,.19A1.93,1.93,0,0,1,86,37a2.52,2.52,0,0,1,.45.86A3.79,3.79,0,0,1,86.61,39a3.32,3.32,0,0,1,0,.54H82.64a2.31,2.31,0,0,0,.58,1.5,1.79,1.79,0,0,0,1.36.55,2.3,2.3,0,0,0,.77-0.13A3.42,3.42,0,0,0,86,41.15l0.35,0.65a4.94,4.94,0,0,1-.85.42,3,3,0,0,1-1.07.18,2.86,2.86,0,0,1-1.1-.21,2.6,2.6,0,0,1-.89-0.6,2.78,2.78,0,0,1-.59-1A3.58,3.58,0,0,1,81.66,39.35Zm4.08-.44a2.16,2.16,0,0,0-.38-1.37,1.28,1.28,0,0,0-1.06-.47,1.44,1.44,0,0,0-.59.13,1.65,1.65,0,0,0-.51.36,1.9,1.9,0,0,0-.38.58,2.68,2.68,0,0,0-.2.79h3.12Z"/><path d="M88,33.71h1v7.44a0.52,0.52,0,0,0,.08.34,0.25,0.25,0,0,0,.19.1h0.09l0.13,0,0.13,0.74a0.84,0.84,0,0,1-.23.07l-0.34,0a0.92,0.92,0,0,1-.8-0.34,1.68,1.68,0,0,1-.24-1V33.71Z"/><path d="M90.5,39.35a3.56,3.56,0,0,1,.22-1.3,3,3,0,0,1,.59-1,2.5,2.5,0,0,1,.86-0.6,2.68,2.68,0,0,1,2.05,0,2.5,2.5,0,0,1,.86.6,3,3,0,0,1,.59,1,3.58,3.58,0,0,1,.22,1.3,3.54,3.54,0,0,1-.22,1.29,2.9,2.9,0,0,1-.59,1,2.53,2.53,0,0,1-.86.59,2.68,2.68,0,0,1-2.05,0,2.53,2.53,0,0,1-.86-0.59,2.89,2.89,0,0,1-.59-1A3.52,3.52,0,0,1,90.5,39.35Zm1,0a3.22,3.22,0,0,0,.12.91A2.13,2.13,0,0,0,92,41a1.56,1.56,0,0,0,.53.46,1.52,1.52,0,0,0,1.37,0A1.56,1.56,0,0,0,94.42,41a2.13,2.13,0,0,0,.34-0.7,3.22,3.22,0,0,0,.12-0.91,3.29,3.29,0,0,0-.12-0.92,2.21,2.21,0,0,0-.34-0.71,1.54,1.54,0,0,0-.53-0.46,1.52,1.52,0,0,0-1.37,0,1.54,1.54,0,0,0-.53.46,2.21,2.21,0,0,0-.34.71A3.29,3.29,0,0,0,91.52,39.35Z"/><path d="M98,42.74v2h-1V36.42h0.82L98,37.09h0a4.44,4.44,0,0,1,.87-0.58,2.16,2.16,0,0,1,1-.24,2.26,2.26,0,0,1,1,.21,1.94,1.94,0,0,1,.72.6A2.8,2.8,0,0,1,102,38a4.62,4.62,0,0,1,.15,1.23,4,4,0,0,1-.2,1.33,3.08,3.08,0,0,1-.55,1,2.34,2.34,0,0,1-.8.62,2.28,2.28,0,0,1-1,.21,2,2,0,0,1-.81-0.18A4.08,4.08,0,0,1,98,41.72ZM98,41a2.63,2.63,0,0,0,.77.47,1.93,1.93,0,0,0,.66.14,1.39,1.39,0,0,0,.67-0.16,1.6,1.6,0,0,0,.53-0.46,2.25,2.25,0,0,0,.35-0.73,3.47,3.47,0,0,0,.13-1,4.25,4.25,0,0,0-.08-0.88,2,2,0,0,0-.27-0.68,1.31,1.31,0,0,0-.48-0.44,1.49,1.49,0,0,0-.7-0.16,1.57,1.57,0,0,0-.75.2,4.39,4.39,0,0,0-.81.59V41Z"/><path d="M103.84,35.22a0.7,0.7,0,0,1-.49-0.18,0.63,0.63,0,0,1,0-.92,0.76,0.76,0,0,1,1,0,0.63,0.63,0,0,1,0,.92A0.69,0.69,0,0,1,103.84,35.22Zm-0.5,1.2h1v5.83h-1V36.42Z"/><path d="M106.14,36.42H107L107,37.26h0a4.78,4.78,0,0,1,.88-0.7,2,2,0,0,1,1.07-.28,1.57,1.57,0,0,1,1.35.58,2.85,2.85,0,0,1,.43,1.7v3.7h-1V38.69a2.09,2.09,0,0,0-.26-1.19,1,1,0,0,0-.84-0.37,1.44,1.44,0,0,0-.8.23,5.23,5.23,0,0,0-.79.67v4.22h-1V36.42Z"/><path d="M111.84,43.37a1.24,1.24,0,0,1,.23-0.71,2.41,2.41,0,0,1,.62-0.61v0a1.14,1.14,0,0,1-.37-0.37,1.05,1.05,0,0,1-.15-0.58,1.06,1.06,0,0,1,.2-0.65,1.85,1.85,0,0,1,.43-0.43v0a2.39,2.39,0,0,1-.52-0.64,1.81,1.81,0,0,1-.23-0.93,2.07,2.07,0,0,1,.17-0.86,2,2,0,0,1,.47-0.65,2.08,2.08,0,0,1,.7-0.41,2.48,2.48,0,0,1,.85-0.14,2.31,2.31,0,0,1,.45,0l0.38,0.1h2v0.76h-1.2a1.72,1.72,0,0,1,.48,1.2,2.06,2.06,0,0,1-.17.85,1.85,1.85,0,0,1-.46.64,2.07,2.07,0,0,1-.68.4,2.38,2.38,0,0,1-.83.14,1.94,1.94,0,0,1-.44-0.05,2.2,2.2,0,0,1-.43-0.15,1.39,1.39,0,0,0-.26.29,0.71,0.71,0,0,0-.11.4,0.57,0.57,0,0,0,.22.46,1.33,1.33,0,0,0,.82.18h1.13a2.85,2.85,0,0,1,1.53.33,1.17,1.17,0,0,1,.51,1.06,1.57,1.57,0,0,1-.2.77,2,2,0,0,1-.59.64,3.09,3.09,0,0,1-.93.44,4.32,4.32,0,0,1-1.23.16,4.41,4.41,0,0,1-1-.1,2.38,2.38,0,0,1-.76-0.31A1.52,1.52,0,0,1,112,44,1.27,1.27,0,0,1,111.84,43.37Zm0.86-.13a0.84,0.84,0,0,0,.45.74,2.38,2.38,0,0,0,1.24.28,2.67,2.67,0,0,0,.76-0.1,2.12,2.12,0,0,0,.58-0.26,1.25,1.25,0,0,0,.37-0.38,0.83,0.83,0,0,0,.13-0.44,0.58,0.58,0,0,0-.3-0.56,1.94,1.94,0,0,0-.88-0.16h-1l-0.37,0a1.88,1.88,0,0,1-.39-0.08,1.59,1.59,0,0,0-.46.48A1,1,0,0,0,112.71,43.24Zm1.55-3.49a1.18,1.18,0,0,0,.47-0.1,1.22,1.22,0,0,0,.4-0.28,1.25,1.25,0,0,0,.27-0.44,1.65,1.65,0,0,0,.1-0.58,1.34,1.34,0,0,0-.36-1,1.26,1.26,0,0,0-1.75,0,1.34,1.34,0,0,0-.36,1,1.67,1.67,0,0,0,.1.58,1.25,1.25,0,0,0,.27.44,1.22,1.22,0,0,0,.4.28A1.19,1.19,0,0,0,114.25,39.74Z"/><path d="M120.85,34.38h4.54v0.84h-3.54v2.47h3v0.85h-3V41.4h3.66v0.85h-4.66V34.38Z"/><path d="M126.43,39.35a3.48,3.48,0,0,1,.23-1.3,2.92,2.92,0,0,1,.61-1,2.56,2.56,0,0,1,.89-0.6,2.87,2.87,0,0,1,1.07-.2,2.17,2.17,0,0,1,1,.21,3.16,3.16,0,0,1,.71.49l-0.49.64a2.8,2.8,0,0,0-.55-0.37,1.37,1.37,0,0,0-.63-0.14,1.66,1.66,0,0,0-.73.16,1.64,1.64,0,0,0-.58.46,2.28,2.28,0,0,0-.38.71,2.89,2.89,0,0,0-.14.92,3,3,0,0,0,.13.91,2.19,2.19,0,0,0,.37.7,1.61,1.61,0,0,0,.57.46,1.67,1.67,0,0,0,.73.16,1.65,1.65,0,0,0,.76-0.17,2.75,2.75,0,0,0,.61-0.41l0.44,0.65a3.19,3.19,0,0,1-.88.55,2.59,2.59,0,0,1-1,.2,2.85,2.85,0,0,1-1.08-.2,2.43,2.43,0,0,1-.87-0.59,2.8,2.8,0,0,1-.58-1A3.72,3.72,0,0,1,126.43,39.35Z"/><path d="M131.71,39.35a3.56,3.56,0,0,1,.22-1.3,3,3,0,0,1,.59-1,2.5,2.5,0,0,1,.86-0.6,2.68,2.68,0,0,1,2.05,0,2.5,2.5,0,0,1,.86.6,3,3,0,0,1,.59,1,3.58,3.58,0,0,1,.22,1.3,3.54,3.54,0,0,1-.22,1.29,2.9,2.9,0,0,1-.59,1,2.53,2.53,0,0,1-.86.59,2.68,2.68,0,0,1-2.05,0,2.53,2.53,0,0,1-.86-0.59,2.89,2.89,0,0,1-.59-1A3.52,3.52,0,0,1,131.71,39.35Zm1,0a3.22,3.22,0,0,0,.12.91,2.13,2.13,0,0,0,.34.7,1.56,1.56,0,0,0,.53.46,1.52,1.52,0,0,0,1.37,0,1.56,1.56,0,0,0,.53-0.46,2.13,2.13,0,0,0,.34-0.7,3.22,3.22,0,0,0,.12-0.91,3.29,3.29,0,0,0-.12-0.92,2.21,2.21,0,0,0-.34-0.71,1.54,1.54,0,0,0-.53-0.46,1.52,1.52,0,0,0-1.37,0,1.54,1.54,0,0,0-.53.46,2.21,2.21,0,0,0-.34.71A3.29,3.29,0,0,0,132.73,39.35Z"/><path d="M138.27,36.42h0.82l0.08,0.84h0a4.78,4.78,0,0,1,.88-0.7,2,2,0,0,1,1.07-.28,1.57,1.57,0,0,1,1.35.58,2.85,2.85,0,0,1,.43,1.7v3.7h-1V38.69a2.09,2.09,0,0,0-.26-1.19,1,1,0,0,0-.84-0.37,1.44,1.44,0,0,0-.8.23,5.23,5.23,0,0,0-.79.67v4.22h-1V36.42Z"/><path d="M144.06,39.35a3.56,3.56,0,0,1,.22-1.3,3,3,0,0,1,.59-1,2.5,2.5,0,0,1,.86-0.6,2.68,2.68,0,0,1,2.05,0,2.5,2.5,0,0,1,.86.6,3,3,0,0,1,.59,1,3.58,3.58,0,0,1,.22,1.3,3.54,3.54,0,0,1-.22,1.29,2.9,2.9,0,0,1-.59,1,2.53,2.53,0,0,1-.86.59,2.68,2.68,0,0,1-2.05,0,2.53,2.53,0,0,1-.86-0.59,2.89,2.89,0,0,1-.59-1A3.52,3.52,0,0,1,144.06,39.35Zm1,0a3.22,3.22,0,0,0,.12.91,2.13,2.13,0,0,0,.34.7,1.56,1.56,0,0,0,.53.46,1.52,1.52,0,0,0,1.37,0A1.56,1.56,0,0,0,148,41a2.13,2.13,0,0,0,.34-0.7,3.22,3.22,0,0,0,.12-0.91,3.29,3.29,0,0,0-.12-0.92,2.21,2.21,0,0,0-.34-0.71,1.54,1.54,0,0,0-.53-0.46,1.52,1.52,0,0,0-1.37,0,1.54,1.54,0,0,0-.53.46,2.21,2.21,0,0,0-.34.71A3.29,3.29,0,0,0,145.08,39.35Z"/><path d="M150.62,36.42h0.82l0.08,0.84h0a4,4,0,0,1,.83-0.7,1.81,1.81,0,0,1,1-.28,1.67,1.67,0,0,1,1,.29,1.71,1.71,0,0,1,.56.82,4.93,4.93,0,0,1,.92-0.81,1.78,1.78,0,0,1,1-.31,1.57,1.57,0,0,1,1.34.58,2.79,2.79,0,0,1,.44,1.7v3.7h-1V38.69a2.09,2.09,0,0,0-.26-1.19,0.94,0.94,0,0,0-.82-0.37,2.16,2.16,0,0,0-1.46.9v4.22h-1V38.69a2.08,2.08,0,0,0-.26-1.19,1,1,0,0,0-.83-0.37,2.16,2.16,0,0,0-1.46.9v4.22h-1V36.42Z"/><path d="M160.93,35.22a0.7,0.7,0,0,1-.49-0.18,0.63,0.63,0,0,1,0-.92,0.76,0.76,0,0,1,1,0,0.63,0.63,0,0,1,0,.92A0.69,0.69,0,0,1,160.93,35.22Zm-0.5,1.2h1v5.83h-1V36.42Z"/><path d="M162.84,39.35a3.52,3.52,0,0,1,.22-1.29,3,3,0,0,1,.59-1,2.54,2.54,0,0,1,.83-0.61,2.35,2.35,0,0,1,1-.21,2.44,2.44,0,0,1,1,.19,1.93,1.93,0,0,1,.73.55,2.52,2.52,0,0,1,.45.86,3.79,3.79,0,0,1,.16,1.13,3.32,3.32,0,0,1,0,.54h-3.94a2.31,2.31,0,0,0,.58,1.5,1.79,1.79,0,0,0,1.36.55,2.3,2.3,0,0,0,.77-0.13,3.42,3.42,0,0,0,.68-0.33l0.35,0.65a4.94,4.94,0,0,1-.85.42,3,3,0,0,1-1.07.18,2.86,2.86,0,0,1-1.1-.21,2.6,2.6,0,0,1-.89-0.6,2.78,2.78,0,0,1-.59-1A3.58,3.58,0,0,1,162.84,39.35Zm4.08-.44a2.16,2.16,0,0,0-.38-1.37,1.28,1.28,0,0,0-1.06-.47,1.44,1.44,0,0,0-.59.13,1.65,1.65,0,0,0-.51.36,1.9,1.9,0,0,0-.38.58,2.68,2.68,0,0,0-.2.79h3.12Z"/><path d="M169.09,40.93a3.92,3.92,0,0,0,.79.5,2.13,2.13,0,0,0,.93.19,1.24,1.24,0,0,0,.86-0.26,0.85,0.85,0,0,0,.29-0.65,0.66,0.66,0,0,0-.12-0.4,1.2,1.2,0,0,0-.31-0.29,2.26,2.26,0,0,0-.43-0.22l-0.48-.19q-0.31-.11-0.62-0.25a2.48,2.48,0,0,1-.56-0.34,1.68,1.68,0,0,1-.4-0.46,1.22,1.22,0,0,1-.16-0.64,1.58,1.58,0,0,1,.14-0.65,1.5,1.5,0,0,1,.4-0.53,1.87,1.87,0,0,1,.63-0.35,2.81,2.81,0,0,1,1.85.07,3.17,3.17,0,0,1,.8.47l-0.47.62a3.13,3.13,0,0,0-.62-0.37,1.72,1.72,0,0,0-.71-0.14,1.12,1.12,0,0,0-.81.25,0.8,0.8,0,0,0-.26.59,0.59,0.59,0,0,0,.11.35,1,1,0,0,0,.29.26,2.34,2.34,0,0,0,.41.2l0.49,0.19,0.63,0.25a2.4,2.4,0,0,1,.57.33,1.63,1.63,0,0,1,.41.49,1.41,1.41,0,0,1,.16.7,1.65,1.65,0,0,1-.14.67,1.59,1.59,0,0,1-.41.55,1.94,1.94,0,0,1-.67.38,2.83,2.83,0,0,1-.92.14,3.14,3.14,0,0,1-1.19-.23,3.7,3.7,0,0,1-1-.58Z"/><path class="cls-1" d="M8.62,21.13a0.65,0.65,0,0,1,.76-0.69,0.63,0.63,0,0,1,.69.65l0,0.43-1.44-.06V21.13Zm1.2,0c0-.22-0.13-0.36-0.49-0.38a0.36,0.36,0,0,0-.46.37V21.2l1,0V21.1Z"/><path class="cls-1" d="M10.16,20l-1.43-.2,0-.28,1.43,0.21Z"/><path class="cls-1" d="M9.33,18.06l-0.14.57,0.33,0.08,0.12-.47L9.88,18.3l-0.12.47,0.36,0.09,0.14-.61,0.23,0.06-0.21.87-1.41-.35L9.09,18Z"/><path class="cls-1" d="M10.86,16.66l0.24-.53,0.22,0.1L11,17,9.65,16.4l0.11-.26Z"/><path class="cls-1" d="M10.82,14.25l0.85,0.53a0.49,0.49,0,0,1-.52.83l-0.85-.53,0.15-.24,0.77,0.48c0.2,0.13.3,0.11,0.38,0s0-.22-0.16-0.35l-0.76-.48Z"/><path class="cls-1" d="M12,13.18l-0.36.46,0.27,0.21,0.28-.35,0.19,0.15L12,14l0.47,0.38-0.17.22-1.12-.9L11.77,13Z"/><path class="cls-1" d="M13,12.1l-0.25.25,0.83,0.86-0.2.19-0.84-.86-0.26.25-0.17-.17,0.72-.7Z"/><path class="cls-1" d="M14.38,10.75a0.64,0.64,0,0,1,1,.22,0.63,0.63,0,0,1-.13.94l-0.37.23L14.1,10.93Zm0.71,1c0.19-.12.22-0.31,0-0.62a0.36,0.36,0,0,0-.56-0.17L14.47,11,15,11.79Z"/><path class="cls-1" d="M16.45,9.9l-0.53.25,0.15,0.31,0.44-.21,0.1,0.22-0.43.21L16.34,11l0.56-.26L17,11l-0.8.38L15.57,10l0.78-.37Z"/><path class="cls-1" d="M17.52,9.24a0.41,0.41,0,0,1,.55.26,0.39,0.39,0,0,1-.11.42l0.47,0.54-0.27.09-0.43-.49-0.2.07,0.18,0.57-0.26.09L17,9.41Zm0,0.62c0.11,0,.29-0.09.24-0.26s-0.24-.11-0.37-0.07l-0.1,0,0.11,0.33Z"/><path class="cls-1" d="M25.25,9.43l-0.56-.15-0.09.34L25,9.73,25,10l-0.44-.11-0.16.58-0.27-.07L24.49,9l0.83,0.23Z"/><path class="cls-1" d="M26.35,9.58a0.42,0.42,0,0,1,.25.56,0.4,0.4,0,0,1-.36.25V11.1L26,11V10.34l-0.2-.08-0.22.56-0.26-.11,0.54-1.34Zm-0.36.5c0.11,0,.28.12,0.34,0s-0.1-.24-0.23-0.28L26,9.7,25.87,10Z"/><path class="cls-1" d="M27.94,10.64l-0.52-.28-0.16.3,0.42,0.24-0.11.22-0.43-.23L27,11.19l0.54,0.3-0.12.21-0.78-.43L27.31,10l0.75,0.42Z"/><path class="cls-1" d="M27.75,11.94l0.81-1.19,0.23,0.16L28,12.1Z"/><path class="cls-1" d="M29.48,12.14l0.35-.44,0.22,0.17L29.13,13l-0.21-.17,0.41-.49L29,12l-0.41.49-0.21-.18,0.92-1.11,0.21,0.18-0.36.44Z"/><path class="cls-1" d="M30.91,13.11l-0.4-.43-0.25.24,0.33,0.35-0.18.17-0.34-.35-0.26.25,0.43,0.45L30.07,14l-0.62-.66,1.05-1,0.59,0.63Z"/><path class="cls-1" d="M30.33,14.29l1.13-.9,0.17,0.22-1.14.89Z"/><path class="cls-1" d="M32.29,15l-0.2-.3-1,.66-0.15-.23,1-.66-0.2-.31L31.95,14l0.54,0.84Z"/><path class="cls-1" d="M32.19,17.53l-0.11-.26,0.85-.55h0l-1,.21-0.11-.26L33,15.84l0.11,0.25-0.87.54h0l1-.23,0.12,0.29-0.88.55h0l1-.22,0.11,0.25Z"/><path class="cls-1" d="M33.78,18.7l-0.15-.57-0.34.09,0.12,0.47-0.24.07-0.12-.48-0.35.09L32.86,19,32.62,19l-0.23-.87,1.4-.37L34,18.63Z"/><path class="cls-1" d="M33.68,20.08L34.24,20l0,0.28-1.43.19,0-.28,0.63-.08-0.06-.46-0.63.09,0-.28,1.43-.19,0,0.28-0.56.08Z"/><path class="cls-1" d="M34.08,21.85V21.48l-1.2,0V21.22h1.2V20.84h0.24v1H34.08Z"/><path class="cls-1" d="M21.48,6.87a14.6,14.6,0,1,0,14.59,14.6A14.6,14.6,0,0,0,21.48,6.87Zm0,28.85A14.24,14.24,0,1,1,35.72,21.47,14.25,14.25,0,0,1,21.48,35.72Z"/><path class="cls-1" d="M21.48,2.1A19.37,19.37,0,1,0,40.85,21.47,19.38,19.38,0,0,0,21.48,2.1Zm0,38.43a19,19,0,1,1,19-19.05A19.05,19.05,0,0,1,21.48,40.52Z"/><polygon class="cls-1" points="22.2 1.33 21.49 0.9 20.78 1.33 21.49 1.76 22.2 1.33"/><polygon class="cls-1" points="19.21 1.44 18.43 1.12 17.79 1.66 18.56 1.97 19.21 1.44"/><polygon class="cls-1" points="16.25 2 15.45 1.79 14.89 2.42 15.7 2.62 16.25 2"/><polygon class="cls-1" points="13.42 2.99 12.59 2.91 12.13 3.61 12.96 3.69 13.42 2.99"/><polygon class="cls-1" points="10.76 4.39 9.93 4.43 9.58 5.2 10.42 5.15 10.76 4.39"/><polygon class="cls-1" points="8.34 6.17 7.53 6.35 7.29 7.15 8.12 6.98 8.34 6.17"/><polygon class="cls-1" points="6.22 8.3 5.44 8.59 5.33 9.42 6.12 9.13 6.22 8.3"/><polygon class="cls-1" points="4.42 10.7 3.69 11.11 3.71 11.94 4.44 11.54 4.42 10.7"/><polygon class="cls-1" points="3.01 13.36 2.35 13.87 2.5 14.7 3.16 14.19 3.01 13.36"/><polygon class="cls-1" points="2.02 16.19 1.44 16.79 1.7 17.59 2.29 16.99 2.02 16.19"/><polygon class="cls-1" points="1.44 19.18 0.96 19.86 1.33 20.61 1.82 19.93 1.44 19.18"/><polygon class="cls-1" points="1.33 22.24 0.95 22.99 1.43 23.67 1.81 22.92 1.33 22.24"/><polygon class="cls-1" points="1.66 25.22 1.4 26.02 1.98 26.62 2.25 25.82 1.66 25.22"/><polygon class="cls-1" points="2.44 28.13 2.3 28.95 2.96 29.46 3.1 28.64 2.44 28.13"/><polygon class="cls-1" points="3.64 30.88 3.62 31.71 4.36 32.12 4.38 31.28 3.64 30.88"/><polygon class="cls-1" points="5.23 33.42 5.35 34.26 6.13 34.54 6.02 33.71 5.23 33.42"/><polygon class="cls-1" points="7.2 35.7 7.43 36.5 8.24 36.67 8.02 35.87 7.2 35.7"/><polygon class="cls-1" points="9.48 37.67 9.82 38.43 10.66 38.48 10.31 37.72 9.48 37.67"/><polygon class="cls-1" points="12.01 39.28 12.47 39.98 13.3 39.9 12.84 39.2 12.01 39.28"/><polygon class="cls-1" points="14.76 40.49 15.31 41.12 16.13 40.91 15.57 40.28 14.76 40.49"/><polygon class="cls-1" points="17.66 41.28 18.31 41.81 19.08 41.49 18.44 40.96 17.66 41.28"/><polygon class="cls-1" points="20.7 41.61 21.42 42.05 22.13 41.61 21.42 41.18 20.7 41.61"/><polygon class="cls-1" points="23.74 41.51 24.51 41.83 25.15 41.29 24.38 40.97 23.74 41.51"/><polygon class="cls-1" points="26.69 40.95 27.5 41.15 28.06 40.53 27.24 40.33 26.69 40.95"/><polygon class="cls-1" points="29.52 39.95 30.36 40.04 30.82 39.34 29.98 39.26 29.52 39.95"/><polygon class="cls-1" points="32.19 38.56 33.02 38.51 33.37 37.75 32.53 37.8 32.19 38.56"/><polygon class="cls-1" points="34.6 36.77 35.42 36.6 35.65 35.8 34.82 35.97 34.6 36.77"/><polygon class="cls-1" points="36.73 34.65 37.51 34.36 37.61 33.52 36.83 33.81 36.73 34.65"/><polygon class="cls-1" points="38.53 32.24 39.27 31.84 39.24 31 38.51 31.41 38.53 32.24"/><polygon class="cls-1" points="39.93 29.58 40.59 29.08 40.45 28.25 39.79 28.76 39.93 29.58"/><polygon class="cls-1" points="40.93 26.74 41.51 26.15 41.24 25.35 40.66 25.95 40.93 26.74"/><polygon class="cls-1" points="41.51 23.76 41.99 23.08 41.61 22.34 41.13 23.02 41.51 23.76"/><polygon class="cls-1" points="41.62 20.7 41.99 19.96 41.52 19.28 41.14 20.02 41.62 20.7"/><polygon class="cls-1" points="41.28 17.72 41.55 16.93 40.97 16.33 40.7 17.12 41.28 17.72"/><polygon class="cls-1" points="40.51 14.82 40.65 13.99 39.99 13.49 39.84 14.31 40.51 14.82"/><polygon class="cls-1" points="39.3 12.06 39.33 11.22 38.59 10.82 38.58 11.67 39.3 12.06"/><polygon class="cls-1" points="37.71 9.52 37.61 8.69 36.81 8.4 36.92 9.23 37.71 9.52"/><polygon class="cls-1" points="35.75 7.25 35.52 6.44 34.7 6.27 34.92 7.08 35.75 7.25"/><polygon class="cls-1" points="33.47 5.28 33.13 4.52 32.29 4.47 32.63 5.23 33.47 5.28"/><polygon class="cls-1" points="30.94 3.67 30.48 2.97 29.65 3.05 30.1 3.75 30.94 3.67"/><polygon class="cls-1" points="28.18 2.46 27.63 1.83 26.82 2.03 27.37 2.66 28.18 2.46"/><polygon class="cls-1" points="25.28 1.67 24.64 1.13 23.87 1.45 24.51 1.99 25.28 1.67"/><polygon class="cls-1" points="23.7 1.44 23.02 0.95 22.27 1.33 22.96 1.82 23.7 1.44"/><polygon class="cls-1" points="20.7 1.33 19.95 0.94 19.28 1.44 20.02 1.81 20.7 1.33"/><polygon class="cls-1" points="17.72 1.66 16.93 1.4 16.32 1.99 17.12 2.25 17.72 1.66"/><polygon class="cls-1" points="14.82 2.44 14 2.3 13.48 2.97 14.31 3.11 14.82 2.44"/><polygon class="cls-1" points="12.07 3.64 11.23 3.63 10.82 4.36 11.66 4.38 12.07 3.64"/><polygon class="cls-1" points="9.52 5.24 8.69 5.35 8.4 6.13 9.23 6.03 9.52 5.24"/><polygon class="cls-1" points="7.25 7.2 6.44 7.43 6.27 8.25 7.07 8.03 7.25 7.2"/><polygon class="cls-1" points="5.27 9.46 4.5 9.81 4.46 10.65 5.22 10.3 5.27 9.46"/><polygon class="cls-1" points="3.67 12.01 2.97 12.46 3.05 13.3 3.75 12.85 3.67 12.01"/><polygon class="cls-1" points="2.46 14.76 1.84 15.32 2.04 16.13 2.67 15.57 2.46 14.76"/><polygon class="cls-1" points="1.67 17.7 1.13 18.34 1.45 19.11 1.99 18.47 1.67 17.7"/><polygon class="cls-1" points="1.32 20.74 0.89 21.46 1.32 22.18 1.76 21.46 1.32 20.74"/><polygon class="cls-1" points="1.44 23.74 1.12 24.52 1.65 25.16 1.98 24.38 1.44 23.74"/><polygon class="cls-1" points="2 26.69 1.79 27.5 2.42 28.06 2.62 27.24 2 26.69"/><polygon class="cls-1" points="2.99 29.53 2.91 30.36 3.61 30.82 3.7 29.98 2.99 29.53"/><polygon class="cls-1" points="4.39 32.19 4.44 33.02 5.2 33.37 5.16 32.52 4.39 32.19"/><polygon class="cls-1" points="6.18 34.6 6.34 35.42 7.15 35.66 6.98 34.83 6.18 34.6"/><polygon class="cls-1" points="8.3 36.73 8.59 37.52 9.43 37.63 9.13 36.84 8.3 36.73"/><polygon class="cls-1" points="10.71 38.53 11.12 39.26 11.95 39.24 11.55 38.51 10.71 38.53"/><polygon class="cls-1" points="13.37 39.94 13.87 40.6 14.7 40.46 14.19 39.8 13.37 39.94"/><polygon class="cls-1" points="16.2 40.95 16.8 41.52 17.6 41.26 17 40.68 16.2 40.95"/><polygon class="cls-1" points="19.2 41.51 19.88 41.99 20.63 41.61 19.95 41.13 19.2 41.51"/><polygon class="cls-1" points="22.24 41.61 22.99 42 23.67 41.52 22.93 41.13 22.24 41.61"/><polygon class="cls-1" points="25.23 41.28 26.02 41.55 26.62 40.97 25.82 40.7 25.23 41.28"/><polygon class="cls-1" points="28.13 40.51 28.95 40.65 29.46 39.98 28.64 39.84 28.13 40.51"/><polygon class="cls-1" points="30.89 39.3 31.72 39.32 32.12 38.59 31.29 38.57 30.89 39.3"/><polygon class="cls-1" points="33.43 37.71 34.26 37.6 34.54 36.81 33.71 36.92 33.43 37.71"/><polygon class="cls-1" points="35.7 35.74 36.51 35.52 36.67 34.7 35.87 34.92 35.7 35.74"/><polygon class="cls-1" points="37.68 33.48 38.44 33.13 38.49 32.3 37.73 32.64 37.68 33.48"/><polygon class="cls-1" points="39.28 30.94 39.98 30.48 39.9 29.65 39.2 30.1 39.28 30.94"/><polygon class="cls-1" points="40.48 28.18 41.11 27.62 40.91 26.81 40.28 27.37 40.48 28.18"/><polygon class="cls-1" points="41.28 25.25 41.81 24.6 41.49 23.83 40.96 24.48 41.28 25.25"/><polygon class="cls-1" points="41.62 22.2 42.05 21.49 41.62 20.78 41.19 21.49 41.62 22.2"/><polygon class="cls-1" points="41.51 19.2 41.83 18.43 41.29 17.79 40.97 18.56 41.51 19.2"/><polygon class="cls-1" points="40.95 16.25 41.16 15.44 40.53 14.89 40.33 15.69 40.95 16.25"/><polygon class="cls-1" points="39.95 13.42 40.04 12.59 39.33 12.13 39.26 12.96 39.95 13.42"/><polygon class="cls-1" points="38.55 10.76 38.51 9.93 37.75 9.58 37.79 10.42 38.55 10.76"/><polygon class="cls-1" points="36.77 8.35 36.6 7.53 35.79 7.3 35.97 8.12 36.77 8.35"/><polygon class="cls-1" points="34.65 6.22 34.36 5.43 33.52 5.32 33.81 6.11 34.65 6.22"/><polygon class="cls-1" points="32.24 4.42 31.84 3.69 31 3.71 31.4 4.44 32.24 4.42"/><polygon class="cls-1" points="29.59 3.01 29.07 2.35 28.25 2.48 28.76 3.15 29.59 3.01"/><polygon class="cls-1" points="26.74 2 26.14 1.42 25.34 1.69 25.94 2.27 26.74 2"/><path class="cls-1" d="M0,21.47A21.47,21.47,0,1,0,21.48,0,21.5,21.5,0,0,0,0,21.47Zm0.56,0A20.91,20.91,0,1,1,21.48,42.39,20.94,20.94,0,0,1,.56,21.47Z"/><path class="cls-1" d="M6.09,25.95a0.18,0.18,0,0,0,.13-0.23,2.12,2.12,0,0,0-.11-0.39,0.5,0.5,0,0,0-.26-0.24,0.86,0.86,0,0,0-.26,0l0-.08,0.58,0c0.07,0.26.13,0.52,0.2,0.78s0.15,0.52.23,0.78l-0.1,0v0a0.19,0.19,0,0,0-.28-0.16l-1.66.46a0.18,0.18,0,0,0-.12.27v0l-0.1,0c0-.16-0.07-0.32-0.12-0.48s-0.1-.29-0.14-0.44l0.1,0,0,0.07c0,0.11.07,0.2,0.23,0.15Z"/><path class="cls-1" d="M6,24.81v0a0.18,0.18,0,0,0-.22-0.19l-1.73.27c-0.18,0-.17.14-0.15,0.25v0l-0.1,0c0-.18-0.07-0.5-0.11-0.75s-0.1-.57-0.13-0.78c0.15,0,.36-0.05.5-0.08l0,0.08a0.34,0.34,0,0,0-.33.44l0.07,0.42,0.87-.13L4.66,24c0-.18-0.15-0.2-0.33-0.19V23.7l0.39-.05,0.37-.08,0,0.1c-0.2.05-.32,0.08-0.29,0.29l0.05,0.37,0.77-.12c0.21,0,.19-0.22.16-0.41-0.06-.37-0.11-0.52-0.5-0.55V23.15l0.54,0c0,0.19.07,0.55,0.1,0.82s0.11,0.63.15,0.8Z"/><path class="cls-1" d="M5.49,22.38a0.18,0.18,0,0,0,.18-0.19,1.77,1.77,0,0,0,0-.4,0.44,0.44,0,0,0-.2-0.29,0.68,0.68,0,0,0-.24-0.08V21.32a5.58,5.58,0,0,1,.57.09c0,0.27,0,.54,0,0.8s0,0.54,0,.81H5.74v0a0.19,0.19,0,0,0-.23-0.21l-1.71.07a0.18,0.18,0,0,0-.18.24v0H3.52c0-.16,0-0.32,0-0.49s0-.3,0-0.46h0.1v0.07c0,0.13,0,.22.18,0.21Z"/><path class="cls-1" d="M6.41,17.06L6.08,17,4.6,16.66c-0.39-.09-0.38-0.23-0.36-0.36l0,0-0.1,0c0,0.13,0,.25-0.07.37S4,16.88,4,17l0.1,0,0-.07a0.26,0.26,0,0,1,.36-0.19l1.22,0.28h0L3.75,18c0,0.09,0,.18-0.05.27s-0.06.23-.09,0.34l0.1,0v0a0.28,0.28,0,0,1,.35-0.21l1.4,0.32a0.35,0.35,0,0,1,.36.28s0,0.13,0,.13a0.19,0.19,0,0,1-.15.19l-0.35.09-1.79.42-0.09,0a0,0,0,0,0,0,0,0.08,0.08,0,0,0,0,0,1.26,1.26,0,0,1,.12.29,2.6,2.6,0,0,1,.41.15L5.47,21a0.28,0.28,0,0,1,.19.28v0h0.1a3.11,3.11,0,0,1,0-.33c0-.12,0-0.24,0-0.37H5.71v0c0,0.1,0,.22-0.13.22a1.56,1.56,0,0,1-.26-0.09L5,20.61,5,19.92l0.39-.08a1.18,1.18,0,0,1,.24,0c0.08,0,.09.13,0.08,0.2v0h0.1c0-.16,0-0.31,0-0.46s0-.39,0-0.39,0-.28.07-0.41,0.07-.26.1-0.39l-0.1,0v0.06c-0.05.23-.16,0.26-0.44,0.19l-1.38-.31,2.22-1.12ZM4.8,20.54l-0.92-.36h0l1-.2Z"/><path class="cls-1" d="M6.38,16.75v0a0.18,0.18,0,0,0-.09-0.28l-1.63-.65a0.18,0.18,0,0,0-.26.14v0l-0.1,0c0-.09.12-0.27,0.2-0.45s0.12-.34.17-0.46a1.11,1.11,0,0,1,1.53-.71,1.12,1.12,0,0,1,.67,1.49c-0.05.12-.14,0.32-0.22,0.52s-0.15.4-.17,0.48Zm0-.73c0.22,0.09.28,0,.36-0.2a0.87,0.87,0,0,0-.63-1.1,0.89,0.89,0,0,0-1.36.43c0,0.07,0,.14-0.06.2Z"/><path class="cls-1" d="M6.74,12a0.42,0.42,0,0,0-.55.09,0.36,0.36,0,0,0,.16.54c0.48,0.29.81-.59,1.5-0.17a0.69,0.69,0,0,1,.22,1,1,1,0,0,1-.38.34l-0.47-.22,0-.08a0.52,0.52,0,0,0,.7-0.13,0.37,0.37,0,0,0-.13-0.52C7.31,12.54,7,13.41,6.31,13a0.64,0.64,0,0,1-.24-0.94c0.05-.08.21-0.28,0.28-0.36a3,3,0,0,0,.43.22Z"/><path class="cls-1" d="M6.9,11.16c-0.14.18-.1,0.23,0.07,0.41l-0.05.07-0.2-.21L6.5,11.26l0-.06a0.15,0.15,0,0,0,.19-0.09l1-1.26c0-.06.1-0.13,0-0.2l0.05,0L8,9.8,8.18,10l0,0.09a0.26,0.26,0,0,0-.39,0l-0.31.4,1.41,1.08c0.2,0.16.29,0.09,0.38,0l0,0,0.08,0.07c-0.07.1-.21,0.25-0.32,0.39l-0.31.42-0.08-.06,0-.05c0.1-.13.14-0.21-0.07-0.37L7.21,10.76Z"/><path class="cls-1" d="M12.6,8.58a2.42,2.42,0,0,1-.22-0.25l-0.94-1.2c-0.24-.31-0.15-0.42,0-0.5l0,0-0.06-.08-0.29.25L10.73,7,10.8,7.1l0,0a0.27,0.27,0,0,1,.41.08l0.77,1h0L9.92,7.66l-0.2.18L9.43,8,9.48,8.12l0,0a0.29,0.29,0,0,1,.4.06l0.87,1.11C11,9.48,11,9.66,10.84,9.79l0,0a0.2,0.2,0,0,1-.24.06l-0.32-.15-1.66-.8-0.08,0h0v0a1.64,1.64,0,0,1-.09.3,2.63,2.63,0,0,1,.22.37L9.38,11a0.28,0.28,0,0,1,0,.35h0l0.08,0.07a2.39,2.39,0,0,1,.21-0.26l0.25-.27-0.07-.06,0,0C9.73,10.95,9.63,11,9.56,11a1.7,1.7,0,0,1-.14-0.24l-0.18-.31,0.48-.5,0.36,0.18a1.13,1.13,0,0,1,.22.12c0.06,0.06,0,.15-0.06.2l0,0,0.07,0.07,0.31-.35,0.28-.28c0.11-.08.2-0.19,0.31-0.27s0.22-.15.32-0.24L11.44,9.3l0,0c-0.19.15-.29,0.1-0.47-0.13L10.08,8.12l2.43,0.54ZM9.14,10.24L8.65,9.38h0L9.53,9.82Z"/><path class="cls-1" d="M12.72,6.93l0.37-.22c0.13-.08.11-0.19,0-0.34l0.08,0c0.06,0.11.11,0.21,0.18,0.32A3.11,3.11,0,0,0,13.6,7L13.52,7c-0.09-.16-0.21-0.26-0.38-0.16l-0.33.19L13.24,7.8c0.09,0.16.22,0.09,0.35,0l0,0,0.05,0.09-0.46.26-0.4.25L12.77,8.3l0,0A0.18,0.18,0,0,0,12.9,8L12,6.5a0.18,0.18,0,0,0-.29-0.05l0,0-0.05-.09c0.16-.1.44-0.24,0.66-0.37L13,5.59a4.51,4.51,0,0,0,.27.44l-0.07.07C13,5.91,12.91,5.79,12.7,5.92l-0.43.25Z"/><path class="cls-1" d="M14.32,4.89a1.12,1.12,0,0,1,1.54.59,1.19,1.19,0,0,1-.56,1.64,1.14,1.14,0,0,1-1.53-.65A1.17,1.17,0,0,1,14.32,4.89Zm1,2.08a0.84,0.84,0,0,0,.22-1.25A1,1,0,0,0,14.37,5a0.81,0.81,0,0,0-.26,1.16A1,1,0,0,0,15.27,7Z"/><path class="cls-1" d="M20.45,4.62a1.14,1.14,0,0,0-1.36-1l-0.49.08-0.49,0,0,0.1h0a0.18,0.18,0,0,1,.25.16l0.21,1.77a0.18,0.18,0,0,1-.19.22H18.38A0.34,0.34,0,0,1,18,5.85L17.3,5.12a0.62,0.62,0,0,0,.26-0.68,0.6,0.6,0,0,0-.86-0.38l-0.47.15-0.47.11,0,0.1,0.06,0c0.09,0,.21,0,0.27.19l0.45,1.68a0.19,0.19,0,0,1-.16.23H16.36l0,0.09,0.43-.13,0.52-.13,0-.09H17.24c-0.13,0-.25.05-0.31-0.19l-0.2-.73,0.2-.05a9.89,9.89,0,0,0,.91.92l0.28-.09,0.27-.06h0L18.9,6l0.56-.06A1.12,1.12,0,0,0,20.45,4.62Zm-3.6.57-0.14,0-0.26-1,0.17-.06a0.44,0.44,0,0,1,.56.35A0.43,0.43,0,0,1,16.85,5.2Zm2.52,0.62c-0.22,0-.32,0-0.35-0.22L18.79,3.76l0.21,0a0.91,0.91,0,0,1,1,1A0.87,0.87,0,0,1,19.37,5.82Z"/><path class="cls-1" d="M22,3.7c0-.17-0.13-0.17-0.26-0.18h0V3.42l0.47,0h0.48v0.1h0a0.18,0.18,0,0,0-.22.17l-0.07,2a0.76,0.76,0,0,1-.67.79,0.3,0.3,0,0,1-.36-0.3A0.19,0.19,0,0,1,21.44,6a1.47,1.47,0,0,1,.29.33c0.1,0,.13-0.16.13-0.25Z"/><path class="cls-1" d="M23.14,3.85c0-.24-0.08-0.27-0.2-0.28h0V3.47l0.48,0.08L23.85,3.6V3.7h0c-0.12,0-.25,0-0.28.21L23.37,5.06a0.58,0.58,0,0,0,.48.79,0.61,0.61,0,0,0,.68-0.65l0.15-1.14c0-.24-0.08-0.26-0.18-0.27H24.44l0-.1,0.36,0.07,0.36,0,0,0.1H25.1c-0.09,0-.2,0-0.23.22L24.71,5.17a0.8,0.8,0,0,1-1,.84,0.76,0.76,0,0,1-.79-1Z"/><path class="cls-1" d="M26.85,6h0l0.35-1.2A0.27,0.27,0,0,0,27,4.43L27,4.42l0-.09,0.41,0.14,0.36,0.09,0,0.09H27.71c-0.12,0-.27-0.05-0.38.33L26.9,6.42a1.8,1.8,0,0,0-.08.33l-0.11,0-1-2.29L25.35,5.75c-0.08.28-.06,0.39,0.17,0.46l0,0,0,0.09-0.38-.13-0.4-.1,0-.09h0c0.2,0.06.31-.07,0.39-0.33L25.6,4.33A0.28,0.28,0,0,0,25.42,4h0l0-.09L25.74,4,26,4Z"/><path class="cls-1" d="M27.13,6.73h0a0.18,0.18,0,0,0,.29-0.09L28.13,5A0.18,0.18,0,0,0,28,4.74l0,0,0-.09,0.42,0.19L28.86,5l0,0.1,0,0a0.18,0.18,0,0,0-.28.09L27.81,6.81a0.18,0.18,0,0,0,.14.27h0l0,0.1L27.51,7l-0.42-.16Z"/><path class="cls-1" d="M30.11,5.6a1.12,1.12,0,0,1,.48,1.57A1.18,1.18,0,0,1,29,7.74a1.13,1.13,0,0,1-.44-1.6A1.19,1.19,0,0,1,30.11,5.6Zm-1.06,2A0.84,0.84,0,0,0,30.18,7,0.94,0.94,0,0,0,30,5.73,0.8,0.8,0,0,0,29,6.24,1,1,0,0,0,29.06,7.63Z"/><path class="cls-1" d="M31.37,6.82c0.14-.2,0-0.28,0-0.34l0,0,0.06-.08,0.37,0.3c0.14,0.11.28,0.19,0.41,0.28a0.59,0.59,0,0,1,.24.9,0.61,0.61,0,0,1-.69.22l-0.08,1a0.33,0.33,0,0,0,.12.34l-0.06.08L31.42,9.3l-0.24-.16a10.21,10.21,0,0,1,.13-1.25l-0.16-.12-0.42.57c-0.16.21-.07,0.28,0,0.37l0,0-0.06.08-0.41-.33L30,8.24,30,8.16l0,0a0.19,0.19,0,0,0,.28,0Zm-0.14.86,0.12,0.09A0.43,0.43,0,0,0,32,7.61,0.44,0.44,0,0,0,32,7a1.06,1.06,0,0,0-.15-0.09Z"/><path class="cls-1" d="M33.9,8.86c0.17-.16.1-0.25,0-0.34l0,0L34,8.43c0.09,0.1.19,0.23,0.32,0.37l0.32,0.33-0.07.07,0,0a0.2,0.2,0,0,0-.34,0l-0.85.78a0.59,0.59,0,0,0-.13.92,0.6,0.6,0,0,0,.93-0.07L35,10c0.18-.16.11-0.25,0-0.33l0,0L35,9.57c0.08,0.09.16,0.2,0.24,0.28l0.25,0.25-0.08.07,0,0c-0.06-.06-0.14-0.14-0.32,0l-0.78.72a0.79,0.79,0,0,1-1.28.05,0.76,0.76,0,0,1,0-1.24Z"/><path class="cls-1" d="M35.44,12.92h0l1-.71a0.26,0.26,0,0,0,.11-0.39l0-.06,0.08-.06c0.08,0.12.15,0.24,0.23,0.36l0.22,0.31L37,12.43l0,0c-0.07-.11-0.18-0.21-0.51,0l-1.25.86a2.24,2.24,0,0,0-.27.21l-0.07-.09L35.59,11l-1.14.78c-0.24.16-.3,0.26-0.16,0.46l0,0-0.09.05C34.16,12.21,34.1,12.09,34,12s-0.17-.22-0.25-0.34l0.08-.05,0,0c0.12,0.18.28,0.14,0.51,0l1.16-.79a0.29,0.29,0,0,0,.09-0.4l0,0,0.08-.06c0.07,0.1.13,0.2,0.19,0.3s0.11,0.15.17,0.22Z"/><path class="cls-1" d="M35.22,13.66l0,0a0.19,0.19,0,0,0,.28.11L37.06,13a0.18,0.18,0,0,0,.05-0.29l0,0,0.09,0c0.05,0.11.13,0.28,0.21,0.41s0.16,0.29.23,0.42l-0.08,0,0,0a0.18,0.18,0,0,0-.28-0.11l-1.55.83a0.18,0.18,0,0,0-.06.29l0,0-0.09,0c-0.07-.13-0.14-0.3-0.22-0.43l-0.22-.39Z"/><path class="cls-1" d="M38,14.5l0-.07c0-.11-0.11-0.13-0.15-0.11l-0.09.07-1.17,1.05h0L38,15.37a0.54,0.54,0,0,0,.19,0c0.09,0,.06-0.13,0-0.22l0-.05,0.1,0c0,0.1.07,0.21,0.12,0.33s0.09,0.17.12,0.25l-0.09,0v0a0.17,0.17,0,0,0-.17-0.11l-1.95.08-0.36,0,0-.11L37.59,14a0.23,0.23,0,0,0,.08-0.31l0,0,0.1,0c0.06,0.15.11,0.3,0.17,0.44l0.19,0.42Z"/><path class="cls-1" d="M36.49,16.42v0a0.18,0.18,0,0,0,.24.16l1.69-.46a0.18,0.18,0,0,0,.12-0.27v0l0.09,0c0,0.18.12,0.5,0.19,0.74s0.17,0.55.22,0.75a4.53,4.53,0,0,0-.49.15l0-.08a0.33,0.33,0,0,0,.28-0.47l-0.11-.41-0.84.23,0.1,0.35c0,0.18.17,0.18,0.34,0.15l0,0.09-0.38.1-0.36.11,0-.08c0.18-.07.31-0.12,0.25-0.33l-0.1-.35L36.92,17c-0.21.06-.17,0.23-0.11,0.42,0.1,0.36.17,0.5,0.56,0.49V18l-0.54,0c-0.05-.19-0.13-0.53-0.21-0.8s-0.18-.61-0.23-0.78Z"/><path class="cls-1" d="M38.87,18.15c0.24,0,.23-0.16.22-0.25V17.84l0.09,0c0,0.1,0,.29.06,0.47s0.06,0.33.09,0.49a0.6,0.6,0,0,1-.48.81,0.62,0.62,0,0,1-.64-0.34l-0.77.64a0.34,0.34,0,0,0-.16.33l-0.1,0c0-.11,0-0.2,0-0.3s0-.19-0.05-0.29a10,10,0,0,1,1-.79l0-.2-0.71.1c-0.25,0-.24.15-0.23,0.29v0.06H37c0-.17,0-0.35-0.07-0.52s-0.05-.29-0.07-0.44H37v0.06a0.2,0.2,0,0,0,.22.19Zm-0.71.5,0,0.15a0.44,0.44,0,0,0,.59.4,0.44,0.44,0,0,0,.41-0.52,0.92,0.92,0,0,0,0-.16Z"/><path class="cls-1" d="M39,21.37A0.43,0.43,0,0,0,39.45,21,0.37,0.37,0,0,0,39,20.62c-0.56,0-.36.94-1.16,1a0.7,0.7,0,0,1-.73-0.73,1.1,1.1,0,0,1,.14-0.49l0.51-.07,0,0.09a0.51,0.51,0,0,0-.52.49,0.37,0.37,0,0,0,.4.37c0.59,0,.37-0.92,1.17-0.95a0.65,0.65,0,0,1,.71.66c0,0.08,0,.35,0,0.44l-0.49,0Z"/><path class="cls-1" d="M37.3,21.7v0a0.18,0.18,0,0,0,.19.24l1.74,0.07a0.18,0.18,0,0,0,.19-0.22v0h0.1c0,0.12,0,.31,0,0.45s0,0.34,0,.49h-0.1v0a0.19,0.19,0,0,0-.18-0.24l-1.75-.07a0.18,0.18,0,0,0-.19.21v0H37.17c0-.15,0-0.33,0-0.48s0-.34,0-0.45H37.3Z"/><path class="cls-1" d="M39.29,23.28c0-.23,0-0.25-0.26-0.33l0-.08,0.27,0.07a1.51,1.51,0,0,0,.28.06v0.08c-0.1,0-.11.08-0.12,0.17l-0.22,1.57c0,0.08,0,.16.08,0.18l0,0.07L39,25l-0.27,0,0-.1a0.27,0.27,0,0,0,.35-0.18l0.07-.5-1.76-.24c-0.25,0-.3.06-0.32,0.21V24.2l-0.1,0c0-.12.06-0.33,0.08-0.49s0-.4.06-0.52h0.1v0.06c0,0.17,0,.25.25,0.29l1.76,0.24Z"/><path class="cls-1" d="M37.74,25.72l1-.35a0.36,0.36,0,0,0,.3-0.23v0l0.09,0c0,0.16-.09.3-0.13,0.46s-0.07.3-.1,0.44l-0.1,0v0c0-.09,0-0.16,0-0.17a0.3,0.3,0,0,0-.12,0l-0.8.26,0.48,0.53a0.57,0.57,0,0,0,.18.15c0.06,0,.11-0.11.12-0.15l0-.05,0.09,0c0,0.11-.07.22-0.1,0.33s0,0.2-.07.28l-0.09,0a0.31,0.31,0,0,0-.09-0.27l-0.7-.78L37,25.93c-0.27-.08-0.31,0-0.36.16v0.06l-0.09,0c0-.17.1-0.35,0.14-0.47s0.07-.33.12-0.5l0.1,0,0,0c-0.05.18,0,.26,0.2,0.32Z"/><path class="cls-1" d="M19.31,39c0,0.19.1,0.2,0.25,0.22h0.07l0,0.1-0.51-.08-0.56-.06,0-.1h0.06c0.13,0,.29,0,0.31-0.14l0.22-1.66-0.44.15,0-.1,0.44-.19L19.5,37h0.08Z"/><path class="cls-1" d="M20.39,38.34l0,0a0.7,0.7,0,0,1-.3-0.62,0.63,0.63,0,0,1,.68-0.62,0.53,0.53,0,0,1,.54.56,0.67,0.67,0,0,1-.45.55,0.69,0.69,0,0,1,.42.65,0.65,0.65,0,0,1-.7.63A0.57,0.57,0,0,1,20.39,38.34Zm0.37-.21A0.64,0.64,0,0,0,21,37.65a0.4,0.4,0,0,0-.33-0.46,0.36,0.36,0,0,0-.34.35A0.65,0.65,0,0,0,20.76,38.13Zm-0.19,1.22A0.34,0.34,0,0,0,20.92,39a0.74,0.74,0,0,0-.46-0.61,0.61,0.61,0,0,0-.28.5A0.41,0.41,0,0,0,20.57,39.35Z"/><path class="cls-1" d="M22.69,38.15a0.53,0.53,0,0,1-.43.3,0.56,0.56,0,0,1-.56-0.61,0.73,0.73,0,0,1,.69-0.78,0.79,0.79,0,0,1,.77.86,1.69,1.69,0,0,1-1.35,1.59l-0.05-.09a1.41,1.41,0,0,0,1-1.46c0-.25-0.14-0.79-0.46-0.77a0.35,0.35,0,0,0-.3.43,0.53,0.53,0,0,0,.43.55,0.36,0.36,0,0,0,.22-0.1v0.08Z"/><path class="cls-1" d="M24.5,38.9c0,0.18.15,0.16,0.3,0.14h0.07l0,0.1-0.52.07-0.55.1,0-.1h0.07c0.13,0,.27-0.05.25-0.23L23.86,37.3l-0.38.27-0.06-.08,0.36-.31c0.12-.12.24-0.23,0.3-0.31l0.09,0Z"/><path class="cls-1" d="M35,32s0,0.89,0,.89l-0.49-.76-0.79.3,0.52-.68L33.81,31l0.77,0.3,0.53-.68S35,31.45,35,31.5l0.85,0.28Z"/><path class="cls-1" d="M33.14,34L33,34.89l-0.36-.82-0.83.16,0.63-.59-0.37-.75,0.71,0.42,0.63-.59-0.22.82L34,34Z"/><path class="cls-1" d="M31,35.72s-0.24.85-.24,0.85-0.21-.83-0.22-0.86l-0.85,0,0.72-.48s-0.25-.79-0.25-0.79L30.77,35l0.71-.48-0.34.77,0.71,0.54Z"/><path class="cls-1" d="M7.88,32.09s0,0.89,0,.89l0.49-.75,0.79,0.3L8.6,31.84l0.49-.67-0.77.3-0.53-.69s0.08,0.8.09,0.84L7,31.9Z"/><path class="cls-1" d="M9.75,34.12S9.86,35,9.86,35l0.35-.82L11,34.35l-0.63-.59s0.37-.74.37-0.74l-0.72.42-0.63-.59s0.21,0.78.22,0.82l-0.79.41Z"/><path class="cls-1" d="M11.91,35.84l0.26,0.86s0.21-.83.22-0.87l0.84,0-0.71-.47s0.25-.8.25-0.8l-0.64.53-0.72-.48s0.33,0.73.35,0.77L11,35.93Z"/><path class="cls-1" d="M11.45,27.79a0.08,0.08,0,0,1,0,.09l-0.11.06a0.06,0.06,0,0,1-.08,0,0.06,0.06,0,0,1,0-.09l0.11,0A0.06,0.06,0,0,1,11.45,27.79Zm18.21,3.58a1.33,1.33,0,0,0-.45.18c-0.09.07,0,.18,0,0.16a3.54,3.54,0,0,0,.46-0.26A0.06,0.06,0,0,0,29.66,31.38ZM23.9,28.23c0.06,0,.11-0.07.07-0.09a0.1,0.1,0,0,0-.13,0c-0.24.17-.43,0.25-0.66,0.43a4.2,4.2,0,0,1-.66.61c0,0.13.13,0.12,0.22,0s0.35-.39.4-0.43c0.21-.19.32-0.22,0.54-0.39Zm-1.13.11,0.12-.05L23,28.22s0-.14-0.09-0.09l-0.08,0h0l-0.1.06s0,0,0,.06A0.08,0.08,0,0,0,22.78,28.34Zm-0.34,0-0.08.06H22.3l-0.1.06s0,0,0,.07a0.08,0.08,0,0,0,.1,0l0.13,0,0.07,0C22.58,28.44,22.52,28.34,22.44,28.39ZM24.9,28a0.07,0.07,0,0,0-.1,0c-0.19.13-.39,0.26-0.58,0.4a2,2,0,0,0-.27.25,1.08,1.08,0,0,1-.22.26,0.08,0.08,0,0,0-.06.09,0.05,0.05,0,0,0,.08,0,1.31,1.31,0,0,0,.36-0.37,5,5,0,0,1,.75-0.55A0.1,0.1,0,0,0,24.9,28Zm-1.32,1.1a0.26,0.26,0,0,0-.21.2,0.6,0.6,0,0,1-.11.15,0.08,0.08,0,0,0,0,.1,0,0,0,0,0,.07,0,0.61,0.61,0,0,0,.16-0.22,0.26,0.26,0,0,1,.08-0.11,0.07,0.07,0,0,0,.08-0.06A0.06,0.06,0,0,0,23.58,29.13Zm1.79-.74a1.71,1.71,0,0,0-.32.17,0.46,0.46,0,0,0-.18.23,0.06,0.06,0,0,0,.08,0,0.22,0.22,0,0,0,.12-0.11l0.05-.06,0.1,0a0.25,0.25,0,0,0,.19-0.15A0.07,0.07,0,0,0,25.36,28.39ZM24.64,29l-0.08,0h0l0,0-0.1.05s0,0,0,.07a0.08,0.08,0,0,0,.1,0l0.12-.06,0,0,0.05,0s0,0,0-.06A0.09,0.09,0,0,0,24.64,29Zm1.2-.14a0.29,0.29,0,0,0-.2.12L25.6,29a0.07,0.07,0,0,0,0,.09,0,0,0,0,0,.08,0l0.07-.06a0.43,0.43,0,0,1,.1-0.08,0.06,0.06,0,0,0,.06-0.07A0.07,0.07,0,0,0,25.84,28.84Zm0,1.67A0.28,0.28,0,0,0,26,30.41l0-.05,0.11-.05a0.07,0.07,0,0,0,.07-0.06,0.06,0.06,0,0,0,0-.07,0.32,0.32,0,0,0-.21.06l-0.09.09a0.2,0.2,0,0,1-.06.06,0.05,0.05,0,0,0,0,.07A0.06,0.06,0,0,0,25.87,30.52Zm9.44-9A13.84,13.84,0,1,1,21.47,7.63,13.85,13.85,0,0,1,35.31,21.47Zm-16.38,10a0.23,0.23,0,0,1,0-.07,5.3,5.3,0,0,1-.74-0.18,5.5,5.5,0,0,1-1.78-.33,1,1,0,0,1-.79-0.28A1.85,1.85,0,0,0,15,30.49c-0.58-.54-1.29.15-2-0.15a3.33,3.33,0,0,1-.55-0.08,2.33,2.33,0,0,1-.88-0.12,0.67,0.67,0,0,0-.58.07c0.13,0.15.26,0.31,0.4,0.46a1,1,0,0,1,.31-0.18c0.14,0-.07.17-0.17,0.25l0,0c0.25,0.27.51,0.52,0.78,0.77a3.72,3.72,0,0,1,.42-0.24,0.91,0.91,0,0,1,.41-0.21,0.06,0.06,0,0,1,0,.07,1.25,1.25,0,0,1-.42.28,1.5,1.5,0,0,0-.28.13l-0.07,0h0a12.13,12.13,0,0,0,.94.77c0.22-.19.46-0.35,0.68-0.53a1.71,1.71,0,0,1,.37-0.28l0.43-.17s0.05,0,.07,0,0,0,0,0a1.24,1.24,0,0,1-.47.28c-0.17.1-.33,0.21-0.49,0.32a3.4,3.4,0,0,0-.36.28l-0.14.12c0.2,0.15.4,0.29,0.61,0.43h0.26a1.33,1.33,0,0,1,1-.15c0.34-.25.75-0.09,1.07-0.36a12.31,12.31,0,0,0,1.34-.17c0.31-.27.75-0.23,1.06-0.48A0.58,0.58,0,0,0,18.94,31.5ZM20.2,30a3.55,3.55,0,0,0-.42-0.11H19.6c-0.07,0-.1,0-0.18,0H19.26a0.86,0.86,0,0,1-.21,0,0.79,0.79,0,0,1-.13-0.06l-0.14,0a0.09,0.09,0,0,0-.07-0.05l-0.19,0H18.38a0.89,0.89,0,0,1-.11-0.06l-0.17,0a2.64,2.64,0,0,0-.45-0.09,1.06,1.06,0,0,1-.28-0.1,1.42,1.42,0,0,0-.17,0,0.35,0.35,0,0,0-.13,0H17a0.72,0.72,0,0,1-.14-0.06l-0.22-.1c-0.33,0-.75-0.3-1.06-0.31-0.85,0-1.26-.85-2.06-1-0.57-.15-1-0.51-1.6-0.62a1.43,1.43,0,0,0-1.07.06,4.33,4.33,0,0,1-1,.28,0.64,0.64,0,0,1-.41.22c0.09,0.19.2,0.37,0.3,0.55A9.09,9.09,0,0,1,11,27.93s0.1,0.05,0,.1c-0.39.16-.78,0.29-1.18,0.45l0,0c0.12,0.2.24,0.4,0.38,0.6h0a3.9,3.9,0,0,1,.46-0.34,2.12,2.12,0,0,0,1-.4,0.06,0.06,0,0,1,.07-0.06,0.07,0.07,0,0,1,.06.07c0,0.31-.86.4-1.07,0.5a3.31,3.31,0,0,0-.43.29l-0.05,0,0.37,0.5a4.39,4.39,0,0,1,.61-0.41,3,3,0,0,0,1.19-.73,0.06,0.06,0,0,1,.07-0.05,0.06,0.06,0,0,1,.06.07c-0.05.36-1.18,0.78-1.45,0.93s-0.28.19-.41,0.29L10.86,30a1,1,0,0,1,.8-0.07,0.47,0.47,0,0,1,.3.15,5.4,5.4,0,0,1,1.11-1,0.05,0.05,0,0,1,0,.08c0,0.06-.81.77-1,1h0a5.91,5.91,0,0,0,1.3.08,0.06,0.06,0,0,1,0,0L14,29.51a0.06,0.06,0,0,1,.08,0,0.07,0.07,0,0,1,.05.07,6.18,6.18,0,0,1-.49.66,2.9,2.9,0,0,0,.32-0.06,0.7,0.7,0,0,1,.76.07h0l0.35-.41a0.08,0.08,0,0,1,.08,0,0.07,0.07,0,0,1,0,.08,2.73,2.73,0,0,1-.36.44,0.08,0.08,0,0,1,0,0,2.07,2.07,0,0,1,1,.3l0.27-.37a0.08,0.08,0,0,1,.08,0,0.05,0.05,0,0,1,0,.07,2.08,2.08,0,0,1-.31.43,1.89,1.89,0,0,0,.56.12,3.14,3.14,0,0,0,1.17.25c0.16,0,.94.16,1.09,0.19a0.66,0.66,0,0,0,.19.07,4.56,4.56,0,0,1,.39-0.5,3,3,0,0,1,.55-0.26A0.44,0.44,0,0,0,20.2,30Zm-2.91-1.51h0l-0.55.43A0.63,0.63,0,0,1,17,29a7.64,7.64,0,0,0,1.78-.51,2.67,2.67,0,0,0,.7-0.17,7.92,7.92,0,0,1-1.81-.91,4.58,4.58,0,0,0-1.56-.18l-0.2,0a2.53,2.53,0,0,0-.37.06,1.38,1.38,0,0,1-.26.06,3.12,3.12,0,0,1-.31.07l-0.19.07c-0.23.22-.64,0.07-0.87,0.29a0.21,0.21,0,0,0,.16.2,0.57,0.57,0,0,1,.21,0,1.78,1.78,0,0,0,.24-0.12c0.11,0,.57-0.15.68-0.21a0.56,0.56,0,0,1,.34-0.12,0,0,0,0,1,0,.06,0,0,0,0,1-.06,0,5.22,5.22,0,0,0-.77.27,2.7,2.7,0,0,0-.44.19h0l0.11,0.05,0.14,0.09,0.07,0.08a0.2,0.2,0,0,1,0,.09l0.19,0.11h0a7,7,0,0,1,.92-0.69,0.05,0.05,0,0,1,.06,0,0.06,0.06,0,0,1,0,.07,5.67,5.67,0,0,0-.86.64l0.05,0h0.13l0.11,0.05c0.07,0,.12.08,0.19,0.1h0a4.94,4.94,0,0,1,.83-0.74,0,0,0,0,1,0,.06,4.37,4.37,0,0,1-.72.69h0l0.1,0.06,0.08,0a0.55,0.55,0,0,0,.23.07l0-.05v0l0.08-.07,0.36-.32a0,0,0,0,1,.06,0,0,0,0,0,1,0,0h0s-0.35.33-.36,0.34h0l-0.06.05h0l0.18,0.06h0l0.08,0,0.1,0a0.16,0.16,0,0,1,0-.06l0.62-.45a0.07,0.07,0,0,1,0,0h0.05S17.39,28.44,17.29,28.52Zm3.09,0V28.15a4.63,4.63,0,0,1-.69.21,6.41,6.41,0,0,0-1.08.35,13.05,13.05,0,0,1-1.54.46l0.15,0a1.21,1.21,0,0,0,.2.07,0.92,0.92,0,0,1,.21,0h0l0.13,0a1.68,1.68,0,0,1,.44-0.18c0.24-.1.49-0.18,0.74-0.27l0.48-.19a0.81,0.81,0,0,1,.4-0.12,0.06,0.06,0,0,1,.06.07,0.06,0.06,0,0,1-.08,0,1.2,1.2,0,0,0-.41.16l-0.52.2-0.83.31a0.78,0.78,0,0,1,.2.05l0.05,0,0.17,0,0.06,0,0,0,0.17-.07a2.41,2.41,0,0,0,.33-0.2,1.11,1.11,0,0,1,.35-0.15,0.67,0.67,0,0,0,.26-0.1l0.05,0a0.06,0.06,0,0,1,.09,0,0.07,0.07,0,0,1,0,.09l-0.05,0a1,1,0,0,1-.3.1,1.16,1.16,0,0,0-.37.16l-0.17.13-0.17.07h0.1l0.16,0,0.22,0h0.25a1.72,1.72,0,0,0,.35-0.28c0.08-.07.22,0,0.13,0.07l-0.24.22a2.09,2.09,0,0,1,.32,0,0.31,0.31,0,0,0,.11-0.15v0a0.06,0.06,0,0,1,.08,0,0.07,0.07,0,0,1,0,.09h0a0.47,0.47,0,0,1-.07.13l0.08,0A3.73,3.73,0,0,0,20.38,28.54Zm2.16,1.81a3.37,3.37,0,0,1,.46.06l0.12,0a1.56,1.56,0,0,0,.57-0.15,1.82,1.82,0,0,1,.69-0.17A3.55,3.55,0,0,0,25,29.94s0.12,0,.07.07a0.13,0.13,0,0,1,0,.06,2.57,2.57,0,0,1-.38.13c-0.21,0-.41,0-0.61.09a2.19,2.19,0,0,1-.53.19l0.26,0.05,0.12,0a2.1,2.1,0,0,0,.48,0,3.61,3.61,0,0,0,.54-0.2c0.12-.05.26-0.06,0.38-0.11a0.67,0.67,0,0,1,.32-0.12,0.07,0.07,0,0,1,0,.08,1,1,0,0,1-.39.17L25,30.46c-0.19.06-.36,0.15-0.55,0.2l0.24,0,0.4,0.06a0.35,0.35,0,0,0,.15-0.05,0.45,0.45,0,0,1,.28-0.08,0.07,0.07,0,0,1,.05.07,0.07,0.07,0,0,1-.08.05,0.24,0.24,0,0,0-.13,0h0.55a1.12,1.12,0,0,1,.32-0.22,0.07,0.07,0,0,1,.06,0,0.21,0.21,0,0,1-.14.16h0.31l0,0,0.08-.06h0a0.24,0.24,0,0,1,.16,0,0.07,0.07,0,0,1,0,.08,0.11,0.11,0,0,1-.07.06H27a1.56,1.56,0,0,0,1.18-.36c0.41-.11.85-0.18,1.24-0.32a0.57,0.57,0,0,0,.28-0.09,2.86,2.86,0,0,1-.93-0.1A1.11,1.11,0,0,1,28,29.85c-0.34,0-.68-0.13-1.06-0.12a6,6,0,0,0-.75-0.1,1.65,1.65,0,0,0-.66-0.2,0.57,0.57,0,0,0-.36-0.14c-0.05,0-.07.06-0.17,0.11s-0.39.25-.49,0.28-0.62.08-.71,0.11-0.45.09-.56,0.13c-0.44.14-.35,0-0.93,0.22H22.18a0.3,0.3,0,0,0,.28.12Zm9.73-.58-0.63.07a8.2,8.2,0,0,1-.85.1,5,5,0,0,1-1.53.45,4.63,4.63,0,0,0-.95.26,10.19,10.19,0,0,1-1.1.52,2.91,2.91,0,0,1-.52.18,0.93,0.93,0,0,0-.62.18l-0.13,0a2.27,2.27,0,0,0,.3-0.2A3.88,3.88,0,0,0,27.36,31a4.53,4.53,0,0,0-.86,0c-0.75-.16-1.54,0-2.29-0.18a5.35,5.35,0,0,0-.77-0.16c-0.12,0-.24-0.09-0.36-0.11a2.43,2.43,0,0,0-.33,0,1.73,1.73,0,0,0,.33.26,1.1,1.1,0,0,0,.72.62,0.61,0.61,0,0,1,.28.26l0.13,0c0.26-.05.56,0,0.82-0.06a3.72,3.72,0,0,1,.8-0.11,0.1,0.1,0,0,1,0,.07,11.54,11.54,0,0,1-1.53.23l-0.17,0a3.41,3.41,0,0,0,.36.42,1.24,1.24,0,0,0,.35,0,0.84,0.84,0,0,0,.59.09l0.09-.05a0.81,0.81,0,0,1,.36-0.14,1.32,1.32,0,0,0,.26-0.1l0,0a0.07,0.07,0,0,1,.09,0,0.06,0.06,0,0,1,0,.08l-0.05,0a0.94,0.94,0,0,1-.29.12,0.82,0.82,0,0,0-.28.1,0.58,0.58,0,0,1,.11.09,2.56,2.56,0,0,1,.73.22h0c0.17-.15.36-0.31,0.51-0.42a3.85,3.85,0,0,1,.92-0.53s0,0.06,0,.08-0.57.38-.84,0.56l-0.41.31a2.89,2.89,0,0,1,.87.31,7.72,7.72,0,0,1,.92-0.94,5.55,5.55,0,0,1,.45-0.32c0.12-.07.19,0.08,0,0.16a4.76,4.76,0,0,0-.52.37,5.38,5.38,0,0,0-.78.78,1.4,1.4,0,0,0,.77.13A13.67,13.67,0,0,0,32.27,29.77ZM32.85,29a1.51,1.51,0,0,0-.31,0,3,3,0,0,0-.83-0.33,3.53,3.53,0,0,1-.41-0.11c-0.35,0-.6-0.39-1-0.39a6.3,6.3,0,0,0-1.82-.65,0.8,0.8,0,0,0-.73-0.06,1.53,1.53,0,0,0-.76.41l0.16,0.08h0.09l0.08,0h0.08l0.14,0h0l0.14,0a0.26,0.26,0,0,0,.18-0.06,0,0,0,0,1,0,0l0,0v0a0,0,0,0,1,0,.06s0,0,0,0a0.38,0.38,0,0,1-.2.07l-0.11,0L27.51,28H27.43l-0.07,0h0l0.34,0.16h0.06A0.24,0.24,0,0,1,28,28a0.29,0.29,0,0,0,.24-0.12,0,0,0,0,1,.07,0,0,0,0,0,1,0,.06,0.37,0.37,0,0,1-.32.16,0.16,0.16,0,0,0-.12,0,2.6,2.6,0,0,1,.34.12h0a0.06,0.06,0,0,1,0-.07l0.09-.05a0.35,0.35,0,0,1,.17-0.08,0.06,0.06,0,0,1,.06,0,0.06,0.06,0,0,1-.05.05,0.39,0.39,0,0,0-.12.06l-0.09.06,0.24,0a0.07,0.07,0,0,1,0-.05,0.12,0.12,0,0,0,.08-0.06,0.18,0.18,0,0,1,.18-0.08,0,0,0,0,1,0,.06,0,0,0,0,1-.06,0,0.17,0.17,0,0,0-.08.05,0.16,0.16,0,0,1-.07.07,3.22,3.22,0,0,0,.57.11,3.84,3.84,0,0,1,1,.23,2.91,2.91,0,0,1-1.05-.07,1.2,1.2,0,0,1-.33-0.08,9.94,9.94,0,0,0-1-.18c-0.46-.17-0.9-0.38-1.39-0.53a4.53,4.53,0,0,0-.69-0.12c-0.44.07-.63-0.43-1.09-0.31l-0.48.05A10,10,0,0,1,22,28a2.63,2.63,0,0,0,0,.64,2.3,2.3,0,0,1,.06.55c0,0.19,0,.31,0,0.4a0.24,0.24,0,0,0,0,.13h0c0,0.09.06,0.19,0.07,0.29a0.79,0.79,0,0,0,.28,0,3.22,3.22,0,0,1,.49-0.08c0.17,0,.34-0.09.47-0.11s0.37-.11.51-0.13,0.41-.12.5-0.13a1.23,1.23,0,0,0,.3-0.1l0.5-.18h0a1,1,0,0,1,.58.13,3.56,3.56,0,0,1,.79.21,7.21,7.21,0,0,1,1.41.12,4.76,4.76,0,0,0,.9.2c0.46,0.13,1,0,1.4.12,0.56-.43,1.43-0.25,2.08-0.38h0.07C32.55,29.41,32.7,29.2,32.85,29Zm-1.28-.51L32,28.56a1.15,1.15,0,0,1,.27-0.12h0l0.1,0,0,0,0.07-.05s0,0,0,0a0,0,0,0,1,0,0l0,0-0.06.06-0.11,0h0l-0.21.09,0.09,0a0.62,0.62,0,0,0,.32.15l0.11,0,0.35,0,0.25-.4v0l0.15-.27L33.1,28c-0.18,0-.31-0.08-0.41-0.11l-0.31-.08c-0.12,0-.26.06-0.42,0a2.29,2.29,0,0,0-.65.19,2.21,2.21,0,0,0-.24.1,0.91,0.91,0,0,0-.36,0,2.35,2.35,0,0,0,.73.29,0.83,0.83,0,0,0,.18-0.11,2.18,2.18,0,0,1,.26-0.16,0.84,0.84,0,0,1,.19-0.1c0.09,0,.14,0,0.1,0a1.62,1.62,0,0,1-.19.1l-0.27.14Zm1.92-.58A13.63,13.63,0,1,0,7.84,21.47a13.47,13.47,0,0,0,1.52,6.26,0.78,0.78,0,0,0,.32-0.25,2.34,2.34,0,0,0,.93-0.3A3.17,3.17,0,0,1,11.24,27c0.18,0.16.43-.06,0.61,0.11,0.27-.07.39,0.2,0.66,0.13a2.88,2.88,0,0,0,1,.51,1.13,1.13,0,0,1,1-.3,1.72,1.72,0,0,1,.67-0.28,0.87,0.87,0,0,1,.25,0l0.4-.05A1.27,1.27,0,0,1,16.21,27l0.39,0a1.4,1.4,0,0,0,.23,0c0.56-.08,2.14,1,2.81,1.21A6.2,6.2,0,0,1,20.4,28V27.19l-0.07-.09a0.41,0.41,0,0,1,0-.29c-0.11-.28.26-0.56,0-0.78,0.11-.29.07-0.65,0.17-1a4.11,4.11,0,0,1-.05-1h0a1.25,1.25,0,0,0,0-.34c0-.13,0-0.26,0-0.39-0.27,0-.24.23-0.41,0.34s-0.18-.13-0.26-0.23A0.42,0.42,0,0,1,20,23.07c0.44-.12.15-0.71,0.27-1H20.08a5.22,5.22,0,0,0-.09.88,1.33,1.33,0,0,0-.4.3,0.78,0.78,0,0,0-.15.61,2.8,2.8,0,0,1-.38.87,0.16,0.16,0,0,1-.26,0c0-.06-0.07-0.11,0-0.15a0.14,0.14,0,0,0,0-.11c-0.24,0-.41.49-0.7,0.32a0.23,0.23,0,0,0,.06.23,2.16,2.16,0,0,0,.09.49l0.07,0v0.3a0.34,0.34,0,0,0-.07.13,0.51,0.51,0,0,1-.52.11c-0.13,0-.12.24-0.26,0.29a0.44,0.44,0,0,0-.22-0.13l0,0.16c-0.05.05-.11,0.22-0.24,0.16V26.44c-0.16-.14,0-0.26,0-0.46s0.17-.24.18-0.41a2.36,2.36,0,0,0-.24-0.28c0.15-.39.66-0.34,0.81-0.69,0-.15.09-0.21,0-0.34a8.47,8.47,0,0,0,.63-0.76c-0.13-.54.57-0.7,0.68-1.15A5.25,5.25,0,0,1,19.82,22a0.57,0.57,0,0,0,.29-0.36,2.73,2.73,0,0,0,.14-0.53,0.55,0.55,0,0,0,.14-0.54c0-.18.24-0.2,0.22-0.38A0.73,0.73,0,0,0,20.41,20a0.66,0.66,0,0,1,0-.37,0.35,0.35,0,0,0-.12-0.33,0.23,0.23,0,0,0-.16,0c-0.14.09,0,.19,0.09,0.25a0.85,0.85,0,0,1-.12.65c0.12,0.4-.37.46-0.45,0.76a0.12,0.12,0,0,1-.19-0.12,0.89,0.89,0,0,1,.12-0.76H19.55a0.81,0.81,0,0,0-.26.58c-0.28.26,0,.66-0.33,0.87a2.86,2.86,0,0,1-.52-0.08c-0.21,0,0-.39-0.24-0.28a0.77,0.77,0,0,0,0,.41,0.51,0.51,0,0,1-.39.21c-0.19-.09-0.08-0.23-0.14-0.39a2.41,2.41,0,0,0-.22.22c-0.18-.13-0.2,0-0.36.08s0.06-.15,0-0.25a0.1,0.1,0,0,0-.08,0c-0.27,0-.18.3-0.24,0.46a0.57,0.57,0,0,1-.28.14,0.33,0.33,0,0,0,0,.27c0.11,0.25-.19.23-0.28,0.35h0a2.49,2.49,0,0,0-.43.35l0,0a1.56,1.56,0,0,0-.21.34c-0.24.06-.33,0.59-0.66,0.36s0.12-.51.24-0.74a1.09,1.09,0,0,1,.31-1.12c0.44-.1.38-0.67,0.78-0.75a1.18,1.18,0,0,1,.79-0.61A2.74,2.74,0,0,1,18,20.46a1.52,1.52,0,0,0,.84-0.3,1.43,1.43,0,0,1,.66-0.57,2,2,0,0,0,.66-0.85,1.16,1.16,0,0,0,.52-1,0.09,0.09,0,0,0-.12-0.06,0.7,0.7,0,0,0-.12.49,1.68,1.68,0,0,0-.31.46,0.33,0.33,0,0,0-.34,0c-0.19-.17-0.26.1-0.43,0.15a0.45,0.45,0,0,1-.09-0.12,2.1,2.1,0,0,1-.59.27c-0.16.24,0.27,0.18,0.18,0.43-0.13.07-.14,0.34-0.33,0.26,0-.13-0.11-0.33-0.29-0.25a1,1,0,0,0,.17.33,0.32,0.32,0,0,1-.24,0c-0.24.09,0,.25,0,0.35A0.27,0.27,0,0,1,18,20a0.85,0.85,0,0,1-.07-0.78,0.82,0.82,0,0,0,.21-0.3c0.06-.58.79-0.74,1.07-1.16a4.21,4.21,0,0,0,1.11-1.15,2.53,2.53,0,0,1,.3-0.54c-0.61-.27-0.54.71-1.19,0.63a4.12,4.12,0,0,1-.77.32,0.24,0.24,0,0,1-.3-0.09c-0.19-.12-0.34.15-0.49,0.21,0,0.24-.46.17-0.27,0.48a0.47,0.47,0,0,1-.36.23c-0.38-.27.22-0.47,0-0.77A1.14,1.14,0,0,1,18,16.48a1.77,1.77,0,0,1-.48-0.07c-0.07-.31.27-0.36,0.45-0.48,0.41,0.11.61-.48,1-0.24a1,1,0,0,0,.54-0.3c-0.07-.14-0.17.1-0.24,0,0.26-.56,1-0.5,1.36-1a2.12,2.12,0,0,0,.1-0.22V14.13a1.73,1.73,0,0,1,.13-0.3A0.87,0.87,0,0,1,21,13.44a0.16,0.16,0,0,0-.14,0,1.46,1.46,0,0,1-.52.32c-0.17-.11.12-0.18,0-0.28H20.2a0.31,0.31,0,0,1-.21.32,0.58,0.58,0,0,1,0-.23,0.87,0.87,0,0,0,.19-0.36,0.82,0.82,0,0,0-.33.36,0.73,0.73,0,0,1,0,.4l-0.58.53c-0.34-.06-0.27.33-0.48,0.46s-0.27.41-.44,0.11a0.2,0.2,0,0,1,0-.13,2.49,2.49,0,0,1,.19-0.65,0.37,0.37,0,0,1,.22-0.12,0.82,0.82,0,0,0,.55-0.66,0.4,0.4,0,0,1,.38-0.16,1.15,1.15,0,0,0-.19.5c0.35,0.12.22-.34,0.39-0.49a0.57,0.57,0,0,0-.19-0.07,0.09,0.09,0,0,0,0-.11A0.13,0.13,0,0,0,19.46,13c-0.41.09-.34,0.62-0.76,0.66a1.52,1.52,0,0,1-.41-0.23,1,1,0,0,1,.22-0.55,2.38,2.38,0,0,1,1.09-.51c0.08-.08.24,0,0.22-0.18a0.88,0.88,0,0,1,.71-0.44A0.71,0.71,0,0,0,21,11.09c-0.21-.3-0.27.17-0.5,0.11S20.28,11,20.23,11s-0.12-.1-0.15-0.18a0.22,0.22,0,0,0-.26.15c0.05,0.28-.31.14-0.39,0.34-0.14,0-.28.39-0.44,0.11a3.9,3.9,0,0,1-.43.37,0.34,0.34,0,0,1-.17,0,0.38,0.38,0,0,1-.12-0.35,1.68,1.68,0,0,1,.73-0.9c0.89-.42,2.18-0.87,2.19-2a0.31,0.31,0,0,1,.34-0.16,0.58,0.58,0,0,1,.08.31,0.75,0.75,0,0,0,.11.37,2.29,2.29,0,0,0,.63,1,3.5,3.5,0,0,1,1.36.82,1.3,1.3,0,0,0,.18.61c0,0.3-.33.09-0.47,0.16a2.11,2.11,0,0,1-.38-0.39l-0.17.18A0.57,0.57,0,0,1,22.53,11a5.94,5.94,0,0,0-.69-0.62c0,0.32.62,0.42,0.48,0.75a1.13,1.13,0,0,1-.48-0.43,0.28,0.28,0,0,0-.35.09,0.52,0.52,0,0,0,.25.54,0.94,0.94,0,0,0,.52.44c0.27,0.23.66,0.16,0.93,0.37a2.17,2.17,0,0,1,1.39.35,0.79,0.79,0,0,1,.43.15,0.62,0.62,0,0,1,.17.54c-0.12.06-.13,0.24-0.29,0.2a0.32,0.32,0,0,1-.19-0.28c-0.25-.15-0.25.16-0.43,0.21-0.41-.07-0.33-0.6-0.74-0.63a1.08,1.08,0,0,0,.19.38c-0.07.18-.26,0-0.38,0.09s-0.6.08-.67-0.26a2.06,2.06,0,0,1-.58-0.62,0.37,0.37,0,0,0-.37-0.19,0.9,0.9,0,0,0,.32.32,0.15,0.15,0,0,1-.13.21,1.13,1.13,0,0,0,.24.51,7,7,0,0,0,1.52,1,2.42,2.42,0,0,1,1,.38,2.84,2.84,0,0,1,1.88,1.16,0.6,0.6,0,0,1-.09.53,0.23,0.23,0,0,1-.31,0,0.39,0.39,0,0,1,0-.21,0.26,0.26,0,0,0-.1-0.08,0.91,0.91,0,0,1-.71-0.12c0-.4-0.24,0-0.4-0.18a0.47,0.47,0,0,1-.22.34c-0.26.12-.31-0.21-0.45-0.32,0-.11.11-0.2,0-0.3a3.49,3.49,0,0,1-.53,0A0.18,0.18,0,0,1,23.67,15a0.64,0.64,0,0,1-.49-0.46c-0.2-.11-0.18.09-0.24,0.19a2.37,2.37,0,0,0-.62-0.26A1,1,0,0,1,22,13.58c-0.22-.16,0-0.33-0.21-0.49-0.28.14-.19-0.32-0.37-0.27a3.81,3.81,0,0,1,0,.62c-0.06,0,0-.09,0-0.14H21.32c-0.13,0,0,.18-0.07.28a1.27,1.27,0,0,0-.15.51c0.17,0.17.17-.13,0.26-0.16l0.06,0.18a0.34,0.34,0,0,0,.12-0.1,3.14,3.14,0,0,1,.16-0.81,0.7,0.7,0,0,1,.07.46,2.39,2.39,0,0,0,.09.61,1.4,1.4,0,0,0-.06.68,0.64,0.64,0,0,1,.2.34c0.07,0.11.1,0.28,0.29,0.23s0.06-.13.19-0.09,0.74,0.26.64,0.63c0,0.13-.14.16-0.2,0.14a0.64,0.64,0,0,1,0-.27H22.83c-0.06.2-.21,0-0.33,0a0.22,0.22,0,0,0-.15.19,0.6,0.6,0,0,0,.12.09c0.26,0,.41.21,0.67,0.18a1,1,0,0,0,.85.28c0.3,0.19.79-.11,1,0.26a1.51,1.51,0,0,1,.57.24c0.27,0.32.8,0.26,0.81,0.77a0.37,0.37,0,0,1-.22.46A0.24,0.24,0,0,1,26,18.14c-0.16-.5-0.71,0-0.88-0.45-0.15,0-.41-0.06-0.45.12a2,2,0,0,1-.47-0.27,0.52,0.52,0,0,1-.26.19c0,0.31-.39,0-0.43.29a0.24,0.24,0,0,1-.17,0,0.7,0.7,0,0,1-.1-0.39,0.83,0.83,0,0,0-.43-0.28c-0.25.26-.31-0.19-0.47-0.25a1.79,1.79,0,0,1-.47-0.23,0.53,0.53,0,0,0,0,.23,0.31,0.31,0,0,1,0,.34,1.23,1.23,0,0,0,.15.76,0.74,0.74,0,0,1,.23.44c0.09,0.1,0,.33.27,0.28a0.81,0.81,0,0,0,.45.3c0.19,0.48.74-.08,1,0.31a0.39,0.39,0,0,0-.22,0v0a0.4,0.4,0,0,0,.26.23,0.43,0.43,0,0,0,0-.23,1.77,1.77,0,0,1,.11.15c0.12,0.11,0,.26-0.07.34s-0.17-.22-0.31-0.26a0.15,0.15,0,0,0-.12.19,0.59,0.59,0,0,0,.55.2,0.41,0.41,0,0,0,.18.25,2.45,2.45,0,0,1,.67.42,0.41,0.41,0,0,1,.12.38c-0.08.29-.35,0-0.5,0.09a1.79,1.79,0,0,1-.41-0.22,0.41,0.41,0,0,1,.07-0.39c0,0.07.07,0.05,0.13,0.05a0.19,0.19,0,0,0,0-.1c-0.1-.07,0-0.2-0.23-0.17s-0.06.13-.07,0.18a1.11,1.11,0,0,1-.38,0,0.63,0.63,0,0,0-.05.37,2.6,2.6,0,0,0-.33.16c0.12,0.39.52-.06,0.77,0.11a7.22,7.22,0,0,1,.83.3,2.8,2.8,0,0,0,.83.39,0.59,0.59,0,0,1,.54.4,1.19,1.19,0,0,1,.62.81c0.09,0.11,0,.16-0.09.25-0.09-.08,0-0.06,0-0.14a0.63,0.63,0,0,0-.51.09,0.3,0.3,0,0,1-.33-0.11,6.79,6.79,0,0,0-.35-0.89c-0.07-.11-0.15-0.28-0.29-0.21a0.22,0.22,0,0,0,.1.21c0,0.08.17,0.18,0,.27s-0.07,0-.09,0a0.14,0.14,0,0,0-.16-0.09,0.35,0.35,0,0,1-.12.37,1.12,1.12,0,0,1-.42-0.37,1.57,1.57,0,0,0-.54.42,0.44,0.44,0,0,1-.36-0.1A1.54,1.54,0,0,1,24,22.34a1.32,1.32,0,0,0-.85-0.91c0.1,0.41.67,0.55,0.57,1l-0.08,0a0.52,0.52,0,0,0-.28-0.35,0.82,0.82,0,0,1,0,.25H23.34A1.35,1.35,0,0,0,23,22.2c-0.18,0-.29-0.18-0.47-0.13,0.18,0.53.91,0.55,1.22,1a0.17,0.17,0,0,1,.21.1,2.51,2.51,0,0,1,.76.23,2.39,2.39,0,0,0,.43.43,0.74,0.74,0,0,0,.18.49,1.32,1.32,0,0,1-.2,1.22,0.56,0.56,0,0,1-.31-0.1,0.55,0.55,0,0,0-.43-0.32c-0.23-.38.14,0,0.26-0.16a1.53,1.53,0,0,1-.05-0.79c-0.1.25-.19-0.07-0.33,0A0.47,0.47,0,0,1,23.82,24a0.28,0.28,0,0,1,0-.25c0-.12-0.2,0-0.28-0.07a1.09,1.09,0,0,1-.07.3,0.19,0.19,0,0,1-.12-0.22c-0.06,0-.09-0.13-0.17-0.08a0.11,0.11,0,0,0-.15.08,1.37,1.37,0,0,0,.68.58c0,0.26.33,0.33,0.37,0.58a1.67,1.67,0,0,1,.22.44c0.11,0.22-.21.27-0.09,0.43a0.64,0.64,0,0,1-.15.33,3.46,3.46,0,0,1-.54,0c-0.12-.28.19-0.26,0.17-0.49l-0.19,0V25.57c0.25-.15-0.06-0.28-0.1-0.43l0,0a0.09,0.09,0,0,0,0-.16,0.79,0.79,0,0,0-.31.28,1.72,1.72,0,0,1-.44-0.08c-0.16-.19.18-0.23,0.25-0.38a1.19,1.19,0,0,1-.09-0.49h0c-0.16.16-.31-0.12-0.46-0.23-0.09.25-.24-0.08-0.35,0a4,4,0,0,1-.09,1.12,3.32,3.32,0,0,1,.18,1.22l0,0c0,0.1,0,.35,0,0.47v0.35a0.74,0.74,0,0,0-.08.57,3.32,3.32,0,0,0,.73-0.12c0.71-.12,1-0.35,1.7-0.4h0.39a1.94,1.94,0,0,0,.6.25,2.06,2.06,0,0,1,.93.19,0.61,0.61,0,0,0,.42,0A3.65,3.65,0,0,1,28,27.24a1.16,1.16,0,0,1,.82.16,5,5,0,0,0,1,.35,1.41,1.41,0,0,0,.59.28,1.36,1.36,0,0,0,.26-0.08,2.26,2.26,0,0,0,.35,0,2.57,2.57,0,0,1,.79-0.29,1.07,1.07,0,0,1,.45-0.09,1,1,0,0,1,.3.06l0.2,0.09a0.81,0.81,0,0,1,.28,0A1.39,1.39,0,0,1,33.49,27.89ZM22.42,23l0,0Zm-0.27,3.78V26.37c0,0.1,0,.35,0,0.47v0ZM22,29.69s0-.05,0-0.13A0.24,0.24,0,0,0,22,29.69Zm0,0h0Zm3-4.55c0.13,0,0-.14.08-0.23s0-.28-0.17-0.3c0,0.16.05,0.35,0,.53H25Zm0.19,0c0.08,0,0-.07.09-0.12A0.1,0.1,0,0,0,25.15,25C25.06,25,25.13,25.14,25.18,25.18Zm0-.52,0.07,0a0.16,0.16,0,0,0,0-.19A3.16,3.16,0,0,0,25,24.07a2.61,2.61,0,0,1-.27-0.33,0.11,0.11,0,0,0-.19.1,0.93,0.93,0,0,0,.33.38C24.9,24.34,25.26,24.46,25.13,24.66Zm-0.59-.74c0-.11-0.32-0.2-0.28,0a0.28,0.28,0,0,0,.23.15Zm-0.17-.36V23.49a0.25,0.25,0,0,0-.28-0.11l0,0.06A0.35,0.35,0,0,0,24.36,23.56Zm-0.61-.21-0.08.1a0.82,0.82,0,0,0,.39.25A0.76,0.76,0,0,0,23.75,23.35Zm3-.32a0.39,0.39,0,0,0,0-.32c-0.09-.07-0.27-0.21-0.3,0S26.52,23.08,26.73,23Zm-0.52-.25h0.07V22.72A0.06,0.06,0,0,0,26.22,22.78Zm0,0.23a1.54,1.54,0,0,1,.12.18A0.15,0.15,0,0,0,26.43,23C26.45,22.86,26.2,22.88,26.2,23Zm-0.28-.31s0.11,0.11.16,0.07a0.64,0.64,0,0,0-.23-0.57A2.73,2.73,0,0,0,25.91,22.69Zm-1.29-.54a0.5,0.5,0,0,0-.48-0.26v0.07c0.32,0.11.1,0.54,0.44,0.54A0.29,0.29,0,0,0,24.62,22.15ZM25,22a0.77,0.77,0,0,0-.1.39,0.43,0.43,0,0,0,.22.11c0.2-.06,0-0.23.07-0.36A0.19,0.19,0,0,0,25,22Zm-0.9-.51a0.27,0.27,0,0,0,.21.2,1.32,1.32,0,0,1,.48.61,1.05,1.05,0,0,0,.06-0.09,4,4,0,0,1-.18-0.44A0.51,0.51,0,0,0,24.1,21.53Zm0.19,0.93c-0.24-.16-0.13.17-0.3,0.25a0.37,0.37,0,0,0,.14.09A0.39,0.39,0,0,0,24.3,22.46Zm0.44-1.62,0.12,0.34a0.14,0.14,0,0,0,.15,0A0.42,0.42,0,0,0,24.74,20.83ZM26,17.77a0.78,0.78,0,0,0,.23.32,2.3,2.3,0,0,0,0-.3C26.19,17.69,26,17.65,26,17.77Zm-0.69-.39a0.56,0.56,0,0,0,.36.2,0.22,0.22,0,0,0,.07-0.09,0.77,0.77,0,0,0-.43-0.21v0.1Zm-0.55-.18a0.7,0.7,0,0,0,.39.13A0.24,0.24,0,0,0,25,17.17a1.6,1.6,0,0,1-.4-0.09ZM24,16.94l0,0.15c0.28,0.14.32,0.63,0.7,0.55A1.27,1.27,0,0,0,24,16.94Zm-0.31.21c0.07,0.11,0,.31.18,0.31A0.16,0.16,0,0,0,24,17.29C24,17.17,23.82,17,23.72,17.15Zm-0.14.46a0.12,0.12,0,0,0,.11,0s0-.06,0-0.1S23.49,17.48,23.58,17.61Zm0-.28a0.14,0.14,0,0,0,.07-0.16,0.4,0.4,0,0,0-.26-0.3c-0.17.15,0.12,0.24,0.07,0.41A0.13,0.13,0,0,0,23.6,17.34Zm-0.41-.18,0,0.09a1.3,1.3,0,0,0,.24.42c0.3-.11-0.06-0.26,0-0.42S23.29,17.14,23.19,17.15Zm-0.27-.56C22.74,16.73,23,16.86,23,17L22.92,17c0,0.05,0,.11,0,0.14a0.1,0.1,0,0,0,.12-0.05c-0.13-.2.25-0.14,0.17-0.36A0.43,0.43,0,0,0,22.92,16.59Zm-0.27-.82a0.23,0.23,0,0,0-.24,0l0.05,0A0.15,0.15,0,0,0,22.65,15.77ZM26,15.7a0.24,0.24,0,0,0,.26,0l-0.34-.34a0.17,0.17,0,0,0-.12,0A0.69,0.69,0,0,0,26,15.7Zm-0.62-.46a0.16,0.16,0,0,0,.17.16,0.48,0.48,0,0,0,0-.32A1.15,1.15,0,0,0,25,14.7,2,2,0,0,1,25.38,15.24Zm-0.09,0A0.3,0.3,0,0,0,25,15c-0.12.09,0.05,0.12,0.07,0.21S25.25,15.33,25.29,15.21ZM23.94,15C24,15,24,15.1,24.12,15s0.1,0,.08-0.07S24,14.83,23.94,15Zm-0.53-.74,0,0,0.07,0.07c0.29,0,.23.37,0.53,0.35a2.63,2.63,0,0,0,.47.46c0.18,0.17-.08.59,0.21,0.65a1.37,1.37,0,0,0,0-.56,1.27,1.27,0,0,1-.29-0.43,3.22,3.22,0,0,1,.34.11,0.34,0.34,0,0,0-.19-0.33A5.17,5.17,0,0,0,23.41,14.23Zm0.19,0.36c-0.21,0-.19-0.29-0.38-0.15a1.63,1.63,0,0,1,.17.32c0.07,0.11.2,0,.28,0S23.62,14.66,23.6,14.59ZM22.82,14a0.63,0.63,0,0,0,.26.13,0.06,0.06,0,0,0,.08-0.06C23.09,14,22.89,13.89,22.82,14ZM22,13.36a2.17,2.17,0,0,0,.09.6,0.13,0.13,0,0,0,.14,0s0-.08,0-0.1,0-.12.1-0.08a0.74,0.74,0,0,0,.21.48,0.34,0.34,0,0,0,.27,0,1.73,1.73,0,0,1-.22-0.56A0.63,0.63,0,0,0,22,13.36Zm3-.3s0-.1,0-0.13-0.23-.25-0.31-0.16C24.89,12.85,24.77,13,25,13.06Zm-0.71-.5a0.41,0.41,0,0,0-.37-0.17v0.08A0.59,0.59,0,0,0,24.27,12.56Zm0,0.49c0.09,0,0-.12,0-0.19s-0.33-.24-0.43,0A0.49,0.49,0,0,0,24.27,13Zm-0.93-.63,0,0a0.71,0.71,0,0,0,.31-0.06A0.19,0.19,0,0,0,23.34,12.42Zm-0.19.46a0.21,0.21,0,0,0,.24,0V12.72a0.18,0.18,0,0,0-.22-0.12Zm-1.39-1.13A0.58,0.58,0,0,0,22,12c0.17,0.21.43,0.3,0.59,0.48s0.17,0.46.42,0.38a1.39,1.39,0,0,0-1-.9C22.16,11.7,21.86,11.61,21.76,11.75Zm1.91-.32V11.24l-0.14,0C23.54,11.31,23.54,11.47,23.67,11.43Zm-0.26-.07v0a0.34,0.34,0,0,0-.24-0.21v0.07C23.26,11.21,23.27,11.43,23.41,11.36Zm0.1-.35a0.44,0.44,0,0,0-.2-0.25,1.15,1.15,0,0,0-.43-0.23C22.87,10.89,23.34,10.76,23.51,11Zm-0.71.23c0.07,0,.07-0.1.07-0.15A0.14,0.14,0,0,0,22.71,11C22.74,11.11,22.67,11.23,22.8,11.24Zm-0.09-.48a0.2,0.2,0,0,0,0-.16,1.11,1.11,0,0,0-.41-0.28v0.08C22.52,10.46,22.5,10.7,22.71,10.76Zm-4.2.76v0l0,0Zm0.42-.37a0.37,0.37,0,0,0-.26.25,0.06,0.06,0,0,0,.07,0C18.81,11.34,19,11.26,18.94,11.15Zm0-.28a0.46,0.46,0,0,0-.43.34h0.1A1,1,0,0,0,19,10.88Zm0.68-.39,0,0a0.7,0.7,0,0,0-.41.16A0.66,0.66,0,0,0,19.63,10.49Zm-0.27.62c-0.09-.33.39-0.09,0.36-0.41a1.5,1.5,0,0,0-.48.18,1.7,1.7,0,0,1-.05.3A0.15,0.15,0,0,0,19.36,11.11Zm0.78-.81c-0.07-.12-0.17,0-0.24.07s-0.08.09,0,.14Zm0.29,0.3c0-.1,0-0.22-0.12-0.21a0.25,0.25,0,0,0-.07.3C20.34,10.76,20.39,10.67,20.44,10.6Zm-2.08,4.33a0.17,0.17,0,0,0,.1-0.11,0.12,0.12,0,0,0-.12,0S18.32,14.91,18.36,14.93Zm0.17-.43c0,0.06-.1.18,0,0.23a0.23,0.23,0,0,0,.21-0.14A0.67,0.67,0,0,0,19,14.23C18.73,14.06,18.7,14.39,18.53,14.5Zm0.76-.41-0.07-.15a0.12,0.12,0,0,0-.07.15A0.1,0.1,0,0,0,19.29,14.09ZM17.76,16.2H17.65C17.66,16.27,17.75,16.22,17.76,16.2Zm-0.51,1.46a0.2,0.2,0,0,0,.24-0.11,0.25,0.25,0,0,0-.22-0.08C17.28,17.55,17.13,17.58,17.25,17.66Zm0.21-.51A0.17,0.17,0,0,0,17.58,17a0.16,0.16,0,0,0-.14,0,0.09,0.09,0,0,0,0,.14h0.07Zm0.39-.21a0.25,0.25,0,0,0,.28-0.16c-0.08-.06-0.26-0.13-0.31,0S17.79,16.91,17.85,16.94Zm0.26-.65c0.06,0,.17-0.06.13-0.13s-0.21,0-.27,0S18,16.29,18.1,16.29Zm0.31,0.12c-0.06,0-.17-0.08-0.14,0A0.22,0.22,0,0,0,18.41,16.41Zm0-.25h0.07a0.08,0.08,0,0,0,0-.08A0.09,0.09,0,0,0,18.41,16.16Zm-0.14,2.6v0.12l0.12-.1A0.15,0.15,0,0,0,18.27,18.77Zm0.44-.35a0.15,0.15,0,0,0,.06.13,0.27,0.27,0,0,0,.24-0.2C18.92,18.24,18.78,18.32,18.71,18.42Zm0.63-.18c0,0.06.11,0,.17,0a0.4,0.4,0,0,0,.07-0.41C19.27,17.68,19.35,18.08,19.34,18.24Zm0.43,0.11a1,1,0,0,0,.14-0.66c-0.07,0,0-.18-0.14-0.13s0,0.11-.07.13a1.21,1.21,0,0,1-.05.63Zm0.19-.9a0.41,0.41,0,0,0,.12.32,0.2,0.2,0,0,0,.1-0.19A0.18,0.18,0,0,0,20,17.45Zm0.19,0.76A0.17,0.17,0,0,0,20.24,18a0.12,0.12,0,0,0-.14,0,0.29,0.29,0,0,0,0,.23h0.09Zm0.2-1.16c-0.06,0,0-.21-0.12-0.16a0.55,0.55,0,0,0,0,.53h0.1Zm-4,4.51-0.1-.08-0.07.17C16.21,21.71,16.29,21.64,16.31,21.57Zm-0.22.22c-0.21-.13-0.19.13-0.28,0.22C16,22.1,16.08,21.9,16.1,21.78Zm-0.88,1.89a0.19,0.19,0,0,0,.07-0.21,0.15,0.15,0,0,0-.15,0,0.17,0.17,0,0,0-.09.21C15.08,23.7,15.16,23.67,15.22,23.68Zm0.16-.9a0.1,0.1,0,0,0,.05-0.12c0-.09-0.18,0-0.19,0S15.29,22.8,15.38,22.78Zm0,0.21a0.26,0.26,0,0,0,0,.27c0.13,0,.11-0.14.17-0.21A0.12,0.12,0,0,0,15.34,23ZM16,22.71c0-.06-0.05-0.07-0.07-0.1s-0.07.08-.07,0.15A0.13,0.13,0,0,0,16,22.71Zm-0.31.09a0,0,0,0,1,.05,0l0-.42h0a0.14,0.14,0,0,1,0-.13,0.4,0.4,0,0,1,0,.23,1,1,0,0,0,.28.15c0.05-.1,0-0.22.08-0.32l0,0.12a0.16,0.16,0,0,0,.16-0.07c0.06-.05,0-0.1,0-0.14a0.17,0.17,0,0,0-.19.09,0.33,0.33,0,0,1-.07-0.11c-0.09-.08-0.17,0-0.24.07l-0.05-.07c-0.22,0-.26.23-0.33,0.36A1.3,1.3,0,0,1,15.65,22.8Zm0.72-.91a0.79,0.79,0,0,0,.35-0.63c-0.37-.1-0.21.36-0.39,0.51C16.31,21.8,16.29,21.88,16.37,21.88ZM16.84,21a0.48,0.48,0,0,0,.31-0.28,0.67,0.67,0,0,0-.34.16A0.13,0.13,0,0,0,16.84,21Zm0.8,0.21a0.13,0.13,0,0,0,.08-0.14s-0.08,0-.1,0S17.58,21.25,17.65,21.25Zm-0.26-.41c-0.07,0-.16.13-0.12,0.16,0.27,0.08.27-.31,0.59-0.2A2.3,2.3,0,0,0,17.39,20.84Zm0.43,0.76a0.14,0.14,0,1,0,.07-0.22A0.28,0.28,0,0,0,17.81,21.6ZM18,21c0,0.08-.17.16,0,0.18a0.12,0.12,0,0,0,.09-0.13C18.06,21,18,21,18,21Zm0.18-.28s-0.12.11-.07,0.16a1.08,1.08,0,0,0,.19-0.13A0.14,0.14,0,0,0,18.15,20.77Zm0.31,0.44a0.22,0.22,0,0,0,.18-0.07c0.07,0-.06.15,0.05,0.2a0.2,0.2,0,0,0,.19,0,1.11,1.11,0,0,1-.07-0.38H18.77c-0.09,0-.09.09-0.13,0.15l0-.05a0.25,0.25,0,0,1,0-.15c-0.08-.1-0.23,0-0.24.1A0.33,0.33,0,0,0,18.46,21.21ZM19,20.35a0.21,0.21,0,0,0,.14-0.16c0-.08-0.1,0-0.14-0.09s-0.09.14-.12,0.2A0.1,0.1,0,0,0,19,20.35ZM19,21v0.26H19a0.11,0.11,0,0,0,0-.12C19.09,21,19,21,19,21Zm0.22-.42c0.11-.17-0.18-0.17-0.22,0s0,0.07,0,.08A0.17,0.17,0,0,0,19.17,20.58Zm0.41-.78a0.35,0.35,0,0,0,.29-0.21,0.18,0.18,0,0,0-.15-0.07A0.24,0.24,0,0,0,19.58,19.8ZM20,20.33c0-.18.15-0.45-0.1-0.53,0,0.07-.16.11-0.12,0.2,0.3,0.15-.06.39-0.07,0.56h0.07A0.37,0.37,0,0,1,20,20.33ZM17.22,26a0.26,0.26,0,0,0,.17-0.35c-0.2,0-.25.17-0.28,0.3A0.11,0.11,0,0,0,17.22,26Zm0-.69h0.12a0.25,0.25,0,0,0,.16-0.23,0.23,0.23,0,0,1-.12,0C17.28,25.09,17.15,25.19,17.2,25.29Zm0.28,0.6a0.07,0.07,0,0,0,.07,0c0.05,0,.12-0.06.07-0.12S17.56,25.85,17.49,25.89Zm0.28-.7a0.15,0.15,0,0,0-.21,0c-0.06.13,0.07,0.12,0.14,0.15A0.11,0.11,0,0,0,17.77,25.19Zm0.36,0.57A0.14,0.14,0,0,0,18,25.68a0.15,0.15,0,0,0-.15.13A0.17,0.17,0,0,0,18.13,25.76Zm-0.07-.57s0-.15-0.14-0.12v0.24H18A0.09,0.09,0,0,0,18.06,25.19Zm-0.17-.59a0.11,0.11,0,0,0,.09,0c-0.12-.25.26-0.3,0.31-0.48,0,0,0,0-.07,0A0.6,0.6,0,0,0,17.89,24.6Zm0.55-.39c-0.07.11-.24,0.14-0.17,0.25a0.48,0.48,0,0,0,.26-0.23S18.47,24.21,18.44,24.21ZM18.6,24l0-.35-0.12,0L18.44,24C18.49,24,18.52,24.08,18.6,24Zm0.11-.94c-0.14,0-.16.1-0.18,0.2h0.05C18.64,23.25,18.76,23.22,18.71,23.1ZM19,23.22a0.89,0.89,0,0,1,0-.44l-0.17.16a7.48,7.48,0,0,0-.15,1,0.45,0.45,0,0,1,.11.41h0c-0.06-.16.14-0.24,0-0.36A2.09,2.09,0,0,1,19,23.3S18.94,23.21,19,23.22Zm0.07,0-0.07,0a1.55,1.55,0,0,1,0,.5,0.08,0.08,0,0,1,.08,0A0.75,0.75,0,0,0,19.07,23.23Zm0.08,0.64a0.35,0.35,0,0,0-.16.35c0,0.09.13,0,.16,0S19.38,23.92,19.15,23.88Zm0.13-.48V23.3H19.22S19.22,23.42,19.29,23.4ZM19.46,23a2.45,2.45,0,0,1,.33-0.27,0.19,0.19,0,0,0,0-.21,0.18,0.18,0,0,0-.12.05c-0.13-.13.13-0.17,0.07-0.34a0.32,0.32,0,0,0-.26.29,3.51,3.51,0,0,1-.15.58ZM20,23.51a0.16,0.16,0,0,0,.07-0.1c0-.12-0.24-0.12-0.23,0S19.93,23.53,20,23.51ZM25.55,33h0a1.4,1.4,0,0,0,.24-0.21,0.2,0.2,0,0,0-.21-0.14C25.61,32.74,25.54,32.88,25.55,33Zm-0.13-.33a0.38,0.38,0,0,0-.27-0.14v0.28a0.44,0.44,0,0,1-.24.33,0.07,0.07,0,0,0,0,.07A0.36,0.36,0,0,0,25.38,33C25.21,32.89,25.52,32.8,25.42,32.64Zm-0.6.29A0.34,0.34,0,0,0,25,32.76c0.1-.22-0.15-0.32-0.3-0.26a0.3,0.3,0,0,1,.14.24,0.09,0.09,0,0,1-.09,0c-0.08,0-.14-0.16-0.22-0.07A0.61,0.61,0,0,0,24.82,32.93Zm-0.39-.41a0.39,0.39,0,0,0-.2-0.29l-0.05.07A0.24,0.24,0,0,0,24.43,32.52Zm0.23,0.73a0.73,0.73,0,0,0-.32-0.51,1.37,1.37,0,0,0-.45-0.35s-0.1.06-.07,0.12a2.07,2.07,0,0,1,.71.79A0.11,0.11,0,0,0,24.66,33.25Zm-6.35-.16a0.56,0.56,0,0,0,.47,0,1.06,1.06,0,0,1,.76-0.52,3.09,3.09,0,0,1,1.06-.36,0.36,0.36,0,0,0-.11-0.32,0.9,0.9,0,0,0-.14.21C20.28,32,20.19,32,20.22,31.89l-0.1.11c0,0.32-.32.13-0.4,0.37-0.41.35-1,.24-1.43,0.64C18.3,33,18.27,33.09,18.31,33.08Zm0.83-.61a1.86,1.86,0,0,0-.73.1,1.66,1.66,0,0,0-.53.4l0.23,0A2.55,2.55,0,0,1,19.14,32.47Zm1.1-1.12H20.07a3.46,3.46,0,0,1-.3.71l0.17,0c0.2,0,0-.22.16-0.33C20,31.5,20.28,31.52,20.24,31.35Zm-0.48.42c0-.16.14-0.26,0.12-0.42a2.47,2.47,0,0,0-.53,1s0,0.07.09,0.05a0.2,0.2,0,0,0,.17-0.2c-0.14-.19.14-0.21,0.11-0.35A0,0,0,0,1,19.76,31.77Zm1.73-8.54h0.08a3.77,3.77,0,0,0,0-.63c-0.17,0-.09.24-0.14,0.34S21.5,23.13,21.49,23.23Zm0.2,6.35a4.56,4.56,0,0,0,0-1.81,0.72,0.72,0,0,0-.15.23l0,0a4.06,4.06,0,0,1,0-.69l-0.09-.09a0.7,0.7,0,0,0,0,.26c-0.18.24,0,.55-0.18,0.75a1.42,1.42,0,0,1,0-.52,3.75,3.75,0,0,1,.27-0.94,0.8,0.8,0,0,1,0-.48c0-.09.1-0.39-0.12-0.39-0.06.14,0.08,0.33-.13,0.38,0,0,0,0,0,0,0.12-.33-0.18-0.85.15-1.14a3.78,3.78,0,0,0,0,.47,0.38,0.38,0,0,0,.16-0.16,1.44,1.44,0,0,0,0,.39h0a0.9,0.9,0,0,0,.18-0.56H21.72a0.24,0.24,0,0,1-.12.16l0,0A2,2,0,0,0,21.85,24H21.72a1.44,1.44,0,0,1-.07.51,1.4,1.4,0,0,1,0-.7,0.14,0.14,0,0,0-.16.13,2.16,2.16,0,0,1-.14.73,0.44,0.44,0,0,1-.21.24l0,0.84a3.12,3.12,0,0,1,0-1.2,2,2,0,0,0,.12-1.1,0.83,0.83,0,0,0,.15.39c0.31-.31-0.22-0.53,0-0.88a1,1,0,0,0-.1-0.2,0.6,0.6,0,0,0-.1.43c0,0.08.13,0.13,0,.2s-0.12-.08-0.17,0,0.05,0.27-.09.32l0,0a0.29,0.29,0,0,0-.12.31,0.69,0.69,0,0,0-.08.39s0,0.16.12,0.11A2.69,2.69,0,0,0,21,23.79a0.93,0.93,0,0,1,.1.5,1.83,1.83,0,0,0-.19,1.24,0.41,0.41,0,0,0,0,.33c-0.23.17,0.28,0.48-.16,0.56,0,0,0,.08,0,0.09a0.14,0.14,0,0,0,.13-0.09c0,0.08,0,.19,0,0.31a2.38,2.38,0,0,1-.12.31,1,1,0,0,1-.09.23H20.8a0.68,0.68,0,0,0,.1-0.15,3.17,3.17,0,0,0,0,.78,4.81,4.81,0,0,0-.23.49c0,0.07-.06.22,0.07,0.21a6,6,0,0,1,.39-0.81,2.82,2.82,0,0,0-.08,1c0.28,0,0-.29.21-0.38l0,0.05a0.41,0.41,0,0,1,0,.21c0,0.28.09,0.74,0.08,1.08a1.18,1.18,0,0,0,.15-0.82,2.07,2.07,0,0,1,.12.76A0.14,0.14,0,0,0,21.69,29.58Zm-1-1.84a0.12,0.12,0,0,0-.14-0.05v0.14H20.6A0.17,0.17,0,0,0,20.67,27.75Zm0.24-6.52c-0.08-.1-0.15,0-0.19.08a0.12,0.12,0,0,0,.12,0S20.94,21.28,20.91,21.22Zm-0.24,1h0.1V22.2h-0.1v0.06ZM21,22.57a0.23,0.23,0,0,0,0-.21l-0.12.07a0.28,0.28,0,0,0,0,.18A0.11,0.11,0,0,0,21,22.57ZM20.94,21a0.7,0.7,0,0,0,.21-0.5,0.23,0.23,0,0,0-.14,0C21.06,20.73,20.89,20.85,20.94,21Zm-0.12-3.11H20.77l0,0A0.07,0.07,0,0,0,20.82,17.89Zm0-.6a0.13,0.13,0,0,0-.05.14h0.1A0.08,0.08,0,0,0,20.84,17.29Zm-0.1,1.64h0.08a1.67,1.67,0,0,0,0-.74H20.77A1.21,1.21,0,0,0,20.74,18.93Zm0.17-1.27a0.08,0.08,0,0,0-.05,0h0.05v0Zm0,1.42h0.1V19a1.56,1.56,0,0,0,.07-0.89C20.75,18.22,20.94,18.77,21,19.08Zm0.12,0.31a0.1,0.1,0,0,0-.07.12c0,0.07.07,0.07,0.12,0.07a0.15,0.15,0,0,0,0-.14A0.1,0.1,0,0,0,21.08,19.39Zm0.36-2.3a0.4,0.4,0,0,0,.11.47,0.1,0.1,0,0,0,.1-0.13,0.61,0.61,0,0,1,0-.46l-0.08-.14C21.39,16.81,21.55,17,21.44,17.09Zm0.23,6.59c0.1,0,.14-0.06.18-0.12s-0.05-.47-0.23-0.23A0.61,0.61,0,0,0,21.67,23.68Zm0.18-2.34a0.42,0.42,0,0,0-.11-0.07v0.11h0.11v0Zm-0.2,1a0.92,0.92,0,0,0,0-.61,0.56,0.56,0,0,0-.2.47C21.54,22.25,21.55,22.38,21.65,22.34Zm-0.26-.77v0.38c0.17,0,0-.23.1-0.33A0.11,0.11,0,0,0,21.39,21.57Zm-0.13-1.1a0.11,0.11,0,0,0,.13,0,2.48,2.48,0,0,0-.08-0.84A1.23,1.23,0,0,0,21.27,20.46Zm0-1.65,0,0.26A0.31,0.31,0,0,0,21.25,18.81Zm0.17,3.53V22.18a0.07,0.07,0,0,0-.1.08A0.15,0.15,0,0,0,21.42,22.34Zm0.19-1a0.11,0.11,0,0,0,0-.12L21.58,21c-0.12,0-.08.09-0.08,0.14S21.48,21.34,21.61,21.3Zm0-2.19c0-.21-0.26,0-0.24.12a4.47,4.47,0,0,1,.08,1.06,1.41,1.41,0,0,0-.05.44h0.13c-0.08-.26.15-0.39,0.08-0.64C21.88,19.8,21.54,19.48,21.65,19.11Zm0-.56a0.09,0.09,0,0,0-.12-0.07c-0.1,0,0,.13,0,0.18S21.65,18.65,21.65,18.55Zm-0.3-.6c-0.39.14,0.07,0.43-.06,0.76a0.85,0.85,0,0,0,.12-0.53l0,0c0.05,0,0,.17.11,0.11s0.06-.29.1-0.43a0.18,0.18,0,0,0-.16-0.14A1.1,1.1,0,0,0,21.36,18ZM21.3,21.09a0.35,0.35,0,0,0,0-.21L21.15,21A0.12,0.12,0,0,0,21.3,21.09Zm-0.2.18-0.07,0a0.54,0.54,0,0,0-.05.4s0,0.12.12,0.08S21.32,21.4,21.1,21.27Zm0.05,1.78,0-.06-0.07.06h0.09Zm-0.21.21a0.07,0.07,0,0,0,0,.12l0,0S21,23.27,20.94,23.26Zm0.8,3.81c-0.16,0-.07.18-0.17,0.22v0.28h0.05a0.44,0.44,0,0,0,.07-0.1A0.85,0.85,0,0,0,21.74,27.07Zm-0.19-.12V27l0,0A0.07,0.07,0,0,0,21.55,26.95Zm0.05-.05a0.17,0.17,0,0,0,.16-0.09A0.1,0.1,0,0,0,21.61,26.9ZM21.84,30A0.09,0.09,0,0,0,21.73,30L21.79,30Zm-0.29-.15H21.45a1.24,1.24,0,0,0-.09.66h0.08a0.18,0.18,0,0,0,.13-0.18A3.53,3.53,0,0,1,21.55,29.85Zm-0.29,1.88c0.13,0.14.13,0.48,0.34,0.43l-0.25-.31a0.54,0.54,0,0,1,.19-0.35A0.25,0.25,0,0,0,21.27,31.74Zm0.48,0.76a0.22,0.22,0,0,0,.07-0.28h0A1,1,0,0,0,21.74,32.5Zm0-.86a0.3,0.3,0,0,0-.14.29c0.21,0.06.09-.2,0.21-0.25A0.08,0.08,0,0,0,21.76,31.64Zm-0.38.88a1.83,1.83,0,0,1-.4-0.17,5.17,5.17,0,0,1,.32.42,1,1,0,0,1-.09.47,0.14,0.14,0,0,0,.2,0c0-.14.18-0.31,0-0.44,0.1-.09.13,0.06,0.22,0A1.53,1.53,0,0,0,21.38,32.52Zm-0.3.55c0.07,0,.06-0.08.1-0.12a0.24,0.24,0,0,0-.2.1Zm-0.22-1.21a0.4,0.4,0,0,0-.12-0.35c-0.18.13,0,.27,0,0.43S20.82,31.87,20.86,31.85Zm0.24-1.21a2.53,2.53,0,0,1-.31.79h0.05a1.9,1.9,0,0,0,.36-0.84A0.1,0.1,0,0,0,21.1,30.64ZM20.82,29a0.92,0.92,0,0,1-.17.36c0.17,0.09,0,.25,0,0.4h0.12c0.1-.11,0-0.28.12-0.4S21,29,20.82,29Zm-0.15,1.78a0.58,0.58,0,0,0,.19-0.52,0.72,0.72,0,0,0-.26.52h0.07Zm0.19-.83A0.15,0.15,0,0,0,21,30l0,0.36h0.07a0.28,0.28,0,0,0,.17-0.15A0.56,0.56,0,0,0,21,29.69,0.24,0.24,0,0,0,20.86,29.93Zm0.2-.86a0.67,0.67,0,0,0,0,.48,0.13,0.13,0,0,0,.14-0.06C21.12,29.36,21.23,29.11,21.06,29.07Zm0.21,2.19-0.07,0a0.65,0.65,0,0,0-.24.51s0.1,0,.12,0A1.36,1.36,0,0,0,21.27,31.26Zm0.29,1.18a4.58,4.58,0,0,0-.26-0.38,0.28,0.28,0,0,0-.22-0.12A0.93,0.93,0,0,0,21.55,32.45ZM21,32.1A0.11,0.11,0,0,0,20.89,32v0.1A0.19,0.19,0,0,0,21,32.1Zm-0.39-1.86c-0.21,0-.24.23-0.28,0.38a0.13,0.13,0,0,0,.12.05C20.66,30.63,20.57,30.35,20.62,30.24Zm-0.21,1.4a4.52,4.52,0,0,0,.5-0.69c0.12-.2-0.1-0.17-0.19-0.1a0.8,0.8,0,0,0-.19.38,0.89,0.89,0,0,1-.18.39A0.06,0.06,0,0,1,20.41,31.64ZM19,33.25c0.33-.53,1-0.27,1.4-0.67a0.76,0.76,0,0,0,.4-0.12,1.68,1.68,0,0,0-1,.07,5.84,5.84,0,0,0-.93.6A0.08,0.08,0,0,0,19,33.25Zm0.64,0.36a0.43,0.43,0,0,0,.44,0c0.71,0,1.35-.1,2.08-0.1,0.07-.07.22-0.12,0.17-0.28A0.61,0.61,0,0,0,21.84,33a1.48,1.48,0,0,1,.24.26,0.77,0.77,0,0,1-.52-0.14l0,0.14a0.33,0.33,0,0,1-.34.16c-0.24-.24-0.5.06-0.73,0.07-0.3-.27.24-0.23,0.31-0.4a0.27,0.27,0,0,1-.1,0c-0.29.11-.59,0.17-0.87,0.31,0,0-.06-0.06,0-0.09A2.28,2.28,0,0,1,21,32.81a0.5,0.5,0,0,0-.59-0.07c-0.22.35-.6,0.09-0.87,0.31a1.1,1.1,0,0,1-.38.23C19.11,33.58,19.52,33.39,19.64,33.61Zm2.8-.91c0-.1,0-0.09-0.1-0.17s-0.3-.3-0.05-0.37c0.2,0.08.17,0.46,0.4,0.4l-0.06-.21c0-.14-0.26-0.19-0.12-0.33l0.14,0.12c0.08,0,0,.13.14,0.09l0-.05c0.05-.26-0.54-0.33-0.23-0.61l-0.07,0c-0.24.18-.27-0.2-0.44-0.31,0.06-.08.12,0,0.19,0V31.15a0.31,0.31,0,0,0-.28-0.21c0,0.08.05,0.21-.08,0.21l-0.1-.33a0.21,0.21,0,0,0-.13.1c-0.17-.18.24-0.27,0.12-0.47a3.54,3.54,0,0,1-.29.24,0.23,0.23,0,0,0,0,.32,1.41,1.41,0,0,1,.84.87c0.12,0.27-.35.3-0.25,0.45,0-.05.05,0,0.09,0a0.38,0.38,0,0,1,.12.14c-0.18,0-.16.26-0.32,0.26a0.32,0.32,0,0,0,.32.12s0,0,0-.05S22.34,32.72,22.44,32.7Zm-0.36-.85C22,31.87,22,32,22,32H22.1C22.16,32,22.1,31.91,22.08,31.85Zm0.48,1.73,0.13-.4a0.34,0.34,0,0,0-.29-0.23l0.13,0.17a0.6,0.6,0,0,1-.13.42A0.16,0.16,0,0,0,22.56,33.58Zm1.2-.4V33.09l-0.1-.1c-0.18-.12-0.35-0.42-0.56-0.29l0.23,0.17s0,0.07,0,.1a0.52,0.52,0,0,1-.43-0.21,0.23,0.23,0,0,0-.25.12,0.65,0.65,0,0,0,.28.17A5.6,5.6,0,0,1,23.76,33.18ZM23,32.4c0.09,0,.1-0.09.09-0.13s-0.13-.13-0.18-0.08S22.92,32.38,23,32.4Zm1,0.81h0.13a2,2,0,0,0-.76-0.86c-0.06,0-.18.06-0.11,0.17A4.19,4.19,0,0,1,24.05,33.2Zm-0.19-1A0.51,0.51,0,0,0,24,31.84c-0.12-.06-0.09-0.31-0.3-0.23a0.84,0.84,0,0,1,0,.4A0.69,0.69,0,0,0,23.86,32.22Zm-0.28-.12c0-.06,0-0.18-0.12-0.17s0,0.16,0,.21A0.11,0.11,0,0,0,23.58,32.1Zm-0.18-.4c0.11,0,.1-0.13.1-0.23s-0.23-.33-0.37-0.21a0.51,0.51,0,0,1,.21.4A0.08,0.08,0,0,0,23.41,31.7Zm-0.18,0V31.57c0-.06-0.15-0.12-0.17,0A0.26,0.26,0,0,0,23.22,31.7ZM23,32c0.42-.15-0.28-0.33,0-0.67A0.45,0.45,0,0,0,22.58,31c-0.19.31,0.13,0.39,0.23,0.63A0.78,0.78,0,0,0,23,32Zm-0.52-1.41c0-.15-0.17-0.16-0.28-0.18a2.36,2.36,0,0,0,.74.57A1,1,0,0,0,22.46,30.56Zm-0.06.6c0.15-.16-0.07-0.29-0.11-0.43a3.87,3.87,0,0,1-.41-0.25C21.79,30.78,22.32,30.85,22.4,31.17Zm-0.48-3.9A0.52,0.52,0,0,0,22,26.81a0.07,0.07,0,0,1-.06,0,0.59,0.59,0,0,0-.09.48h0.06Zm0-.95A0.15,0.15,0,0,0,22,26.18a0.13,0.13,0,0,0-.22,0C21.84,26.24,21.82,26.34,21.92,26.32Zm-0.15-.46a0.12,0.12,0,0,0,.12,0A0.14,0.14,0,0,0,22,25.75C21.84,25.65,21.82,25.81,21.76,25.86Zm0.5-2,0-.17a0.67,0.67,0,0,0,.24.3,0.21,0.21,0,0,0,.12-0.16,0.86,0.86,0,0,1-.26-0.53c-0.07-.15-0.18,0-0.27,0-0.07.16,0.21,0.3,0.14,0.44a0.15,0.15,0,0,0-.14-0.07,0.16,0.16,0,0,0-.08.12A0.15,0.15,0,0,0,22.27,23.84ZM22.82,24A0.17,0.17,0,0,0,23.05,24a0.17,0.17,0,0,0-.26,0S22.78,24,22.82,24Zm0.57,0.64c0,0.07.05,0.08,0.09,0.07s0,0,0,0A0.19,0.19,0,0,0,23.39,24.66ZM24,25.18c-0.2,0,0,.14,0,0.23-0.2.19,0.16,0.11,0.12,0.29C24.3,25.54,24,25.38,24,25.18Zm-0.23.7a0.09,0.09,0,0,0,0,.1H23.9V25.91A0.17,0.17,0,0,0,23.77,25.88Zm0.05-1a0.14,0.14,0,0,0-.15,0v0.23h0.1C23.89,25.06,23.73,25,23.82,24.92Zm-0.15-.37s-0.06,0-.09,0V24.6h0.07S23.68,24.57,23.67,24.55Zm-0.12-.11c-0.16,0-.11-0.26-0.31-0.21s0-.14-0.12-0.09l0.05,0.12c0.17,0,.14.23,0.28,0.23S23.53,24.49,23.55,24.44Zm-0.36.44a0.37,0.37,0,0,0-.09-0.43,0.67,0.67,0,0,0,0,.43h0ZM22,22.38c-0.22.15,0,.38,0.09,0.56a0.59,0.59,0,0,0,.32.09A2.08,2.08,0,0,0,22,22.38Zm0.86,0.38c-0.09.2,0.19,0.22,0.26,0.37s0,0.26-.12.23a0.93,0.93,0,0,1-.18-0.25,0.34,0.34,0,0,1-.36,0h0a0.63,0.63,0,0,0,.48.51,0.65,0.65,0,0,0,.45-0.23A0.87,0.87,0,0,0,22.86,22.75ZM22,22.07c0.05,0.07.1,0,.16,0s0,0-.08-0.07Zm0.16-.35s-0.08.08,0,.11,0.06,0,.09,0S22.24,21.73,22.2,21.72Zm0.19,0.74a0.14,0.14,0,0,0-.13,0,3.15,3.15,0,0,0,.21.35c0.07,0,.16,0,0.2,0A1,1,0,0,0,22.4,22.46Zm0.24-.74c0-.06-0.05-0.12-0.15-0.1a0.14,0.14,0,0,0,0,.19S22.65,21.77,22.63,21.72Zm0.16,0,0,0.14c0.12,0.12.15,0.27,0.35,0.21V22A0.5,0.5,0,0,0,22.8,21.69ZM22.48,20.4a0.33,0.33,0,0,0,0,.18c0.13,0.09.2-.05,0.23-0.13l0.06,0.41a0.19,0.19,0,0,0,.12,0A0.24,0.24,0,0,0,23,20.58l-0.17-.28A0.77,0.77,0,0,0,22.48,20.4Zm0.76,1.41A0.55,0.55,0,0,0,23,21.53v0.16A0.31,0.31,0,0,0,23.24,21.8Zm0.34-1c-0.05-.1-0.29-0.31-0.22,0a0.49,0.49,0,0,1,0,.3C23.42,21,23.62,21,23.58,20.84Zm-0.15-1.25s0,0.15.08,0.12,0.1,0,.07-0.07A0.14,0.14,0,0,0,23.43,19.59Zm0.15,0.49v0a0.15,0.15,0,0,0-.1,0S23.56,20.11,23.58,20.08Zm0,0.16c-0.08,0-.2-0.13-0.25,0a0.24,0.24,0,0,0,.18.18,0.19,0.19,0,0,0,.24,0A0.33,0.33,0,0,0,23.55,20.24Zm-0.44.29A0.78,0.78,0,0,1,23,21a0.05,0.05,0,0,0,.07.07,0.3,0.3,0,0,0,.22-0.35A0.22,0.22,0,0,0,23.11,20.53Zm0-.78c0.09,0,.09-0.06.12-0.11a0.39,0.39,0,0,0-.34-0.25l0,0.07C22.92,19.58,22.92,19.74,23.11,19.75Zm-0.6-.59,0,0.15a1.19,1.19,0,0,1,.29.63c0.07,0.07.05,0.19,0.19,0.14s-0.07-.23-0.09-0.34A0.82,0.82,0,0,0,22.5,19.16Zm-0.07.36a0.65,0.65,0,0,0,.21.53,0.1,0.1,0,0,0,.06-0.14A0.92,0.92,0,0,0,22.44,19.52Zm-0.17.21c-0.19.06,0.06,0.19,0,.3,0.07,0,.07.15,0.17,0.12a0.5,0.5,0,0,0,0-.26A0.24,0.24,0,0,0,22.27,19.74ZM22,18.53c-0.08,0,0,.1,0,0.16a2.57,2.57,0,0,1,.23.59,0.15,0.15,0,0,0,.14.07,2.29,2.29,0,0,0-.17-0.65s0-.08,0-0.11A0.13,0.13,0,0,0,22,18.53ZM21.86,19c0.1,0.09,0,.33.19,0.33v-0.1C22,19.11,22.07,18.87,21.86,19Zm0,1.43c0.1,0,0,.12.06,0.19a0.8,0.8,0,0,0,.44.4c0.18,0,.29.34,0.46,0.13a0.2,0.2,0,0,0,0-.13,0.43,0.43,0,0,0-.29-0.12,0.18,0.18,0,0,1-.11-0.23c0.13-.33-0.28-0.42-0.24-0.76-0.07-.11,0-0.34-0.24-0.31A3.08,3.08,0,0,0,21.86,20.38Zm-0.07.25c-0.15.05,0,.22,0,0.35,0.19,0.09,0,.43.31,0.3a0.46,0.46,0,0,1,.07.26h0.13a0.49,0.49,0,0,0-.16-0.45A2.75,2.75,0,0,1,21.79,20.63Zm0.53-4.12c0.21,0,.24.35,0.45,0.18a0.65,0.65,0,0,0-.55-0.41A0.4,0.4,0,0,0,22.32,16.5Zm-0.24.12c0.2,0.11.21,0.35,0.43,0.48a0.7,0.7,0,0,0,.2,0c0.09-.1,0-0.18-0.08-0.23a3,3,0,0,1-.43-0.31S22,16.53,22.08,16.62Zm-0.41-1.15a1,1,0,0,0,.06.25c0,0.09.15,0,.19,0S21.79,15.31,21.67,15.47Zm-0.43-.61c0.17,0.08.09-.15,0.2-0.2a1.31,1.31,0,0,0,.11.48c0.25-.13-0.06-0.33,0-0.56-0.24.1,0-.24-0.19-0.27A0.55,0.55,0,0,0,21.25,14.86Zm0,0.56,0.13-.17A0.21,0.21,0,0,0,21.32,15,0.79,0.79,0,0,0,21.27,15.43ZM22,16.11a0.13,0.13,0,0,0-.2-0.05,0.56,0.56,0,0,1-.25-0.59l0-.1c-0.23.07,0,.33-0.08,0.52,0,0,0,0,0,0H21.3V16a0.51,0.51,0,0,0,0,.44,0.23,0.23,0,0,1-.26.07l0.07-.21c-0.24-.14-0.11.23-0.28,0.31L21,16.71c0.13,0.11,0,.22,0,0.34a2.9,2.9,0,0,1,.12.74,0.19,0.19,0,0,0,.19-0.06,0.34,0.34,0,0,0,0-.28,0.34,0.34,0,0,1,0-.44s0.07,0,.1.08a5.67,5.67,0,0,0,.18-0.56s0,0,0,0,0,0.19.16,0.14a0.53,0.53,0,0,0,.12-0.41,0.3,0.3,0,0,0,.2,0S22,16.12,22,16.11Zm-0.43-4.66a0.08,0.08,0,0,0-.06.12c0.06,0,.12.09,0.18,0v0A0.28,0.28,0,0,0,21.55,11.45Zm-0.31.05a2.13,2.13,0,0,0,.2.89c0.09,0,.19,0,0.23,0a0.88,0.88,0,0,1-.23-0.65,0.63,0.63,0,0,0-.37-0.49C21,11.36,21.22,11.38,21.25,11.5Zm0-1.94a0.76,0.76,0,0,0-.09.49,0.62,0.62,0,0,0,.27-0.42A0.1,0.1,0,0,0,21.27,9.56Zm-0.08.85a0.18,0.18,0,0,0,.07.18,0.22,0.22,0,0,0,.13,0C21.44,10.41,21.28,10.29,21.19,10.41ZM21.45,10a0.43,0.43,0,0,0,.09.46,0.15,0.15,0,0,0,.2,0A1.3,1.3,0,0,0,21.45,10ZM21.73,10V9.94c-0.07,0-.06-0.15-0.15-0.12l0,0.13A0.09,0.09,0,0,0,21.73,10Zm0.37,0.23a0.61,0.61,0,0,0-.24-0.49,0.23,0.23,0,0,0-.07.21A0.55,0.55,0,0,0,22.1,10.25Zm-0.6-.84a0.45,0.45,0,0,0,.14.28,0.36,0.36,0,0,0,.12-0.18C21.72,9.41,21.55,9.16,21.5,9.41ZM21.4,9.17c0.32,0,0-.19.06-0.32-0.34-.22,0,0.27-0.26.32a0.15,0.15,0,0,0,.07.14C21.46,9.35,21.28,9.21,21.4,9.17ZM20.72,10.3l0.06,0a1.56,1.56,0,0,1-.13.44h0.07c0.06-.09.22-0.14,0.17-0.25,0.11-.12,0-0.34.1-0.46a2.43,2.43,0,0,1,.14-0.56,0.65,0.65,0,0,0-.33.39,0.22,0.22,0,0,0,0,.11l-0.06.24s-0.13-.14-0.2-0.07,0.08,0.11.07,0.18A0.11,0.11,0,0,0,20.72,10.3ZM18.82,13a0.56,0.56,0,0,0-.34.23l0,0A0.39,0.39,0,0,0,18.82,13Zm-0.05.35c0,0.09.09,0,.15,0A0.4,0.4,0,0,0,19,13.18a0.11,0.11,0,0,0-.1,0A0.31,0.31,0,0,0,18.77,13.32Zm0.59-.43c0.12-.17.21,0,0.34,0a0.19,0.19,0,0,0,.12-0.23,0.36,0.36,0,0,0-.34-0.07,1,1,0,0,0-.48.27A0.47,0.47,0,0,0,19.36,12.88Zm0.55-.41c0.3,0.15.33-.47,0.64-0.21a0.18,0.18,0,0,0,.12-0.21A0.26,0.26,0,0,0,20.46,12,0.76,0.76,0,0,0,19.91,12.47Zm0.22,0.38a0.14,0.14,0,0,0,.19,0,1.19,1.19,0,0,1,.12-0.42,0.24,0.24,0,0,0-.26.12C20.23,12.66,20,12.73,20.13,12.86ZM20.3,13a0.13,0.13,0,0,0-.05.13h0.07a0.19,0.19,0,0,0,.1-0.09A0.11,0.11,0,0,0,20.3,13Zm0.26,0.48a0.39,0.39,0,0,0,.19-0.27c-0.2-.15-0.25.12-0.3,0.25Zm0.29-1.55a2.62,2.62,0,0,1-.36.67c0,0.12,0,.37.14,0.39s0-.24,0-0.37A3.67,3.67,0,0,1,21,12.2C20.92,12.09,21.06,11.84,20.84,11.89Zm0.24,1s0.06,0,.07,0a1.89,1.89,0,0,1,.17-0.57,0.44,0.44,0,0,1-.07-0.21c-0.06,0-.1-0.09-0.17,0a0.69,0.69,0,0,1-.12.53A0.32,0.32,0,0,0,21.08,12.9Zm0.07,0.35a0.92,0.92,0,0,0-.19.42,1.92,1.92,0,0,1-.24.77l0.07,0a1.35,1.35,0,0,0,.31-0.67C21,13.58,21.21,13.45,21.15,13.25Zm-0.26,1.5h0.05c0.05-.05.2-0.14,0.12-0.25A0.17,0.17,0,0,0,20.89,14.75Zm-0.45,0H20.36v0.12A0.1,0.1,0,0,0,20.44,14.8Zm-0.72.28a0.17,0.17,0,0,0-.12.12,0.12,0.12,0,0,0,.22-0.09A0.39,0.39,0,0,1,19.72,15.07Zm-0.6.74h0.12v0S19.13,15.74,19.13,15.82Zm-0.19.32a0.15,0.15,0,0,0-.24,0,0.34,0.34,0,0,0-.12.31C18.8,16.44,18.77,16.18,18.94,16.13Zm0,0.18a1.63,1.63,0,0,1-.38.46l0,0a0.42,0.42,0,0,0,.29-0.11,0.79,0.79,0,0,0,0-.21,0.22,0.22,0,0,0,.19,0C19.24,16.37,19.06,16.08,19,16.32Zm0.5-.32c-0.31,0-.12.29-0.24,0.46a0.15,0.15,0,0,0,.12,0,0.47,0.47,0,0,0,.29-0.37A0.19,0.19,0,0,0,19.46,16Zm0.26,0.34c0.2,0,.14-0.17.22-0.26H19.87A1.41,1.41,0,0,0,19.72,16.34Zm0.95-.67c0.29,0,0-.28.22-0.36a1.4,1.4,0,0,1,.07.43l0.08,0a5.12,5.12,0,0,0,.1-1,1.51,1.51,0,0,0-.17.35v0.07a0.06,0.06,0,0,1-.07.07,1.64,1.64,0,0,0-.17-0.37,0.14,0.14,0,0,0-.14.07c-0.14.1,0.06,0.12,0.09,0.21a0.61,0.61,0,0,1-.07.44S20.7,15.61,20.67,15.67Zm-0.95,0c0,0.06-.18.16-0.05,0.23,0.36,0,.28-0.39.46-0.58a0.79,0.79,0,0,1-.12.48h0.07a0.35,0.35,0,0,0,.19-0.2c0.06,0,0,.13.08,0.16a0.35,0.35,0,0,0,.25-0.23l0-.26c-0.05,0-.14,0-0.17,0-0.1-.09.08-0.14,0-0.25s-0.18.06-.26,0.09,0.06-.18,0-0.25h-0.1a0.17,0.17,0,0,0-.12.11,0.44,0.44,0,0,0,0,.35C20,15.58,19.78,15.66,19.72,15.72Zm0.78,1.57a0.58,0.58,0,0,0,.08-0.48,1.71,1.71,0,0,0-.2.31C20.42,17.18,20.39,17.3,20.5,17.29Zm0-.74h0.12c0.08-.16.2-0.27,0.29-0.46A0.56,0.56,0,0,0,20.53,16.54Zm0.26,0.38L20.67,17a0.12,0.12,0,0,0,0,.1,0.19,0.19,0,0,0,.1,0C20.84,17,20.87,16.92,20.79,16.92Zm-0.07,3.13c0.06,0,.12,0,0.1-0.14s0-.21-0.15-0.11S20.62,20,20.72,20.05Zm0,1a0.77,0.77,0,0,0,.21-0.49,1,1,0,0,1,.17-0.39V19.92c-0.38-.05-0.09.37-0.31,0.53a2,2,0,0,1-.1.39C20.64,20.9,20.61,21,20.7,21.07Zm-0.22-2a0.14,0.14,0,0,0,0,.2h0.14A0.12,0.12,0,0,0,20.48,19.08Zm0.12,3a0.14,0.14,0,0,0,.1-0.14,3.64,3.64,0,0,1-.1-0.53c-0.07-.07-0.12,0-0.16.06a1.18,1.18,0,0,1-.07.39A0.27,0.27,0,0,0,20.6,22Zm-0.28.88H20.24l0.05,0A0,0,0,0,0,20.31,22.92Zm-0.07-1.24a1,1,0,0,0,.2-0.47A0.37,0.37,0,0,0,20.24,21.67Zm0.17,1.1c0.28,0,0-.22.17-0.32s-0.16-.15-0.2-0.1A0.62,0.62,0,0,0,20.41,22.78Zm0.31,0.07a1.23,1.23,0,0,0-.07.62,0.61,0.61,0,0,0-.07.38,0.14,0.14,0,0,0,.14.06,4.65,4.65,0,0,0,.14-1A0.14,0.14,0,0,0,20.72,22.84Zm0,2.76h-0.1a1.28,1.28,0,0,0-.07.53A0.61,0.61,0,0,0,20.72,25.61Zm0,1.34a0.11,0.11,0,0,0-.12,0,0.38,0.38,0,0,0-.1.19h0.08A0.15,0.15,0,0,0,20.72,26.95Zm-0.24,1.31,0.07,0.05a0.09,0.09,0,0,0,.07-0.12C20.58,28.07,20.47,28.21,20.48,28.26Zm0.12,1.46c-0.07-.07.06-0.27-0.12-0.23a0.59,0.59,0,0,0-.12.53C20.53,30,20.53,29.82,20.6,29.72Zm-0.47,1c0.07,0,.15-0.07.11-0.14a0.22,0.22,0,0,0-.18.09S20.09,30.75,20.13,30.74Zm-1.44,1.32a0.24,0.24,0,0,0,.16-0.22,0.34,0.34,0,0,0-.22.19S18.66,32.07,18.69,32.06Zm-2.24.5a0.93,0.93,0,0,1,.76.12,1.15,1.15,0,0,0,.9-0.44,0.38,0.38,0,0,0,.28-0.13,0.21,0.21,0,0,0-.23.07,4.16,4.16,0,0,0-.6.36,0.26,0.26,0,0,1-.27,0,0.59,0.59,0,0,0,.3-0.16,4,4,0,0,0-.53.11A0.9,0.9,0,0,0,16.45,32.56Zm-0.33.64a1.48,1.48,0,0,1,1.22-.27c0.36,0.22.47-.3,0.76-0.3A1.14,1.14,0,0,1,19,32.3a0.64,0.64,0,0,0,.39-0.59,0.78,0.78,0,0,1,.4-0.5,2.5,2.5,0,0,1,.47,0c0.08-.07.21-0.16,0.12-0.29a1.7,1.7,0,0,0-.56.17c-0.38,0-.32.43-0.59,0.57,0.13,0.11-.09.23-0.08,0.36a1.77,1.77,0,0,0-.4.31l0,0a0.41,0.41,0,0,0-.44.07,0.94,0.94,0,0,0-.59.39c-0.23-.1-0.31.18-0.55,0.09a0.77,0.77,0,0,0-.71-0.09c-0.14.36-.54,0.12-0.8,0.32C15.69,33.26,16,33.15,16.12,33.2Zm3.68-2.33c-0.13-.11-0.19.06-0.3,0.07-0.44.16-.31,0.59-0.52,0.91,0.18,0.05.12-.16,0.22-0.24l0,0,0.05-.31A1.22,1.22,0,0,1,19.8,30.88Zm-4.1,1.95a0.83,0.83,0,0,0,.52-0.09s-0.1-.09-0.14,0c-0.22.1-.54-0.1-0.6,0.17A0.27,0.27,0,0,0,15.7,32.82Zm-0.92.41a2.92,2.92,0,0,0,.58.11l0-.07A1,1,0,0,0,14.78,33.23Zm0.65-.17c-0.09-.13-0.27,0-0.38-0.17a0.28,0.28,0,0,0-.35.05,2,2,0,0,0,.68.24A0.1,0.1,0,0,0,15.43,33.06Zm0.12,0.22a0.85,0.85,0,0,1-.12.29,0.53,0.53,0,0,0,.31.12A1,1,0,0,0,16,33.37,0.72,0.72,0,0,0,15.55,33.28Zm2.72,0.9a6.2,6.2,0,0,0,1.21-.46c-0.21-.14-0.48-0.18-0.68-0.32-0.41-.12-0.87-0.15-1.29-0.27a1.76,1.76,0,0,0-1.26.17,0.92,0.92,0,0,0,.55.1,1.23,1.23,0,0,1,1.17.06,4,4,0,0,1,.8.07,0.46,0.46,0,0,1,.29.19c-0.15.17-.24-0.09-0.41,0a7.31,7.31,0,0,1-1.49-.27,1,1,0,0,1-.82.1,0.29,0.29,0,0,0-.38.18,0.62,0.62,0,0,0,.46.29,3.31,3.31,0,0,1,.39-0.29,2.93,2.93,0,0,1,1,0c0.25,0,.55,0,0.82.07a0.19,0.19,0,0,1,.06.12,1.82,1.82,0,0,1-.78,0c-0.3-.23-0.61.16-0.9-0.08a0.47,0.47,0,0,0-.29.24,0.69,0.69,0,0,0,.76,0A1.18,1.18,0,0,1,18.27,34.18Zm-0.79.17a0,0,0,0,1,0,0A0.42,0.42,0,0,0,18,34.24,0.41,0.41,0,0,0,17.49,34.35Zm2.74,0.08a2.17,2.17,0,0,0-.58.35,1.2,1.2,0,0,0,.62.09,0.69,0.69,0,0,1,.47-0.14c0.18,0,.4.33,0.5,0C20.83,34.82,20.62,34.38,20.23,34.44Zm2.45,0.35c-0.46.22-1-.26-1.36,0.14a7.08,7.08,0,0,0,1.28,0s0.13,0,.1-0.11h0Zm0.14-.29a5.39,5.39,0,0,0-1.86,0L21,34.54c0.53-.16,1,0.28,1.47.1,0.36-.2.49,0.33,0.84,0.15V34.64A0.92,0.92,0,0,0,22.82,34.49Zm0.73,0.29a0.11,0.11,0,0,0,.1-0.05l-0.1,0v0.08Zm-0.16-.55A5.58,5.58,0,0,0,22.17,34c-0.26.1-.51,0-0.77,0.09a2.88,2.88,0,0,0-1.25.05,1,1,0,0,0-.85.24,1,1,0,0,0-.55.21A1.45,1.45,0,0,0,20,34.3c0.75,0.06,1.47-.1,2.24,0a1.45,1.45,0,0,1,1,.1c0.36,0,.49.53,0.84,0.28A0.85,0.85,0,0,0,23.39,34.23Zm0.91,0.4s0.08,0,.09,0l-0.07-.07S24.25,34.6,24.3,34.64Zm0.09-.52c-0.27,0-.53-0.15-0.78-0.17a2.83,2.83,0,0,0-1.07-.14l-0.33-.11a3.12,3.12,0,0,0-1.53.11,1.55,1.55,0,0,0-1,0,6.24,6.24,0,0,1-1,.42,4,4,0,0,1-.67.25c0.43,0.33.75-.18,1.15-0.21,0.38-.41,1-0.08,1.43-0.35,0.74,0.11,1.41-.23,2.08,0a4,4,0,0,1,1.67.45,0.55,0.55,0,0,0,.57.12A0.74,0.74,0,0,0,24.38,34.11Zm-1-.54-0.09,0a0.68,0.68,0,0,0-.47,0c0.12,0.33.45,0.06,0.74,0.15a3.39,3.39,0,0,0,1,.3c0.3,0,.38.5,0.7,0.42a0.63,0.63,0,0,0-.12-0.3A3.82,3.82,0,0,0,23.38,33.58Zm2,0.61c0,0.09.13,0.19,0.19,0.12S25.46,34.14,25.36,34.18Zm2.29-1a2.71,2.71,0,0,0-1.27-.39l-0.29-.17c-0.24-.09,0,0.25-0.23.19a0.46,0.46,0,0,0-.07.24,0.82,0.82,0,0,1,.43.09c-0.2.25-.54-0.08-0.81,0.1s-0.45-.09-0.53.18c0.1,0.14.36,0.12,0.32,0.31a2.73,2.73,0,0,0-1.12-.35c-0.15-.1-0.29,0-0.43-0.09a1.45,1.45,0,0,0-.79,0l0.05,0a6,6,0,0,1,2,.49,2,2,0,0,1,.71.36,0.33,0.33,0,0,0,.36,0c-0.09-.34-0.44-0.13-0.68-0.29,0-.16.14-0.06,0.2-0.12a1.34,1.34,0,0,1,.66.12,0.56,0.56,0,0,0,.56,0,3.73,3.73,0,0,0-1-.26,1.87,1.87,0,0,0-.52-0.07,0.09,0.09,0,0,1,0-.15,0.65,0.65,0,0,1,.63.07,1.29,1.29,0,0,1,.52.14,0.9,0.9,0,0,0,.69.09,0.76,0.76,0,0,0-.41-0.23,0.31,0.31,0,0,1-.23-0.19c0.13-.13.25,0,0.39,0a0.73,0.73,0,0,0,.66.22,2.09,2.09,0,0,0-1.1-.45c-0.12-.11-0.37,0-0.43-0.17l0,0a2.8,2.8,0,0,1,1.38.41c0.16,0,.34.29,0.46,0A0.61,0.61,0,0,0,27.65,33.22Z"/></svg>