<svg xmlns="http://www.w3.org/2000/svg" viewBox="0 0 208.13 44.94"><defs><style>.cls-1{fill:#a4001d;}</style></defs><title>SU_SEED_SEAL_2C_RGB</title><path d="M127.75 15.36v-15"/><path d="M127.45.36h.6v15h-.6z"/><path d="M70.7 15.36a2.43 2.43 0 0 1-2.7-2.54 2.52 2.52 0 0 1 1.8-2.53c1.7-.63 2-.7 3.2-1.06v-.3a2.72 2.72 0 0 0-.1-1 1.7 1.7 0 0 0-1.74-1.08 2.05 2.05 0 0 0-1.8 1l-.13.14-.47-.28v-.15a3.14 3.14 0 0 1 3.18-2 2.92 2.92 0 0 1 2.7 1.18 4.75 4.75 0 0 1 .43 2.44c0 .8 0 1.7 0 2.43 0 .5 0 .93 0 1.2 0 .67.1 1.18.66 1.18a.45.45 0 0 0 .27-.07l.15-.13.3.35-.1.13a2.27 2.27 0 0 1-1.85 1 1.37 1.37 0 0 1-1.44-1 3.18 3.18 0 0 1-2.35 1.08zm2.27-5a10.86 10.86 0 0 0-2.07.78 1.58 1.58 0 0 0-.82 1.48 1.25 1.25 0 0 0 1.4 1.38 2.54 2.54 0 0 0 1.52-.4v-3.2zM55.12 15.33A9.53 9.53 0 0 1 52 14.9h-.14v-.74c0-.9 0-1.27 0-1.56v-.47h.55v.2a1.88 1.88 0 0 0 .44 1.14 3.15 3.15 0 0 0 2.18.73c1.8 0 2.63-.68 2.63-2.14 0-1.25-.77-1.77-1.84-2.5l-.2-.12-1.13-.75c-1.57-1-2.36-1.88-2.36-3.54 0-.8.32-3.46 4.27-3.46a19.15 19.15 0 0 1 2.92.22h.16v.2s0 .52 0 1.08 0 .82 0 1.22v.3H59v-.2a1.68 1.68 0 0 0-.46-1.14 3.22 3.22 0 0 0-2.1-.56c-2.1 0-2.35 1.08-2.35 1.88 0 1.1.56 1.5 1.8 2.3l1.4 1c1.22.8 2.36 1.58 2.36 3.6 0 3.4-3.18 3.73-4.54 3.73zM64.47 15.4c-1.46 0-2.26-.53-2.62-1.7a8 8 0 0 1-.15-1.9c0-1.5 0-2.72 0-4.12V7h-1.2v-.35h.1A3.87 3.87 0 0 0 61.68 6a6.8 6.8 0 0 0 1.54-1.9l.22-.36h.4v2.1H67V7h-3.16v5c0 1.48.28 2.32 1.67 2.32a2.76 2.76 0 0 0 1.16-.32l.2-.1.14.42-.08.1a3.1 3.1 0 0 1-2.45.97zM77.28 15.27v-.44h.18a1.28 1.28 0 0 0 .84-.4c.3-.3.3-1.12.3-2.72V9a4.28 4.28 0 0 0-.18-1.9 1.1 1.1 0 0 0-.85-.33h-.25V6.2h.35a10 10 0 0 0 1.7-.2 3.1 3.1 0 0 0 1-.33h.12l.18.1v.75a4.62 4.62 0 0 1 2.73-.9 2.85 2.85 0 0 1 3.13 2.22 9.8 9.8 0 0 1 .12 1.7v2.74c0 1.55.06 2 .35 2.26a1.33 1.33 0 0 0 .73.26h.2v.44h-.48c-.68 0-1.26-.07-1.87-.07a20.9 20.9 0 0 0-2.14.08h-.22v-.4h.17a1.38 1.38 0 0 0 .77-.33 2.83 2.83 0 0 0 .34-1.66c0-.1 0-.2 0-.33 0-.35 0-1.1 0-1.63a20.47 20.47 0 0 0-.07-2.15 1.77 1.77 0 0 0-2-1.78 3.65 3.65 0 0 0-1.76.4v4.95c0 1.55.06 2 .36 2.26a1.33 1.33 0 0 0 .73.26H82v.44h-.5c-.65 0-1.22-.06-1.8-.06a21.57 21.57 0 0 0-2.17.08zM89 15.27v-.45h.18a1.26 1.26 0 0 0 .82-.4c.3-.33.3-1.12.3-2.73V7h-1.17v-.5l.12-.06a4.7 4.7 0 0 0 1.1-.58 16.6 16.6 0 0 1 .14-2.5c.36-1.94 1.63-2.93 3.77-2.93a3.83 3.83 0 0 1 2.3.72l.07.06v.2l-.94 1.3h-.2l-.04-.1a1.62 1.62 0 0 0-1.6-1.12 1.4 1.4 0 0 0-.94.34c-.4.4-.48 1-.48 2.2v1.83h2.1V7h-2.1v5.22a5.07 5.07 0 0 0 .2 2.1 1.75 1.75 0 0 0 1.3.42h.2v.5h-.2c-1-.05-1.8-.08-2.36-.08s-1.5 0-2.34.08zM99.86 15.43c-2.87 0-4.6-1.8-4.6-4.8 0-2.32 1.26-5 4.8-5 2.88 0 4.6 1.8 4.6 4.8 0 2.28-1.27 5-4.8 5zM100 6.7a2 2 0 0 0-1.33.42 4.3 4.3 0 0 0-1.14 3.43c0 .63.12 3.8 2.44 3.8a2 2 0 0 0 1.34-.43 4.33 4.33 0 0 0 1.15-3.43c-.04-.65-.16-3.8-2.45-3.8zM105.56 15.27v-.47h.18a1.24 1.24 0 0 0 .84-.4c.3-.3.3-1.1.3-2.7V9a4.34 4.34 0 0 0-.18-1.9 1.1 1.1 0 0 0-.85-.33h-.25v-.6h.4a9.78 9.78 0 0 0 1.7-.17 4.6 4.6 0 0 0 1-.27h.1l.18.1v.76a3.12 3.12 0 0 1 2.18-.9 2.28 2.28 0 0 1 1.58.53l.06.06v.3l-.8 1.45h-.38l-.1-.05a1.68 1.68 0 0 0-1.52-.8 1.78 1.78 0 0 0-1 .3v4.75a5 5 0 0 0 .2 2.07 1.76 1.76 0 0 0 1.3.43h.2v.52h-.2c-1-.05-1.82-.08-2.38-.08s-1.5 0-2.33.07zM120.36 15.4l-.25-.07v-.8a4.47 4.47 0 0 1-2.62.88c-2.6 0-4.26-1.78-4.26-4.56a6.2 6.2 0 0 1 .52-2.54 4.7 4.7 0 0 1 4.5-2.7 9.25 9.25 0 0 1 1.83.2v-2a5.12 5.12 0 0 0-.18-2.06 1.1 1.1 0 0 0-.84-.32h-.24V1h.18a19.6 19.6 0 0 0 2-.26 6 6 0 0 0 1-.24h.1l.15.1v.05c-.06.78-.07 2.44-.07 3.68V12a5.4 5.4 0 0 0 .18 2.1 1.1 1.1 0 0 0 .83.33h.25V15h-.2a14.3 14.3 0 0 0-1.83.2 4.7 4.7 0 0 0-1 .2zm-2.17-8.65c-1.84 0-2.74 1.26-2.74 3.84 0 1 .3 3.47 3 3.47h.1a2.9 2.9 0 0 0 1.48-.38V7.37a2.6 2.6 0 0 0-1.85-.63z" class="cls-1"/><path d="M133 12.5a5.2 5.2 0 0 0 1.57 1.13 4.32 4.32 0 0 0 1.87.43 3 3 0 0 0 1.92-.56A1.8 1.8 0 0 0 139 12a1.84 1.84 0 0 0-.16-.8 1.77 1.77 0 0 0-.44-.58 3.2 3.2 0 0 0-.66-.43L137 9.8 135.2 9a8.5 8.5 0 0 1-.9-.46 3.7 3.7 0 0 1-.82-.65 3.1 3.1 0 0 1-.6-.9 3 3 0 0 1-.22-1.22 3 3 0 0 1 .34-1.26 3.22 3.22 0 0 1 .82-1.05 3.8 3.8 0 0 1 1.18-.7 4.76 4.76 0 0 1 1.57-.24 5 5 0 0 1 2.07.43 5.2 5.2 0 0 1 1.62 1.1l-.85 1a4.45 4.45 0 0 0-1.25-.85 3.77 3.77 0 0 0-1.57-.3 2.7 2.7 0 0 0-1.68.48 1.6 1.6 0 0 0-.64 1.34 1.5 1.5 0 0 0 .18.77 1.9 1.9 0 0 0 .48.54 3.86 3.86 0 0 0 .67.42q.35.18.73.33l1.77.75a7.54 7.54 0 0 1 1 .52 3.62 3.62 0 0 1 .82.68 3 3 0 0 1 .54.9 3.35 3.35 0 0 1 .2 1.22 3.3 3.3 0 0 1-1.14 2.52 4 4 0 0 1-1.33.75 5.3 5.3 0 0 1-1.78.28 6 6 0 0 1-4.37-1.84zM142.14 10.62a5.6 5.6 0 0 1 .35-2 4.77 4.77 0 0 1 .92-1.53 4.05 4.05 0 0 1 1.32-1 3.72 3.72 0 0 1 1.54-.34 3.88 3.88 0 0 1 1.57.3 3.06 3.06 0 0 1 1.16.87 4 4 0 0 1 .72 1.37 6 6 0 0 1 .25 1.8 5.32 5.32 0 0 1-.06.84h-6.22a3.67 3.67 0 0 0 .92 2.38 2.83 2.83 0 0 0 2.16.87A3.63 3.63 0 0 0 148 14a5.4 5.4 0 0 0 1.07-.52l.55 1a7.8 7.8 0 0 1-1.35.67 4.7 4.7 0 0 1-1.7.3 4.52 4.52 0 0 1-1.73-.34 4.12 4.12 0 0 1-1.4-1 4.4 4.4 0 0 1-.95-1.5 5.66 5.66 0 0 1-.36-1.98zm6.46-.7a3.42 3.42 0 0 0-.6-2.18 2 2 0 0 0-1.68-.74 2.28 2.28 0 0 0-.94.2 2.6 2.6 0 0 0-.8.57 3.06 3.06 0 0 0-.6.9 4.22 4.22 0 0 0-.32 1.25h4.94zM151.4 10.62a5.6 5.6 0 0 1 .36-2 4.77 4.77 0 0 1 .93-1.53 4.05 4.05 0 0 1 1.3-1 3.72 3.72 0 0 1 1.55-.34 3.88 3.88 0 0 1 1.57.3 3.06 3.06 0 0 1 1.16.87A4 4 0 0 1 159 8.3a6 6 0 0 1 .25 1.8 5.32 5.32 0 0 1-.06.84h-6.24a3.67 3.67 0 0 0 .92 2.38 2.83 2.83 0 0 0 2.16.87 3.63 3.63 0 0 0 1.23-.2 5.4 5.4 0 0 0 1.07-.53l.55 1a7.8 7.8 0 0 1-1.36.67 4.7 4.7 0 0 1-1.7.3 4.52 4.52 0 0 1-1.73-.34 4.12 4.12 0 0 1-1.4-1 4.4 4.4 0 0 1-.94-1.5 5.66 5.66 0 0 1-.35-1.98zm6.47-.7a3.42 3.42 0 0 0-.6-2.18A2 2 0 0 0 155.6 7a2.28 2.28 0 0 0-.95.2 2.6 2.6 0 0 0-.8.57 3.06 3.06 0 0 0-.6.9 4.22 4.22 0 0 0-.32 1.25h4.94zM160.7 10.62a5.82 5.82 0 0 1 .32-2 4.8 4.8 0 0 1 .88-1.53 3.9 3.9 0 0 1 1.27-1 3.5 3.5 0 0 1 1.52-.35 3.15 3.15 0 0 1 1.38.3 6.23 6.23 0 0 1 1.2.77l-.08-1.57V1.7h1.58V15.2h-1.3l-.12-1.08h-.06a5.8 5.8 0 0 1-1.26.92 3.14 3.14 0 0 1-1.53.4 3.42 3.42 0 0 1-2.77-1.26 5.47 5.47 0 0 1-1.04-3.58zm1.6 0a4.42 4.42 0 0 0 .68 2.6 2.17 2.17 0 0 0 1.88.93 2.48 2.48 0 0 0 1.22-.3 4.36 4.36 0 0 0 1.14-1V8a3.93 3.93 0 0 0-1.13-.75 3 3 0 0 0-1.1-.18 2.18 2.18 0 0 0-1 .26 2.6 2.6 0 0 0-.85.72 3.6 3.6 0 0 0-.57 1.1 4.67 4.67 0 0 0-.28 1.45zM52.26 27.54a3.3 3.3 0 0 0 1 .7 2.73 2.73 0 0 0 1.18.28 1.86 1.86 0 0 0 1.2-.35 1.14 1.14 0 0 0 .44-.93 1.17 1.17 0 0 0-.1-.5 1.12 1.12 0 0 0-.28-.37 2 2 0 0 0-.4-.27l-.53-.25-1.13-.5a5.32 5.32 0 0 1-.56-.28 2.3 2.3 0 0 1-.52-.4 1.93 1.93 0 0 1-.37-.58 2 2 0 0 1 0-1.6 2 2 0 0 1 .5-.67 2.4 2.4 0 0 1 .8-.44 3 3 0 0 1 1-.17 3.16 3.16 0 0 1 1.3.27 3.3 3.3 0 0 1 1 .7l-.54.65a2.8 2.8 0 0 0-.8-.55 2.37 2.37 0 0 0-1-.2 1.7 1.7 0 0 0-1.06.3 1 1 0 0 0-.4.86 1 1 0 0 0 .1.5 1.2 1.2 0 0 0 .32.34 2.44 2.44 0 0 0 .42.26l.47.2 1.13.5a4.82 4.82 0 0 1 .64.32 2.26 2.26 0 0 1 .52.43 1.87 1.87 0 0 1 .33.6 2.13 2.13 0 0 1 .13.75 2.08 2.08 0 0 1-.72 1.6 2.54 2.54 0 0 1-.84.47 3.34 3.34 0 0 1-1.12.17 3.78 3.78 0 0 1-2.76-1.17zM58.56 24.22h-.86v-.74l.9-.06.13-1.63h.83v1.62h1.57v.8h-1.57v3.24a1.5 1.5 0 0 0 .2.83.78.78 0 0 0 .7.28 1.3 1.3 0 0 0 .34 0l.32-.1.2.73-.53.16a2.45 2.45 0 0 1-.57.07 1.9 1.9 0 0 1-.8-.14 1.36 1.36 0 0 1-.5-.4 1.54 1.54 0 0 1-.3-.62 3.45 3.45 0 0 1-.07-.8v-3.26zM62.18 27.74a1.62 1.62 0 0 1 .82-1.47 7.1 7.1 0 0 1 2.73-.7 2.75 2.75 0 0 0-.02-.57 1.3 1.3 0 0 0-.18-.47 1 1 0 0 0-.37-.33 1.2 1.2 0 0 0-.6-.13 2.35 2.35 0 0 0-1 .2 4.75 4.75 0 0 0-.78.42l-.34-.7a6.34 6.34 0 0 1 1-.5 3.32 3.32 0 0 1 1.3-.26 1.8 1.8 0 0 1 1.55.65 2.9 2.9 0 0 1 .48 1.74v3.58h-.83l-.08-.7a4.88 4.88 0 0 1-.9.6 2.24 2.24 0 0 1-1 .24 1.78 1.78 0 0 1-1.3-.36 1.55 1.55 0 0 1-.47-1.26zm1-.07a.83.83 0 0 0 .3.72 1.2 1.2 0 0 0 .72.2 1.7 1.7 0 0 0 .8-.2 3.87 3.87 0 0 0 .8-.57V26.2a10.23 10.23 0 0 0-1.24.23 3.22 3.22 0 0 0-.8.3 1.16 1.16 0 0 0-.45.42 1 1 0 0 0-.15.52zM68.5 23.42h.83l.08.84a4.78 4.78 0 0 1 .9-.7 2 2 0 0 1 1.06-.28 1.57 1.57 0 0 1 1.35.58 2.85 2.85 0 0 1 .44 1.7v3.7h-1V25.7a2.1 2.1 0 0 0-.26-1.2 1 1 0 0 0-.84-.37 1.44 1.44 0 0 0-.8.23 5.23 5.23 0 0 0-.8.67v4.22h-1v-5.83zM77.56 21.5a1.62 1.62 0 0 0-.66-.13q-.82 0-.82 1.13v.92h1.24v.8h-1.24v5h-1v-5h-.77v-.74l.8-.06v-.92a2.2 2.2 0 0 1 .4-1.42 1.55 1.55 0 0 1 1.3-.52 2.42 2.42 0 0 1 .52.05 2.72 2.72 0 0 1 .45.15zM78 26.35a3.56 3.56 0 0 1 .22-1.3 3 3 0 0 1 .6-1 2.5 2.5 0 0 1 .85-.6 2.68 2.68 0 0 1 2.05 0 2.5 2.5 0 0 1 .86.6 3 3 0 0 1 .6 1 3.58 3.58 0 0 1 .2 1.3 3.54 3.54 0 0 1-.2 1.3 2.9 2.9 0 0 1-.6 1 2.53 2.53 0 0 1-.86.58 2.68 2.68 0 0 1-2.05 0 2.53 2.53 0 0 1-.86-.6 2.9 2.9 0 0 1-.58-1 3.52 3.52 0 0 1-.22-1.28zm1 0a3.22 3.22 0 0 0 .12.9 2.13 2.13 0 0 0 .34.7 1.56 1.56 0 0 0 .53.47 1.52 1.52 0 0 0 1.36 0 1.56 1.56 0 0 0 .5-.42 2.13 2.13 0 0 0 .35-.7 3.22 3.22 0 0 0 .13-.9 3.3 3.3 0 0 0-.12-.93 2.2 2.2 0 0 0-.33-.7 1.54 1.54 0 0 0-.53-.47 1.52 1.52 0 0 0-1.37 0 1.54 1.54 0 0 0-.53.46 2.2 2.2 0 0 0-.34.7 3.3 3.3 0 0 0-.1.9zM84.8 23.42h.83l.08 1.06a2.7 2.7 0 0 1 .74-.88 1.5 1.5 0 0 1 .93-.32 1.55 1.55 0 0 1 .62.12l-.2.86-.26-.07h-.3a1.3 1.3 0 0 0-.77.3 2.4 2.4 0 0 0-.7 1v3.73h-1v-5.8zM88.5 26.35a3.66 3.66 0 0 1 .2-1.28 3 3 0 0 1 .57-1 2.46 2.46 0 0 1 .8-.6 2.2 2.2 0 0 1 1-.23 2 2 0 0 1 .88.18 3.93 3.93 0 0 1 .76.5v-3.2h1v8.53h-.9l-.1-.68a3.7 3.7 0 0 1-.8.58 2 2 0 0 1-1 .25 2.16 2.16 0 0 1-1.75-.8 3.46 3.46 0 0 1-.65-2.25zm1 0a2.8 2.8 0 0 0 .44 1.65 1.37 1.37 0 0 0 1.2.6 1.57 1.57 0 0 0 .76-.2 2.75 2.75 0 0 0 .72-.62v-3a2.47 2.47 0 0 0-.7-.47 1.85 1.85 0 0 0-.7-.13 1.37 1.37 0 0 0-.66.16 1.64 1.64 0 0 0-.53.46 2.27 2.27 0 0 0-.36.7 3 3 0 0 0-.15.84zM98.1 21.38h1v7.87h-1v-7.87zM101 23.42h.82l.08.84a4.78 4.78 0 0 1 .88-.7 2 2 0 0 1 1.07-.28 1.57 1.57 0 0 1 1.35.58 2.85 2.85 0 0 1 .43 1.7v3.7h-1V25.7a2.1 2.1 0 0 0-.26-1.2 1 1 0 0 0-.84-.37 1.44 1.44 0 0 0-.8.23 5.23 5.23 0 0 0-.73.64v4.22h-1v-5.8zM107.38 27.93a3.92 3.92 0 0 0 .8.5 2.13 2.13 0 0 0 .92.2 1.24 1.24 0 0 0 .86-.27.85.85 0 0 0 .3-.65.66.66 0 0 0-.13-.4 1.2 1.2 0 0 0-.3-.28 2.26 2.26 0 0 0-.44-.22l-.5-.2q-.3-.1-.6-.24a2.48 2.48 0 0 1-.57-.34 1.68 1.68 0 0 1-.4-.46 1.22 1.22 0 0 1-.16-.64 1.58 1.58 0 0 1 .14-.65 1.5 1.5 0 0 1 .4-.53 1.87 1.87 0 0 1 .64-.35 2.8 2.8 0 0 1 1.85.06 3.17 3.17 0 0 1 .8.47l-.48.62a3.13 3.13 0 0 0-.62-.37 1.72 1.72 0 0 0-.7-.14 1.12 1.12 0 0 0-.82.25.8.8 0 0 0-.26.58.6.6 0 0 0 .1.35 1 1 0 0 0 .3.26 2.34 2.34 0 0 0 .4.2l.5.18.63.25a2.4 2.4 0 0 1 .57.33 1.63 1.63 0 0 1 .38.54 1.4 1.4 0 0 1 .16.7 1.65 1.65 0 0 1-.14.67 1.6 1.6 0 0 1-.4.55 1.94 1.94 0 0 1-.68.38 2.83 2.83 0 0 1-.92.14 3.14 3.14 0 0 1-1.2-.23 3.7 3.7 0 0 1-1-.57zM112.84 24.22H112v-.74l.9-.06.1-1.63h.83v1.62h1.57v.8h-1.57v3.24a1.5 1.5 0 0 0 .2.83.78.78 0 0 0 .7.28 1.3 1.3 0 0 0 .34 0l.32-.1.18.73-.52.16a2.45 2.45 0 0 1-.56.07 1.9 1.9 0 0 1-.8-.14 1.36 1.36 0 0 1-.5-.4 1.54 1.54 0 0 1-.3-.62 3.45 3.45 0 0 1-.07-.8v-3.26zM117.22 22.22a.7.7 0 0 1-.5-.18.63.63 0 0 1 0-.92.76.76 0 0 1 1 0 .63.63 0 0 1 0 .92.7.7 0 0 1-.5.18zm-.5 1.2h1v5.83h-1v-5.83zM119.74 24.22h-.86v-.74l.9-.06.13-1.63h.84v1.62h1.57v.8h-1.56v3.24a1.5 1.5 0 0 0 .2.83.78.78 0 0 0 .7.28 1.3 1.3 0 0 0 .34 0l.32-.1.2.73-.53.16a2.45 2.45 0 0 1-.56.07 1.9 1.9 0 0 1-.78-.14 1.36 1.36 0 0 1-.52-.4 1.54 1.54 0 0 1-.28-.62 3.45 3.45 0 0 1-.08-.8v-3.26zM123.48 23.42h1V27a2.1 2.1 0 0 0 .26 1.2 1 1 0 0 0 .83.36 1.4 1.4 0 0 0 .8-.23 3.76 3.76 0 0 0 .77-.75v-4.16h1v5.83h-.84l-.08-.9a3.9 3.9 0 0 1-.86.76 1.93 1.93 0 0 1-1.06.3 1.58 1.58 0 0 1-1.36-.58 2.84 2.84 0 0 1-.43-1.7v-3.7zM130.17 24.22h-.87v-.74l.9-.06.13-1.63h.83v1.62h1.57v.8h-1.57v3.24a1.5 1.5 0 0 0 .2.83.78.78 0 0 0 .7.28 1.3 1.3 0 0 0 .34 0l.32-.1.2.73-.53.16a2.45 2.45 0 0 1-.57.07 1.9 1.9 0 0 1-.8-.14 1.36 1.36 0 0 1-.5-.4 1.54 1.54 0 0 1-.3-.62 3.45 3.45 0 0 1-.07-.8v-3.26zM133.46 26.35a3.52 3.52 0 0 1 .22-1.3 3 3 0 0 1 .6-1 2.54 2.54 0 0 1 .82-.6 2.35 2.35 0 0 1 1-.2 2.44 2.44 0 0 1 1 .18 1.93 1.93 0 0 1 .73.55 2.52 2.52 0 0 1 .45.86 3.8 3.8 0 0 1 .16 1.13 3.32 3.32 0 0 1 0 .54h-3.94a2.3 2.3 0 0 0 .58 1.5 1.8 1.8 0 0 0 1.36.56 2.3 2.3 0 0 0 .77-.13 3.42 3.42 0 0 0 .7-.33l.34.65a4.94 4.94 0 0 1-.85.42 3 3 0 0 1-1.08.18 2.86 2.86 0 0 1-1.1-.2 2.6 2.6 0 0 1-.9-.6 2.78 2.78 0 0 1-.58-1 3.58 3.58 0 0 1-.28-1.2zm4.08-.44a2.16 2.16 0 0 0-.38-1.36 1.28 1.28 0 0 0-1.06-.47 1.44 1.44 0 0 0-.6.13 1.65 1.65 0 0 0-.5.36 1.9 1.9 0 0 0-.38.58 2.68 2.68 0 0 0-.2.8h3.12zM144.9 21.5a1.62 1.62 0 0 0-.66-.13q-.82 0-.82 1.13v.92h1.24v.8h-1.24v5h-1v-5h-.8v-.74l.8-.06v-.92a2.2 2.2 0 0 1 .4-1.42 1.55 1.55 0 0 1 1.3-.52 2.42 2.42 0 0 1 .52.05 2.72 2.72 0 0 1 .45.15zM145.3 26.35a3.56 3.56 0 0 1 .22-1.3 3 3 0 0 1 .6-1 2.5 2.5 0 0 1 .85-.6 2.68 2.68 0 0 1 2.05 0 2.5 2.5 0 0 1 .86.6 3 3 0 0 1 .6 1 3.58 3.58 0 0 1 .2 1.3 3.54 3.54 0 0 1-.2 1.3 2.9 2.9 0 0 1-.6 1 2.53 2.53 0 0 1-.86.58 2.68 2.68 0 0 1-2.05 0 2.53 2.53 0 0 1-.86-.6 2.9 2.9 0 0 1-.58-1 3.52 3.52 0 0 1-.22-1.28zm1 0a3.22 3.22 0 0 0 .12.9 2.13 2.13 0 0 0 .34.7 1.56 1.56 0 0 0 .53.47 1.52 1.52 0 0 0 1.36 0 1.56 1.56 0 0 0 .53-.46 2.13 2.13 0 0 0 .33-.7 3.22 3.22 0 0 0 .12-.9 3.3 3.3 0 0 0-.12-.93 2.2 2.2 0 0 0-.34-.7 1.54 1.54 0 0 0-.54-.47 1.52 1.52 0 0 0-1.37 0 1.54 1.54 0 0 0-.54.46 2.2 2.2 0 0 0-.34.7 3.3 3.3 0 0 0-.1.93zM151.55 23.42h.82l.08 1.06a2.7 2.7 0 0 1 .73-.88 1.5 1.5 0 0 1 .93-.32 1.55 1.55 0 0 1 .63.12l-.2.86-.25-.07h-.3a1.3 1.3 0 0 0-.77.3 2.4 2.4 0 0 0-.7 1v3.73h-1v-5.8zM158.24 21.38h1v7.87h-1v-7.87zM161.18 23.42h.82l.08.84a4.78 4.78 0 0 1 .88-.7 2 2 0 0 1 1.07-.28 1.57 1.57 0 0 1 1.35.58 2.85 2.85 0 0 1 .43 1.7v3.7h-1V25.7a2.1 2.1 0 0 0-.25-1.2 1 1 0 0 0-.84-.37 1.44 1.44 0 0 0-.8.23 5.23 5.23 0 0 0-.78.67v4.22h-1v-5.83zM167.5 23.42h.83l.08.84a4.78 4.78 0 0 1 .9-.7 2 2 0 0 1 1.06-.28 1.57 1.57 0 0 1 1.35.58 2.85 2.85 0 0 1 .44 1.7v3.7h-1V25.7a2.1 2.1 0 0 0-.26-1.2 1 1 0 0 0-.84-.37 1.44 1.44 0 0 0-.8.23 5.23 5.23 0 0 0-.8.67v4.22h-1v-5.83zM173 26.35a3.56 3.56 0 0 1 .22-1.3 3 3 0 0 1 .6-1 2.5 2.5 0 0 1 .85-.6 2.68 2.68 0 0 1 2.05 0 2.5 2.5 0 0 1 .86.6 3 3 0 0 1 .6 1 3.58 3.58 0 0 1 .2 1.3 3.54 3.54 0 0 1-.2 1.3 2.9 2.9 0 0 1-.6 1 2.53 2.53 0 0 1-.86.58 2.68 2.68 0 0 1-2.05 0 2.53 2.53 0 0 1-.86-.6 2.9 2.9 0 0 1-.58-1 3.52 3.52 0 0 1-.22-1.28zm1 0a3.22 3.22 0 0 0 .12.9 2.13 2.13 0 0 0 .34.7 1.56 1.56 0 0 0 .53.47 1.52 1.52 0 0 0 1.36 0 1.56 1.56 0 0 0 .53-.46 2.13 2.13 0 0 0 .33-.7 3.22 3.22 0 0 0 .12-.9 3.3 3.3 0 0 0-.12-.93 2.2 2.2 0 0 0-.34-.7 1.54 1.54 0 0 0-.54-.47 1.52 1.52 0 0 0-1.37 0 1.54 1.54 0 0 0-.54.46 2.2 2.2 0 0 0-.34.7 3.3 3.3 0 0 0-.12.93zM178.94 23.42h1l1.1 3.3.27.87.28.84.26-.85.26-.87 1.1-3.3h1l-2.06 5.82H181zM184.73 27.74a1.62 1.62 0 0 1 .86-1.47 7.1 7.1 0 0 1 2.72-.7 2.75 2.75 0 0 0-.05-.55 1.3 1.3 0 0 0-.2-.47 1 1 0 0 0-.36-.33 1.2 1.2 0 0 0-.58-.13 2.35 2.35 0 0 0-1 .18 4.75 4.75 0 0 0-.8.43L185 24a6.34 6.34 0 0 1 1-.5 3.32 3.32 0 0 1 1.3-.26 1.8 1.8 0 0 1 1.55.65 2.9 2.9 0 0 1 .48 1.74v3.58h-.82l-.07-.7a4.88 4.88 0 0 1-.9.6 2.24 2.24 0 0 1-1 .24 1.78 1.78 0 0 1-1.24-.43 1.55 1.55 0 0 1-.57-1.2zm1-.07a.83.83 0 0 0 .3.72 1.2 1.2 0 0 0 .72.2 1.7 1.7 0 0 0 .8-.2 3.87 3.87 0 0 0 .8-.57V26.2a10.23 10.23 0 0 0-1.24.23 3.22 3.22 0 0 0-.8.3 1.16 1.16 0 0 0-.44.42 1 1 0 0 0-.16.52zM190.9 24.22h-.9v-.74l.9-.06.13-1.63h.83v1.62h1.57v.8h-1.57v3.24a1.5 1.5 0 0 0 .2.83.78.78 0 0 0 .7.28 1.3 1.3 0 0 0 .34 0l.32-.1.2.73-.53.16a2.45 2.45 0 0 1-.57.07 1.9 1.9 0 0 1-.8-.14 1.36 1.36 0 0 1-.5-.4 1.54 1.54 0 0 1-.3-.62 3.45 3.45 0 0 1-.07-.8v-3.26zM195.27 22.22a.7.7 0 0 1-.5-.18.63.63 0 0 1 0-.92.76.76 0 0 1 1 0 .63.63 0 0 1 0 .92.7.7 0 0 1-.5.18zm-.5 1.2h1v5.83h-1v-5.83zM196.9 26.35a3.56 3.56 0 0 1 .22-1.3 3 3 0 0 1 .6-1 2.5 2.5 0 0 1 .85-.6 2.68 2.68 0 0 1 2.05 0 2.5 2.5 0 0 1 .86.6 3 3 0 0 1 .6 1 3.58 3.58 0 0 1 .2 1.3 3.54 3.54 0 0 1-.2 1.3 2.9 2.9 0 0 1-.6 1 2.53 2.53 0 0 1-.86.58 2.68 2.68 0 0 1-2.05 0 2.53 2.53 0 0 1-.86-.6 2.9 2.9 0 0 1-.58-1 3.52 3.52 0 0 1-.22-1.28zm1 0a3.22 3.22 0 0 0 .12.9 2.13 2.13 0 0 0 .34.7 1.56 1.56 0 0 0 .53.47 1.52 1.52 0 0 0 1.36 0 1.56 1.56 0 0 0 .53-.46 2.13 2.13 0 0 0 .33-.7 3.22 3.22 0 0 0 .12-.9 3.3 3.3 0 0 0-.12-.93 2.2 2.2 0 0 0-.34-.7 1.54 1.54 0 0 0-.54-.47 1.52 1.52 0 0 0-1.37 0 1.54 1.54 0 0 0-.54.46 2.2 2.2 0 0 0-.34.7 3.3 3.3 0 0 0-.1.93zM203.46 23.42h.82l.08.84a4.78 4.78 0 0 1 .88-.7 2 2 0 0 1 1.07-.28 1.57 1.57 0 0 1 1.36.58 2.85 2.85 0 0 1 .43 1.7v3.7h-1V25.7a2.1 2.1 0 0 0-.27-1.2 1 1 0 0 0-.84-.37 1.44 1.44 0 0 0-.8.23 5.23 5.23 0 0 0-.8.67v4.22h-1v-5.83zM52.64 35.22a.7.7 0 0 1-.48-.22.63.63 0 0 1 0-.92.76.76 0 0 1 1 0 .63.63 0 0 1 0 .92.7.7 0 0 1-.52.22zm-.5 1.2h1v5.83h-1v-5.83zM54.65 36.42h.82l.08.84a4.78 4.78 0 0 1 .88-.7 2 2 0 0 1 1.07-.28 1.57 1.57 0 0 1 1.35.58 2.85 2.85 0 0 1 .43 1.7v3.7h-1V38.7a2.1 2.1 0 0 0-.26-1.2 1 1 0 0 0-.84-.37 1.44 1.44 0 0 0-.8.23 5.23 5.23 0 0 0-.8.67v4.22h-1v-5.83zM63.74 34.38h2a3.63 3.63 0 0 1 2.77 1 4.06 4.06 0 0 1 .96 2.9A5.43 5.43 0 0 1 69.2 40a3.36 3.36 0 0 1-.72 1.25 3.07 3.07 0 0 1-1.15.78 4.26 4.26 0 0 1-1.57.27h-2v-7.92zm1.9 7.06a2.54 2.54 0 0 0 2.07-.83 3.54 3.54 0 0 0 .7-2.32 3.4 3.4 0 0 0-.7-2.28 2.6 2.6 0 0 0-2.07-.8h-.9v6.25h.9zM70.3 39.35a3.52 3.52 0 0 1 .22-1.3 3 3 0 0 1 .6-1 2.54 2.54 0 0 1 .82-.6 2.35 2.35 0 0 1 1-.2 2.44 2.44 0 0 1 1 .18 1.93 1.93 0 0 1 .73.55 2.52 2.52 0 0 1 .45.86 3.8 3.8 0 0 1 .13 1.16 3.32 3.32 0 0 1 0 .54h-3.98a2.3 2.3 0 0 0 .58 1.5 1.8 1.8 0 0 0 1.36.55 2.3 2.3 0 0 0 .8-.12 3.42 3.42 0 0 0 .68-.33l.32.65a4.94 4.94 0 0 1-.85.42 3 3 0 0 1-1.07.18 2.86 2.86 0 0 1-1.1-.2 2.6 2.6 0 0 1-.9-.6 2.78 2.78 0 0 1-.58-1 3.58 3.58 0 0 1-.2-1.25zm4.08-.44a2.16 2.16 0 0 0-.38-1.37 1.28 1.28 0 0 0-1.06-.47 1.44 1.44 0 0 0-.6.13 1.65 1.65 0 0 0-.5.35 1.9 1.9 0 0 0-.38.58 2.68 2.68 0 0 0-.2.8h3.12zM75.8 36.42h1l1.1 3.3.3.88.27.85.26-.85.27-.87 1.1-3.3h1l-2.06 5.82H77.9zM81.66 39.35a3.52 3.52 0 0 1 .22-1.3 3 3 0 0 1 .6-1 2.54 2.54 0 0 1 .82-.6 2.35 2.35 0 0 1 1-.2 2.44 2.44 0 0 1 1 .18 1.93 1.93 0 0 1 .7.57 2.52 2.52 0 0 1 .45.86A3.8 3.8 0 0 1 86.6 39a3.32 3.32 0 0 1 0 .54h-3.96a2.3 2.3 0 0 0 .58 1.5 1.8 1.8 0 0 0 1.36.55 2.3 2.3 0 0 0 .77-.14 3.42 3.42 0 0 0 .65-.3l.35.64a4.94 4.94 0 0 1-.85.42 3 3 0 0 1-1.07.18 2.86 2.86 0 0 1-1.1-.2 2.6 2.6 0 0 1-.9-.6 2.78 2.78 0 0 1-.58-1 3.58 3.58 0 0 1-.2-1.25zm4.08-.44a2.16 2.16 0 0 0-.38-1.36 1.28 1.28 0 0 0-1.06-.47 1.44 1.44 0 0 0-.6.13 1.65 1.65 0 0 0-.5.36 1.9 1.9 0 0 0-.38.58 2.68 2.68 0 0 0-.2.8h3.12zM88 33.7h1v7.45a.52.52 0 0 0 .08.34.25.25 0 0 0 .2.1H89.48l.12.73a.84.84 0 0 1-.23.07h-.35a.92.92 0 0 1-.8-.34 1.68 1.68 0 0 1-.24-1V33.7zM90.5 39.35a3.56 3.56 0 0 1 .22-1.3 3 3 0 0 1 .6-1 2.5 2.5 0 0 1 .85-.6 2.68 2.68 0 0 1 2.05 0 2.5 2.5 0 0 1 .86.6 3 3 0 0 1 .6 1 3.58 3.58 0 0 1 .2 1.3 3.54 3.54 0 0 1-.2 1.3 2.9 2.9 0 0 1-.6 1 2.53 2.53 0 0 1-.86.58 2.68 2.68 0 0 1-2.05 0 2.53 2.53 0 0 1-.86-.6 2.9 2.9 0 0 1-.58-1 3.52 3.52 0 0 1-.22-1.28zm1 0a3.22 3.22 0 0 0 .12.9A2.13 2.13 0 0 0 92 41a1.56 1.56 0 0 0 .53.46 1.52 1.52 0 0 0 1.37 0 1.56 1.56 0 0 0 .52-.46 2.13 2.13 0 0 0 .34-.7 3.22 3.22 0 0 0 .12-.9 3.3 3.3 0 0 0-.12-.93 2.2 2.2 0 0 0-.34-.7 1.54 1.54 0 0 0-.53-.47 1.52 1.52 0 0 0-1.38 0 1.54 1.54 0 0 0-.53.46 2.2 2.2 0 0 0-.35.7 3.3 3.3 0 0 0-.13.9zM98 42.74v2h-1v-8.32h.82l.18.67a4.44 4.44 0 0 1 .87-.6 2.16 2.16 0 0 1 1-.23 2.26 2.26 0 0 1 1 .2 1.94 1.94 0 0 1 .72.6 2.8 2.8 0 0 1 .4.93 4.62 4.62 0 0 1 .15 1.23 4 4 0 0 1-.2 1.33 3.08 3.08 0 0 1-.55 1 2.34 2.34 0 0 1-.8.62 2.28 2.28 0 0 1-1 .2 2 2 0 0 1-.8-.17 4.08 4.08 0 0 1-.8-.48zM98 41a2.63 2.63 0 0 0 .77.47 1.93 1.93 0 0 0 .66.14 1.4 1.4 0 0 0 .67-.15 1.6 1.6 0 0 0 .53-.46 2.25 2.25 0 0 0 .35-.74 3.47 3.47 0 0 0 .13-1 4.25 4.25 0 0 0-.07-.88 2 2 0 0 0-.27-.68 1.3 1.3 0 0 0-.48-.44 1.5 1.5 0 0 0-.7-.16 1.57 1.57 0 0 0-.75.2 4.4 4.4 0 0 0-.8.6V41zM103.84 35.22a.7.7 0 0 1-.5-.18.63.63 0 0 1 0-.92.76.76 0 0 1 1 0 .63.63 0 0 1 0 .92.7.7 0 0 1-.5.18zm-.5 1.2h1v5.83h-1v-5.83zM106.14 36.42h.86v.84a4.78 4.78 0 0 1 .88-.7 2 2 0 0 1 1.07-.28 1.57 1.57 0 0 1 1.35.58 2.85 2.85 0 0 1 .43 1.7v3.7h-1V38.7a2.1 2.1 0 0 0-.26-1.2 1 1 0 0 0-.84-.37 1.44 1.44 0 0 0-.8.23 5.23 5.23 0 0 0-.8.67v4.22h-1v-5.83zM111.84 43.37a1.24 1.24 0 0 1 .23-.7 2.4 2.4 0 0 1 .62-.62 1.14 1.14 0 0 1-.38-.37 1.05 1.05 0 0 1-.15-.58 1.06 1.06 0 0 1 .2-.65 1.85 1.85 0 0 1 .43-.43 2.4 2.4 0 0 1-.52-.64 1.8 1.8 0 0 1-.23-.93 2.07 2.07 0 0 1 .17-.86 2 2 0 0 1 .47-.66 2.08 2.08 0 0 1 .7-.4 2.48 2.48 0 0 1 .84-.15 2.3 2.3 0 0 1 .45 0l.37.1h2v.75h-1.2a1.72 1.72 0 0 1 .48 1.2 2.06 2.06 0 0 1-.17.85 1.85 1.85 0 0 1-.46.64 2.07 2.07 0 0 1-.68.4 2.38 2.38 0 0 1-.83.14 1.94 1.94 0 0 1-.43-.05 2.2 2.2 0 0 1-.43-.15 1.4 1.4 0 0 0-.26.3.7.7 0 0 0-.1.4.57.57 0 0 0 .2.45 1.33 1.33 0 0 0 .83.18h1.14a2.85 2.85 0 0 1 1.53.34 1.17 1.17 0 0 1 .5 1.06 1.57 1.57 0 0 1-.2.77 2 2 0 0 1-.58.64 3.1 3.1 0 0 1-.94.45 4.32 4.32 0 0 1-1.23.16 4.4 4.4 0 0 1-1-.1 2.38 2.38 0 0 1-.76-.3 1.52 1.52 0 0 1-.47-.6 1.27 1.27 0 0 1-.16-.63zm.86-.13a.84.84 0 0 0 .45.74 2.38 2.38 0 0 0 1.24.28 2.67 2.67 0 0 0 .75-.1 2.12 2.12 0 0 0 .58-.26 1.25 1.25 0 0 0 .37-.38.83.83 0 0 0 .13-.44.58.58 0 0 0-.3-.56 1.94 1.94 0 0 0-.88-.16h-1.37a1.88 1.88 0 0 1-.4-.08 1.6 1.6 0 0 0-.45.48 1 1 0 0 0-.12.48zm1.55-3.5a1.18 1.18 0 0 0 .47-.1 1.22 1.22 0 0 0 .4-.27 1.25 1.25 0 0 0 .27-.44 1.65 1.65 0 0 0 .1-.58 1.34 1.34 0 0 0-.37-1 1.26 1.26 0 0 0-1.75 0 1.34 1.34 0 0 0-.36 1 1.67 1.67 0 0 0 .1.58 1.25 1.25 0 0 0 .27.44 1.22 1.22 0 0 0 .4.28 1.2 1.2 0 0 0 .45.1zM120.85 34.38h4.54v.84h-3.55v2.47h3v.84h-3v2.86h3.66v.85h-4.65v-7.87zM126.43 39.35a3.48 3.48 0 0 1 .23-1.3 2.92 2.92 0 0 1 .6-1 2.56 2.56 0 0 1 .9-.6 2.87 2.87 0 0 1 1.07-.2 2.17 2.17 0 0 1 1 .2 3.16 3.16 0 0 1 .7.5l-.48.64a2.8 2.8 0 0 0-.55-.38 1.37 1.37 0 0 0-.63-.14 1.66 1.66 0 0 0-.73.16 1.64 1.64 0 0 0-.58.46 2.28 2.28 0 0 0-.38.7 2.9 2.9 0 0 0-.14.93 3 3 0 0 0 .13.9 2.2 2.2 0 0 0 .37.7 1.6 1.6 0 0 0 .57.47 1.67 1.67 0 0 0 .74.16 1.65 1.65 0 0 0 .76-.17 2.75 2.75 0 0 0 .6-.42l.45.65a3.2 3.2 0 0 1-.88.55 2.6 2.6 0 0 1-1 .2 2.85 2.85 0 0 1-1.08-.2 2.43 2.43 0 0 1-.88-.6 2.8 2.8 0 0 1-.58-1 3.72 3.72 0 0 1-.2-1.23zM131.7 39.35a3.56 3.56 0 0 1 .23-1.3 3 3 0 0 1 .6-1 2.5 2.5 0 0 1 .85-.6 2.68 2.68 0 0 1 2.05 0 2.5 2.5 0 0 1 .86.6 3 3 0 0 1 .58 1 3.58 3.58 0 0 1 .22 1.3 3.54 3.54 0 0 1-.22 1.3 2.9 2.9 0 0 1-.6 1 2.53 2.53 0 0 1-.85.58 2.68 2.68 0 0 1-2.05 0 2.53 2.53 0 0 1-.86-.6 2.9 2.9 0 0 1-.6-1 3.52 3.52 0 0 1-.2-1.28zm1 0a3.22 3.22 0 0 0 .13.9 2.13 2.13 0 0 0 .34.7 1.56 1.56 0 0 0 .53.47 1.52 1.52 0 0 0 1.37 0 1.56 1.56 0 0 0 .53-.46 2.13 2.13 0 0 0 .34-.7 3.22 3.22 0 0 0 .12-.9 3.3 3.3 0 0 0-.12-.93 2.2 2.2 0 0 0-.34-.7 1.54 1.54 0 0 0-.53-.47 1.52 1.52 0 0 0-1.37 0 1.54 1.54 0 0 0-.53.46 2.2 2.2 0 0 0-.34.7 3.3 3.3 0 0 0-.1.93zM138.27 36.42h.82l.07.84a4.78 4.78 0 0 1 .88-.7 2 2 0 0 1 1.07-.28 1.57 1.57 0 0 1 1.35.58 2.85 2.85 0 0 1 .43 1.7v3.7h-1V38.7a2.1 2.1 0 0 0-.26-1.2 1 1 0 0 0-.84-.37 1.44 1.44 0 0 0-.8.23 5.23 5.23 0 0 0-.8.67v4.22h-1v-5.83zM144.06 39.35a3.56 3.56 0 0 1 .22-1.3 3 3 0 0 1 .6-1 2.5 2.5 0 0 1 .85-.6 2.68 2.68 0 0 1 2.05 0 2.5 2.5 0 0 1 .86.6 3 3 0 0 1 .6 1 3.58 3.58 0 0 1 .2 1.3 3.54 3.54 0 0 1-.2 1.3 2.9 2.9 0 0 1-.6 1 2.53 2.53 0 0 1-.86.58 2.68 2.68 0 0 1-2.05 0 2.53 2.53 0 0 1-.86-.6 2.9 2.9 0 0 1-.6-1 3.52 3.52 0 0 1-.2-1.28zm1 0a3.22 3.22 0 0 0 .12.9 2.13 2.13 0 0 0 .34.7 1.56 1.56 0 0 0 .53.47 1.52 1.52 0 0 0 1.37 0A1.56 1.56 0 0 0 148 41a2.13 2.13 0 0 0 .34-.7 3.22 3.22 0 0 0 .12-.9 3.3 3.3 0 0 0-.12-.93 2.2 2.2 0 0 0-.34-.7 1.54 1.54 0 0 0-.53-.47 1.52 1.52 0 0 0-1.37 0 1.54 1.54 0 0 0-.53.46 2.2 2.2 0 0 0-.34.7 3.3 3.3 0 0 0-.15.9zM150.62 36.42h.82l.08.84a4 4 0 0 1 .83-.7 1.8 1.8 0 0 1 1-.28 1.67 1.67 0 0 1 1 .3 1.7 1.7 0 0 1 .56.8 4.93 4.93 0 0 1 .93-.8 1.78 1.78 0 0 1 1-.3 1.57 1.57 0 0 1 1.34.57 2.8 2.8 0 0 1 .44 1.7v3.7h-1V38.7a2.1 2.1 0 0 0-.25-1.2.94.94 0 0 0-.82-.37 2.16 2.16 0 0 0-1.46.9v4.22h-1V38.7a2.08 2.08 0 0 0-.26-1.2 1 1 0 0 0-.82-.37 2.16 2.16 0 0 0-1.46.9v4.22h-1v-5.83zM160.93 35.22a.7.7 0 0 1-.5-.18.63.63 0 0 1 0-.92.76.76 0 0 1 1 0 .63.63 0 0 1 0 .92.7.7 0 0 1-.5.18zm-.5 1.2h1v5.83h-1v-5.83zM162.84 39.35a3.52 3.52 0 0 1 .22-1.3 3 3 0 0 1 .6-1 2.54 2.54 0 0 1 .82-.6 2.35 2.35 0 0 1 1-.2 2.44 2.44 0 0 1 1 .18 1.93 1.93 0 0 1 .73.55 2.52 2.52 0 0 1 .46.86 3.8 3.8 0 0 1 .16 1.13 3.32 3.32 0 0 1 0 .54h-3.94a2.3 2.3 0 0 0 .58 1.5 1.8 1.8 0 0 0 1.36.56 2.3 2.3 0 0 0 .77-.13 3.42 3.42 0 0 0 .67-.33l.35.65a4.94 4.94 0 0 1-.85.42 3 3 0 0 1-1.07.18 2.86 2.86 0 0 1-1.1-.2 2.6 2.6 0 0 1-.9-.6 2.78 2.78 0 0 1-.58-1 3.58 3.58 0 0 1-.28-1.2zm4.08-.44a2.16 2.16 0 0 0-.38-1.36 1.28 1.28 0 0 0-1.06-.47 1.44 1.44 0 0 0-.6.13 1.65 1.65 0 0 0-.5.36 1.9 1.9 0 0 0-.38.58 2.68 2.68 0 0 0-.2.8h3.12zM169.1 40.93a3.92 3.92 0 0 0 .78.5 2.13 2.13 0 0 0 .93.2 1.24 1.24 0 0 0 .87-.27.85.85 0 0 0 .3-.65.66.66 0 0 0-.13-.4 1.2 1.2 0 0 0-.3-.28 2.26 2.26 0 0 0-.44-.22l-.48-.2q-.3-.1-.62-.24a2.48 2.48 0 0 1-.56-.34 1.68 1.68 0 0 1-.4-.46 1.22 1.22 0 0 1-.16-.64 1.58 1.58 0 0 1 .14-.65 1.5 1.5 0 0 1 .4-.53 1.87 1.87 0 0 1 .63-.35 2.8 2.8 0 0 1 1.85.06 3.17 3.17 0 0 1 .8.47l-.47.62a3.13 3.13 0 0 0-.62-.37 1.72 1.72 0 0 0-.7-.14 1.12 1.12 0 0 0-.8.25.8.8 0 0 0-.27.58.6.6 0 0 0 .1.35 1 1 0 0 0 .3.26 2.34 2.34 0 0 0 .4.2l.5.18.63.25a2.4 2.4 0 0 1 .57.33 1.63 1.63 0 0 1 .4.5 1.4 1.4 0 0 1 .17.7 1.65 1.65 0 0 1-.14.66 1.6 1.6 0 0 1-.4.55 1.94 1.94 0 0 1-.68.38 2.83 2.83 0 0 1-.92.14 3.14 3.14 0 0 1-1.2-.24 3.7 3.7 0 0 1-1-.58z"/><path d="M8.62 21.13a.65.65 0 0 1 .76-.7.63.63 0 0 1 .7.66v.42l-1.45-.06v-.33zm1.2 0c0-.22-.13-.36-.5-.38a.36.36 0 0 0-.45.37v.08h1v-.1zM10.16 20l-1.43-.2v-.28l1.43.2zM9.33 18.06l-.14.57.32.08.12-.46.24.06-.12.47.36.1.14-.62.23.06-.22.88-1.4-.35.2-.83zM10.86 16.66l.24-.53.22.1L11 17l-1.35-.6.1-.26zM10.82 14.25l.85.53a.5.5 0 0 1-.52.83l-.85-.52.15-.24.77.48c.2.13.3.1.38 0s0-.22-.16-.35l-.76-.48zM12 13.18l-.36.46.27.2.3-.34.18.15L12 14l.47.38-.17.22-1.12-.9.6-.7zM13 12.1l-.25.25.83.86-.2.2-.84-.86-.26.25-.17-.18.73-.7zM14.38 10.75a.64.64 0 0 1 1 .22.63.63 0 0 1-.13.94l-.37.24-.78-1.2zm.7 1c.2-.12.23-.3 0-.62a.36.36 0 0 0-.55-.17l-.06.04.53.8zM16.45 9.9l-.53.25.15.3.44-.2.1.22-.42.2.16.33.56-.26.1.26-.8.38-.63-1.38.78-.37zM17.52 9.24a.4.4 0 0 1 .55.26.4.4 0 0 1-.1.42l.46.54-.27.1-.43-.5-.2.07.18.57-.25.1L17 9.4zm0 .62c.1 0 .3-.1.24-.26s-.24-.1-.37-.07h-.1l.1.33zM25.25 9.43l-.56-.15-.1.34.4.1V10l-.44-.1-.16.57-.27-.07.36-1.4.82.23zM26.35 9.58a.42.42 0 0 1 .25.56.4.4 0 0 1-.36.25v.7L26 11v-.66l-.2-.08-.22.56-.26-.1.54-1.35zm-.36.5c.1 0 .27.12.33 0s-.1-.24-.23-.28l-.1-.1-.13.3zM27.94 10.64l-.52-.28-.16.3.42.24-.1.22-.44-.23-.14.3.54.3-.12.2-.78-.43.67-1.27.76.42zM27.75 11.94l.8-1.2.24.17-.8 1.2zM29.48 12.14l.35-.44.22.17-.92 1.13-.2-.17.4-.5L29 12l-.4.5-.22-.2.92-1.1.2.18-.35.44zM30.9 13.1l-.4-.42-.24.24.33.35-.2.17-.33-.35-.26.24.44.45-.17.2-.62-.66 1.05-1 .6.63zM30.33 14.3l1.13-.9.17.2-1.14.9zM32.3 15l-.2-.3-1 .66-.16-.23 1-.66-.2-.3.2-.17.55.84zM32.2 17.53l-.12-.26.85-.55-1 .2-.1-.25 1.17-.83.1.25-.86.53 1-.23.12.3-.88.54 1-.22.1.25zM33.78 18.7l-.15-.57-.34.1.1.46-.23.06-.12-.48-.35.1.16.62h-.24l-.23-.87 1.4-.37.2.87zM33.68 20.08l.56-.08v.28l-1.43.2v-.3l.64-.07-.06-.45-.63.1v-.3l1.43-.18v.28l-.56.08zM34.08 21.85v-.37h-1.2v-.26h1.2v-.38h.24v1h-.24zM21.48 6.87a14.6 14.6 0 1 0 14.6 14.6 14.6 14.6 0 0 0-14.6-14.6zm0 28.85a14.24 14.24 0 1 1 14.24-14.25 14.25 14.25 0 0 1-14.24 14.25zM21.48 2.1a19.37 19.37 0 1 0 19.37 19.37A19.38 19.38 0 0 0 21.48 2.1zm0 38.43a19 19 0 1 1 19-19.05 19.05 19.05 0 0 1-19 19.04zM22.2 1.33L21.5.9l-.72.43.7.43.72-.43zM19.2 1.44l-.77-.32-.64.54.76.3.65-.52zM16.25 2l-.8-.2-.56.62.8.2.55-.62zM13.42 3l-.83-.1-.47.7.83.1.46-.7zM10.76 4.4l-.83.03-.35.77.84-.05.34-.76zM8.34 6.17l-.8.18-.25.8.82-.17.22-.8zM6.22 8.3l-.78.3-.1.82.78-.3.1-.82zM4.42 10.7l-.73.4v.84l.74-.4-.02-.84zM3 13.36l-.65.5.15.84.66-.5-.15-.84zM2.02 16.2l-.58.6.26.8.6-.6-.28-.8zM1.44 19.18l-.48.68.37.75.5-.67-.4-.75zM1.33 22.24L.95 23l.48.67.38-.75-.47-.68zM1.66 25.22l-.26.8.58.6.27-.8-.6-.6zM2.44 28.13l-.14.82.66.5.14-.8-.66-.52zM3.64 30.88l-.02.83.74.42.02-.84-.74-.4zM5.23 33.42l.12.84.78.28-.1-.83-.8-.28zM7.2 35.7l.23.8.8.17-.2-.8-.83-.17zM9.48 37.67l.34.76.84.05-.35-.76-.82-.05zM12 39.28l.47.7.83-.08-.46-.7-.83.08zM14.76 40.5l.55.62.83-.2-.56-.64-.8.2zM17.66 41.28l.65.53.78-.3-.64-.54-.78.32zM20.7 41.6l.72.45.7-.44-.7-.42-.72.43zM23.74 41.5l.77.33.65-.54-.77-.33-.64.54zM26.7 40.95l.8.2.56-.62-.82-.2-.55.62zM29.52 39.95l.84.1.46-.7-.84-.1-.46.7zM32.2 38.56l.82-.05.35-.75-.84.05-.34.76zM34.6 36.77l.82-.17.23-.8-.83.17-.22.8zM36.73 34.65l.78-.3.1-.83-.77.3-.1.83zM38.53 32.24l.74-.4-.03-.84-.73.4.03.84zM39.93 29.58l.66-.5-.15-.83-.66.5.13.83zM40.93 26.74l.58-.6-.26-.8-.58.6.27.8zM41.5 23.76l.5-.68-.4-.74-.47.68.38.74zM41.62 20.7l.37-.74-.48-.68-.38.74.48.68zM41.28 17.72l.27-.8-.58-.6-.27.8.58.6zM40.5 14.82l.15-.83-.66-.5-.16.8.67.52zM39.3 12.06l.03-.84-.74-.4-.02.85.72.4zM37.7 9.52l-.1-.83-.8-.3.12.83.8.3zM35.75 7.25l-.23-.8-.82-.18.22.8.83.18zM33.47 5.28l-.34-.76-.84-.05.33.76.84.05zM30.94 3.67l-.46-.7-.83.08.45.7.84-.08zM28.18 2.46l-.55-.63-.8.2.54.63.8-.2zM25.28 1.67l-.64-.54-.77.32.64.54.78-.33zM23.7 1.44l-.68-.5-.75.4.7.48.73-.38zM20.7 1.33l-.75-.4-.67.5.74.38.68-.47zM17.72 1.66l-.8-.26-.6.6.8.25.6-.6zM14.82 2.44L14 2.3l-.52.67.83.14.52-.66zM12.07 3.64h-.84l-.4.72.83.02.4-.74zM9.52 5.24l-.83.1-.3.8.83-.1.3-.8zM7.25 7.2l-.8.23-.18.82.8-.22.18-.83zM5.27 9.46l-.77.35-.04.85.76-.35.05-.84zM3.67 12l-.7.46.08.84.7-.45-.08-.84zM2.46 14.76l-.62.56.2.8.63-.55-.2-.8zM1.67 17.7l-.54.64.32.77.54-.63-.33-.77zM1.32 20.74l-.43.72.42.72.44-.72-.44-.72zM1.44 23.74l-.32.78.53.64.33-.78-.54-.64zM2 26.7l-.2.8.62.56.2-.82L2 26.7zM3 29.53l-.1.83.7.46.1-.84-.7-.45zM4.4 32.2l.04.82.76.35-.04-.85-.77-.33zM6.18 34.6l.16.82.8.24-.16-.83-.8-.23zM8.3 36.73l.3.8.83.1-.3-.8-.83-.1zM10.7 38.53l.42.73.83-.02-.4-.73-.84.03zM13.37 39.94l.5.66.83-.14-.5-.66-.83.14zM16.2 40.95l.6.57.8-.26-.6-.58-.8.27zM19.2 41.5l.68.5.75-.4-.68-.47-.75.38zM22.24 41.6l.75.4.67-.48-.74-.4-.7.5zM25.23 41.28l.8.27.6-.58-.8-.27-.6.58zM28.13 40.5l.82.15.5-.67-.8-.14-.52.67zM30.9 39.3l.82.02.4-.73-.83-.03-.4.73zM33.43 37.7l.83-.1.28-.8-.83.12-.27.8zM35.7 35.74l.8-.22.17-.82-.8.22-.17.82zM37.68 33.48l.76-.35.05-.83-.77.34-.05.84zM39.28 30.94l.7-.46-.08-.83-.7.45.08.84zM40.48 28.18l.63-.56-.2-.8-.62.55.2.8zM41.28 25.25l.53-.65-.3-.77-.54.65.32.77zM41.62 22.2l.43-.7-.43-.72-.43.7.42.72zM41.5 19.2l.33-.77-.54-.64-.33.76.54.64zM40.95 16.25l.2-.8-.62-.56-.2.8.62.55zM39.95 13.42l.1-.83-.72-.47-.07.83.7.46zM38.55 10.76l-.04-.83-.75-.35.04.84.75.34zM36.77 8.35l-.17-.82-.8-.23.17.82.8.23zM34.65 6.22l-.3-.8-.83-.1.3.8.83.1zM32.24 4.42l-.4-.73H31l.4.74.84-.02zM29.6 3l-.53-.65-.82.13.5.67.84-.14zM26.74 2l-.6-.58-.8.27.6.57.8-.27zM0 21.47A21.47 21.47 0 1 0 21.48 0 21.5 21.5 0 0 0 0 21.47zm.56 0A20.9 20.9 0 1 1 21.48 42.4 20.94 20.94 0 0 1 .56 21.46zM6.1 25.95a.18.18 0 0 0 .12-.23 2.12 2.12 0 0 0-.1-.4.5.5 0 0 0-.27-.23.86.86 0 0 0-.26 0V25h.57c.07.27.13.53.2.8s.15.5.23.77h-.1a.2.2 0 0 0-.28-.16l-1.66.47a.18.18 0 0 0-.12.27h-.1c0-.16-.07-.32-.12-.48s-.1-.3-.14-.44h.1v.07c0 .1.07.2.23.14zM6 24.8a.18.18 0 0 0-.22-.18l-1.73.27c-.18 0-.17.13-.15.24h-.1c0-.18-.07-.5-.1-.75s-.1-.58-.14-.8c.15 0 .36-.04.5-.07v.08a.34.34 0 0 0-.33.45l.07.42.87-.13V24c0-.18-.16-.2-.34-.2v-.1l.4-.05.36-.08v.1c-.2.05-.33.08-.3.3l.05.36.77-.12c.2 0 .2-.2.16-.4-.06-.37-.1-.52-.5-.55v-.1h.54c0 .2.07.55.1.82s.1.63.15.8zM5.5 22.38a.18.18 0 0 0 .17-.2 1.77 1.77 0 0 0 0-.4.44.44 0 0 0-.2-.28.68.68 0 0 0-.24-.08v-.1a5.58 5.58 0 0 1 .57.1c0 .26 0 .53 0 .8s0 .53 0 .8h-.06a.2.2 0 0 0-.23-.2l-1.7.06a.18.18 0 0 0-.18.24h-.1c0-.16 0-.32 0-.5s0-.3 0-.45h.1v.07c0 .13 0 .22.18.2zM6.4 17.06L6.1 17l-1.48-.34c-.4-.1-.38-.23-.36-.36h-.1c0 .13 0 .25-.07.37S4 16.87 4 17h.1v-.07a.26.26 0 0 1 .36-.2l1.22.3-1.93.97c0 .1 0 .18-.05.27s-.06.23-.1.34h.1a.28.28 0 0 1 .36-.2l1.4.32a.35.35 0 0 1 .36.28s0 .13 0 .13a.2.2 0 0 1-.15.2l-.35.08-1.8.43h-.08a1.26 1.26 0 0 1 .12.3 2.6 2.6 0 0 1 .4.14l1.5.73a.28.28 0 0 1 .2.28h.1a3.1 3.1 0 0 1 0-.33c0-.12 0-.24 0-.37H5.7c0 .1 0 .22-.12.22a1.56 1.56 0 0 1-.26-.1L5 20.6v-.68l.4-.08a1.18 1.18 0 0 1 .23 0c.08 0 .1.13.08.2h.1c0-.16 0-.3 0-.46s0-.4 0-.4 0-.27.08-.4.07-.26.1-.4h-.1v.07c-.05.23-.16.26-.44.2l-1.38-.32 2.22-1.12zm-1.6 3.48l-.92-.36 1-.2zM6.38 16.75a.18.18 0 0 0-.1-.28l-1.62-.65a.18.18 0 0 0-.26.14h-.1c0-.1.12-.27.2-.45s.12-.33.17-.45a1.1 1.1 0 0 1 1.53-.7 1.12 1.12 0 0 1 .67 1.48c-.05.12-.14.32-.22.52s-.15.4-.17.48zm0-.73c.22.1.28 0 .36-.2a.87.87 0 0 0-.63-1.1.9.9 0 0 0-1.35.43c0 .07 0 .14-.06.2zM6.74 12a.42.42 0 0 0-.55.1.36.36 0 0 0 .15.53c.48.3.8-.6 1.5-.17a.7.7 0 0 1 .22 1 1 1 0 0 1-.38.34l-.48-.22v-.08a.52.52 0 0 0 .7-.13.37.37 0 0 0-.13-.52c-.5-.3-.8.56-1.5.15a.64.64 0 0 1-.23-.94c.05-.08.2-.28.28-.36a3 3 0 0 0 .43.22zM6.9 11.16c-.14.18-.1.23.07.4l-.05.08-.2-.2-.22-.18v-.06a.15.15 0 0 0 .2-.1l1-1.25c0-.06.1-.13 0-.2h.04L8 9.8l.18.2v.1a.26.26 0 0 0-.4 0l-.3.4 1.4 1.07c.2.16.3.1.4 0l.07.07c-.07.1-.2.25-.32.4l-.3.4-.1-.05v-.06c.1-.13.15-.2-.06-.37l-1.36-1.2zM12.6 8.58a2.42 2.42 0 0 1-.22-.25l-.94-1.2c-.24-.3-.15-.42 0-.5l-.06-.08-.3.25-.35.2.07.1a.27.27 0 0 1 .4.08l.78 1-2.06-.52-.2.18-.3.16.06.12a.3.3 0 0 1 .4.06l.87 1.1c.25.2.25.38.1.5a.2.2 0 0 1-.25.07l-.32-.15-1.66-.8h-.08a1.64 1.64 0 0 1-.1.3 2.63 2.63 0 0 1 .23.37l.7 1.43a.28.28 0 0 1 0 .35l.1.07a2.4 2.4 0 0 1 .2-.26l.25-.27-.07-.07c-.12.12-.22.17-.3.17a1.7 1.7 0 0 1-.13-.24l-.18-.3.48-.5.36.17a1.13 1.13 0 0 1 .22.12c.06.06 0 .15-.06.2l.07.07.32-.35.28-.28c.1-.1.2-.2.3-.28s.23-.15.33-.24l-.1-.08c-.18.15-.28.1-.46-.13l-.9-1.05 2.44.54zm-3.46 1.66l-.5-.86.9.44zM12.72 6.93l.37-.22c.12-.07.1-.18 0-.33h.07c.06.1.1.2.18.32a3.1 3.1 0 0 0 .25.3h-.08c-.1-.16-.2-.26-.38-.16l-.33.2.44.76c.1.16.22.1.35 0l.04.1-.46.25-.4.25v-.1a.18.18 0 0 0 .12-.3L12 6.5a.18.18 0 0 0-.3-.05l-.04-.1c.16-.1.44-.23.66-.36l.68-.4a4.5 4.5 0 0 0 .27.43l-.07.07c-.2-.2-.3-.3-.5-.18l-.43.25zM14.32 4.9a1.12 1.12 0 0 1 1.54.58 1.2 1.2 0 0 1-.56 1.64 1.14 1.14 0 0 1-1.53-.65 1.17 1.17 0 0 1 .55-1.58zm1 2.07a.84.84 0 0 0 .22-1.25A1 1 0 0 0 14.37 5a.8.8 0 0 0-.26 1.16 1 1 0 0 0 1.17.84zM20.45 4.62a1.14 1.14 0 0 0-1.36-1l-.5.08h-.5v.1a.18.18 0 0 1 .26.16l.2 1.77a.18.18 0 0 1-.18.22.34.34 0 0 1-.38-.1l-.7-.73a.62.62 0 0 0 .26-.68.6.6 0 0 0-.86-.38l-.47.15-.47.12v.1h.06c.1 0 .2 0 .27.2l.44 1.67a.2.2 0 0 1-.16.22h-.02v.1l.43-.14.5-.13v-.1h-.06c-.13 0-.25.06-.3-.18l-.2-.73.2-.05a9.9 9.9 0 0 0 .9.9l.28-.08.27-.06.5-.06.56-.06a1.12 1.12 0 0 0 1-1.32zm-3.6.57h-.14l-.25-1 .17-.07a.44.44 0 0 1 .56.35.43.43 0 0 1-.33.72zm2.52.6c-.22 0-.32 0-.35-.2l-.23-1.84h.2a.9.9 0 0 1 1 1 .87.87 0 0 1-.63 1.06zM22 3.7c0-.17-.13-.17-.26-.18v-.1h.97v.1a.18.18 0 0 0-.23.17l-.07 2a.76.76 0 0 1-.67.78.3.3 0 0 1-.36-.3.2.2 0 0 1 .07-.18 1.47 1.47 0 0 1 .3.33c.1 0 .12-.16.12-.25zM23.14 3.85c0-.24-.08-.27-.2-.28v-.1l.48.08.43.05v.1c-.12 0-.25 0-.28.2l-.2 1.16a.58.58 0 0 0 .48.8.6.6 0 0 0 .68-.66l.15-1.14c0-.24-.08-.26-.18-.27h-.06v-.1l.36.06h.36v.1h-.06c-.1 0-.2 0-.23.22l-.16 1.1a.8.8 0 0 1-1 .83.76.76 0 0 1-.78-1zM26.85 6l.35-1.2a.27.27 0 0 0-.2-.37v-.1l.4.14.37.1v.08h-.06c-.1 0-.26-.05-.37.33l-.43 1.44a1.8 1.8 0 0 0-.08.33h-.1l-1-2.3-.37 1.3c-.08.28-.06.4.17.46v.1l-.38-.13-.4-.1v-.1c.2.07.3-.06.4-.32l.46-1.32a.28.28 0 0 0-.18-.33v-.1l.32.1H26zM27.13 6.73a.18.18 0 0 0 .3-.1l.7-1.63a.18.18 0 0 0-.13-.26v-.1l.42.2.44.16v.1a.18.18 0 0 0-.28.1l-.77 1.6a.18.18 0 0 0 .15.28v.1L27.5 7l-.4-.16zM30.1 5.6a1.12 1.12 0 0 1 .5 1.57 1.18 1.18 0 0 1-1.6.57 1.13 1.13 0 0 1-.44-1.6 1.2 1.2 0 0 1 1.55-.54zm-1.05 2a.84.84 0 0 0 1.13-.6.94.94 0 0 0-.18-1.27.8.8 0 0 0-1 .5 1 1 0 0 0 .06 1.4zM31.37 6.82c.14-.2 0-.28 0-.34l.06-.08.37.3c.14.1.28.2.4.28a.6.6 0 0 1 .25.9.6.6 0 0 1-.7.22l-.07 1a.33.33 0 0 0 .12.34l-.06.08-.32-.22-.24-.16a10.2 10.2 0 0 1 .13-1.25l-.15-.13-.42.57c-.16.2-.07.28 0 .37l-.06.1-.4-.34-.27-.22v-.08a.2.2 0 0 0 .28 0zm-.14.86l.12.1A.43.43 0 0 0 32 7.6a.44.44 0 0 0 0-.6 1.06 1.06 0 0 0-.15-.1zM33.9 8.86c.17-.16.1-.25 0-.34l.1-.1c.1.1.2.24.32.38l.32.33-.07.07a.2.2 0 0 0-.34 0l-.85.78a.6.6 0 0 0-.13.92.6.6 0 0 0 .93-.07L35 10c.18-.16.1-.25 0-.33v-.1c.08.1.16.2.24.28l.25.25-.1.07c-.05-.06-.13-.14-.3 0l-.8.72a.8.8 0 0 1-1.27.04.76.76 0 0 1 0-1.24zM35.44 12.92l1-.7a.26.26 0 0 0 .1-.4v-.06l.1-.06c.07.12.14.24.22.36l.22.3-.08.07c-.07-.1-.18-.2-.5 0l-1.26.86a2.24 2.24 0 0 0-.27.2l-.07-.1.7-2.4-1.15.78c-.24.16-.3.26-.16.46l-.1.05c-.04-.1-.1-.2-.2-.3s-.17-.22-.25-.34l.08-.05c.12.2.28.15.5 0l1.17-.78a.3.3 0 0 0 .1-.4l.07-.06c.07.1.13.2.2.3s.1.15.16.22zM35.22 13.66a.2.2 0 0 0 .28.1l1.56-.76a.18.18 0 0 0 .05-.3h.1c.05.12.13.3.2.42s.17.3.24.42h-.08a.18.18 0 0 0-.28-.1l-1.55.82a.18.18 0 0 0-.06.3h-.1c-.06-.14-.13-.3-.2-.44l-.23-.4zM38 14.5v-.07c0-.1-.1-.13-.15-.1l-.1.06-1.16 1.04 1.4-.07a.54.54 0 0 0 .2 0c.08 0 .05-.13 0-.22v-.05h.1c0 .1.06.2.1.33s.1.17.13.25h-.1a.17.17 0 0 0-.16-.1l-1.95.07h-.36v-.1L37.6 14a.23.23 0 0 0 .07-.3h.1c.06.14.1.3.17.43l.2.42zM36.5 16.42a.18.18 0 0 0 .23.16l1.7-.46a.18.18 0 0 0 .1-.27h.1c0 .18.12.5.2.74s.16.54.2.74a4.53 4.53 0 0 0-.48.15v-.1a.33.33 0 0 0 .28-.46l-.1-.4-.85.22.1.35c0 .2.17.2.34.16v.1l-.38.1-.36.1v-.08c.18-.07.3-.12.25-.33l-.1-.35-.8.2c-.22.06-.18.23-.12.42.1.36.18.5.57.5V18h-.54c-.05-.2-.13-.53-.2-.8s-.2-.6-.24-.78zM38.87 18.15c.24 0 .23-.16.22-.25v-.06h.08c0 .1 0 .3.06.47s.06.34.1.5a.6.6 0 0 1-.5.8.62.62 0 0 1-.63-.33l-.76.64a.34.34 0 0 0-.16.34h-.1c0-.1 0-.2 0-.3s0-.2-.05-.3a10 10 0 0 1 1-.78v-.2l-.7.1c-.26 0-.25.15-.24.3v.05H37c0-.16 0-.34-.07-.5s-.05-.3-.07-.45H37v.06a.2.2 0 0 0 .22.2zm-.7.5v.15a.44.44 0 0 0 .58.4.44.44 0 0 0 .4-.52.92.92 0 0 0 0-.16zM39 21.37a.43.43 0 0 0 .45-.37.37.37 0 0 0-.45-.38c-.56 0-.36.94-1.16 1a.7.7 0 0 1-.73-.73 1.1 1.1 0 0 1 .15-.5l.5-.07v.1a.5.5 0 0 0-.5.48.37.37 0 0 0 .4.38c.58 0 .36-.92 1.16-.95a.65.65 0 0 1 .72.66c0 .07 0 .34 0 .43h-.5zM37.3 21.7a.18.18 0 0 0 .2.24l1.73.07a.18.18 0 0 0 .2-.2h.1c0 .1 0 .3 0 .44s0 .34 0 .5h-.1a.2.2 0 0 0-.2-.25l-1.74-.08a.18.18 0 0 0-.2.2h-.13c0-.14 0-.32 0-.47s0-.34 0-.45h.13zM39.3 23.28c0-.23 0-.25-.27-.33v-.08l.27.07a1.5 1.5 0 0 0 .28.06v.08c-.1 0-.1.08-.12.17l-.22 1.57c0 .08 0 .16.08.18v.07L39 25h-.27v-.1a.27.27 0 0 0 .35-.18l.07-.5-1.76-.24c-.26 0-.3.06-.33.2v.02h-.1c0-.12.06-.33.08-.5s0-.4.06-.5h.1v.05c0 .17 0 .25.26.3l1.76.23zM37.74 25.72l1-.35a.36.36 0 0 0 .3-.23h.1c0 .16-.1.3-.14.46s-.07.3-.1.44h-.1c0-.1 0-.16 0-.17a.3.3 0 0 0-.12 0l-.8.26.48.53a.57.57 0 0 0 .18.15c.06 0 .1-.1.12-.14v-.05h.1c0 .12-.08.23-.1.34s0 .2-.08.28h-.1a.3.3 0 0 0-.08-.27l-.7-.78-.7-.24c-.27-.08-.3 0-.36.16v.05h-.1c0-.17.1-.35.15-.47s.06-.33.1-.5h.1c-.04.18 0 .26.2.32zM19.3 39c0 .2.1.2.26.22h.07v.1l-.5-.08-.57-.06v-.1h.06c.13 0 .3 0 .3-.14l.23-1.66-.44.15v-.1l.45-.2.35-.13h.08zM20.4 38.34a.7.7 0 0 1-.3-.62.63.63 0 0 1 .67-.62.53.53 0 0 1 .54.56.67.67 0 0 1-.44.55.7.7 0 0 1 .42.66.65.65 0 0 1-.7.63.57.57 0 0 1-.2-1.16zm.36-.2a.64.64 0 0 0 .24-.5.4.4 0 0 0-.33-.45.36.36 0 0 0-.34.34.65.65 0 0 0 .43.6zm-.2 1.2a.34.34 0 0 0 .36-.34.74.74 0 0 0-.46-.6.6.6 0 0 0-.28.5.4.4 0 0 0 .4.45zM22.7 38.15a.53.53 0 0 1-.44.3.56.56 0 0 1-.56-.6.73.73 0 0 1 .7-.8.8.8 0 0 1 .76.87 1.7 1.7 0 0 1-1.35 1.6l-.04-.1a1.4 1.4 0 0 0 1-1.46c0-.25-.14-.8-.46-.77a.35.35 0 0 0-.3.42.53.53 0 0 0 .43.55.36.36 0 0 0 .22-.1v.08zM24.5 38.9c0 .18.15.16.3.14h.07v.1l-.52.07-.55.1v-.1h.07c.13 0 .27-.04.25-.22l-.26-1.68-.38.27-.06-.08.36-.32c.12-.12.24-.23.3-.3h.1zM35 32s0 .9 0 .9l-.5-.77-.78.3.52-.68-.43-.75.78.3.53-.68s-.1.83-.1.88l.85.28zM33.14 34l-.14.9-.36-.83-.83.16.64-.6-.37-.74.7.4.64-.58-.2.82.8.46zM31 35.72s-.24.85-.24.85-.2-.83-.22-.86h-.85l.7-.47s-.24-.8-.24-.8l.6.57.72-.48-.34.77.7.53zM7.88 32.1s0 .88 0 .88l.5-.75.78.3-.56-.7.5-.66-.78.3-.53-.7s.07.8.08.85L7 31.9zM9.75 34.12s.1.88.1.88l.36-.82.8.17-.63-.6s.37-.73.37-.73l-.72.42-.63-.6s.2.8.2.83l-.78.4zM11.9 35.84l.27.86s.2-.83.22-.87h.83l-.7-.47s.24-.8.24-.8l-.64.53-.72-.5s.34.74.36.78l-.76.55zM11.45 27.8a.08.08 0 0 1 0 .08l-.1.06a.06.06 0 0 1-.1 0 .06.06 0 0 1 0-.1h.12a.06.06 0 0 1 .08-.05zm18.2 3.57a1.33 1.33 0 0 0-.44.18c-.08.07 0 .18 0 .16a3.54 3.54 0 0 0 .47-.25.06.06 0 0 0 0-.07zm-5.75-3.14c.06 0 .1-.07.07-.1a.1.1 0 0 0-.13 0c-.24.18-.43.26-.66.44a4.2 4.2 0 0 1-.66.6c0 .14.13.13.22 0s.35-.38.4-.42c.2-.2.32-.22.54-.4zm-1.13.1l.12-.04.1-.08s0-.14-.1-.1h-.07l-.1.07s0 0 0 .05a.08.08 0 0 0 .05.1zm-.34 0l-.08.07h-.05l-.1.06s0 0 0 .07a.08.08 0 0 0 .1 0h.2c.08-.1.02-.2-.06-.14zM24.9 28a.07.07 0 0 0-.1 0c-.2.13-.4.26-.58.4a2 2 0 0 0-.27.25 1.08 1.08 0 0 1-.22.26.08.08 0 0 0-.06.1.05.05 0 0 0 .08 0 1.3 1.3 0 0 0 .36-.37 5 5 0 0 1 .76-.55.1.1 0 0 0 .04-.08zm-1.32 1.1a.26.26 0 0 0-.2.2.6.6 0 0 1-.12.15.08.08 0 0 0 0 .1 0 0 0 0 0 .07 0 .6.6 0 0 0 .16-.22.26.26 0 0 1 .07-.1.07.07 0 0 0 .08-.07.06.06 0 0 0-.07-.03zm1.8-.74a1.7 1.7 0 0 0-.33.17.46.46 0 0 0-.18.23.06.06 0 0 0 .08 0 .22.22 0 0 0 .12-.1l.05-.07h.1a.25.25 0 0 0 .2-.16.07.07 0 0 0-.06-.05zm-.74.64h-.08l-.1.05s0 0 0 .07a.08.08 0 0 0 .1 0l.12-.06h.05s0 0 0-.06a.1.1 0 0 0-.1 0zm1.2-.14a.3.3 0 0 0-.2.12l-.04.02a.07.07 0 0 0 0 .1 0 0 0 0 0 .08 0l.07-.07a.43.43 0 0 1 .1-.08.06.06 0 0 0 .06-.07.07.07 0 0 0-.06-.04zm0 1.67a.28.28 0 0 0 .16-.12v-.04l.1-.05a.07.07 0 0 0 .08-.05.06.06 0 0 0 0-.07.32.32 0 0 0-.2.06l-.1.1a.2.2 0 0 1-.06.05.05.05 0 0 0 0 .06.06.06 0 0 0 .05.06zm9.44-9a13.84 13.84 0 1 1-13.8-13.9A13.85 13.85 0 0 1 35.3 21.47zm-16.38 10a.23.23 0 0 1 0-.07 5.3 5.3 0 0 1-.74-.18 5.5 5.5 0 0 1-1.78-.33 1 1 0 0 1-.8-.28 1.85 1.85 0 0 0-.58-.18c-.58-.55-1.3.14-2-.16a3.33 3.33 0 0 1-.55-.08 2.33 2.33 0 0 1-.88-.12.67.67 0 0 0-.58.07c.12.16.25.32.4.47a1 1 0 0 1 .3-.18c.14 0-.07.16-.17.24.25.27.5.52.78.77a3.72 3.72 0 0 1 .43-.23.9.9 0 0 1 .4-.2.06.06 0 0 1 0 .06 1.25 1.25 0 0 1-.4.28 1.5 1.5 0 0 0-.3.14h-.06a12.13 12.13 0 0 0 .94.77c.23-.18.47-.34.7-.52a1.7 1.7 0 0 1 .36-.28l.43-.17s.04 0 .06 0a1.24 1.24 0 0 1-.47.28c-.18.1-.34.22-.5.33a3.4 3.4 0 0 0-.36.28l-.14.13c.2.15.4.3.6.43h.27a1.33 1.33 0 0 1 1-.15c.34-.24.75-.08 1.07-.35a12.3 12.3 0 0 0 1.34-.17c.3-.27.75-.23 1.06-.48a.58.58 0 0 0 .2-.1zM20.2 30a3.55 3.55 0 0 0-.42-.1h-.18c-.07 0-.1 0-.18 0h-.16a.86.86 0 0 1-.2 0 .8.8 0 0 1-.14-.07h-.14a.1.1 0 0 0-.07-.05h-.32a.9.9 0 0 1-.1-.06h-.18a2.64 2.64 0 0 0-.45-.1 1.06 1.06 0 0 1-.28-.1 1.42 1.42 0 0 0-.17 0 .35.35 0 0 0-.13 0H17a.72.72 0 0 1-.14-.05l-.22-.1c-.33 0-.75-.3-1.06-.3-.85 0-1.26-.86-2.06-1-.57-.16-1-.52-1.6-.63a1.43 1.43 0 0 0-1.07.06 4.33 4.33 0 0 1-1 .28.64.64 0 0 1-.4.22c.08.2.2.37.3.55a9.1 9.1 0 0 1 1.25-.62s.1.05 0 .1c-.4.16-.78.3-1.18.45.12.2.24.4.38.6a3.9 3.9 0 0 1 .46-.34 2.12 2.12 0 0 0 1-.4.06.06 0 0 1 .07-.06.07.07 0 0 1 .06.07c0 .3-.87.4-1.08.5a3.3 3.3 0 0 0-.43.3h-.06l.37.5a4.4 4.4 0 0 1 .62-.42 3 3 0 0 0 1.2-.73.06.06 0 0 1 .06-.05.06.06 0 0 1 .06.07c-.05.36-1.18.78-1.45.93s-.3.2-.42.3l.18.25a1 1 0 0 1 .8-.07.47.47 0 0 1 .3.15 5.4 5.4 0 0 1 1.1-1 .05.05 0 0 1 0 .08c0 .06-.8.77-1 1a5.9 5.9 0 0 0 1.3.08l.64-.73a.06.06 0 0 1 .08 0 .07.07 0 0 1 .05.08 6.18 6.18 0 0 1-.5.66 2.9 2.9 0 0 0 .33-.06.7.7 0 0 1 .76.07l.35-.4a.08.08 0 0 1 .08 0 .07.07 0 0 1 0 .07 2.73 2.73 0 0 1-.36.44 2.07 2.07 0 0 1 1 .3l.26-.37a.08.08 0 0 1 .08 0 .05.05 0 0 1 0 .06 2.08 2.08 0 0 1-.3.43 1.9 1.9 0 0 0 .55.1 3.14 3.14 0 0 0 1.16.26c.16 0 .94.16 1.1.2a.66.66 0 0 0 .18.06 4.56 4.56 0 0 1 .4-.5 3 3 0 0 1 .54-.26.44.44 0 0 0 .42-.66zm-2.9-1.5l-.56.42A.63.63 0 0 1 17 29a7.64 7.64 0 0 0 1.78-.5 2.67 2.67 0 0 0 .7-.18 7.92 7.92 0 0 1-1.8-.9 4.58 4.58 0 0 0-1.57-.2h-.2a2.53 2.53 0 0 0-.36.07 1.38 1.38 0 0 1-.26.05 3.12 3.12 0 0 1-.3.07l-.2.07c-.23.2-.64.06-.87.28a.2.2 0 0 0 .17.2.57.57 0 0 1 .2 0 1.78 1.78 0 0 0 .25-.12c.1 0 .57-.15.68-.2a.56.56 0 0 1 .34-.13 0 0 0 0 1 0 .06 0 0 0 0 1-.06 0 5.22 5.22 0 0 0-.77.26 2.7 2.7 0 0 0-.43.2l.1.04.15.1.07.07a.2.2 0 0 1 0 .1l.18.1a7 7 0 0 1 .92-.7.05.05 0 0 1 .06 0 .06.06 0 0 1 0 .08 5.67 5.67 0 0 0-.86.64h.18l.1.04c.08 0 .13.08.2.1a4.94 4.94 0 0 1 .83-.74 0 0 0 0 1 0 .06 4.37 4.37 0 0 1-.7.7l.1.05h.07a.55.55 0 0 0 .23.08v-.05l.08-.07.36-.32a0 0 0 0 1 .06 0s-.35.33-.36.34l-.06.05.18.06h.18a.16.16 0 0 1 0-.07l.62-.45H17s.4.16.3.24zm3.08 0v-.35a4.63 4.63 0 0 1-.7.2 6.4 6.4 0 0 0-1.07.36 13.05 13.05 0 0 1-1.53.47h.15a1.2 1.2 0 0 0 .2.07.92.92 0 0 1 .2 0h.14a1.68 1.68 0 0 1 .44-.18c.24-.1.5-.18.74-.27l.48-.2a.8.8 0 0 1 .4-.12.06.06 0 0 1 .06.07.06.06 0 0 1-.08 0 1.2 1.2 0 0 0-.4.16l-.53.2-.83.32a.78.78 0 0 1 .2.05h.27l.17-.07A2.4 2.4 0 0 0 19 29a1.1 1.1 0 0 1 .35-.15.67.67 0 0 0 .26-.1h.05a.06.06 0 0 1 .1 0 .07.07 0 0 1 0 .1h-.06a1 1 0 0 1-.3.1 1.16 1.16 0 0 0-.37.15l-.17.13-.17.07h.73a1.72 1.72 0 0 0 .35-.28c.07-.07.2 0 .12.07l-.24.2a2.1 2.1 0 0 1 .32 0 .3.3 0 0 0 .1-.14.06.06 0 0 1 .1 0 .07.07 0 0 1 0 .1.47.47 0 0 1-.08.12h.08a3.73 3.73 0 0 0 .18-.84zm2.16 1.8a3.37 3.37 0 0 1 .46.06h.12a1.56 1.56 0 0 0 .57-.15 1.82 1.82 0 0 1 .68-.16 3.55 3.55 0 0 0 .62-.1s.12 0 .07.07a.13.13 0 0 1 0 .07 2.57 2.57 0 0 1-.38.13c-.22 0-.42 0-.62.1a2.2 2.2 0 0 1-.53.18l.26.05h.13a2.1 2.1 0 0 0 .48 0 3.6 3.6 0 0 0 .55-.2c.12-.05.26-.06.38-.1a.67.67 0 0 1 .32-.13.07.07 0 0 1 0 .08 1 1 0 0 1-.4.17l-.25.1c-.2.07-.36.16-.55.2h.24l.4.07a.35.35 0 0 0 .14-.05.45.45 0 0 1 .28-.08.07.07 0 0 1 .05.06.07.07 0 0 1-.08.05.24.24 0 0 0-.14 0h.55a1.12 1.12 0 0 1 .33-.2.07.07 0 0 1 .06 0 .2.2 0 0 1-.15.15h.3l.1-.06a.24.24 0 0 1 .15 0 .07.07 0 0 1 0 .07.1.1 0 0 1-.07.06H27a1.56 1.56 0 0 0 1.18-.36c.4-.1.85-.18 1.24-.32a.57.57 0 0 0 .28-.1 2.86 2.86 0 0 1-.93-.1 1.1 1.1 0 0 1-.77 0c-.34 0-.68-.13-1.06-.12a6 6 0 0 0-.75-.1 1.65 1.65 0 0 0-.67-.2.57.57 0 0 0-.36-.14c-.05 0-.07.05-.17.1s-.4.25-.5.28-.6.08-.7.1-.45.1-.56.14c-.44.14-.35 0-.93.22h-.12a.3.3 0 0 0 .28.12zm9.73-.58l-.63.07a8.2 8.2 0 0 1-.85.1 5 5 0 0 1-1.54.44 4.63 4.63 0 0 0-.95.26 10.2 10.2 0 0 1-1.1.52 2.9 2.9 0 0 1-.5.18.93.93 0 0 0-.63.18h-.13a2.27 2.27 0 0 0 .3-.2 3.88 3.88 0 0 0 1.12-.28 4.53 4.53 0 0 0-.86 0c-.75-.16-1.54 0-2.3-.18a5.35 5.35 0 0 0-.76-.16c-.12 0-.24-.1-.36-.1a2.43 2.43 0 0 0-.33 0 1.73 1.73 0 0 0 .33.25 1.1 1.1 0 0 0 .72.63.6.6 0 0 1 .28.26h.13c.27-.06.57 0 .83-.07a3.72 3.72 0 0 1 .8-.1.1.1 0 0 1 0 .06 11.54 11.54 0 0 1-1.53.22h-.17a3.4 3.4 0 0 0 .36.42 1.24 1.24 0 0 0 .34 0 .84.84 0 0 0 .6.1l.08-.06a.8.8 0 0 1 .36-.14 1.32 1.32 0 0 0 .26-.1.07.07 0 0 1 .1 0 .06.06 0 0 1 0 .08h-.06a.94.94 0 0 1-.3.12.82.82 0 0 0-.27.1.58.58 0 0 1 .12.1 2.56 2.56 0 0 1 .73.2c.17-.14.36-.3.5-.4a3.85 3.85 0 0 1 .93-.54s0 .06 0 .08-.57.38-.84.56l-.4.3a2.9 2.9 0 0 1 .86.32 7.72 7.72 0 0 1 .92-.94 5.55 5.55 0 0 1 .45-.32c.12-.07.2.08 0 .16a4.76 4.76 0 0 0-.52.37 5.38 5.38 0 0 0-.78.78 1.4 1.4 0 0 0 .77.14 13.67 13.67 0 0 0 3.93-3.37zm.58-.72a1.5 1.5 0 0 0-.3 0 3 3 0 0 0-.84-.33 3.53 3.53 0 0 1-.4-.1c-.35 0-.6-.4-1-.4a6.3 6.3 0 0 0-1.82-.65.8.8 0 0 0-.73-.06 1.53 1.53 0 0 0-.76.4l.15.1h.53a.26.26 0 0 0 .18-.07 0 0 0 0 1 0 .05.38.38 0 0 1-.2.07h-.1L27.5 28h-.14l.34.16h.06A.24.24 0 0 1 28 28a.3.3 0 0 0 .24-.12 0 0 0 0 1 .07 0 0 0 0 0 1 0 .06.37.37 0 0 1-.3.16.16.16 0 0 0-.13 0 2.6 2.6 0 0 1 .34.12.06.06 0 0 1 0-.07l.1-.05a.35.35 0 0 1 .17-.08.06.06 0 0 1 .06 0 .06.06 0 0 1-.05.05.4.4 0 0 0-.12.06l-.1.06h.25a.07.07 0 0 1 0-.06.12.12 0 0 0 .1-.06.18.18 0 0 1 .17-.08 0 0 0 0 1 0 .06 0 0 0 0 1-.06 0 .17.17 0 0 0-.07.05.16.16 0 0 1-.07.08 3.22 3.22 0 0 0 .57.1 3.84 3.84 0 0 1 1 .24 2.9 2.9 0 0 1-1.05-.07 1.2 1.2 0 0 1-.33-.08 9.94 9.94 0 0 0-1-.18c-.46-.18-.9-.4-1.4-.54a4.53 4.53 0 0 0-.68-.12c-.44.07-.63-.43-1.1-.3l-.47.04A10 10 0 0 1 22 28a2.63 2.63 0 0 0 0 .64 2.3 2.3 0 0 1 .06.55c0 .18 0 .3 0 .4a.24.24 0 0 0 0 .12c0 .1.06.2.07.3a.8.8 0 0 0 .28 0 3.22 3.22 0 0 1 .5-.1c.17 0 .34-.08.47-.1s.37-.1.5-.13.42-.13.5-.14a1.23 1.23 0 0 0 .3-.1l.5-.18a1 1 0 0 1 .6.13 3.56 3.56 0 0 1 .78.22 7.2 7.2 0 0 1 1.4.12 4.76 4.76 0 0 0 .9.2c.47.13 1 0 1.4.12.57-.43 1.44-.25 2.1-.38h.06c.15-.27.3-.48.45-.68zm-1.28-.5l.43.06a1.15 1.15 0 0 1 .27-.12h.1l.07-.05-.06.05h-.1l-.22.1h.1a.62.62 0 0 0 .3.14h.47l.25-.4.15-.28-.23-.02c-.18 0-.3-.08-.4-.1l-.32-.1c-.12 0-.26.07-.42 0a2.3 2.3 0 0 0-.65.2 2.2 2.2 0 0 0-.23.1.9.9 0 0 0-.36 0 2.35 2.35 0 0 0 .74.3.83.83 0 0 0 .18-.12 2.18 2.18 0 0 1 .26-.16.84.84 0 0 1 .2-.1c.08 0 .13 0 .1 0a1.62 1.62 0 0 1-.2.1l-.27.14zm1.92-.6a13.63 13.63 0 1 0-25.66-6.43 13.47 13.47 0 0 0 1.52 6.26.78.78 0 0 0 .32-.25 2.34 2.34 0 0 0 .93-.3 3.17 3.17 0 0 1 .64-.18c.18.16.43-.06.6.1.28-.06.4.2.67.14a2.88 2.88 0 0 0 1 .5 1.13 1.13 0 0 1 1-.3 1.72 1.72 0 0 1 .68-.27.87.87 0 0 1 .25 0l.4-.05a1.27 1.27 0 0 1 .38-.12h.4a1.4 1.4 0 0 0 .23 0c.56-.08 2.14 1 2.8 1.2a6.2 6.2 0 0 1 .77-.2v-.8l-.07-.1a.4.4 0 0 1 0-.3c-.1-.27.26-.55 0-.77.1-.3.07-.65.17-1a4.1 4.1 0 0 1-.05-1 1.25 1.25 0 0 0 0-.34c0-.14 0-.27 0-.4-.27 0-.24.23-.4.34s-.2-.13-.27-.23a.42.42 0 0 1 .22-.33c.44-.12.15-.7.27-1h-.2a5.22 5.22 0 0 0-.08.88 1.33 1.33 0 0 0-.4.3.78.78 0 0 0-.16.6 2.8 2.8 0 0 1-.38.88.16.16 0 0 1-.26 0c0-.06-.07-.1 0-.15a.14.14 0 0 0 0-.1c-.24 0-.4.48-.7.3a.23.23 0 0 0 .06.24 2.16 2.16 0 0 0 .1.5h.06v.3a.34.34 0 0 0-.07.12.5.5 0 0 1-.52.1c-.13 0-.12.25-.26.3a.44.44 0 0 0-.22-.13v.17c-.05.05-.1.22-.24.16v-.1c-.15-.13 0-.25 0-.45s.18-.24.2-.4a2.36 2.36 0 0 0-.25-.3c.15-.38.66-.33.8-.68 0-.15.1-.2 0-.34a8.47 8.47 0 0 0 .64-.76c-.14-.54.56-.7.67-1.15a5.25 5.25 0 0 1 .75-.35.57.57 0 0 0 .3-.36 2.73 2.73 0 0 0 .13-.53.55.55 0 0 0 .14-.53c0-.18.23-.2.2-.38a.73.73 0 0 0-.2-.2.66.66 0 0 1 0-.37.35.35 0 0 0-.1-.33.23.23 0 0 0-.17 0c-.14.1 0 .2.1.25a.85.85 0 0 1-.13.65c.12.4-.37.46-.45.76a.12.12 0 0 1-.2-.12.9.9 0 0 1 .13-.76h-.03a.8.8 0 0 0-.26.58c-.3.26 0 .66-.34.87a2.86 2.86 0 0 1-.52-.08c-.2 0 0-.4-.24-.28a.77.77 0 0 0 0 .4.5.5 0 0 1-.4.22c-.18-.1-.07-.24-.13-.4a2.4 2.4 0 0 0-.22.22c-.18-.13-.2 0-.36.08s.05-.15 0-.25a.1.1 0 0 0-.1 0c-.26 0-.17.3-.23.46a.57.57 0 0 1-.28.15.33.33 0 0 0 0 .27c.1.25-.2.23-.3.35a2.5 2.5 0 0 0-.42.35 1.56 1.56 0 0 0-.2.34c-.25.06-.34.6-.67.36s.13-.5.25-.74a1.1 1.1 0 0 1 .3-1.12c.45-.1.4-.67.8-.75a1.18 1.18 0 0 1 .78-.6 2.74 2.74 0 0 1 .97-.04 1.52 1.52 0 0 0 .84-.3 1.43 1.43 0 0 1 .66-.57 2 2 0 0 0 .66-.86 1.16 1.16 0 0 0 .52-1 .1.1 0 0 0-.12-.06.7.7 0 0 0-.12.5 1.68 1.68 0 0 0-.3.45.33.33 0 0 0-.35 0c-.2-.17-.27.1-.44.15a.45.45 0 0 1-.1-.12 2.1 2.1 0 0 1-.58.27c-.16.24.27.18.18.43-.13.07-.14.34-.33.26 0-.13-.1-.33-.3-.25a1 1 0 0 0 .18.33.32.32 0 0 1-.23 0c-.24.1 0 .25 0 .35A.27.27 0 0 1 18 20a.85.85 0 0 1-.07-.78.82.82 0 0 0 .2-.3c.07-.58.8-.74 1.08-1.16a4.2 4.2 0 0 0 1.12-1.15 2.53 2.53 0 0 1 .3-.53c-.6-.27-.54.7-1.2.63a4.12 4.12 0 0 1-.76.32.24.24 0 0 1-.3-.1c-.2-.1-.34.16-.5.22 0 .24-.45.17-.26.48a.47.47 0 0 1-.36.23c-.38-.27.22-.47 0-.77a1.14 1.14 0 0 1 .76-.6 1.77 1.77 0 0 1-.48-.07c-.07-.3.27-.35.45-.47.4.1.6-.48 1-.24a1 1 0 0 0 .54-.3c-.06-.15-.16.1-.23 0 .26-.57 1-.5 1.36-1a2.12 2.12 0 0 0 .1-.23v-.04a1.73 1.73 0 0 1 .13-.3.87.87 0 0 1 .14-.4.16.16 0 0 0-.14 0 1.46 1.46 0 0 1-.52.33c-.17-.1.12-.18 0-.28h-.14a.3.3 0 0 1-.2.32.58.58 0 0 1 0-.23.87.87 0 0 0 .18-.36.82.82 0 0 0-.33.37.73.73 0 0 1 0 .4l-.58.53c-.34-.06-.27.33-.48.46s-.28.4-.45.1a.2.2 0 0 1 0-.12 2.5 2.5 0 0 1 .2-.65.37.37 0 0 1 .2-.13.82.82 0 0 0 .56-.66.4.4 0 0 1 .4-.15 1.15 1.15 0 0 0-.2.5c.35.12.22-.34.4-.5a.57.57 0 0 0-.2-.06.1.1 0 0 0 0-.12.13.13 0 0 0-.24-.18c-.4.1-.34.62-.76.66a1.52 1.52 0 0 1-.4-.23 1 1 0 0 1 .2-.55 2.38 2.38 0 0 1 1.1-.5c.08-.1.24 0 .22-.2a.88.88 0 0 1 .7-.43.7.7 0 0 0 .48-.66c-.2-.3-.27.16-.5.1s-.22-.2-.27-.2-.12-.1-.15-.18a.22.22 0 0 0-.26.15c.05.28-.3.14-.4.34-.13 0-.27.4-.43.12a3.9 3.9 0 0 1-.44.37.34.34 0 0 1-.17 0 .38.38 0 0 1-.13-.36 1.68 1.68 0 0 1 .73-.9c.9-.42 2.18-.87 2.2-2a.3.3 0 0 1 .33-.16.58.58 0 0 1 .08.3.75.75 0 0 0 .12.38 2.3 2.3 0 0 0 .63 1 3.5 3.5 0 0 1 1.36.82 1.3 1.3 0 0 0 .2.6c0 .3-.34.1-.48.17a2.1 2.1 0 0 1-.38-.4l-.17.2a.57.57 0 0 1-.34-.45 5.94 5.94 0 0 0-.7-.62c0 .32.63.42.5.75a1.13 1.13 0 0 1-.5-.43.28.28 0 0 0-.34.1.52.52 0 0 0 .24.53.94.94 0 0 0 .52.44c.27.23.66.16.93.37a2.17 2.17 0 0 1 1.38.35.8.8 0 0 1 .43.14.62.62 0 0 1 .18.54c-.12.06-.13.24-.3.2a.32.32 0 0 1-.18-.28c-.25-.15-.25.16-.43.2-.4-.06-.33-.6-.74-.62a1.08 1.08 0 0 0 .2.38c-.08.18-.27 0-.4.1s-.6.07-.66-.27a2.06 2.06 0 0 1-.58-.63.37.37 0 0 0-.38-.2.9.9 0 0 0 .32.33.15.15 0 0 1-.13.2 1.13 1.13 0 0 0 .25.52 7 7 0 0 0 1.52 1 2.42 2.42 0 0 1 1 .38 2.84 2.84 0 0 1 1.88 1.16.6.6 0 0 1-.1.53.23.23 0 0 1-.3 0 .4.4 0 0 1 0-.22.26.26 0 0 0-.1-.08.9.9 0 0 1-.7-.12c0-.4-.25 0-.4-.18a.47.47 0 0 1-.23.34c-.26.12-.3-.2-.45-.32 0-.1.1-.2 0-.3a3.5 3.5 0 0 1-.53 0 .18.18 0 0 1-.07-.32.64.64 0 0 1-.5-.46c-.2-.1-.17.1-.23.2a2.37 2.37 0 0 0-.62-.27 1 1 0 0 1-.32-.9c-.22-.15 0-.32-.2-.48-.3.13-.2-.33-.38-.28a3.8 3.8 0 0 1 0 .62c-.06 0 0-.1 0-.14h-.1c-.13 0 0 .18-.07.28a1.27 1.27 0 0 0-.15.5c.17.18.17-.12.26-.15l.06.18a.34.34 0 0 0 .12-.1 3.14 3.14 0 0 1 .16-.8.7.7 0 0 1 .07.46 2.4 2.4 0 0 0 .1.6 1.4 1.4 0 0 0-.07.7.64.64 0 0 1 .2.33c.07.1.1.27.3.22s.05-.13.18-.1.74.27.64.64c0 .13-.14.16-.2.14a.64.64 0 0 1 0-.27h-.1c-.05.2-.2 0-.32 0a.22.22 0 0 0-.15.2.6.6 0 0 0 .12.08c.26 0 .4.22.67.2a1 1 0 0 0 .85.27c.3.2.78-.1 1 .26a1.5 1.5 0 0 1 .56.24c.27.32.8.26.8.77a.37.37 0 0 1-.2.46.24.24 0 0 1-.16-.26c-.16-.5-.7 0-.88-.45-.15 0-.4-.07-.45.1a2 2 0 0 1-.47-.26.52.52 0 0 1-.26.2c0 .3-.4 0-.43.28a.24.24 0 0 1-.16 0 .7.7 0 0 1-.1-.4.83.83 0 0 0-.43-.27c-.24.26-.3-.2-.46-.25a1.8 1.8 0 0 1-.47-.23.53.53 0 0 0 0 .23.3.3 0 0 1 0 .34 1.23 1.23 0 0 0 .15.76.74.74 0 0 1 .23.44c.1.1 0 .33.27.28a.8.8 0 0 0 .45.3c.2.48.74-.08 1 .3a.4.4 0 0 0-.22 0 .4.4 0 0 0 .26.24.43.43 0 0 0 0-.23 1.77 1.77 0 0 1 .12.15c.12.1 0 .26-.07.34s-.17-.22-.3-.26a.15.15 0 0 0-.13.2.6.6 0 0 0 .55.2.4.4 0 0 0 .18.24 2.45 2.45 0 0 1 .67.42.4.4 0 0 1 .12.38c-.08.3-.35 0-.5.1a1.8 1.8 0 0 1-.4-.23.4.4 0 0 1 .06-.4c0 .08.07.06.13.06a.2.2 0 0 0 0-.1c-.1-.07 0-.2-.23-.17s-.06.13-.07.18a1.1 1.1 0 0 1-.38 0 .63.63 0 0 0-.05.37 2.6 2.6 0 0 0-.33.17c.12.4.52-.06.77.1a7.22 7.22 0 0 1 .83.3 2.8 2.8 0 0 0 .83.4.6.6 0 0 1 .54.4 1.2 1.2 0 0 1 .62.8c.1.12 0 .17-.1.26-.08-.08 0-.06 0-.14a.63.63 0 0 0-.5.08.3.3 0 0 1-.33-.1 6.8 6.8 0 0 0-.35-.9c-.07-.1-.15-.28-.3-.2a.22.22 0 0 0 .1.2c0 .08.18.18 0 .27s-.06 0-.08 0a.14.14 0 0 0-.16-.1.35.35 0 0 1-.12.38 1.12 1.12 0 0 1-.42-.37 1.57 1.57 0 0 0-.54.42.44.44 0 0 1-.36-.1 1.54 1.54 0 0 1 .2-.54 1.32 1.32 0 0 0-.85-.9c.1.4.67.54.57 1h-.08a.52.52 0 0 0-.28-.36.82.82 0 0 1 0 .25h-.02a1.35 1.35 0 0 0-.34-.13c-.18 0-.3-.18-.47-.13.18.53.9.55 1.22 1a.17.17 0 0 1 .2.1 2.5 2.5 0 0 1 .77.23 2.4 2.4 0 0 0 .43.43.74.74 0 0 0 .18.5 1.32 1.32 0 0 1-.2 1.2.56.56 0 0 1-.3-.1.55.55 0 0 0-.44-.3c-.24-.4.13 0 .25-.17a1.53 1.53 0 0 1-.05-.8c-.1.26-.2-.06-.33 0a.47.47 0 0 1-.45-.16.28.28 0 0 1 0-.25c0-.12-.2 0-.28-.07a1.1 1.1 0 0 1-.07.3.2.2 0 0 1-.12-.22c-.06 0-.1-.13-.17-.08a.1.1 0 0 0-.15.08 1.37 1.37 0 0 0 .68.58c0 .26.34.33.38.58a1.67 1.67 0 0 1 .22.44c.1.22-.2.27-.1.43a.64.64 0 0 1-.14.32 3.46 3.46 0 0 1-.54 0c-.12-.28.2-.26.17-.5h-.2v-.05c.25-.15-.06-.28-.1-.43a.1.1 0 0 0 0-.16.8.8 0 0 0-.3.28 1.72 1.72 0 0 1-.45-.08c-.16-.2.18-.23.25-.38a1.2 1.2 0 0 1-.1-.5c-.15.17-.3-.1-.45-.22-.1.25-.24-.08-.35 0a4 4 0 0 1-.1 1.12 3.32 3.32 0 0 1 .2 1.22c0 .1 0 .35 0 .47v.34a.74.74 0 0 0-.1.57 3.32 3.32 0 0 0 .74-.1c.7-.13 1-.36 1.7-.4h.4a1.94 1.94 0 0 0 .6.24 2.06 2.06 0 0 1 .92.2.6.6 0 0 0 .42 0 3.65 3.65 0 0 1 1.22-.5 1.16 1.16 0 0 1 .82.16 5 5 0 0 0 1 .35 1.4 1.4 0 0 0 .6.28 1.36 1.36 0 0 0 .25-.08 2.26 2.26 0 0 0 .35 0 2.57 2.57 0 0 1 .8-.3 1.07 1.07 0 0 1 .44-.08 1 1 0 0 1 .3.06l.2.1a.8.8 0 0 1 .28 0 1.4 1.4 0 0 1 .45.16zM22.4 23zm-.27 3.78v-.4c0 .1 0 .34 0 .46zm-.15 2.9s0-.04 0-.12a.24.24 0 0 0 0 .13zm0 0zm3-4.54c.13 0 0-.14.08-.23s0-.27-.17-.3c0 .17.06.36 0 .54h.1zm.2 0c.07 0 0-.07.08-.12a.1.1 0 0 0-.13-.02c-.1 0-.02.14.03.18zm0-.52h.06a.16.16 0 0 0 0-.2 3.16 3.16 0 0 0-.26-.35 2.6 2.6 0 0 1-.27-.33.1.1 0 0 0-.2.1.93.93 0 0 0 .34.38c.03.12.4.24.26.44zm-.6-.74c0-.1-.32-.2-.28 0a.28.28 0 0 0 .23.15zm-.17-.36v-.03a.25.25 0 0 0-.28-.12v.06a.35.35 0 0 0 .2.12zm-.6-.2l-.1.1a.82.82 0 0 0 .4.24.76.76 0 0 0-.38-.3zm3-.33a.4.4 0 0 0 0-.33c-.1-.07-.28-.2-.3 0s0 .4.2.33zm-.53-.26h.07v-.02a.06.06 0 0 0-.15.06zm0 .23a1.54 1.54 0 0 1 .12.18.15.15 0 0 0 0-.15c.03-.14-.22-.12-.22 0zm-.28-.3s.1.1.16.06a.64.64 0 0 0-.23-.57 2.73 2.73 0 0 0-.04.53zm-1.3-.55a.5.5 0 0 0-.47-.26v.07c.32.1.1.54.44.54a.3.3 0 0 0-.08-.32zM25 22a.77.77 0 0 0-.1.4.43.43 0 0 0 .22.1c.2-.06 0-.23.07-.36A.2.2 0 0 0 25 22zm-.9-.5a.27.27 0 0 0 .2.2 1.32 1.32 0 0 1 .5.6 1.05 1.05 0 0 0 .05-.1 4 4 0 0 1-.18-.43.5.5 0 0 0-.57-.24zm.2.92c-.25-.16-.14.17-.3.25a.37.37 0 0 0 .13.1.4.4 0 0 0 .17-.3zm.43-1.62l.12.34a.14.14 0 0 0 .15 0 .42.42 0 0 0-.26-.3zM26 17.77a.78.78 0 0 0 .23.32 2.3 2.3 0 0 0 0-.3c-.04-.1-.23-.15-.23-.03zm-.7-.4a.56.56 0 0 0 .37.2.22.22 0 0 0 .07-.08.77.77 0 0 0-.43-.22v.1zm-.54-.17a.7.7 0 0 0 .4.13.24.24 0 0 0-.16-.16 1.6 1.6 0 0 1-.4-.1zm-.76-.26v.15c.28.13.32.62.7.54a1.27 1.27 0 0 0-.7-.7zm-.3.2c.06.12 0 .32.17.32a.16.16 0 0 0 .13-.17c0-.13-.18-.3-.28-.15zm-.15.47a.12.12 0 0 0 .1 0s0-.05 0-.1-.16-.02-.07.1zm0-.27a.14.14 0 0 0 .07-.16.4.4 0 0 0-.26-.3c-.17.15.12.24.07.4a.13.13 0 0 0 .17.07zm-.4-.18v.1a1.3 1.3 0 0 0 .23.4c.3-.1-.06-.25 0-.4s-.1-.1-.2-.1zm-.28-.56c-.13.13.13.26.13.4h-.08c0 .05 0 .1 0 .14a.1.1 0 0 0 .12-.05c-.13-.2.25-.15.17-.37a.43.43 0 0 0-.28-.14zm-.27-.83a.23.23 0 0 0-.24 0h.05a.15.15 0 0 0 .25 0zm3.4-.07a.24.24 0 0 0 .26 0l-.34-.34a.17.17 0 0 0-.12 0 .7.7 0 0 0 .2.34zm-.62-.46a.16.16 0 0 0 .17.16.48.48 0 0 0 0-.32 1.15 1.15 0 0 0-.55-.38 2 2 0 0 1 .38.54zm-.1 0A.3.3 0 0 0 25 15c-.12.1.05.12.07.2s.18.13.22 0zM23.95 15c.06 0 .06.1.18 0s.1 0 .08-.07-.2-.1-.26.07zm-.53-.74l.08.07c.3 0 .23.37.53.35a2.63 2.63 0 0 0 .48.46c.18.17-.08.6.2.65a1.37 1.37 0 0 0 0-.57 1.27 1.27 0 0 1-.28-.43 3.22 3.22 0 0 1 .34.1.34.34 0 0 0-.2-.32 5.17 5.17 0 0 0-1.13-.35zm.2.36c-.2 0-.2-.3-.38-.15a1.63 1.63 0 0 1 .17.32c.06.1.2 0 .27 0s-.05-.14-.07-.2zm-.78-.62a.63.63 0 0 0 .26.13.06.06 0 0 0 .08-.06c-.07-.07-.27-.18-.34-.07zm-.82-.64a2.17 2.17 0 0 0 .1.6.13.13 0 0 0 .13 0s0-.08 0-.1 0-.12.1-.08a.74.74 0 0 0 .2.48.34.34 0 0 0 .28 0 1.73 1.73 0 0 1-.2-.56.63.63 0 0 0-.6-.34zm3-.3s0-.1 0-.13-.23-.25-.3-.16c.2.08.07.23.3.3zm-.7-.5a.4.4 0 0 0-.38-.17v.07a.6.6 0 0 0 .35.1zm0 .5c.08 0 0-.13 0-.2s-.34-.24-.44 0a.5.5 0 0 0 .4.14zm-.94-.64a.7.7 0 0 0 .3-.06.2.2 0 0 0-.32.06zm-.2.46a.2.2 0 0 0 .25 0v-.16a.18.18 0 0 0-.2-.12zm-1.38-1.13A.58.58 0 0 0 22 12c.17.2.43.3.6.48s.16.46.4.38a1.4 1.4 0 0 0-1-.9c.16-.26-.14-.35-.24-.2zm1.9-.32v-.2h-.13c0 .08 0 .24.12.2zm-.25-.07a.34.34 0 0 0-.24-.2v.06c.06 0 .07.2.2.14zm.1-.35a.44.44 0 0 0-.2-.24 1.15 1.15 0 0 0-.43-.23c-.03.36.44.23.6.47zm-.7.24c.06 0 .06-.1.06-.15a.14.14 0 0 0-.2-.1c.04.1-.03.23.1.24zm-.1-.48a.2.2 0 0 0 0-.16 1.1 1.1 0 0 0-.4-.28v.08c.2.06.17.3.38.36zm-4.2.76zm.42-.37a.37.37 0 0 0-.26.25.06.06 0 0 0 .06 0c.05-.06.24-.14.18-.25zm0-.28a.46.46 0 0 0-.43.34h.1a1 1 0 0 0 .38-.32zm.68-.4a.7.7 0 0 0-.4.17.66.66 0 0 0 .4-.15zm-.27.63c-.1-.33.4-.1.36-.4a1.5 1.5 0 0 0-.48.17 1.7 1.7 0 0 1-.05.3.15.15 0 0 0 .16-.06zm.78-.8c-.07-.13-.17 0-.24.06s-.08.1 0 .14zm.3.3c0-.1 0-.23-.13-.22a.25.25 0 0 0-.06.3c.1.08.15 0 .2-.08zm-2.1 4.32a.17.17 0 0 0 .1-.1.12.12 0 0 0-.1 0s-.02.1.02.1zm.18-.43c0 .05-.1.17 0 .22a.23.23 0 0 0 .2-.14.67.67 0 0 0 .28-.35c-.27-.17-.3.16-.47.27zm.76-.42l-.07-.15a.12.12 0 0 0-.06.15.1.1 0 0 0 .15 0zm-1.52 2.12h-.1c0 .07.1.02.1 0zm-.5 1.46a.2.2 0 0 0 .23-.1.25.25 0 0 0-.23-.1c0 .1-.14.12-.02.2zm.2-.5a.17.17 0 0 0 .12-.16.16.16 0 0 0-.14 0 .1.1 0 0 0 0 .14h.07zm.4-.22a.25.25 0 0 0 .27-.16c-.08-.06-.26-.13-.3 0s-.04.13.02.16zm.25-.65c.07 0 .18-.07.14-.14s-.2 0-.27 0 .03.13.13.13zm.32.1c-.06 0-.17-.07-.14 0a.22.22 0 0 0 .13 0zm0-.24h.07a.08.08 0 0 0 0-.08.1.1 0 0 0-.1.08zm-.14 2.6v.12l.12-.1a.15.15 0 0 0-.13 0zm.44-.35a.15.15 0 0 0 .06.14.27.27 0 0 0 .24-.2c-.1-.1-.24-.02-.3.08zm.63-.17c0 .06.1 0 .17 0a.4.4 0 0 0 .07-.4c-.33-.15-.25.25-.26.4zm.43.1a1 1 0 0 0 .14-.65c-.07 0 0-.18-.14-.13s0 .1-.07.13a1.2 1.2 0 0 1-.04.63zm.2-.9a.4.4 0 0 0 .1.33.2.2 0 0 0 .1-.2.18.18 0 0 0-.18-.1zm.18.77a.17.17 0 0 0 .08-.2.12.12 0 0 0-.14 0 .3.3 0 0 0 0 .23h.1zm.2-1.16c-.06 0 0-.2-.12-.16a.55.55 0 0 0 0 .53h.1zm-4 4.5l-.1-.07-.07.17c0 .07.1 0 .1-.07zm-.22.23c-.2-.13-.2.13-.28.22.14.1.22-.1.24-.22zm-.88 1.9a.2.2 0 0 0 .07-.22.15.15 0 0 0-.15 0 .17.17 0 0 0-.1.2c0 .05.08.02.14.03zm.16-.9a.1.1 0 0 0 .05-.13c0-.1-.18 0-.2 0s.02.16.1.14zm0 .2a.26.26 0 0 0 0 .27c.13 0 .1-.14.17-.2a.12.12 0 0 0-.26-.04zm.58-.26c0-.05-.05-.06-.07-.1s-.07.1-.07.16a.13.13 0 0 0 .14-.05zm-.3.1a0 0 0 0 1 .04 0v-.42a.14.14 0 0 1 0-.13.4.4 0 0 1 0 .23 1 1 0 0 0 .28.15c.05-.1 0-.22.08-.32v.13a.16.16 0 0 0 .16-.07c.06-.05 0-.1 0-.14a.17.17 0 0 0-.2.1.33.33 0 0 1-.06-.12c-.1-.08-.17 0-.24.07l-.05-.07c-.2 0-.25.23-.32.36a1.3 1.3 0 0 1 .27.24zm.7-.9a.8.8 0 0 0 .36-.64c-.37-.1-.2.36-.4.5-.05.04-.07.12 0 .12zm.44-.9a.48.48 0 0 0 .3-.28.67.67 0 0 0-.33.16.13.13 0 0 0 .04.12zm.8.2a.13.13 0 0 0 .08-.13s-.08 0-.1 0-.04.18.03.18zm-.26-.4c-.07 0-.16.13-.12.16.27.08.27-.3.6-.2a2.3 2.3 0 0 0-.47.08zm.43.76a.14.14 0 1 0 .08-.22.28.28 0 0 0-.07.26zM18 21c0 .08-.17.16 0 .18a.12.12 0 0 0 .1-.13C18.05 21 18 21 18 21zm.18-.28s-.12.1-.07.16a1.08 1.08 0 0 0 .2-.13.14.14 0 0 0-.15.02zm.3.44a.22.22 0 0 0 .2-.07c.06 0-.07.14.04.2a.2.2 0 0 0 .2 0 1.1 1.1 0 0 1-.08-.4h-.07c-.1 0-.1.1-.13.16V21a.25.25 0 0 1 0-.14c-.08-.1-.23 0-.24.1a.33.33 0 0 0 .06.25zm.52-.8a.2.2 0 0 0 .14-.17c0-.1-.1 0-.14-.1s-.1.14-.12.2a.1.1 0 0 0 .12.05zm0 .64v.26a.1.1 0 0 0 0-.12c.1-.14 0-.14 0-.14zm.22-.42c.1-.17-.18-.17-.22 0s0 .07 0 .08a.17.17 0 0 0 .17-.08zm.4-.78a.35.35 0 0 0 .3-.2.18.18 0 0 0-.15-.08.24.24 0 0 0-.2.28zm.38.53c0-.18.15-.45-.1-.53 0 .07-.16.1-.12.2.3.15-.06.4-.07.56h.08a.37.37 0 0 1 .22-.23zM17.22 26a.26.26 0 0 0 .17-.35c-.2 0-.26.17-.3.3a.1.1 0 0 0 .12.05zm0-.7h.12a.25.25 0 0 0 .16-.22.23.23 0 0 1-.12 0c-.1 0-.23.1-.18.2zm.28.6a.07.07 0 0 0 .07 0c.05 0 .12-.05.07-.1s-.08.05-.15.1zm.28-.7a.15.15 0 0 0-.2 0c-.07.14.06.13.13.16a.1.1 0 0 0 .07-.17zm.36.58a.14.14 0 0 0-.14-.1.15.15 0 0 0-.15.13.17.17 0 0 0 .28-.04zm-.07-.57s0-.14-.14-.1v.23H18a.1.1 0 0 0 .06-.14zm-.17-.58a.1.1 0 0 0 .1 0c-.13-.25.25-.3.3-.48 0 0 0 0-.07 0a.6.6 0 0 0-.34.46zm.55-.4c-.07.12-.24.15-.17.26a.48.48 0 0 0 .26-.23s-.07-.04-.1-.04zm.15-.22v-.35h-.12l-.04.35c.05 0 .08.08.16 0zm.1-.94c-.13 0-.15.1-.17.2h.05c.06 0 .18-.04.13-.16zm.3.16a.9.9 0 0 1 0-.44l-.17.16a7.48 7.48 0 0 0-.15 1 .45.45 0 0 1 .1.4c-.05-.15.15-.23 0-.35a2.1 2.1 0 0 1 .22-.7s-.06-.1 0-.08zm.07 0H19a1.55 1.55 0 0 1 0 .5.08.08 0 0 1 .08 0 .75.75 0 0 0 0-.5zm.08.64a.35.35 0 0 0-.16.35c0 .1.12 0 .15 0s.23-.28 0-.32zm.13-.48v-.08h-.06s0 .12.07.1zm.18-.38a2.45 2.45 0 0 1 .33-.27.2.2 0 0 0 0-.2.18.18 0 0 0-.13.04c-.13-.13.13-.17.07-.34a.32.32 0 0 0-.26.3 3.5 3.5 0 0 1-.15.57zm.54.5a.16.16 0 0 0 .07-.1c0-.1-.24-.1-.23 0s.1.13.16.1zm5.55 9.5a1.4 1.4 0 0 0 .24-.2.2.2 0 0 0-.22-.15c.03.1-.04.23-.03.35zm-.13-.33a.38.38 0 0 0-.27-.14v.28a.44.44 0 0 1-.24.34.07.07 0 0 0 0 .07.36.36 0 0 0 .48-.2c-.17-.1.14-.2.04-.36zm-.6.3a.34.34 0 0 0 .18-.2c.1-.23-.15-.33-.3-.27a.3.3 0 0 1 .14.24.1.1 0 0 1-.1 0c-.07 0-.13-.16-.2-.07a.6.6 0 0 0 .28.26zm-.4-.42a.4.4 0 0 0-.2-.3l-.04.08a.24.24 0 0 0 .25.2zm.24.73a.73.73 0 0 0-.32-.5 1.37 1.37 0 0 0-.45-.36s-.1.06-.08.12a2.07 2.07 0 0 1 .7.8.1.1 0 0 0 .14-.1zm-6.35-.16a.56.56 0 0 0 .48 0 1.06 1.06 0 0 1 .76-.52 3.1 3.1 0 0 1 1.06-.36.36.36 0 0 0-.1-.32.9.9 0 0 0-.15.2c-.07-.12-.16-.12-.13-.23l-.1.1c0 .32-.32.13-.4.37-.4.35-1 .24-1.43.64 0 0-.03.1 0 .08zm.84-.6a1.86 1.86 0 0 0-.73.1 1.66 1.66 0 0 0-.52.4h.23a2.55 2.55 0 0 1 1.04-.55zm1.1-1.13h-.17a3.46 3.46 0 0 1-.3.7h.17c.2 0 0-.22.16-.33-.1-.27.18-.25.14-.42zm-.48.4c0-.15.14-.25.12-.4a2.47 2.47 0 0 0-.53 1s0 .06.1.04a.2.2 0 0 0 .16-.2c-.13-.2.15-.2.12-.35a0 0 0 0 1 .04-.13zm1.73-8.53h.07a3.77 3.77 0 0 0 0-.63c-.17 0-.1.24-.14.34s.07.15.06.25zm.2 6.35a4.56 4.56 0 0 0 0-1.8.72.72 0 0 0-.16.22 4.06 4.06 0 0 1 0-.7l-.1-.08a.7.7 0 0 0 0 .26c-.17.24 0 .55-.17.75a1.42 1.42 0 0 1 0-.52 3.75 3.75 0 0 1 .27-.94.8.8 0 0 1 0-.47c0-.1.1-.4-.12-.4-.06.15.08.34-.13.4.1-.34-.2-.86.14-1.15a3.78 3.78 0 0 0 0 .47.38.38 0 0 0 .16-.16 1.44 1.44 0 0 0 0 .38.9.9 0 0 0 .18-.56h-.06a.24.24 0 0 1-.12.16 2 2 0 0 0 .25-1.48h-.13a1.44 1.44 0 0 1-.07.5 1.4 1.4 0 0 1 0-.7.14.14 0 0 0-.16.14 2.16 2.16 0 0 1-.15.73.44.44 0 0 1-.2.24v.85a3.12 3.12 0 0 1 0-1.2 2 2 0 0 0 .1-1.1.83.83 0 0 0 .16.4c.32-.32-.2-.54 0-.9a1 1 0 0 0-.1-.2.6.6 0 0 0-.1.44c0 .07.14.12 0 .2s-.1-.1-.16 0 .05.26-.1.3a.3.3 0 0 0-.1.32.7.7 0 0 0-.1.4s0 .15.13.1a2.7 2.7 0 0 0 .13-.73.93.93 0 0 1 .1.5 1.83 1.83 0 0 0-.2 1.23.4.4 0 0 0 0 .33c-.22.17.3.48-.15.56 0 0 0 .08 0 .1a.14.14 0 0 0 .13-.1c0 .08 0 .2 0 .3a2.38 2.38 0 0 1-.12.32 1 1 0 0 1-.1.23h.14a.68.68 0 0 0 .1-.15 3.17 3.17 0 0 0 0 .78 4.8 4.8 0 0 0-.23.5c0 .06-.06.2.07.2a6 6 0 0 1 .4-.8 2.82 2.82 0 0 0-.1 1c.3 0 0-.3.22-.4v.06a.4.4 0 0 1 0 .2c0 .3.1.75.08 1.1a1.18 1.18 0 0 0 .15-.83 2.07 2.07 0 0 1 .1.76.14.14 0 0 0 .1-.12zm-1-1.84a.12.12 0 0 0-.15-.05v.14h.05a.17.17 0 0 0 .07-.12zm.23-6.52c-.08-.1-.15 0-.2.08a.12.12 0 0 0 .13 0s.08-.06.05-.12zm-.24 1h.1v-.06h-.1v.06zm.3.3a.23.23 0 0 0 0-.2l-.12.07a.28.28 0 0 0 0 .18.1.1 0 0 0 .12-.03zM20.94 21a.7.7 0 0 0 .2-.5.23.23 0 0 0-.13 0c.06.23-.1.35-.06.5zm-.12-3.1h-.05a.07.07 0 0 0 .05 0zm0-.6a.13.13 0 0 0-.05.13h.1a.08.08 0 0 0-.03-.14zm-.1 1.63h.08a1.67 1.67 0 0 0 0-.74h-.03a1.2 1.2 0 0 0-.03.73zm.17-1.27a.08.08 0 0 0-.06 0h.05zm0 1.42h.1V19a1.56 1.56 0 0 0 .06-.9c-.3.12-.12.67-.06.98zm.1.3a.1.1 0 0 0-.06.13c0 .08.07.08.12.08a.15.15 0 0 0 0-.14.1.1 0 0 0 .02-.05zm.37-2.3a.4.4 0 0 0 .1.48.1.1 0 0 0 .1-.13.6.6 0 0 1 0-.46l-.07-.14c-.1-.02.05.17-.06.26zm.23 6.6c.1 0 .14-.06.18-.12s-.05-.47-.23-.23a.6.6 0 0 0 .12.35zm.18-2.34a.42.42 0 0 0-.1-.07v.1h.1zm-.2 1a.92.92 0 0 0 0-.6.56.56 0 0 0-.2.46c.16.05.17.18.27.14zm-.26-.77v.38c.17 0 0-.23.1-.33a.1.1 0 0 0-.03-.05zm-.13-1.1a.1.1 0 0 0 .12 0 2.48 2.48 0 0 0-.08-.84 1.23 1.23 0 0 0 .03.83zm0-1.65v.26a.3.3 0 0 0 .05-.27zm.16 3.53v-.17a.07.07 0 0 0-.1.08.15.15 0 0 0 .16.08zm.2-1a.1.1 0 0 0 0-.12l.02-.23c-.12 0-.08.1-.08.14s-.02.2.1.16zm0-2.2c0-.2-.27 0-.25.13a4.47 4.47 0 0 1 .1 1.06 1.4 1.4 0 0 0-.06.44h.13c-.08-.26.15-.4.08-.64.33-.34 0-.66.1-1.03zm0-.55a.1.1 0 0 0-.13-.07c-.1 0 0 .13 0 .18s.22-.05.22-.15zm-.3-.6c-.4.14.06.43-.07.76a.85.85 0 0 0 .1-.53c.06 0 0 .17.12.1s.06-.28.1-.42a.18.18 0 0 0-.16-.13 1.1 1.1 0 0 0 0 .23zm.04 3.1a.35.35 0 0 0 0-.22l-.15.12a.12.12 0 0 0 .15.1zm-.2.17h-.07a.54.54 0 0 0-.05.4s0 .12.12.08.22-.35 0-.48zm.05 1.78V23l-.07.05h.1zm-.2.2a.07.07 0 0 0 0 .13s.05-.1 0-.12zm.8 3.82c-.17 0-.08.18-.18.22v.27h.05a.44.44 0 0 0 .07-.1.85.85 0 0 0 .04-.4zm-.2-.12V27a.07.07 0 0 0 0-.05zm.05-.05a.17.17 0 0 0 .16-.1.1.1 0 0 0-.15.1zm.24 3.1a.1.1 0 0 0-.1 0h.05zm-.3-.15h-.1a1.24 1.24 0 0 0-.08.66h.08a.18.18 0 0 0 .13-.17 3.53 3.53 0 0 1-.02-.48zm-.28 1.88c.13.14.13.48.34.43l-.25-.3a.54.54 0 0 1 .2-.36.25.25 0 0 0-.28.24zm.48.76a.22.22 0 0 0 .07-.3 1 1 0 0 0-.06.3zm0-.87a.3.3 0 0 0-.14.3c.2.05.1-.2.2-.26a.08.08 0 0 0-.04-.03zm-.38.88a1.83 1.83 0 0 1-.4-.16 5.17 5.17 0 0 1 .32.42 1 1 0 0 1-.1.47.14.14 0 0 0 .2 0c0-.14.2-.3 0-.44.1-.1.14.05.23 0a1.53 1.53 0 0 0-.22-.28zm-.3.56c.07 0 .06-.08.1-.12a.24.24 0 0 0-.2.1zm-.22-1.2a.4.4 0 0 0-.12-.36c-.18.13 0 .27 0 .43s.1-.06.14-.08zm.24-1.22a2.53 2.53 0 0 1-.3.8h.04a1.9 1.9 0 0 0 .36-.85.1.1 0 0 0-.08.04zM20.82 29a.92.92 0 0 1-.17.36c.17.1 0 .25 0 .4h.12c.1-.1 0-.28.12-.4S21 29 20.8 29zm-.15 1.78a.58.58 0 0 0 .2-.52.72.72 0 0 0-.27.52h.07zm.2-.83A.15.15 0 0 0 21 30v.36h.07a.28.28 0 0 0 .17-.15.56.56 0 0 0-.24-.5.24.24 0 0 0-.14.23zm.2-.86a.67.67 0 0 0 0 .47.13.13 0 0 0 .13-.06c-.08-.14.03-.4-.14-.43zm.2 2.18h-.07a.65.65 0 0 0-.24.5s.1 0 .12 0a1.36 1.36 0 0 0 .2-.52zm.3 1.18a4.58 4.58 0 0 0-.27-.38.28.28 0 0 0-.22-.12.93.93 0 0 0 .47.5zM21 32.1a.1.1 0 0 0-.1-.1v.1a.2.2 0 0 0 .1 0zm-.4-1.86c-.2 0-.23.23-.27.38a.13.13 0 0 0 .12.05c.2-.04.12-.32.17-.43zm-.2 1.4a4.52 4.52 0 0 0 .5-.7c.12-.2-.1-.16-.2-.1a.8.8 0 0 0-.18.4.9.9 0 0 1-.18.38.06.06 0 0 1 .07.02zm-1.4 1.6c.33-.52 1-.26 1.4-.66a.76.76 0 0 0 .4-.12 1.68 1.68 0 0 0-1 .07 5.84 5.84 0 0 0-.93.6.08.08 0 0 0 .13.12zm.64.37a.43.43 0 0 0 .44 0c.7 0 1.35-.1 2.08-.1.07-.06.22-.1.17-.27a.6.6 0 0 0-.5-.23 1.48 1.48 0 0 1 .25.26.77.77 0 0 1-.52-.14v.14a.33.33 0 0 1-.34.16c-.24-.24-.5.06-.73.07-.3-.28.23-.24.3-.4a.27.27 0 0 1-.1 0c-.3.1-.6.16-.87.3 0 0-.06-.06 0-.1a2.28 2.28 0 0 1 1.17-.5.5.5 0 0 0-.6-.06c-.2.35-.6.1-.86.3a1.1 1.1 0 0 1-.38.24c-.05.3.36.1.48.33zm2.8-.9c0-.1 0-.1-.1-.17s-.3-.3-.05-.37c.2.08.16.46.4.4l-.07-.2c0-.15-.26-.2-.12-.34l.15.12c.08 0 0 .13.14.1v-.06c.04-.26-.55-.33-.24-.6h-.07c-.25.17-.28-.2-.45-.32.06-.08.12 0 .2 0v-.1a.3.3 0 0 0-.3-.22c0 .08.06.2-.07.2l-.1-.32a.2.2 0 0 0-.13.1c-.17-.18.24-.27.12-.47a3.54 3.54 0 0 1-.3.24.23.23 0 0 0 0 .3 1.4 1.4 0 0 1 .85.88c.12.27-.35.3-.25.45 0-.05.05 0 .1 0a.38.38 0 0 1 .1.14c-.17 0-.15.26-.3.26a.32.32 0 0 0 .3.12s0 0 0-.05.07-.08.17-.1zm-.36-.85C22 31.87 22 32 22 32h.1c.06 0 0-.1-.02-.15zm.48 1.73l.13-.4a.34.34 0 0 0-.3-.23l.13.17a.6.6 0 0 1-.13.42.16.16 0 0 0 .16.04zm1.2-.4v-.1l-.1-.1c-.18-.1-.35-.4-.56-.28l.23.17s0 .07 0 .1a.52.52 0 0 1-.43-.2.23.23 0 0 0-.25.1.65.65 0 0 0 .28.18 5.6 5.6 0 0 1 .83.13zM23 32.4c.1 0 .1-.1.1-.13s-.14-.13-.2-.08.02.18.1.2zm1 .8h.13a2 2 0 0 0-.76-.85c-.06 0-.18.06-.1.17a4.2 4.2 0 0 1 .78.68zm-.2-1a.5.5 0 0 0 .2-.36c-.12-.06-.1-.3-.3-.23a.84.84 0 0 1 0 .4.7.7 0 0 0 .16.22zm-.27-.1c0-.07 0-.2-.12-.18s0 .16 0 .2a.1.1 0 0 0 .18-.02zm-.18-.4c.1 0 .1-.14.1-.24s-.23-.33-.37-.2a.5.5 0 0 1 .2.4.08.08 0 0 0 .13.04zm-.18 0v-.13c0-.06-.15-.12-.17 0a.26.26 0 0 0 .22.13zM23 32c.42-.15-.28-.33 0-.67a.45.45 0 0 0-.42-.33c-.2.3.13.4.23.63a.78.78 0 0 0 .2.37zm-.52-1.4c0-.16-.17-.17-.28-.2a2.36 2.36 0 0 0 .74.58 1 1 0 0 0-.48-.42zm-.06.6c.15-.17-.07-.3-.1-.44a3.87 3.87 0 0 1-.42-.25c-.1.28.42.35.5.67zm-.48-3.9a.52.52 0 0 0 .06-.5.07.07 0 0 1-.06 0 .6.6 0 0 0-.1.5h.07zm0-.96a.15.15 0 0 0 .06-.16.13.13 0 0 0-.22 0c.06.06.04.16.14.14zm-.15-.46a.12.12 0 0 0 .1 0 .14.14 0 0 0 .1-.13c-.16-.1-.18.06-.24.1zm.5-2v-.17a.67.67 0 0 0 .23.3.2.2 0 0 0 .12-.15.86.86 0 0 1-.26-.53c-.08-.15-.2 0-.28 0-.07.16.2.3.14.44a.15.15 0 0 0-.14-.07.16.16 0 0 0-.08.1.15.15 0 0 0 .23.04zm.52.12a.17.17 0 0 0 .23 0 .17.17 0 0 0-.26 0s-.02 0 .02 0zm.57.64c0 .07.04.08.08.07a.2.2 0 0 0-.1-.04zm.6.54c-.2 0 0 .14 0 .23-.2.2.16.12.12.3.18-.16-.12-.32-.12-.52zm-.23.7a.1.1 0 0 0 0 .1h.13v-.07a.17.17 0 0 0-.13-.02zm.05-1a.14.14 0 0 0-.15 0v.23h.1c.12-.04-.04-.1.05-.18zm-.15-.37s-.06 0-.1 0v.1h.08s.03-.03.02-.05zm-.12-.1c-.16 0-.1-.26-.3-.2s0-.15-.13-.1l.05.12c.17 0 .14.23.28.23s.08.04.1 0zm-.36.44a.37.37 0 0 0-.1-.43.67.67 0 0 0 0 .44zM22 22.38c-.22.15 0 .38.1.56a.6.6 0 0 0 .3.1 2.08 2.08 0 0 0-.4-.66zm.86.38c-.1.2.2.22.26.37s0 .26-.12.23a.93.93 0 0 1-.18-.25.34.34 0 0 1-.36 0 .63.63 0 0 0 .48.52.65.65 0 0 0 .45-.23.87.87 0 0 0-.54-.65zm-.86-.7c.05.08.1 0 .16 0s0 0-.08-.06zm.16-.34s-.08.08 0 .1.06 0 .1 0-.02-.1-.06-.1zm.2.74a.14.14 0 0 0-.14 0 3.15 3.15 0 0 0 .2.35c.08 0 .17 0 .2 0a1 1 0 0 0-.22-.34zm.23-.74c0-.06-.06-.12-.16-.1a.14.14 0 0 0 0 .2s.2-.05.2-.1zm.15 0v.14c.12.12.15.27.35.2V22a.5.5 0 0 0-.3-.3zm-.27-1.32a.33.33 0 0 0 0 .18c.13.1.2-.05.23-.13l.07.4a.2.2 0 0 0 .12 0 .24.24 0 0 0 .1-.27l-.17-.28a.77.77 0 0 0-.35.1zm.76 1.4a.55.55 0 0 0-.24-.27v.16a.3.3 0 0 0 .24.1zm.34-1c-.05-.1-.3-.3-.22 0a.5.5 0 0 1 0 .3c.06-.1.26-.1.22-.26zm-.15-1.24s0 .15.08.12.1 0 .08-.07a.14.14 0 0 0-.15 0zm.15.5a.15.15 0 0 0-.1 0s.08.05.1.02zm0 .15c-.08 0-.2-.12-.25 0a.24.24 0 0 0 .18.2.2.2 0 0 0 .25 0 .33.33 0 0 0-.2-.16zm-.44.3a.78.78 0 0 1-.14.5.05.05 0 0 0 .07.07.3.3 0 0 0 .22-.35.22.22 0 0 0-.2-.2zm0-.78c.1 0 .1-.06.12-.1a.4.4 0 0 0-.34-.26v.07c0 .15 0 .3.2.32zm-.6-.6v.16a1.2 1.2 0 0 1 .3.63c.06.08.04.2.18.15s-.07-.23-.1-.34a.82.82 0 0 0-.42-.54zm-.07.37a.65.65 0 0 0 .2.52.1.1 0 0 0 .07-.14.92.92 0 0 0-.3-.36zm-.17.2c-.2.06.06.2 0 .3.07 0 .07.15.17.12a.5.5 0 0 0 0-.26.24.24 0 0 0-.2-.12zm-.3-1.17c-.08 0 0 .1 0 .16a2.57 2.57 0 0 1 .23.58.15.15 0 0 0 .14.07 2.3 2.3 0 0 0-.17-.65s0-.08 0-.1a.13.13 0 0 0-.2-.07zm-.14.47c.1.1 0 .33.2.33v-.1c-.06-.12 0-.36-.2-.23zm0 1.43c.1 0 0 .12.06.2a.8.8 0 0 0 .44.4c.18 0 .3.33.46.12a.2.2 0 0 0 0-.13.43.43 0 0 0-.3-.12.18.18 0 0 1-.1-.23c.13-.33-.28-.42-.24-.76-.07-.1 0-.33-.24-.3a3.08 3.08 0 0 0-.08.78zm-.07.25c-.16.05 0 .22 0 .35.18.1 0 .43.3.3a.46.46 0 0 1 .07.26h.13a.5.5 0 0 0-.16-.46 2.75 2.75 0 0 1-.35-.5zm.52-4.12c.2 0 .24.35.45.18a.65.65 0 0 0-.55-.4.4.4 0 0 0 .1.16zm-.24.12c.2.1.2.35.43.48a.7.7 0 0 0 .2 0c.1-.1 0-.18-.07-.23a3 3 0 0 1-.43-.3s-.2-.1-.12 0zm-.4-1.15a1 1 0 0 0 .05.25c0 .1.15 0 .2 0s-.14-.47-.26-.3zm-.44-.6c.17.07.1-.16.2-.2a1.3 1.3 0 0 0 .1.47c.26-.13-.05-.33 0-.56-.23.1 0-.24-.18-.27a.55.55 0 0 0-.1.5zm0 .55l.13-.17a.2.2 0 0 0-.05-.3.8.8 0 0 0-.05.43zm.76.63a.13.13 0 0 0-.2-.04.56.56 0 0 1-.25-.6v-.1c-.23.08 0 .34-.08.53h-.17v.1a.5.5 0 0 0 0 .44.23.23 0 0 1-.26.07l.07-.2c-.23-.14-.1.23-.27.3l.17.1c.13.12 0 .23 0 .35a2.9 2.9 0 0 1 .12.74.2.2 0 0 0 .2-.07.34.34 0 0 0 0-.28.34.34 0 0 1 0-.44s.06 0 .1.1a5.67 5.67 0 0 0 .17-.57s0 .2.15.14a.53.53 0 0 0 .12-.4.3.3 0 0 0 .2 0S22 16.1 22 16.1zm-.43-4.65a.08.08 0 0 0-.06.12c.07 0 .13.1.2 0a.28.28 0 0 0-.15-.12zm-.3.05a2.13 2.13 0 0 0 .2.9c.08 0 .18 0 .22 0a.88.88 0 0 1-.24-.66.63.63 0 0 0-.37-.5c-.1.12.12.14.15.26zm0-1.94a.76.76 0 0 0-.1.5.62.62 0 0 0 .27-.43.1.1 0 0 0-.17-.07zm-.1.85a.18.18 0 0 0 .08.2.22.22 0 0 0 .13 0c.06-.2-.1-.3-.2-.2zm.28-.4a.43.43 0 0 0 .1.46.15.15 0 0 0 .2 0 1.3 1.3 0 0 0-.3-.46zm.28 0v-.06c-.07 0-.06-.15-.15-.12v.13a.1.1 0 0 0 .15.05zm.37.23a.6.6 0 0 0-.24-.5.23.23 0 0 0-.07.22.55.55 0 0 0 .3.3zm-.6-.84a.45.45 0 0 0 .14.27.36.36 0 0 0 .12-.18c-.04-.1-.2-.34-.26-.1zm-.1-.23c.32 0 0-.2.06-.32-.34-.22 0 .27-.26.32a.15.15 0 0 0 .07.14c.2.05 0-.1.13-.13zm-.68 1.13h.06a1.56 1.56 0 0 1-.13.44h.07c.06-.1.22-.14.17-.25.1-.13 0-.35.1-.47a2.43 2.43 0 0 1 .13-.56.65.65 0 0 0-.33.4.22.22 0 0 0 0 .1l-.06.24s-.13-.13-.2-.06.08.1.07.18a.1.1 0 0 0 .12-.02zm-1.9 2.7a.56.56 0 0 0-.34.23.4.4 0 0 0 .34-.23zm-.05.35c0 .1.1 0 .15 0a.4.4 0 0 0 .08-.17.1.1 0 0 0-.1 0 .3.3 0 0 0-.13.14zm.6-.43c.1-.17.2 0 .33 0a.2.2 0 0 0 .12-.23.36.36 0 0 0-.34-.08 1 1 0 0 0-.48.27.47.47 0 0 0 .36-.02zm.54-.4c.3.14.34-.48.65-.22a.18.18 0 0 0 .12-.2.26.26 0 0 0-.2-.1.76.76 0 0 0-.56.47zm.23.37a.14.14 0 0 0 .2 0 1.2 1.2 0 0 1 .1-.43.24.24 0 0 0-.25.12c.05.06-.18.13-.05.26zm.17.1a.13.13 0 0 0-.05.13h.07a.2.2 0 0 0 .1-.1.1.1 0 0 0-.12-.03zm.26.48a.4.4 0 0 0 .2-.27c-.2-.14-.26.13-.3.26zm.3-1.55a2.62 2.62 0 0 1-.37.67c0 .12 0 .37.13.4s0-.25 0-.38a3.67 3.67 0 0 1 .37-.42c-.08-.1.06-.36-.16-.3zm.23 1s.05 0 .06 0a1.9 1.9 0 0 1 .17-.57.44.44 0 0 1-.07-.2c-.06 0-.1-.1-.17 0a.7.7 0 0 1-.13.52.32.32 0 0 0 .1.22zm.06.35a.92.92 0 0 0-.2.42 1.92 1.92 0 0 1-.23.77h.07a1.35 1.35 0 0 0 .3-.67c-.1-.22.1-.35.05-.55zm-.26 1.5h.05c.05-.05.2-.14.12-.25a.17.17 0 0 0-.18.22zm-.45 0h-.1v.12a.1.1 0 0 0 .1-.1zm-.72.28a.17.17 0 0 0-.12.12.12.12 0 0 0 .23-.1.4.4 0 0 1-.1 0zm-.6.74h.12s-.12-.06-.12.02zm-.2.32a.15.15 0 0 0-.23 0 .34.34 0 0 0-.12.3c.22.02.2-.24.36-.3zm0 .18a1.63 1.63 0 0 1-.37.46.42.42 0 0 0 .3-.1.8.8 0 0 0 0-.22.22.22 0 0 0 .18 0c.2-.07.02-.36-.04-.12zm.5-.32c-.3 0-.1.3-.23.46a.15.15 0 0 0 .12 0 .47.47 0 0 0 .3-.37.2.2 0 0 0-.16-.07zm.27.34c.2 0 .14-.17.22-.26h-.05a1.4 1.4 0 0 0-.15.28zm.95-.67c.3 0 0-.28.22-.36a1.4 1.4 0 0 1 .07.42h.08a5.12 5.12 0 0 0 .1-1 1.5 1.5 0 0 0-.17.35v.07a.06.06 0 0 1-.07.07 1.64 1.64 0 0 0-.17-.36.14.14 0 0 0-.13.07c-.14.1.06.13.1.22a.6.6 0 0 1-.08.44s.1.05.07.1zm-.95 0c0 .06-.18.16-.05.23.36 0 .28-.4.46-.58a.8.8 0 0 1-.1.48h.06a.35.35 0 0 0 .2-.2c.05 0 0 .13.07.16a.35.35 0 0 0 .25-.23v-.25c-.05 0-.14 0-.17 0-.1-.1.1-.14 0-.25s-.17.06-.25.1.06-.2 0-.26h-.1a.17.17 0 0 0-.12.1.44.44 0 0 0 0 .36c.07.28-.15.36-.2.42zm.78 1.57a.58.58 0 0 0 .08-.48 1.7 1.7 0 0 0-.2.3c.06.14.03.26.14.25zm0-.74h.12c.08-.16.2-.27.3-.46a.56.56 0 0 0-.37.52zm.26.38l-.07.14a.12.12 0 0 0 0 .1.2.2 0 0 0 .1 0c.07-.1.1-.18.02-.18zM20.67 20c.06 0 .12 0 .1-.15s0-.2-.15-.1 0 .25.1.3zm0 1a.77.77 0 0 0 .2-.5 1 1 0 0 1 .18-.4v-.18c-.38-.05-.1.37-.3.53a2 2 0 0 1-.1.4c0 .05-.04.15.05.22zm-.22-2a.14.14 0 0 0 0 .2h.14a.12.12 0 0 0-.12-.12zm.12 3a.14.14 0 0 0 .1-.15 3.64 3.64 0 0 1-.1-.53c-.07-.07-.12 0-.16.06a1.18 1.18 0 0 1-.06.4.27.27 0 0 0 .26.22zm-.28.87h-.06.05a0 0 0 0 0 0 .05zm-.08-1.24a1 1 0 0 0 .2-.47.37.37 0 0 0-.18.5zm.17 1.1c.27 0 0-.22.16-.32s-.16-.14-.2-.1a.62.62 0 0 0 .05.48zm.3.07a1.23 1.23 0 0 0-.07.62.6.6 0 0 0-.07.38.14.14 0 0 0 .14.06 4.65 4.65 0 0 0 .14-1 .14.14 0 0 0-.12-.02zm0 2.76h-.1a1.28 1.28 0 0 0-.07.53.6.6 0 0 0 .2-.5zm0 1.34a.1.1 0 0 0-.12 0 .38.38 0 0 0-.1.2h.08a.15.15 0 0 0 .16-.15zm-.24 1.3l.07.06a.1.1 0 0 0 .07-.12c-.02-.07-.13.07-.12.12zm.12 1.47c-.07-.07.06-.27-.12-.23a.6.6 0 0 0-.12.53c.2.03.2-.15.26-.25zm-.47 1c.08 0 .16-.07.12-.14a.22.22 0 0 0-.18.1s.05.12.1.1zM18.68 32a.24.24 0 0 0 .16-.23.34.34 0 0 0-.22.2s.06.1.1.1zm-2.24.5a.93.93 0 0 1 .76.1 1.15 1.15 0 0 0 .9-.43.38.38 0 0 0 .27-.13.2.2 0 0 0-.23.07 4.16 4.16 0 0 0-.6.37.26.26 0 0 1-.27 0 .6.6 0 0 0 .3-.16 4 4 0 0 0-.53.12.9.9 0 0 0-.6.14zm-.33.63a1.48 1.48 0 0 1 1.22-.27c.36.22.47-.3.76-.3a1.14 1.14 0 0 1 .92-.26.64.64 0 0 0 .4-.6.78.78 0 0 1 .4-.5 2.5 2.5 0 0 1 .46 0c.08-.06.2-.15.12-.28a1.7 1.7 0 0 0-.56.17c-.38 0-.32.42-.6.56.14.1-.08.23-.07.36a1.77 1.77 0 0 0-.4.3.4.4 0 0 0-.44.08.94.94 0 0 0-.58.4c-.23-.1-.3.17-.55.08a.77.77 0 0 0-.7-.1c-.15.37-.55.13-.8.33.02.16.33.05.45.1zm3.68-2.33c-.13-.1-.2.06-.3.07-.44.16-.3.6-.52.9.18.06.12-.15.22-.23l.05-.3a1.22 1.22 0 0 1 .57-.36zm-4.1 1.95a.83.83 0 0 0 .52-.1s-.1-.08-.14 0c-.22.1-.54-.1-.6.18a.27.27 0 0 0 .24 0zm-.92.4a2.92 2.92 0 0 0 .58.12v-.07a1 1 0 0 0-.56.03zm.65-.16c-.08-.14-.26 0-.37-.18a.28.28 0 0 0-.35.05 2 2 0 0 0 .68.24.1.1 0 0 0 .07-.04zm.13.2a.85.85 0 0 1-.12.3.53.53 0 0 0 .32.12 1 1 0 0 0 .28-.25.72.72 0 0 0-.45-.1zm2.72.9a6.2 6.2 0 0 0 1.2-.45c-.2-.14-.47-.18-.67-.32-.4-.12-.87-.15-1.3-.27a1.76 1.76 0 0 0-1.25.17.92.92 0 0 0 .55.1 1.23 1.23 0 0 1 1.17.06 4 4 0 0 1 .8.06.46.46 0 0 1 .3.2c-.16.16-.25-.1-.42 0a7.3 7.3 0 0 1-1.5-.28 1 1 0 0 1-.8.1.3.3 0 0 0-.4.18.62.62 0 0 0 .47.3 3.3 3.3 0 0 1 .4-.3 2.93 2.93 0 0 1 1 0c.24 0 .54 0 .8.07a.2.2 0 0 1 .07.12 1.82 1.82 0 0 1-.78 0c-.3-.23-.62.16-.9-.08a.47.47 0 0 0-.3.24.7.7 0 0 0 .76 0 1.18 1.18 0 0 1 .8.18zm-.8.18a.42.42 0 0 0 .55-.04.4.4 0 0 0-.5.1zm2.75.08a2.17 2.17 0 0 0-.58.35 1.2 1.2 0 0 0 .62.1.7.7 0 0 1 .47-.14c.2 0 .4.33.5 0-.37.16-.58-.28-.97-.22zm2.45.35c-.46.23-1-.25-1.36.15a7.08 7.08 0 0 0 1.27 0s.13 0 .1-.1zm.14-.28a5.4 5.4 0 0 0-1.87 0l.07.12c.53-.16 1 .28 1.47.1.36-.2.5.33.84.15v-.16a.92.92 0 0 0-.48-.15zm.72.3a.1.1 0 0 0 .1-.06h-.1v.08zm-.16-.56a5.58 5.58 0 0 0-1.2-.16c-.25.1-.5 0-.76.1a2.88 2.88 0 0 0-1.25.04 1 1 0 0 0-.85.24 1 1 0 0 0-.55.2A1.45 1.45 0 0 0 20 34.3c.75.06 1.47-.1 2.24 0a1.45 1.45 0 0 1 1 .1c.36 0 .5.53.84.28a.85.85 0 0 0-.7-.45zm.9.4s.1 0 .1 0l-.07-.07s-.05.1 0 .14zm.1-.52c-.27 0-.53-.15-.78-.17a2.83 2.83 0 0 0-1.07-.14l-.32-.1a3.12 3.12 0 0 0-1.53.1 1.55 1.55 0 0 0-1 0 6.24 6.24 0 0 1-1 .42 4 4 0 0 1-.67.25c.43.33.75-.18 1.15-.2.38-.42 1-.1 1.43-.36.74.1 1.4-.23 2.08 0a4 4 0 0 1 1.67.45.55.55 0 0 0 .58.1.74.74 0 0 0-.5-.3zm-1-.54h-.1a.68.68 0 0 0-.46 0c.12.33.45.06.74.15a3.4 3.4 0 0 0 1 .3c.3 0 .38.5.7.42a.63.63 0 0 0-.12-.3 3.82 3.82 0 0 0-1.74-.5zm2 .6c0 .1.13.2.2.13s-.1-.1-.2-.05zm2.3-1a2.7 2.7 0 0 0-1.28-.38l-.3-.17c-.23-.1 0 .25-.22.2a.46.46 0 0 0-.07.23.82.82 0 0 1 .42.1c-.2.24-.54-.1-.8.1s-.46-.1-.54.17c.1.14.36.12.32.3a2.73 2.73 0 0 0-1.12-.34c-.15-.1-.3 0-.43-.08a1.45 1.45 0 0 0-.8 0h.06a6 6 0 0 1 2 .5 2 2 0 0 1 .72.35.33.33 0 0 0 .36 0c-.1-.34-.44-.13-.68-.3 0-.15.14-.05.2-.1a1.34 1.34 0 0 1 .66.1.56.56 0 0 0 .56 0 3.73 3.73 0 0 0-1-.25 1.87 1.87 0 0 0-.52-.07.1.1 0 0 1 0-.15.65.65 0 0 1 .63.07 1.3 1.3 0 0 1 .52.14.9.9 0 0 0 .7.1.76.76 0 0 0-.42-.23.3.3 0 0 1-.23-.2c.13-.12.25 0 .4 0a.73.73 0 0 0 .65.23 2.1 2.1 0 0 0-1.1-.45c-.12-.1-.37 0-.43-.17a2.8 2.8 0 0 1 1.38.4c.16 0 .34.3.46 0a.6.6 0 0 0-.1.04z" class="cls-1"/></svg>