<?xml version="1.0" encoding="utf-8"?>
<!-- Generator: Adobe Illustrator 16.0.4, SVG Export Plug-In . SVG Version: 6.00 Build 0)  -->
<!DOCTYPE svg PUBLIC "-//W3C//DTD SVG 1.1//EN" "http://www.w3.org/Graphics/SVG/1.1/DTD/svg11.dtd">
<svg version="1.1" id="Layer_1" xmlns="http://www.w3.org/2000/svg" xmlns:xlink="http://www.w3.org/1999/xlink" x="0px" y="0px"
	 width="217px" height="40.732px" viewBox="25.667 20.331 217 40.732" enable-background="new 25.667 20.331 217 40.732"
	 xml:space="preserve">
<g>
	<path fill="#990000" d="M37.576,55.077V25.995h9.844c3.685,0,6.426,0.713,8.223,2.139c1.797,1.426,2.695,3.61,2.695,6.553
		c0,1.888-0.462,3.464-1.387,4.727c-0.925,1.263-2.253,2.136-3.984,2.617l6.445,13.047h-5.879L47.927,43.28h-5v11.797H37.576z
		 M42.927,38.671h4.766c1.758,0,3.05-0.325,3.877-0.977c0.827-0.651,1.24-1.673,1.24-3.066c0-1.38-0.414-2.396-1.24-3.047
		c-0.827-0.651-2.119-0.977-3.877-0.977h-4.766V38.671z"/>
	<path fill="#990000" d="M66.811,55.077V25.995h18.887v4.727H72.26v6.875h9.785v4.648H72.26v7.871h14.023v4.961H66.811z"/>
	<path fill="#990000" d="M97.976,43.007v-5.605h5.488v5.605H97.976z M97.976,55.077v-5.605h5.488v5.605H97.976z"/>
	<path fill="#990000" d="M117.058,55.077V28.925h-8.438v-2.773h20.156v2.773h-8.438v26.152H117.058z"/>
	<path fill="#990000" d="M135.982,55.077V26.151h3.146v12.363h14.531V26.151h3.163v28.926h-3.163v-13.77h-14.531v13.77H135.982z"/>
	<path fill="#990000" d="M167.17,55.077V26.151h3.242v28.926H167.17z"/>
	<path fill="#990000" d="M180.782,55.077V26.151h4.551l13.281,22.559V26.151h3.008v28.926h-2.479L183.77,29.472v25.605H180.782z"/>
	<path fill="#990000" d="M211.97,55.077V26.151h3.163v15.254l12.188-15.254h3.535l-9.043,11.133l10.312,17.793h-3.711l-8.69-15.312
		l-4.591,5.585v9.728L211.97,55.077L211.97,55.077z"/>
</g>
<rect x="25.667" y="20.331" fill="#CACACA" width="217" height="2"/>
<rect x="25.667" y="59.063" fill="#CACACA" width="217" height="2"/>
</svg>
