<?xml version="1.0" encoding="utf-8"?>
<!-- Generator: Adobe Illustrator 16.0.0, SVG Export Plug-In . SVG Version: 6.00 Build 0)  -->
<!DOCTYPE svg PUBLIC "-//W3C//DTD SVG 1.1//EN" "http://www.w3.org/Graphics/SVG/1.1/DTD/svg11.dtd">
<svg version="1.1" id="Layer_1" xmlns="http://www.w3.org/2000/svg" xmlns:xlink="http://www.w3.org/1999/xlink" x="0px" y="0px"
	 width="86.833px" height="109.167px" viewBox="0 0 86.833 109.167" enable-background="new 0 0 86.833 109.167"
	 xml:space="preserve">
<path fill="#990000" d="M42.657,59.749c-4.543,0-8.24-3.696-8.24-8.239c0-4.543,3.697-8.239,8.24-8.239
	c4.543,0,8.239,3.696,8.239,8.239C50.896,56.052,47.2,59.749,42.657,59.749z M42.657,46.379c-2.829,0-5.131,2.301-5.131,5.13
	s2.302,5.13,5.131,5.13c2.828,0,5.13-2.301,5.13-5.13S45.485,46.379,42.657,46.379z"/>
<path fill="#990000" d="M50.553,65.899c-0.642,0-1.268-0.332-1.614-0.928l-3.526-6.062c-0.518-0.891-0.216-2.032,0.675-2.551
	c0.891-0.518,2.031-0.216,2.55,0.675l3.527,6.062c0.518,0.89,0.216,2.031-0.675,2.55C51.194,65.816,50.871,65.899,50.553,65.899z"/>
</svg>
