<?xml version="1.0" encoding="utf-8"?>
<!-- Generator: Adobe Illustrator 16.0.4, SVG Export Plug-In . SVG Version: 6.00 Build 0)  -->
<!DOCTYPE svg PUBLIC "-//W3C//DTD SVG 1.1//EN" "http://www.w3.org/Graphics/SVG/1.1/DTD/svg11.dtd">
<svg version="1.1" id="Layer_1" xmlns="http://www.w3.org/2000/svg" xmlns:xlink="http://www.w3.org/1999/xlink" x="0px" y="0px"
	 width="86.833px" height="109.167px" viewBox="0 0 86.833 109.167" enable-background="new 0 0 86.833 109.167"
	 xml:space="preserve">
<path fill="#FFFFFF" d="M42.657,59.75c-4.543,0-8.24-3.697-8.24-8.24c0-4.543,3.697-8.239,8.24-8.239
	c4.542,0,8.239,3.696,8.239,8.239C50.896,56.052,47.2,59.75,42.657,59.75z M42.657,46.379c-2.829,0-5.131,2.301-5.131,5.13
	c0,2.829,2.302,5.13,5.131,5.13c2.828,0,5.13-2.301,5.13-5.13C47.788,48.68,45.485,46.379,42.657,46.379z"/>
<path fill="#FFFFFF" d="M50.553,65.899c-0.643,0-1.268-0.332-1.614-0.928l-3.526-6.062c-0.518-0.892-0.216-2.033,0.676-2.552
	c0.891-0.519,2.031-0.216,2.55,0.675l3.526,6.062c0.519,0.89,0.217,2.031-0.674,2.55C51.194,65.816,50.872,65.899,50.553,65.899z"/>
</svg>
